<svg xmlns="http://www.w3.org/2000/svg" width="200" height="200" fill="none" xmlns:v="https://vecta.io/nano"><g filter="url(#A)"><circle cx="100" cy="100" r="75" fill="#25c096"/></g><path d="M119.92 66.143a2.78 2.78 0 0 1 3.928 0l11.785 11.785a2.78 2.78 0 0 1 0 3.928 2.78 2.78 0 0 1-3.928 0L119.92 70.072a2.78 2.78 0 0 1 0-3.928z" fill="#33d87d"/><path d="M85.543 99.486a10.13 10.13 0 0 0-2.66 4.443l-.001.004-4.984 16.485c-.627 2.074 1.365 4.08 3.443 3.47l16.567-4.874a10.12 10.12 0 0 0 4.522-2.684l41.32-41.318c3.485-3.485-1.97-10.387-4.284-12.698-2.32-2.32-9.1-7.647-12.58-4.166l-41.34 41.34zm53.506-27.634l-40.464 40.464c-.764.764-1.324 1.096-2.36 1.4l-11.523 3.4 3.463-11.454c.307-1.016.64-1.57 1.4-2.32l40.518-40.518c3.692.513 8.43 5.384 8.977 9.037zM74.9 62.9h23.593a2.78 2.78 0 0 1 2.778 2.778 2.78 2.78 0 0 1-2.778 2.778H75c-4.623 0-5.556.932-5.556 5.556v52.778c0 4.623.932 5.555 5.556 5.555h50c4.623 0 5.556-.932 5.556-5.555v-22.062a2.78 2.78 0 0 1 2.777-2.778 2.78 2.78 0 0 1 2.778 2.778v22.15c0 7.38-3.642 11.022-11.022 11.022H74.9c-7.38 0-11.022-3.642-11.022-11.022V73.9c0-7.38 3.642-11.022 11.022-11.022z" fill-rule="evenodd" fill="#f5fffa"/><defs><filter id="A" x="0" y="0" width="200" height="200" filterUnits="userSpaceOnUse" color-interpolation-filters="sRGB"><feFlood flood-opacity="0" result="A"/><feColorMatrix in="SourceAlpha" values="0 0 0 0 0 0 0 0 0 0 0 0 0 0 0 0 0 0 127 0"/><feOffset dx="10" dy="10"/><feGaussianBlur stdDeviation="7.5"/><feColorMatrix values="0 0 0 0 0.682353 0 0 0 0 0.682353 0 0 0 0 0.752941 0 0 0 0.4 0"/><feBlend in2="A" result="B"/><feColorMatrix in="SourceAlpha" values="0 0 0 0 0 0 0 0 0 0 0 0 0 0 0 0 0 0 127 0"/><feOffset dx="-10" dy="-10"/><feGaussianBlur stdDeviation="7.5"/><feColorMatrix values="0 0 0 0 1 0 0 0 0 1 0 0 0 0 1 0 0 0 1 0"/><feBlend in2="B"/><feBlend in="SourceGraphic"/></filter></defs></svg>