<svg xmlns="http://www.w3.org/2000/svg" width="200" height="200" fill="none" xmlns:v="https://vecta.io/nano"><g filter="url(#A)"><circle cx="100" cy="100" r="75" fill="#24be99"/></g><g fill="#f5fffa"><path fill-rule="evenodd" d="M107.556 64.668l-27.778-.002c-4.623 0-5.556.932-5.556 5.555v61.11c0 4.623.932 5.556 5.556 5.556h44.444c4.623 0 5.556-.933 5.556-5.556 0-1.892.312-4.166 2.778-4.166 2.515 0 2.777 2.343 2.777 4.255 0 7.38-3.64 11.023-11.022 11.022H79.69c-7.38.001-11.022-3.64-11.022-11.022v-61.29c0-7.38 3.64-11.022 11.02-11.022h27.387c3.1-.002 5.342.93 7.526 3.116l.002.002 17.613 17.613c2.137 2.134 3.12 4.44 3.12 7.523l-.001 7.162a2.78 2.78 0 0 1-2.777 2.778 2.78 2.78 0 0 1-2.778-2.778l-.002-7.64H115.89c-4.602 0-8.333-3.73-8.333-8.333V64.668zm18.293 16.665L113.11 68.595v9.96a2.78 2.78 0 0 0 2.778 2.778h9.96z"/><path d="M82.556 95.222a2.78 2.78 0 0 1 2.778-2.778h33.334a2.78 2.78 0 0 1 2.777 2.778A2.78 2.78 0 0 1 118.667 98H85.333a2.78 2.78 0 0 1-2.778-2.778zm2.777-13.89a2.78 2.78 0 0 0-2.778 2.778 2.78 2.78 0 0 0 2.778 2.778h11.1a2.78 2.78 0 0 0 2.778-2.778 2.78 2.78 0 0 0-2.778-2.778h-11.1z"/></g><path fill-rule="evenodd" d="M105.704 116.287a2.78 2.78 0 0 1 3.928 0l6.63 6.63 15.223-15.224a2.78 2.78 0 0 1 3.928 0 2.78 2.78 0 0 1 0 3.929l-17.187 17.187a2.78 2.78 0 0 1-3.929 0l-8.593-8.594a2.78 2.78 0 0 1 0-3.928z" fill="#33d87d"/><defs><filter id="A" x="0" y="0" width="200" height="200" filterUnits="userSpaceOnUse" color-interpolation-filters="sRGB"><feFlood flood-opacity="0" result="A"/><feColorMatrix in="SourceAlpha" values="0 0 0 0 0 0 0 0 0 0 0 0 0 0 0 0 0 0 127 0"/><feOffset dx="10" dy="10"/><feGaussianBlur stdDeviation="7.5"/><feColorMatrix values="0 0 0 0 0.682353 0 0 0 0 0.682353 0 0 0 0 0.752941 0 0 0 0.4 0"/><feBlend in2="A" result="B"/><feColorMatrix in="SourceAlpha" values="0 0 0 0 0 0 0 0 0 0 0 0 0 0 0 0 0 0 127 0"/><feOffset dx="-10" dy="-10"/><feGaussianBlur stdDeviation="7.5"/><feColorMatrix values="0 0 0 0 1 0 0 0 0 1 0 0 0 0 1 0 0 0 1 0"/><feBlend in2="B"/><feBlend in="SourceGraphic"/></filter></defs></svg>