<svg xmlns="http://www.w3.org/2000/svg" width="200" height="200" fill="none" xmlns:v="https://vecta.io/nano"><g filter="url(#A)"><circle cx="100" cy="100" r="75" fill="#26c195"/></g><path d="M98.9 56.1c7 0 11.2 3.95 11.2 11.022v55.645a2.78 2.78 0 0 1-2.778 2.778 2.78 2.78 0 0 1-2.777-2.778V67.222c0-4.623-.933-5.556-5.556-5.556s-5.555.932-5.555 5.556v55.556a2.78 2.78 0 0 1-2.778 2.778 2.78 2.78 0 0 1-2.778-2.778V67.133c0-7.38 3.64-11.023 11.022-11.022zM71.133 78.333c-7.38 0-11.022 3.642-11.022 11.022v33.422a2.78 2.78 0 0 0 2.778 2.778 2.78 2.78 0 0 0 2.778-2.778V89.444c0-4.623.932-5.555 5.555-5.555s5.556.932 5.556 5.555v33.334a2.78 2.78 0 0 0 2.778 2.778 2.78 2.78 0 0 0 2.778-2.778V89.356c0-7.5-3.748-11.022-11.2-11.022zM62.9 133.9a2.78 2.78 0 0 0-2.778 2.778 2.78 2.78 0 0 0 2.778 2.777h72.222a2.78 2.78 0 0 0 2.778-2.777 2.78 2.78 0 0 0-2.778-2.778H62.9z" fill="#fff"/><path d="M126.69 92.222c-7.38 0-11.022 3.642-11.022 11.022v19.534c0 1.534 1.243 2.777 2.777 2.777s2.778-1.243 2.778-2.777v-19.445c0-4.623.933-5.555 5.556-5.555s5.555.932 5.555 5.555v19.445a2.78 2.78 0 0 0 2.778 2.777 2.78 2.78 0 0 0 2.778-2.777v-19.534c0-7.073-4.2-11.022-11.2-11.022z" fill="#33d87d"/><defs><filter id="A" x="0" y="0" width="200" height="200" filterUnits="userSpaceOnUse" color-interpolation-filters="sRGB"><feFlood flood-opacity="0" result="A"/><feColorMatrix in="SourceAlpha" values="0 0 0 0 0 0 0 0 0 0 0 0 0 0 0 0 0 0 127 0"/><feOffset dx="10" dy="10"/><feGaussianBlur stdDeviation="7.5"/><feColorMatrix values="0 0 0 0 0.682353 0 0 0 0 0.682353 0 0 0 0 0.752941 0 0 0 0.4 0"/><feBlend in2="A" result="B"/><feColorMatrix in="SourceAlpha" values="0 0 0 0 0 0 0 0 0 0 0 0 0 0 0 0 0 0 127 0"/><feOffset dx="-10" dy="-10"/><feGaussianBlur stdDeviation="7.5"/><feColorMatrix values="0 0 0 0 1 0 0 0 0 1 0 0 0 0 1 0 0 0 1 0"/><feBlend in2="B"/><feBlend in="SourceGraphic"/></filter></defs></svg>