<svg xmlns="http://www.w3.org/2000/svg" xmlns:xlink="http://www.w3.org/1999/xlink" viewBox="0 0 1212.27 79.21" xmlns:v="https://vecta.io/nano"><style><![CDATA[.S{fill:#fff}.T{fill:none}.U{stroke:#fff}.V{fill-rule:evenodd}.W{stroke-width:.21}.X{stroke-miterlimit:2.61}.Y{stroke-width:.22}.Z{fill:#ec1c2e}.a{fill:#fbb231}.b{fill:#13457c}]]></style><rect y=".13" width="125.43" height="78.39" rx="4.18" fill="#3957a7"/><path d="M57.72 51.1H51.6l3.83-23.54h6.13L57.72 51.1zM46.44 27.57l-5.84 16.2-.7-3.5-2.07-10.58a2.62 2.62 0 0 0-2.91-2.12h-9.66l-.1.4a22.87 22.87 0 0 1 6.41 2.69L36.9 51.1h6.38l9.75-23.53h-6.58zm48.2 23.53h5.62l-4.9-23.53h-4.9a2.82 2.82 0 0 0-2.83 1.75L78.44 51.1h6.4l1.28-3.5h7.8zm-6.74-8.32l3.22-8.8 1.8 8.8h-5zm-8.95-9.55l.87-5.05a17.69 17.69 0 0 0-5.51-1c-3 0-10.26 1.33-10.26 7.8 0 6.08 8.48 6.16 8.48 9.35s-7.6 2.62-10.1.6l-.9 5.28a17.16 17.16 0 0 0 6.94 1.28c4.18 0 10.5-2.17 10.5-8.06 0-6.12-8.55-6.7-8.55-9.35s5.94-2.3 8.56-.85z" class="S"/><path d="M39.9 40.27L37.84 29.7a2.62 2.62 0 0 0-2.91-2.12h-9.66l-.1.4a23.74 23.74 0 0 1 9.09 4.56 18.36 18.36 0 0 1 5.65 7.74z" fill="#f9a533"/><rect x="620.62" width="125.43" height="78.39" rx="4.18" fill="#1c3663"/><g class="S"><path d="M681.25 34.44a1.79 1.79 0 0 0-1.31.8l-3.3 5.64c-.16.28-.32.1-.35 0l-.93-5.6a1.15 1.15 0 0 0-1.14-.82h-1.87a.62.62 0 0 0-.63.8l1.7 10a2.07 2.07 0 0 1 0 1.24l-1.85 3.22c-.27.44-.12.8.32.8h2.16a1.75 1.75 0 0 0 1.31-.79l8.32-14.07s.8-1.2.06-1.2h-2.5M655 37.3a4.39 4.39 0 0 1-2.63.69h-.5a.63.63 0 0 1-.64-.8l.63-2.7a1.06 1.06 0 0 1 1-.79h.68a3.3 3.3 0 0 1 1.81.41 1.36 1.36 0 0 1 .6 1.24 2.25 2.25 0 0 1-.94 2m4.5-4.18a3.12 3.12 0 0 0-1.14-1.23 5.26 5.26 0 0 0-1.81-.67 15.11 15.11 0 0 0-2.46-.2h-4.36a1.09 1.09 0 0 0-1 .79l-2.94 12.78a.62.62 0 0 0 .63.8h2.1a1.07 1.07 0 0 0 1-.8l.72-3.1a1.07 1.07 0 0 1 1-.79h.6a9.9 9.9 0 0 0 6-1.57 4.88 4.88 0 0 0 2.13-4.14 3.86 3.86 0 0 0-.4-1.88m10 1.8a8 8 0 0 0-3.73-.67 16.47 16.47 0 0 0-2.53.2l-1.07.2a1.22 1.22 0 0 0-.92 1l-.25 1c-.14.67.24.64.4.6a11.34 11.34 0 0 1 1.24-.37 9.15 9.15 0 0 1 2-.26 5.18 5.18 0 0 1 1.89.27 1 1 0 0 1 .63.95.69.69 0 0 1 0 .29.32.32 0 0 1-.3.19l-3.08.33a9.62 9.62 0 0 0-2.65.73 4.11 4.11 0 0 0-1.79 1.42 3.85 3.85 0 0 0-.6 2.18 2.56 2.56 0 0 0 .85 2 3.19 3.19 0 0 0 2.2.76 5.88 5.88 0 0 0 1.31-.12 6.59 6.59 0 0 0 1-.34 5.28 5.28 0 0 0 .86-.48l.8-.52-.08.34a.61.61 0 0 0 .55.78h2a1.09 1.09 0 0 0 .89-.78l1.53-6.58a4.25 4.25 0 0 0 .08-.54 4.3 4.3 0 0 0 0-.5 2.2 2.2 0 0 0-1.23-2.07zm-3.7 7.84a5.47 5.47 0 0 1-.82.42 3 3 0 0 1-1.09.24 2.43 2.43 0 0 1-1.19-.23.81.81 0 0 1-.41-.78 1.58 1.58 0 0 1 .3-1 2.17 2.17 0 0 1 .89-.6 7.75 7.75 0 0 1 1.38-.31l1.54-.17c.12 0 .2-.07.15.25 0 .14-.3 1.26-.42 1.76a1 1 0 0 1-.34.42zm41.57-7.83a8 8 0 0 0-3.73-.67 16.37 16.37 0 0 0-2.53.2l-1.07.2a1.22 1.22 0 0 0-.92 1l-.26 1c-.14.67.24.64.4.6a10.91 10.91 0 0 1 1.24-.37 9.21 9.21 0 0 1 2-.26 5.18 5.18 0 0 1 1.89.27 1 1 0 0 1 .63.95.73.73 0 0 1 0 .3.32.32 0 0 1-.3.19l-3.08.33a9.65 9.65 0 0 0-2.65.73 4.13 4.13 0 0 0-1.79 1.42 3.87 3.87 0 0 0-.6 2.18 2.56 2.56 0 0 0 .85 2 3.2 3.2 0 0 0 2.2.75 5.85 5.85 0 0 0 1.31-.12 6.68 6.68 0 0 0 1-.34 5.32 5.32 0 0 0 .86-.48l.8-.53-.08.34a.62.62 0 0 0 .56.78h2a1.09 1.09 0 0 0 .9-.78l1.52-6.58a3.43 3.43 0 0 0 .08-.54 4.26 4.26 0 0 0 0-.5 2.2 2.2 0 0 0-1.23-2.05zm-3.7 7.84a5.69 5.69 0 0 1-.82.42 3 3 0 0 1-1.09.24 2.42 2.42 0 0 1-1.19-.23.8.8 0 0 1-.41-.78 1.58 1.58 0 0 1 .3-1 2.16 2.16 0 0 1 .89-.6 7.62 7.62 0 0 1 1.38-.31l1.54-.17c.12 0 .2-.07.15.25 0 .14-.3 1.26-.42 1.76a1 1 0 0 1-.29.42z"/><path d="M692.9 37.35a4.41 4.41 0 0 1-2.63.68h-.52a.62.62 0 0 1-.63-.79l.63-2.7a1.07 1.07 0 0 1 1-.79h.7a3.4 3.4 0 0 1 1.81.4 1.4 1.4 0 0 1 .61 1.25 2.3 2.3 0 0 1-.94 2m4.5-4.18a3.21 3.21 0 0 0-1.15-1.23 5.17 5.17 0 0 0-1.82-.67 14.48 14.48 0 0 0-2.46-.19h-4.37a1.09 1.09 0 0 0-1 .8L683.7 44.7a.61.61 0 0 0 .62.79h2.1a1.09 1.09 0 0 0 1-.79l.7-3.1a1.07 1.07 0 0 1 1-.79h.6a9.87 9.87 0 0 0 6-1.57 4.92 4.92 0 0 0 2.13-4.14 4 4 0 0 0-.4-1.88m17.23-2.04h-1.87a1.07 1.07 0 0 0-1 .73v.07l-.1.47-2.58 11.7-.12.5a.61.61 0 0 0 .55.77h1.94a1.08 1.08 0 0 0 1-.73v-.06l2.8-12.67a.62.62 0 0 0-.62-.77zm2.84 2.58h-.4a.63.63 0 0 1-.47-.17.76.76 0 0 1-.16-.54v-1.08h-.23v-.3h.2v-.58h.34v.58h.7v.3h-.7v1.18a.42.42 0 0 0 .05.17.24.24 0 0 0 .11.11.54.54 0 0 0 .21 0h.3v.3zm3.38.02h-.34v-1.4a.58.58 0 0 0-.05-.19.28.28 0 0 0-.12-.12.5.5 0 0 0-.22 0 .63.63 0 0 0-.29.07 1.75 1.75 0 0 0-.29.18v1.5h-.34v-1.4a.56.56 0 0 0 0-.19.29.29 0 0 0-.12-.12.54.54 0 0 0-.23 0 .62.62 0 0 0-.28.07 1.63 1.63 0 0 0-.28.17v1.52H718v-2h.34v.22a1.56 1.56 0 0 1 .32-.21.78.78 0 0 1 .34-.08.67.67 0 0 1 .35.09.53.53 0 0 1 .21.24 1.65 1.65 0 0 1 .38-.25.88.88 0 0 1 .37-.08.59.59 0 0 1 .49.2.89.89 0 0 1 .16.57v1.32z"/></g><rect x="776.9" y=".45" width="125.43" height="78.39" rx="4.18" fill="#231f20"/><path d="M837.44 32.6h3.9s3.86-.08 3.82 3.43c0 2.6-3.74 3-3.74 3h-4V32.6zm11.65 12.58c.1.5.48 1.07 1.7 1.13a4.71 4.71 0 0 0 2.57-.58v1.2a16.53 16.53 0 0 1-2.65.43c-.9 0-3.55-.2-3.55-2.65 0-2 2.18-2.6 3.43-2.6 2.18.08 3.23.86 3.2 3.08h-4.7zm0-1h3a1.23 1.23 0 0 0-1.44-1.13 1.36 1.36 0 0 0-1.55 1.13h0zm9.46-1.22a3.05 3.05 0 0 1 2.38-.84 2.56 2.56 0 0 1 2.77 2.57c0 .54-.23 2.6-3 2.6a2.63 2.63 0 0 1-2.1-.81v.66h-1.9v-7h1.9v2.83zm1.63 3.25a1.67 1.67 0 0 0 1.64-1.48 1.48 1.48 0 0 0-1.71-1.44 1.52 1.52 0 0 0-1.56 1.26v.5a1.49 1.49 0 0 0 1.63 1.15h0zm16.48-.2v1.1a8.89 8.89 0 0 1-1.48.2 2 2 0 0 1-2.1-1.83V43.2h-1.64v-1h1.6V41H875v1.2h1.6v1H875v1.95a.91.91 0 0 0 .78 1 1.09 1.09 0 0 0 .82-.12h0zm-5.92-12.4H873V39h1.9v-5.4h2.3v-1.1h-6.46v1.13zm-.78.27l.23-1.13a7.24 7.24 0 0 0-2.69-.43c-1.68 0-4.37.94-4.37 3.47s2.84 3.35 4.6 3.35a6.4 6.4 0 0 0 2.34-.27l-.2-1.25a8 8 0 0 1-2.1.23c-1.3 0-2.6-1.05-2.6-2.18a2.64 2.64 0 0 1 2.73-2.14 6.22 6.22 0 0 1 2.06.35h0zm-17.22-1.36s3.2-.16 3.2 1.7c0 1.6-1.83 1.7-1.83 1.7a1.21 1.21 0 0 1 .74.43c.2.3 1.48 2.65 1.48 2.65h-1.95a6.5 6.5 0 0 1-.47-.66c-.12-.27-.47-.86-.47-.86a1.33 1.33 0 0 0-1.21-1h-.7V39h-1.87v-6.5h3.08zm-1.2 2.92h1s1.4-.08 1.48-.94-1.36-.94-1.36-.94h-1.13v1.93zm7.83 1h3.08v-1.2h-3.12V33.8h3.4v-1.24h-5.27v6.5h5.34V37.9h-3.43v-1.4zm7.6 5h1.9v-1.32h-1.9v1.37zm0 5.7h1.9V42.2h-1.9v4.95zm-20.8-8.1h1.87v-6.5h-1.87v6.5zm-8.72 1.66h3.9s3.86-.08 3.82 3.43c0 2.6-3.74 3-3.74 3h-4V40.7zm1.9 5.22h1.25s2.57-.15 2.57-2.14-2.72-2.18-2.72-2.18h-1.1v4.32zm0-8.1h1.25s2.57-.2 2.57-2.14-2.73-2.18-2.73-2.18h-1.1v4.32zM819.9 36.5v13s-7.56-1.36-7.56-6.54c0-4.13 5.6-6 7.56-6.5h0zm0-.24c-4.54-.33-14.84 1.8-14.84 6.46 0 3 5.46 7.48 14.34 7.6.35 0 10.44-.4 10.28-11.22-.13-9.1-6.94-10.7-9.12-11v-.6c8.68.55 15.5 5.77 15.5 12.1 0 6.7-7.63 12.15-17 12.15s-17-5.45-17-12.15 7.6-12.15 17-12.15h.86v8.72z" class="S V"/><rect x="463.7" y=".13" width="125.43" height="78.39" rx="4.18" class="b"/><circle cx="512.33" cy="39.33" r="22.47" fill="#007cc3"/><path d="M542.5 16.86a22.39 22.39 0 0 0-15.06 5.82 23 23 0 0 0-2.27 2.38h4.54a22.59 22.59 0 0 1 1.71 2.38h-8a22 22 0 0 0-1.29 2.38h10.55a22.38 22.38 0 0 1 1 2.38h-12.5a21.61 21.61 0 0 0-.65 2.38h13.76a22.62 22.62 0 0 1-.65 11.9H521.2a22.44 22.44 0 0 0 1 2.38h10.55a22.44 22.44 0 0 1-1.29 2.38h-8a22.44 22.44 0 0 0 1.71 2.38h4.54a22.18 22.18 0 0 1-2.27 2.38 22.47 22.47 0 1 0 15.06-39.14zm19.47 35a.73.73 0 1 1 .72.72.73.73 0 0 1-.72-.72zm.72.55a.55.55 0 1 0-.55-.55.55.55 0 0 0 .56.56zm-.1-.23h-.15v-.68h.27a.29.29 0 0 1 .16 0 .19.19 0 0 1 .08.16.18.18 0 0 1-.11.17l.12.28h-.17l-.1-.25h-.1v.25zm0-.36h.08a.18.18 0 0 0 .09 0 .08.08 0 0 0 0-.07.08.08 0 0 0 0-.06.21.21 0 0 0-.1 0h-.08v.16z" fill="#009ddd"/><g class="S"><path d="M554.44 44.35a.73.73 0 1 1 .72.73.73.73 0 0 1-.72-.73zm.72.55a.55.55 0 1 0-.55-.55.55.55 0 0 0 .55.55zm-.1-.23h-.15v-.64h.27a.29.29 0 0 1 .16 0 .2.2 0 0 1 .08.16.18.18 0 0 1-.11.17l.12.28h-.17l-.1-.25h-.1v.25zm0-.36h.08a.18.18 0 0 0 .09 0 .08.08 0 0 0 0-.07.08.08 0 0 0 0-.07.2.2 0 0 0-.1 0h-.08v.16zm-43.32-10.8l-.58 2.45c-1.7-.72-4-1.1-5.7 0a4.6 4.6 0 0 0-2.07 4.48 2.75 2.75 0 0 0 1.69 2.09 5.68 5.68 0 0 0 4.8-.49l-.63 2.72a9.85 9.85 0 0 1-6 .08 5 5 0 0 1-3.4-4 6.68 6.68 0 0 1 3.69-7 12.4 12.4 0 0 1 8.2-.33zm28.63 10a4.71 4.71 0 0 1-3.91 1.7c-2.25 0-3.67-1.66-2.87-5.38l.93-4.38h3.43l-.93 4.38c-.32 1.5-.24 2.63 1.27 2.63 1.78 0 2.32-1.08 2.65-2.62l.93-4.38h3.43l-1.54 7-.44 2.56h-3.22zm6.07-5c0 1.22.8 2 2.62 2.67 1.4.5 1.62.63 1.62 1.06 0 .6-.63.86-2 .86a12.63 12.63 0 0 1-3.09-.37l-.48 2.22a25.29 25.29 0 0 0 3.59.27c3.63 0 5.3-1 5.3-3.2 0-1.3-.7-2.08-2.43-2.67-1.45-.48-1.6-.6-1.6-1s.58-.78 1.7-.78c.67 0 1.6.06 2.5.15l.48-2.23-3-.2c-3.87-.03-5.2 1.46-5.2 3.2zm-33.24-3.03h3.44l-2.05 9.6h-3.44l2.05-9.6z"/><use xlink:href="#B"/><use xlink:href="#B" x="-7.82"/></g><rect x="308.24" y=".13" width="125.43" height="78.39" rx="4.18" class="b"/><path d="M385.88 61.84l1.17-.03 1.14-.08 1.13-.15 1.1-.2 1.1-.25 1.07-.3 1.05-.35 1.03-.4 1-.45.96-.5.95-.54.9-.6.9-.63.85-.66.82-.72.78-.74.74-.8.72-.82.67-.85.63-.88.58-.92.54-.94.5-.97.46-1 .4-1.03.35-1.04.3-1.08.25-1.08.2-1.12.14-1.13.08-1.14.04-1.16-.04-1.16-.08-1.14-.14-1.1-.2-1.1-.25-1.08-.3-1.07-.35-1.04-.4-1.02-.46-1-.5-.97-.54-.94-.58-.92-.63-.88-.67-.85-.72-.82-.74-.78-.78-.74-.82-.7-.85-.67-.9-.62-.9-.6-.95-.54-.96-.5-1-.45-1.03-.4-1.05-.36-1.07-.3-1.1-.25-1.1-.2-1.13-.14-1.14-.1-1.17-.03-1.16.03-1.14.1-1.13.14-1.1.2-1.1.25-1.07.3-1.05.36-1.02.4-1 .45-.97.5-.94.54-.9.6-.88.62-.85.67-.82.7-.78.74-.74.78-.7.82-.67.85-.63.88-.58.92-.54.94-.5.97-.44 1-.4 1.02-.35 1.04-.3 1.07-.25 1.08-.2 1.1-.14 1.1-.1 1.14-.03 1.16.03 1.16.1 1.14.14 1.13.2 1.12.25 1.08.3 1.08.35 1.04.4 1.03.44 1 .5.97.54.94.58.92.63.88.67.85.7.82.74.8.78.74.82.72.85.66.88.63.9.6.94.54.97.5 1 .45 1.02.4 1.05.35 1.07.3 1.1.25 1.1.2 1.13.15 1.14.08 1.16.03z" class="Z"/><path d="M356.02 61.84l1.17-.03 1.14-.08 1.13-.15 1.1-.2 1.1-.25 1.07-.3 1.05-.35 1.02-.4 1-.45.97-.5.94-.54.92-.6.88-.63.85-.66.8-.72.78-.74.74-.8.7-.82.67-.85.63-.88.6-.92.53-.94.5-.97.45-1 .4-1.03.35-1.04.3-1.08.25-1.08.2-1.12.14-1.13.1-1.14.03-1.16-.03-1.16-.1-1.14-.14-1.1-.2-1.1-.25-1.08-.3-1.07-.35-1.04-.4-1.02-.45-1-.5-.97-.53-.94-.6-.92-.63-.88-.67-.85-.7-.82-.74-.78-.78-.74-.8-.7-.85-.67-.88-.62-.92-.6-.94-.54-.97-.5-1-.45-1.02-.4-1.05-.36-1.07-.3-1.1-.25-1.1-.2-1.13-.14-1.14-.1-1.17-.03-1.15.03-1.15.1-1.13.14-1.1.2-1.1.25-1.07.3-1.05.36-1.03.4-1 .45-.97.5-.95.54-.9.6-.9.62-.85.67-.82.7-.78.74-.74.78-.7.82-.68.85-.63.88-.58.92-.54.94-.5.97-.45 1-.4 1.02-.36 1.04-.3 1.07-.25 1.08-.2 1.1-.14 1.1-.1 1.14-.03 1.16.03 1.16.1 1.14.14 1.13.2 1.12.25 1.08.3 1.08.36 1.04.4 1.03.45 1 .5.97.54.94.58.92.63.88.68.85.7.82.74.8.78.74.82.72.85.66.9.63.9.6.95.54.97.5 1 .45 1.03.4 1.05.35 1.07.3 1.1.25 1.1.2 1.13.15 1.15.08 1.15.03z" fill="#0084c4"/><g class="Z"><path d="M368.18 25.4h11.42v-1.25h-10.32l-1.1 1.25zm-1.78 2.66h13.2V26.8h-12.4l-.8 1.25zm-1.35 2.7h14.55V29.5h-13.93l-.62 1.26zm-.87 2.66h15.42v-1.25h-15.04l-.38 1.25zm-.58 2.67h16v-1.26h-15.76l-.23 1.26zm-.1 5.17h16.1V40h-16.22l.1 1.26zm.38 2.83h15.72v-1.26h-15.95l.23 1.26zm.76 2.28h14.96v-1.26h-15.35l.4 1.26zm1.13 2.78h13.83V47.9h-14.43l.6 1.26zm1.6 2.82h12.22v-1.26h-13.06l.84 1.26zm2.02 2.7h10.1v-1.26h-11.2l1.1 1.26zm35.33-1.58l.07-.2.1-.18.14-.16.16-.14.18-.1.2-.07.22-.02.22.02.2.07.18.1.16.14.14.16.1.18.07.2h-.23l-.05-.14-.08-.15-.1-.13-.13-.1-.15-.08-.17-.05-.17-.02-.18.02-.17.05-.15.08-.13.1-.1.13-.1.15-.04.14h-.22z"/><path d="M405.42 53.1v-.26h.52l.08.01.08.02.05.03.05.04.04.04.02.06.01.06h-.2v-.03l-.04-.06H406h-.04l-.03-.01h-.3v.14h-.2zm-.72.2l.02-.2h0 .22l-.01.04-.01.16h-.22z"/><path d="M405.42 53.3v-.2h.2v.16h.3l.05-.01.03-.01.03-.02.02-.03.01-.03v-.06h.2l-.01.07-.01.06-.03.04v.03h-.78zm1.26 0l-.01-.16-.01-.04h.23v.2h-.23z"/><path d="M404.7 53.3v.03l.02.22.07.2.1.18.14.16.16.13.18.1.2.05.22.03.22-.03.2-.05.18-.1.16-.13.14-.16.1-.18.07-.2v-.25h-.23v.03l-.01.2-.06.17-.08.16-.1.13-.13.1-.15.08-.17.06-.17.01-.18-.01-.17-.06-.15-.08-.13-.1-.1-.13-.1-.16-.05-.17-.01-.2v-.03h-.22zm.72 0v.46h.2v-.38h.2l.23.38h.2l-.27-.38.06-.01.07-.01.05-.02.05-.03h0-.78z"/></g><path d="M381 37.4h-.15l-.15-.02-.13-.02-.13-.01-.14-.03h-.13l-.14-.02-.3-.04-.17-.01-.18-.02h-.2-.22-.25l-.27.02-.3.02-.2.03-.2.04-.18.06-.17.07-.15.08-.13.1-.1.1-.1.1-.07.12-.04.13-.02.12v.14l.03.14.05.14.08.14.1.14.2.2.25.16.3.13.32.1.33.1.35.1.35.13.34.15.32.18.3.2.27.27.22.33.17.4.1.47.04.56-.04.67-.08.5-.13.44-.17.4-.22.35-.25.3-.27.27-.3.23-.32.2-.34.16-.36.13-.36.12-.36.08-.36.06-.36.03-.34.03-.33.01h-.46l-.42-.01-.37-.01-.35-.01-.32-.01-.28-.02-.27-.02-.46-.06-.2-.04-.2-.03-.2-.05-.17-.06-.18-.05-.18-.06-.2-.07.46-2.32.1.02.28.07.17.05.2.03.22.06.24.04.25.04.27.04.28.04.28.03.3.03.6.02h.3l.32-.02.3-.05.24-.08.2-.12.14-.13.1-.16.1-.16.06-.16.05-.16.02-.17v-.15l-.03-.14-.06-.12-.1-.12-.1-.1-.12-.1-.14-.1-.16-.08-.17-.08-.2-.08-.2-.07-.2-.08-.2-.08-.2-.08-.22-.1-.2-.1-.2-.1-.2-.1-.2-.12-.2-.12-.18-.14-.17-.16-.16-.18-.14-.2-.12-.2-.1-.23-.08-.25-.07-.27-.03-.3-.01-.32.02-.35.02-.22.04-.2.03-.2.04-.2.04-.18.06-.18.06-.17.07-.17.08-.16.08-.15.1-.15.1-.14.1-.13.12-.13.13-.12.14-.1.14-.1.16-.1.17-.08.18-.1.18-.08.2-.07.2-.06.22-.06.48-.1.52-.06.28-.02.3-.02.3-.01h1.07l.3.01.3.02h.26l.23.02.22.02.2.01.17.02.14.03.15.01.22.04.1.01.1.02h.08l-.53 2.4z" class="S"/><path d="M381 37.4h0-.15l-.15-.02-.13-.02-.13-.01-.14-.03h-.13l-.14-.02-.3-.04-.17-.01-.18-.02h-.2-.22-.25l-.27.02-.3.02-.2.03-.2.04-.18.06-.17.07-.15.08-.13.1-.1.1-.1.1-.07.12-.04.13-.02.12v.14l.03.14.05.14.08.14.1.14.2.2.25.16.3.13.32.1.33.1.35.1.35.13.34.15.32.18.3.2.27.27.22.33.17.4.1.47.04.56-.04.67-.08.5-.13.44-.17.4-.22.35-.25.3-.27.27-.3.23-.32.2-.34.16-.36.13-.36.12-.36.08-.36.06-.36.03-.34.03-.33.01h-.46l-.42-.01-.37-.01-.35-.01-.32-.01-.28-.02-.27-.02-.46-.06-.2-.04-.2-.03-.2-.05-.17-.06-.18-.05-.18-.06-.2-.07.46-2.32.1.02.28.07.17.05.2.03.22.06.24.04.25.04.27.04.28.04.28.03.3.03.6.02h.3l.32-.02.3-.05.24-.08.2-.12.14-.13.1-.16.1-.16.06-.16.05-.16.02-.17v-.15l-.03-.14-.06-.12-.1-.12-.1-.1-.12-.1-.14-.1-.16-.08-.17-.08-.2-.08-.2-.07-.2-.08-.2-.08-.2-.08-.22-.1-.2-.1-.2-.1-.2-.1-.2-.12-.2-.12-.18-.14-.17-.16-.16-.18-.14-.2-.12-.2-.1-.23-.08-.25-.07-.27-.03-.3-.01-.32.02-.35.02-.22.04-.2.03-.2.04-.2.04-.18.06-.18.06-.17.07-.17.08-.16.08-.15.1-.15.1-.14.1-.13.12-.13.13-.12.14-.1.14-.1.16-.1.17-.08.18-.1.18-.08.2-.07.2-.06.22-.06.48-.1.52-.06.28-.02.3-.02.3-.01h1.07l.3.01.3.02h.26l.23.02.22.02.2.01.17.02.14.03.15.01.22.04.1.01.1.02h.08l-.53 2.4" class="T U W"/><path d="M383.44 32.44h2.98l-.46 2.6h1.83l-.42 2.36-1.87-.04-1 6.03v.1l.02.1.03.08.04.08.05.07.07.06.07.04.1.05.1.04.1.03.1.01.12.02.1.01.13.01h.36l.2-.02.2-.03.16-.03.13-.04.1-.04.06-.03h.02l-.3 2.02-.07.04-.08.04-.08.03-.08.04-.08.03-.1.03-.08.03-.1.03-.1.03-.1.02-.26.04-.14.03-.15.02-.17.02-.18.03h-.8l-.43-.04-.37-.04-.34-.06-.3-.08-.24-.1-.2-.1-.17-.12-.14-.15-.1-.15-.08-.17-.05-.2-.03-.2v-.22-.24l.02-.24.04-.27 1.97-11.57z" class="S"/><path d="M383.44 32.44h2.98l-.46 2.6h1.83l-.42 2.36-1.87-.04-1 6.03v.1l.02.1.03.08.04.08.05.07.07.06.07.04.1.05.1.04.1.03.1.01.12.02.1.01.13.01h.36l.2-.02.2-.03.16-.03.13-.04.1-.04.06-.03h.02l-.3 2.02-.07.04-.08.04-.08.03-.08.04-.08.03-.1.03-.08.03-.1.03-.1.03-.1.02-.26.04-.14.03-.15.02-.17.02-.18.03h-.8l-.43-.04-.37-.04-.34-.06-.3-.08-.24-.1-.2-.1-.17-.12-.14-.15-.1-.15-.08-.17-.05-.2-.03-.2v-.22-.24l.02-.24.04-.27 1.97-11.57" class="T U W"/><path d="M365.36 41.42l-.03.2-.01.2.01.2.05.2.06.2.08.2.1.2.26.36.17.17.17.15.18.14.2.12.2.1.22.08.22.05.27.04.54.06.27.02h.56l.3-.01.28-.02.58-.1.3-.07.3-.1.3-.1.3-.13.3-.16.3-.18-.46 2.62-.34.18-.32.12-.17.06-.16.04-.17.04-.18.04-.2.02-.2.02-.23.02-.25.01-.26.02h-.3l-.32.01h-.62l-.52-.04-.54-.06-.27-.05-.26-.06-.27-.05-.26-.1-.26-.08-.25-.1-.25-.1-.25-.13-.23-.13-.23-.15-.22-.16-.2-.18-.2-.2-.2-.2-.17-.22-.16-.25-.15-.25-.13-.27-.12-.3-.1-.3-.08-.33-.07-.34-.04-.37-.03-.38v-.4l.01-.43.04-.45.02-.15.02-.18.03-.18.04-.2.04-.2.05-.2.12-.44.07-.23.08-.22.2-.46.24-.46.15-.23.14-.22.17-.22.18-.2.2-.2.44-.38.24-.18.26-.16.28-.16.3-.13.32-.13.33-.1.36-.1.37-.07.4-.05.42-.03.44-.02h.2l.2.02.2.01.2.02.22.03.44.1.2.06.22.07.2.08.2.1.2.1.38.24.18.15.18.16.16.17.15.18.14.2.13.22.12.23.1.25.1.28.07.3.06.3.03.32.02.35v.37l-.02.4-.04.4-.07.44-.1.46-.12.65h-7.68l.46-2.05h4.6v-.3-.25-.25l-.04-.22-.06-.2-.07-.2-.1-.16-.1-.15-.13-.13-.14-.1-.14-.1-.16-.07-.17-.06-.18-.05-.18-.02-.2-.01h-.2l-.2.03-.2.04-.18.06-.16.08-.17.1-.15.1-.14.12-.14.15-.1.16-.12.17-.1.18-.1.2-.07.2-.06.22-.06.23-.4 2.2z" class="S"/><path d="M365.36 41.42h0l-.03.2-.01.2.01.2.05.2.06.2.08.2.1.2.26.36.17.17.17.15.18.14.2.12.2.1.22.08.22.05.27.04.54.06.27.02h.56l.3-.01.28-.02.58-.1.3-.07.3-.1.3-.1.3-.13.3-.16.3-.18-.46 2.62-.34.18-.32.12-.17.06-.16.04-.17.04-.18.04-.2.02-.2.02-.23.02-.25.01-.26.02h-.3l-.32.01h-.62l-.52-.04-.54-.06-.27-.05-.26-.06-.27-.05-.26-.1-.26-.08-.25-.1-.25-.1-.25-.13-.23-.13-.23-.15-.22-.16-.2-.18-.2-.2-.2-.2-.17-.22-.16-.25-.15-.25-.13-.27-.12-.3-.1-.3-.08-.33-.07-.34-.04-.37-.03-.38v-.4l.01-.43.04-.45.02-.15.02-.18.03-.18.04-.2.04-.2.05-.2.12-.44.07-.23.08-.22.2-.46.24-.46.15-.23.14-.22.17-.22.18-.2.2-.2.44-.38.24-.18.26-.16.28-.16.3-.13.32-.13.33-.1.36-.1.37-.07.4-.05.42-.03.44-.02h.2l.2.02.2.01.2.02.22.03.44.1.2.06.22.07.2.08.2.1.2.1.38.24.18.15.18.16.16.17.15.18.14.2.13.22.12.23.1.25.1.28.07.3.06.3.03.32.02.35v.37l-.02.4-.04.4-.07.44-.1.46-.12.65h-7.68l.46-2.05h4.6v-.3-.25-.25l-.04-.22-.06-.2-.07-.2-.1-.16-.1-.15-.13-.13-.14-.1-.14-.1-.16-.07-.17-.06-.18-.05-.18-.02-.2-.01h-.2l-.2.03-.2.04-.18.06-.16.08-.17.1-.15.1-.14.12-.14.15-.1.16-.12.17-.1.18-.1.2-.07.2-.06.22-.06.23-.4 2.2" class="T U W"/><path d="M361.25 44l-.42 2.37h-2.67l.03-.23v-.22l.04-.2.02-.18.04-.16.02-.13.03-.1.03-.05-.14.16-.18.16-.2.16-.23.15-.24.14-.27.13-.28.12-.3.1-.3.1-.32.1-.62.1-.3.02-.3.01-.3-.02-.3-.05-.37-.1-.33-.12-.3-.14-.26-.15-.24-.17-.2-.2-.18-.2-.15-.22-.12-.23-.1-.23-.08-.23-.07-.25-.04-.23-.03-.25-.02-.46.03-.42.06-.4.1-.38.14-.35.17-.34.2-.3.23-.3.24-.27.27-.24.3-.22.3-.2.33-.17.34-.15.35-.1.35-.1.36-.07h.02l.05-.01.08-.01h.1.13l.14-.02.17-.02.18-.01.17-.02.18-.02.2-.02.18-.01.15-.02h.16l.14-.01h.5l.13.01h.48l.1.01h.1l.08.01h.08l.05.01h.1l.02-.08.05-.18.04-.2v-.2l-.04-.26-.04-.12-.05-.1-.06-.1-.07-.1-.08-.08-.08-.1-.1-.08-.1-.06-.1-.05-.1-.06-.12-.03-.12-.04-.13-.01-.12-.02-.3-.01-.32.01-.33.01-.68.04-.34.03-.34.04-.33.04-.32.04-.3.05-.28.05-.26.06-.22.06-.2.06-.15.06-.1.06.76-2.5.22-.1.24-.1.23-.08.26-.07.26-.05.26-.04.28-.04.3-.03.3-.02.6-.02h1l.35.01.37.01.3.03.32.04.34.08.33.1.33.12.34.16.3.18.3.2.28.23.24.26.2.3.16.32.12.35.06.37v.4l-.06.44-1.1 5.55z" class="S"/><path d="M361.25 44l-.42 2.37h-2.67l.03-.23v-.22l.04-.2.02-.18.04-.16.02-.13.03-.1.03-.05-.14.16-.18.16-.2.16-.23.15-.24.14-.27.13-.28.12-.3.1-.3.1-.32.1-.62.1-.3.02-.3.01-.3-.02-.3-.05-.37-.1-.33-.12-.3-.14-.26-.15-.24-.17-.2-.2-.18-.2-.15-.22-.12-.23-.1-.23-.08-.23-.07-.25-.04-.23-.03-.25-.02-.46.03-.42.06-.4.1-.38.14-.35.17-.34.2-.3.23-.3.24-.27.27-.24.3-.22.3-.2.33-.17.34-.15.35-.1.35-.1.36-.07h.02l.05-.01.08-.01h.1.13l.14-.02.17-.02.18-.01.17-.02.18-.02.2-.02.18-.01.15-.02h.16l.14-.01h.5l.13.01h.48l.1.01h.1l.08.01h.08l.05.01h.1l.02-.08.05-.18.04-.2v-.2l-.04-.26-.04-.12-.05-.1-.06-.1-.07-.1-.08-.08-.08-.1-.1-.08-.1-.06-.1-.05-.1-.06-.12-.03-.12-.04-.13-.01-.12-.02-.3-.01-.32.01-.33.01-.68.04-.34.03-.34.04-.33.04-.32.04-.3.05-.28.05-.26.06-.22.06-.2.06-.15.06-.1.06.76-2.5.22-.1.24-.1.23-.08.26-.07.26-.05.26-.04.28-.04.3-.03.3-.02.6-.02h1l.35.01.37.01.3.03.32.04.34.08.33.1.33.12.34.16.3.18.3.2.28.23.24.26.2.3.16.32.12.35.06.37v.4l-.06.44-1.1 5.55" class="T U W"/><path d="M358.7 41.23v-.06l-.05-.04-.07-.04-.1-.02-.13-.02h-.45l-.17.01-.18.02-.34.06-.32.06-.13.03-.12.04-.07.01-.1.03-.1.04-.12.05-.13.05-.14.07-.14.08-.14.1-.14.1-.14.1-.12.12-.1.13-.1.14-.07.16-.06.17-.04.17-.01.37.05.28.1.22.13.16.17.1.17.08.18.03.18.01.32-.01.3-.03.28-.05.24-.06.22-.08.2-.1.18-.1.15-.1.14-.1.12-.13.1-.12.08-.12.08-.13.06-.12.04-.1.04-.12.04-.16.03-.17.08-.36.03-.18.06-.32.03-.14z" fill="#0084c4"/><path d="M338.92 46.38h-2.9l2.43-13.94h5.03l.5 8.3 3.42-8.3h5.23l-2.44 13.94h-2.9l1.82-10.44h-.1l-4.3 10.44h-3.23l-.04-.44-.06-1.16-.1-1.65-.32-5.46-.06-1.22-.03-.5h-.12l-1.83 10.44z" class="S"/><path d="M338.92 46.38h-2.9l2.43-13.94h5.03l.5 8.3 3.42-8.3h5.23l-2.44 13.94h-2.9l1.82-10.44h-.1l-4.3 10.44h-3.23l-.04-.44-.06-1.16-.1-1.65-.32-5.46-.06-1.22-.03-.5h-.12l-1.83 10.44" class="T U W"/><path d="M387.25 46.38h3l1.03-6.02.05-.24.05-.23.06-.23.07-.2.08-.2.1-.2.12-.2.14-.18.17-.17.2-.14.22-.14.26-.12.3-.1.32-.08.38-.04.4-.03h.04l.04.01.06.01h.1l.08.02h.01l.01-.05.03-.12.03-.2.06-.24.08-.27.08-.3.1-.3.12-.28.08-.2.1-.2.1-.2.1-.2.1-.15.08-.13.05-.08.01-.03h-.01l-.04-.01-.05-.01-.08-.02h-.07-.1l-.08-.01h-.07l-.33.02-.3.04-.28.06-.25.06-.24.1-.2.1-.2.12-.18.12-.2.14-.17.16-.15.16-.17.18-.15.18-.15.2-.15.2-.16.22.35-1.9-3-.03-2 11.38z" class="S"/><path d="M387.25 46.38h3l1.03-6.02.05-.24.05-.23.06-.23.07-.2.08-.2.1-.2.12-.2.14-.18.17-.17.2-.14.22-.14.26-.12.3-.1.32-.08.38-.04.4-.03h.04l.04.01.06.01h.1l.08.02h.01l.01-.05.03-.12.03-.2.06-.24.08-.27.08-.3.1-.3.12-.28.08-.2.1-.2.1-.2.1-.2.1-.15.08-.13.05-.08.01-.03h-.01l-.04-.01-.05-.01-.08-.02h-.07-.1l-.08-.01h-.07l-.33.02-.3.04-.28.06-.25.06-.24.1-.2.1-.2.12-.18.12-.2.14-.17.16-.15.16-.17.18-.15.18-.15.2-.15.2-.16.22.35-1.9-3-.03-2 11.38" class="T U W"/><path d="M400.28 34.88h.34l.64.06.3.04.3.06.28.07.28.1.27.1.26.1.24.12.25.13.22.14.22.15.2.16.38.36.17.2.17.2.14.2.14.22.14.23.1.24.1.25.1.26.08.25.07.28.06.28.04.3.03.3.01.3.01.3-.01.3-.02.38-.04.36-.05.35-.07.34-.07.33-.1.3-.1.3-.1.3-.26.54-.16.25-.15.24-.17.22-.2.22-.2.2-.2.2-.2.18-.2.17-.46.3-.24.13-.26.12-.25.1-.26.1-.27.1-.28.08-.28.06-.28.05-.3.04-.3.02-.3.02-.3.01-.3-.01-.3-.02-.28-.02-.3-.05-.28-.05-.3-.06-.52-.16-.26-.1-.24-.1-.24-.12-.23-.13-.22-.14-.42-.32-.2-.18-.18-.18-.17-.2-.16-.2-.16-.22-.13-.23-.13-.25-.1-.25-.1-.26-.1-.27-.08-.3-.06-.3-.06-.3-.03-.3v-.33l-.01-.34.01-.35v-.35l.03-.34.06-.34.06-.32.08-.3.08-.3.1-.3.1-.28.12-.27.13-.26.15-.25.16-.24.16-.22.18-.22.18-.2.2-.2.2-.2.22-.17.22-.16.23-.15.24-.13.25-.14.26-.1.26-.1.28-.1.27-.08.3-.07.3-.06.3-.03.3-.04.32-.02h.32z" class="S"/><path d="M400.28 34.88h.34l.64.06.3.04.3.06.28.07.28.1.27.1.26.1.24.12.25.13.22.14.22.15.2.16.38.36.17.2.17.2.14.2.14.22.14.23.1.24.1.25.1.26.08.25.07.28.06.28.04.3.03.3.01.3.01.3-.01.3-.02.38-.04.36-.05.35-.07.34-.07.33-.1.3-.1.3-.1.3-.26.54-.16.25-.15.24-.17.22-.2.22-.2.2-.2.2-.2.18-.2.17-.46.3-.24.13-.26.12-.25.1-.26.1-.27.1-.28.08-.28.06-.28.05-.3.04-.3.02-.3.02-.3.01-.3-.01-.3-.02-.28-.02-.3-.05-.28-.05-.3-.06-.52-.16-.26-.1-.24-.1-.24-.12-.23-.13-.22-.14-.42-.32-.2-.18-.18-.18-.17-.2-.16-.2-.16-.22-.13-.23-.13-.25-.1-.25-.1-.26-.1-.27-.08-.3-.06-.3-.06-.3-.03-.3v-.33l-.01-.34.01-.35v-.35l.03-.34.06-.34.06-.32.08-.3.08-.3.1-.3.1-.28.12-.27.13-.26.15-.25.16-.24.16-.22.18-.22.18-.2.2-.2.2-.2.22-.17.22-.16.23-.15.24-.13.25-.14.26-.1.26-.1.28-.1.27-.08.3-.07.3-.06.3-.03.3-.04.32-.02h.32" class="T U W"/><path d="M404.7 45.8h.87v.12h-.34v.72h-.2v-.72h-.34v-.12z" class="S"/><path d="M404.7 45.8h.87v.12h-.34v.72h-.2v-.72h-.34v-.12" class="T U W"/><path d="M405.7 45.8h.27l.3.65.3-.65h.27v.84h-.2V46l-.3.64h-.15l-.3-.64v.64h-.2v-.84z" class="S"/><path d="M405.7 45.8h.27l.3.65.3-.65h.27v.84h-.2V46l-.3.64h-.15l-.3-.64v.64h-.2v-.84" class="T U W"/><path d="M397.92 40.3l-.04.42-.03.38v.35l.03.33.04.3.07.26.08.24.1.2.13.2.14.15.15.14.18.1.18.08.2.06.2.03.23.02.25-.01.25-.03.23-.05.22-.08.2-.1.2-.13.2-.16.18-.18.15-.2.15-.24.14-.26.12-.3.1-.32.1-.35.07-.37.07-.4.04-.32.02-.3v-.3l-.02-.28-.04-.26-.06-.25-.08-.23-.1-.2-.12-.2-.13-.16-.16-.15-.17-.1-.2-.1-.2-.06-.22-.04h-.24-.3l-.28.06-.26.08-.24.12-.22.14-.2.17-.18.18-.17.2-.15.22-.14.24-.12.23-.1.25-.1.26-.07.25-.05.25-.05.24z" class="Z"/><rect x="932.82" y=".67" width="125.43" height="78.39" rx="4.18" fill="#045ea0"/><g class="V"><path d="M975.06 44.82a65 65 0 0 1 40.45-4.06l.18-4.47c-18.6-2-32 3.9-40.63 8.1v.44z" fill="#faa929"/><path d="M957.92 48.1h8.95v2.7h-5.56l-.04 2.5h5.54v2.58h-5.56l.02 2.5h5.48v2.7h-8.82l-.01-12.95zm11.18-1.08h3.26l.01 14.04h-3.25l-.02-14.04zM983.57 60a6.88 6.88 0 0 1-4.29 1.4 4.66 4.66 0 0 1-5-4.85 5.12 5.12 0 0 1 5.07-5.26c3.6 0 4.7 2.55 4.7 5.78h-6.53a2 2 0 0 0 2.26 2 4.17 4.17 0 0 0 2.66-.93l1.1 1.9zm-2.4-4.83a1.61 1.61 0 0 0-1.55-1.85 2.24 2.24 0 0 0-2 1.85h3.57zm12.8 5.25a7.4 7.4 0 0 1-3.46 1c-3 0-5.15-1.72-5.15-4.83a5 5 0 0 1 5.35-5.28 6.67 6.67 0 0 1 3.2.82l-1 2.13a4 4 0 0 0-1.53-.37 2.46 2.46 0 0 0-2.71 2.53 2.39 2.39 0 0 0 2.43 2.41 4.09 4.09 0 0 0 1.76-.54l1.16 2.15zm1.2-8.8h1.47v-3.2h3.14l-.07 3.2h2.67l-.05 2.36h-2.68l-.1 3.5c0 .8.2 1.22.94 1.22a2.35 2.35 0 0 0 1.2-.45l.73 2.23a6.37 6.37 0 0 1-3.22.93c-2.64 0-2.77-1.66-2.77-3.84l.1-3.57h-1.4l.07-2.36zm8.87 0h3.25v1.33a2.69 2.69 0 0 1 2.39-1.59 5 5 0 0 1 1.06.11l-.43 3.22a3.81 3.81 0 0 0-1.16-.19 2.31 2.31 0 0 0-1.93 1.1l-.05 5.45h-3.26l.08-9.43zm12.65-.33c3.48 0 5.28 2.2 5.28 5.05s-1.8 5.05-5.28 5.05-5.28-2.2-5.28-5.05 1.8-5.05 5.28-5.05h0zm0 7.63c1.55 0 2-1.35 2-2.58s-.47-2.58-2-2.58-2 1.35-2 2.58.47 2.58 2 2.58h0zm7.05-7.3h3.25v1a4.62 4.62 0 0 1 3.05-1.37c2 0 3.1 1.1 3.1 3.7v6.08h-3.26v-5.6a1.11 1.11 0 0 0-1.18-1.37 3 3 0 0 0-1.7.86v6.1h-3.3l.08-9.43zM984.7 32.2l4.12-13.56h3.67l-4.12 13.56h-3.67zm-1.64-13.56l-3.3 5.75a14 14 0 0 0-1.57 3.22h0c.06-1.2-.1-2.7-.13-3.52l-.37-5.44h-6.25l-.06.37a2.56 2.56 0 0 1 2.79 2.43l1.2 10.77h3.8l7.7-13.56h-3.83zm28.54 13.56l-.1-2h-4.58l-.94 2h-4l7.22-13.54h4.9l1.22 13.54h-3.73zm-.42-8a31.6 31.6 0 0 1 0-3.19h-.05c-.22.67-1.18 2.7-1.6 3.7l-1.37 3h3.22l-.2-3.48zm-14.84 8.38a10.26 10.26 0 0 1-5.54-1.56l1.75-2.67a6.76 6.76 0 0 0 4 1.33 1.7 1.7 0 0 0 1.61-.77c.5-.88-.12-1.36-1.55-2.17l-.7-.46c-2.12-1.45-3-2.83-2-5.24.64-1.54 2.33-2.7 5.12-2.7a8.22 8.22 0 0 1 4.77 1.64l-2 2.36a4.46 4.46 0 0 0-2.85-1.25 1.71 1.71 0 0 0-1.56.7c-.38.76.12 1.27 1.24 2l.84.54c2.58 1.63 3.2 3.33 2.55 4.93-1.1 2.75-3.3 3.36-5.57 3.36h0z" class="S"/></g><rect x="153.3" y=".13" width="125.43" height="78.39" rx="4.18" class="b"/><g class="V"><path d="M231.07 61.83l1.16-.03 1.15-.08 1.12-.14 1.12-.2 1.1-.25 1.07-.3 1.04-.36 1.03-.4 1-.46.97-.5.94-.55.92-.58.88-.63.85-.67.82-.7.78-.75.75-.78.7-.82.67-.85.63-.88.58-.92.55-.94.5-.97.46-1 .4-1.02.36-1.05.3-1.07.25-1.08.2-1.12.14-1.12.1-1.15.03-1.16-.03-1.15-.1-1.14-.14-1.13-.2-1.1-.25-1.08-.3-1.06-.36-1.05-.4-1.02-.46-1-.5-.98-.55-.93-.58-.92-.63-.88-.67-.84-.7-.82-.75-.78-.78-.75-.82-.7-.85-.67-.88-.63-.92-.58-.94-.54-.97-.5-1-.45-1.03-.4-1.04-.36-1.07-.3-1.1-.25-1.12-.2-1.12-.15-1.15-.08-1.16-.03-1.15.03-1.15.08-1.12.15-1.1.2-1.1.25-1.07.3-1.04.36-1.02.4-1 .45-.96.5-.94.54-.9.58-.88.63-.85.67-.8.7-.8.75-.74.78-.7.82-.66.84-.63.88-.58.92-.54.93-.5.98-.45 1-.4 1.02-.35 1.05-.3 1.06-.26 1.08-.2 1.1-.15 1.13-.08 1.14-.03 1.15.03 1.16.08 1.15.15 1.12.2 1.12.26 1.08.3 1.07.35 1.05.4 1.02.45 1 .5.97.54.94.58.92.63.88.66.85.7.82.74.78.8.75.8.7.85.67.88.63.9.58.94.55.96.5 1 .46 1.02.4 1.04.36 1.07.3 1.1.25 1.1.2 1.12.14 1.15.08 1.15.03z" class="a"/><path d="M200.97 61.83l1.15-.03 1.15-.08 1.12-.14 1.1-.2 1.08-.25 1.07-.3 1.04-.36 1.03-.4 1-.46.97-.5.94-.55.9-.58.88-.63.85-.67.8-.7.78-.75.75-.78.7-.82.66-.85.62-.88.6-.92.54-.94.5-.97.45-1 .4-1.02.35-1.05.3-1.07.25-1.08.2-1.12.14-1.12.1-1.15.03-1.16-.03-1.15-.1-1.14-.14-1.13-.2-1.1-.25-1.08-.3-1.06-.35-1.05-.4-1.02-.45-1-.5-.98-.54-.93-.6-.92-.62-.88-.66-.84-.7-.82-.75-.78-.78-.75-.8-.7-.85-.67-.88-.63-.9-.58-.94-.54-.97-.5-1-.45-1.03-.4-1.04-.36-1.07-.3-1.08-.25-1.1-.2-1.12-.15-1.15-.08-1.15-.03-1.16.03-1.15.08-1.13.15-1.1.2-1.1.25-1.07.3-1.04.36-1.03.4-1 .45-.97.5-.94.54-.92.58-.88.63-.85.67-.82.7-.78.75-.76.78-.7.82-.67.84-.63.88-.58.92-.55.93-.5.98-.46 1-.4 1.02-.36 1.05-.3 1.06-.25 1.08-.2 1.1-.15 1.13-.08 1.14-.03 1.15.03 1.16.08 1.15.15 1.12.2 1.12.25 1.08.3 1.07.36 1.05.4 1.02.46 1 .5.97.55.94.58.92.63.88.67.85.7.82.76.78.78.75.82.7.85.67.88.63.92.58.94.55.97.5 1 .46 1.03.4 1.04.36 1.07.3 1.1.25 1.1.2 1.13.14 1.15.08 1.16.03z" class="Z"/><path d="M213.38 25.46h11.96v-1.22h-10.92l-1.04 1.22zm-1.78 2.72h13.75v-1.23H212.3l-.72 1.23zm-1.34 2.72h15.08v-1.23H210.8l-.53 1.23zm-.92 2.7h16v-1.22h-15.62l-.38 1.22zm.53 13.14h15.5v-1.22h-15.9l.38 1.22zm1.15 2.7h14.36v-1.22h-14.93l.57 1.22zm1.6 2.7h12.75v-1.22h-13.52l.77 1.22zm2.2 2.72h10.54v-1.23h-11.6l1.07 1.23zM208.8 36.3h16.54v-1.2h-16.3l-.23 1.22zm10.08 7.73h6.3V42.8h-6.08l-.23 1.23zm.5-2.7h5.8V40.1h-5.58l-.23 1.23zm-11-1.22h1.64v1.23h-1.56l-.08-1.23z" class="a"/><path d="M205.32 38.6h-.1l-.1-.02-.1-.01-.1-.02-.1-.01-.1-.02-.1-.01h-.1l-.1-.01-.12-.01-.28-.02h-.16l-.17.01-.2.02-.22.01-.15.03-.15.02-.13.04-.22.1-.1.06-.15.15-.05.08-.04.08-.01.1v.1l.02.1.03.1.06.1.08.1.15.14.2.12.2.1.23.08.24.08.25.08.25.1.24.1.23.13.2.16.2.2.16.23.12.3.08.35.03.4-.03.48-.05.36-.1.3-.12.3-.15.25-.17.22-.2.2-.2.17-.24.14-.24.12-.25.1-.26.08-.26.06-.26.05-.26.02h-.25l-.23.01h-.33l-.3-.01h-.52-.22l-.2-.02-.18-.01-.17-.02-.16-.02-.15-.03-.14-.02-.13-.04-.13-.03-.12-.05-.12-.04-.13-.05.34-1.68h.07l.08.02.1.03.26.06.15.03.17.04.18.03.2.03.2.03.2.02.2.03.22.01h.66l.22-.05.18-.06.13-.08.1-.1.07-.1.06-.12.04-.12.03-.1.02-.22-.07-.2-.13-.16-.2-.12-.23-.12-.27-.1-.3-.1-.3-.12-.3-.14-.3-.16-.26-.2-.25-.24-.2-.3-.13-.34-.07-.4v-.48l.03-.3.06-.28.07-.26.1-.24.13-.23.13-.2.16-.2.2-.16.22-.15.24-.12.28-.1.3-.1.34-.07.38-.05.4-.03h.45.28.26.24l.2.01.2.01.17.02.16.01.13.02.13.01h.1l.1.02.1.02.2.03.06.01-.4 1.72z" class="S"/></g><path d="M205.32 38.6h0-.1l-.1-.02-.1-.01-.1-.02-.1-.01-.1-.02-.1-.01h-.1l-.1-.01-.12-.01-.28-.02h-.16l-.17.01-.2.02-.22.01-.15.03-.15.02-.13.04-.22.1-.1.06-.15.15-.05.08-.04.08-.01.1v.1l.02.1.03.1.06.1.08.1.15.14.2.12.2.1.23.08.24.08.25.08.25.1.24.1.23.13.2.16.2.2.16.23.12.3.08.35.03.4-.03.48-.05.36-.1.3-.12.3-.15.25-.17.22-.2.2-.2.17-.24.14-.24.12-.25.1-.26.08-.26.06-.26.05-.26.02h-.25l-.23.01h-.33l-.3-.01h-.52-.22l-.2-.02-.18-.01-.17-.02-.16-.02-.15-.03-.14-.02-.13-.04-.13-.03-.12-.05-.12-.04-.13-.05.34-1.68h.07l.08.02.1.03.26.06.15.03.17.04.18.03.2.03.2.03.2.02.2.03.22.01h.66l.22-.05.18-.06.13-.08.1-.1.07-.1.06-.12.04-.12.03-.1.02-.22-.07-.2-.13-.16-.2-.12-.23-.12-.27-.1-.3-.1-.3-.12-.3-.14-.3-.16-.26-.2-.25-.24-.2-.3-.13-.34-.07-.4v-.48l.03-.3.06-.28.07-.26.1-.24.13-.23.13-.2.16-.2.2-.16.22-.15.24-.12.28-.1.3-.1.34-.07.38-.05.4-.03h.45.28.26.24l.2.01.2.01.17.02.16.01.13.02.13.01h.1l.1.02.1.02.2.03.06.01-.4 1.72" class="T U X Y"/><path d="M207.12 35.02h2.1l-.3 1.83h1.27l-.27 1.72-1.34-.04-.73 4.24v.15l.03.13.08.1.1.08.14.05.15.05.16.03.2.01h.16l.16-.02.13-.02.12-.03.1-.03.07-.03.04-.01.02-.01-.27 1.4-.05.04-.05.03-.06.03-.05.03-.05.02-.06.03-.14.04-.07.03-.08.01h-.1l-.1.01-.1.02-.1.01-.13.02-.12.01h-.58l-.3-.02-.26-.03-.24-.05-.2-.05-.18-.07-.14-.07-.13-.1-.1-.1-.07-.1-.06-.13-.03-.13-.03-.14v-.33l.02-.17.02-.2 1.45-8.28z" class="S V"/><path d="M207.12 35.02h2.1l-.3 1.83h1.27l-.27 1.72-1.34-.04-.73 4.24v.15l.03.13.08.1.1.08.14.05.15.05.16.03.2.01h.16l.16-.02.13-.02.12-.03.1-.03.07-.03.04-.01v-.01l-.27 1.4-.05.04-.05.03-.06.03-.05.03-.05.02-.06.03-.14.04-.07.03-.08.01h-.1l-.1.01h-.1l-.1.01-.13.02-.12.01h-.58l-.3-.02-.26-.03-.24-.05-.2-.05-.18-.07-.14-.07-.13-.1-.1-.1-.07-.1-.06-.13-.03-.13-.03-.14v-.33l.02-.17.02-.2 1.45-8.28m4.7 6.45h0l-.02.13-.01.14.01.14.03.14.06.15.06.14.08.14.2.26.23.23.14.1.14.08.15.07.15.05.15.03.2.03.2.02.2.03h.2l.2.01h.2l.4-.02.2-.03.2-.04.2-.05.2-.06.2-.1.22-.1.2-.12.22-.13-.3 1.87-.24.12-.13.05-.22.08-.13.04-.12.03-.26.04-.15.02-.16.01-.18.02-.2.01h-1.06l-.38-.04-.38-.06-.38-.1-.37-.1-.36-.15-.34-.18-.32-.22-.3-.26-.26-.3-.22-.35-.18-.4-.13-.44-.1-.5-.02-.56.04-.63.03-.24.05-.28.06-.3.08-.32.12-.32.13-.33.18-.33.2-.32.24-.3.3-.3.33-.26.38-.23.44-.2.5-.14.55-.08.62-.04h.3l.3.03.3.05.32.08.3.12.3.13.27.18.25.22.23.26.2.3.15.35.1.4.06.45.01.52-.05.58-.1.64-.04.46h-5.54l.35-1.5h3.33l.01-.2v-.18l-.02-.17-.03-.15-.05-.14-.06-.13-.07-.1-.08-.1-.1-.1-.1-.08-.1-.07-.12-.06-.12-.04-.12-.03-.26-.04-.15.01h-.13l-.13.03-.13.04-.13.07-.12.07-.1.08-.3.3-.08.12-.07.13-.07.14-.1.3-.03.16-.3 1.57" class="T U X Y"/><path d="M229.96 37.3l-.1-.05-.1-.05-.1-.05-.12-.06-.1-.04-.13-.05-.13-.04-.13-.05-.15-.04-.14-.03-.16-.03-.16-.02-.17-.02-.18-.01h-.56l-.2.01-.2.03-.22.04-.2.06-.2.08-.2.1-.22.13-.2.17-.2.2-.2.24-.18.28-.17.33-.16.38-.14.43-.12.5-.05.27-.03.26v.27.26l.03.26.05.24.07.23.08.23.1.2.14.2.16.17.18.16.2.14.23.1.26.1.3.07.1.02.1.02.14.02.15.01h.17.36.2l.2-.02.2-.04.2-.05.2-.06.2-.08.17-.1.16-.12.15-.14-.34 2.03-.05.03-.04.05-.06.05-.07.05-.08.06-.1.05-.12.06-.14.04-.17.05-.2.04-.23.03-.26.03-.3.02-.34.01-.4-.01-.42-.02-.35-.04-.35-.08-.35-.1-.35-.16-.33-.18-.32-.22-.3-.27-.28-.3-.25-.35-.2-.37-.18-.43-.14-.46-.1-.5-.03-.54.02-.6.08-.63.06-.3.07-.3.07-.3.08-.28.08-.27.1-.27.1-.25.1-.23.1-.24.12-.22.12-.2.14-.2.14-.2.15-.18.15-.17.16-.15.17-.16.18-.14.18-.13.2-.12.2-.12.2-.1.2-.1.23-.1.23-.08.23-.05.25-.06.26-.04.25-.04.28-.03.27-.02.3-.01.24.01.24.02.22.02.23.03.22.03.2.05.2.04.18.04.17.05.16.04.14.05.12.04.1.04.1.03.07.03h.04l-.38 2.1z" class="S V"/><path d="M229.96 37.3h0l-.1-.05-.1-.05-.1-.05-.12-.06-.1-.04-.13-.05-.13-.04-.13-.05-.15-.04-.14-.03-.16-.03-.16-.02-.17-.02-.18-.01h-.56l-.2.01-.2.03-.22.04-.2.06-.2.08-.2.1-.22.13-.2.17-.2.2-.2.24-.18.28-.17.33-.16.38-.14.43-.12.5-.05.27-.03.26v.27.26l.03.26.05.24.07.23.08.23.1.2.14.2.16.17.18.16.2.14.23.1.26.1.3.07.1.02.1.02.14.02.15.01h.17.36.2l.2-.02.2-.04.2-.05.2-.06.2-.08.17-.1.16-.12.15-.14-.34 2.03-.05.03-.04.05-.06.05-.07.05-.08.06-.1.05-.12.06-.14.04-.17.05-.2.04-.23.03-.26.03-.3.02-.34.01-.4-.01-.42-.02-.35-.04-.35-.08-.35-.1-.35-.16-.33-.18-.32-.22-.3-.27-.28-.3-.25-.35-.2-.37-.18-.43-.14-.46-.1-.5-.03-.54.02-.6.08-.63.06-.3.07-.3.07-.3.08-.28.08-.27.1-.27.1-.25.1-.23.1-.24.12-.22.12-.2.14-.2.14-.2.15-.18.15-.17.16-.15.17-.16.18-.14.18-.13.2-.12.2-.12.2-.1.2-.1.23-.1.23-.08.23-.05.25-.06.26-.04.25-.04.28-.03.27-.02.3-.01.24.01.24.02.22.02.23.03.22.03.2.05.2.04.18.04.17.05.16.04.14.05.12.04.1.04.1.03.07.03h.04l-.38 2.1" class="T U X Y"/><path d="M248.65 44.98h-2.1l.15-.84v-.08l-.12.16-.13.13-.13.12-.13.1-.14.1-.14.08-.28.14-.14.05-.15.04-.14.04-.16.02-.15.02-.14.02h-.15-.16l-.4-.03-.36-.1-.34-.13-.3-.17-.27-.22-.25-.26-.2-.28-.18-.32-.15-.34-.12-.36-.1-.37-.06-.4-.02-.38v-.4l.03-.38.07-.4.12-.45.13-.42.16-.4.2-.37.2-.34.23-.3.23-.27.25-.25.27-.23.28-.2.3-.16.28-.13.3-.1.3-.07.3-.04.3-.02.22.01.2.02.2.04.18.06.17.06.16.06.15.1.14.08.12.1.1.1.1.1.1.1.08.1.07.1.05.1.05.1.53-3h2.07l-1.72 9.93z" class="S V"/><path d="M248.65 44.98h-2.1l.15-.84v-.08l-.12.16-.13.13-.13.12-.13.1-.14.1-.14.08-.28.14-.14.05-.15.04-.14.04-.16.02-.15.02-.14.02h-.15-.16l-.4-.03-.36-.1-.34-.13-.3-.17-.27-.22-.25-.26-.2-.28-.18-.32-.15-.34-.12-.36-.1-.37-.06-.4-.02-.38v-.4l.03-.38.07-.4.12-.45.13-.42.16-.4.2-.37.2-.34.23-.3.23-.27.25-.25.27-.23.28-.2.3-.16.28-.13.3-.1.3-.07.3-.04.3-.02.22.01.2.02.2.04.18.06.17.06.16.06.15.1.14.08.12.1.1.1.1.1.1.1.08.1.07.1.05.1.05.1.53-3h2.07l-1.72 9.93" class="T U X Y"/><g class="V"><path d="M245.2 43.15l.22-.02.2-.04.2-.06.17-.08.16-.1.15-.12.14-.12.13-.14.12-.15.1-.17.1-.18.1-.18.07-.2.06-.2.06-.2.03-.2.04-.22.03-.22v-.2l-.01-.2-.03-.2-.03-.2-.05-.18-.06-.18-.08-.15-.1-.14-.1-.13-.1-.1-.13-.1-.14-.06-.14-.04-.16-.02-.2.02-.2.03-.18.06-.17.08-.16.1-.15.13-.12.12-.13.15-.12.16-.2.36-.1.2-.07.2-.06.2-.06.22-.05.22-.04.33.02.37.05.37.1.36.15.3.2.25.25.17.3.06z" class="a"/><path d="M198.6 43.3l-.3 1.68h-1.9l.05-.3.07-.5.03-.12-.1.13-.12.12-.15.1-.16.1-.18.1-.2.1-.2.1-.2.07-.22.07-.44.1-.23.03h-.44-.2l-.2-.03-.26-.07-.25-.08-.2-.1-.2-.12-.17-.12-.15-.14-.12-.14-.1-.15-.1-.16-.07-.17-.06-.16-.05-.17-.03-.18-.04-.34v-.17l.03-.3.04-.28.08-.27.1-.26.12-.24.13-.22.16-.2.2-.2.2-.18.2-.16.22-.14.23-.12.24-.1.25-.08.26-.07.26-.04h.02l.03-.01.06-.01.08-.01h.1.1l.1-.02.13-.01.13-.02.13-.01.14-.01.24-.02.22-.02h.26l.18.01h.17.16.14.1l.07.01h.03v-.05l.05-.14.04-.16v-.14l-.03-.17L197 39l-.1-.14-.12-.1-.15-.1-.15-.07-.2-.04-.2-.02-.22-.01h-.7l-.5.04-.24.02-.24.04-.44.06-.2.04-.18.04-.17.04-.13.05-.1.05-.1.05.54-1.83.17-.07.17-.06.18-.05.36-.08.4-.06.2-.02.66-.03h.73l.27.01.26.01.22.01.22.04.24.06.24.07.24.1.23.1.22.13.22.14.2.17.16.2.16.2.1.23.08.24.04.26v.3l-.04.3-.77 4z" class="S"/></g><path d="M198.6 43.3l-.3 1.68h-1.9l.05-.3.07-.5.03-.12-.1.13-.12.12-.15.1-.16.1-.18.1-.2.1-.2.1-.2.07-.22.07-.44.1-.23.03h-.44-.2l-.2-.03-.26-.07-.25-.08-.2-.1-.2-.12-.17-.12-.15-.14-.12-.14-.1-.15-.1-.16-.07-.17-.06-.16-.05-.17-.03-.18-.04-.34v-.17l.03-.3.04-.28.08-.27.1-.26.12-.24.13-.22.16-.2.2-.2.2-.18.2-.16.22-.14.23-.12.24-.1.25-.08.26-.07.26-.04h.02l.03-.01.06-.01.08-.01h.1.1l.1-.02.13-.01.13-.02.13-.01.14-.01.24-.02.22-.02h.26l.18.01h.17.16.14.1l.07.01h.03v-.05l.05-.14.04-.16v-.14l-.03-.17L197 39l-.1-.14-.12-.1-.15-.1-.15-.07-.2-.04-.2-.02-.22-.01h-.7l-.5.04-.24.02-.24.04-.44.06-.2.04-.18.04-.17.04-.13.05-.1.05-.1.05.54-1.83.17-.07.17-.06.18-.05.36-.08.4-.06.2-.02.66-.03h.73l.27.01.26.01.22.01.22.04.24.06.24.07.24.1.23.1.22.13.22.14.2.17.16.2.16.2.1.23.08.24.04.26v.3l-.04.3-.77 4" class="T U X Y"/><g class="V"><path d="M196.77 41.32l-.01-.04-.03-.04-.04-.02-.08-.02h-.08l-.1-.01h-.23l-.12.01h-.13l-.12.02-.12.01-.12.02-.1.02-.08.02-.1.03-.05.01-.15.05-.28.14-.2.12-.1.07-.1.08-.1.1-.08.1-.08.1-.05.1-.05.13-.02.12-.01.26.04.2.08.15.1.12.1.07.13.05.12.02h.12.23l.2-.02.2-.03.17-.05.16-.05.14-.07.13-.07.12-.08.1-.08.1-.1.07-.08.12-.18.08-.18.02-.08.06-.22.06-.25.04-.24.04-.2z" class="Z"/><path d="M182.63 44.98h-2.07l1.72-9.96h3.6l.34 5.9 2.48-5.9h3.75l-1.76 9.96h-2.07l1.3-7.44h-.08l-3.1 7.44h-2.33l-.02-.3-.12-2-.08-1.35-.07-1.36-.07-1.2-.07-1.23h-.1l-1.26 7.44z" class="S"/></g><path d="M182.63 44.98h-2.07l1.72-9.96h3.6l.34 5.9 2.48-5.9h3.75l-1.76 9.96h-2.07l1.3-7.44h-.08l-3.1 7.44h-2.33l-.02-.3-.12-2-.08-1.35-.07-1.36-.07-1.2-.07-1.23h-.1l-1.26 7.44" class="T U X Y"/><g class="S V"><path d="M236.27 43.3l-.3 1.68h-1.9l.01-.3.01-.27v-.2l.01-.1-.1.12-.1.1-.14.1-.15.1-.16.1-.18.1-.2.1-.2.08-.42.12-.2.04-.2.03h-.22-.2-.2l-.2-.03-.28-.07-.24-.08-.2-.1-.2-.12-.17-.12-.14-.14-.12-.14-.1-.15-.1-.16-.07-.17-.06-.16-.04-.17-.03-.18-.04-.34v-.17-.3l.05-.28.06-.27.1-.26.1-.24.15-.22.16-.2.17-.2.2-.18.2-.16.22-.14.23-.12.24-.1.25-.08.25-.07.25-.04h.02l.04-.01.05-.01.08-.01h.2l.12-.02.12-.01.13-.02.4-.03h.12.1l.1-.01h.27l.36.02h.17.14.12l.07.01h.03l.02-.05.02-.14.02-.16.02-.14-.04-.17-.05-.15-.1-.14-.12-.1-.13-.1-.16-.07-.17-.04-.18-.02-.22-.01h-.7l-.5.04-.24.02-.23.04-.23.03-.22.03-.2.04-.18.04-.17.04-.13.05-.1.05-.08.05.53-1.83.16-.07.18-.06.17-.05.2-.04.18-.04.2-.03.2-.03.2-.02.2-.01.44-.02h.7l.52.02.2.01.23.04.24.06.24.07.23.1.24.1.23.13.2.14.2.17.18.2.15.2.1.23.08.24.06.26v.3l-.04.3-.8 4z"/><path d="M235.96 45.04L236 45l.3-1.7h-.1l-.3 1.7.05-.05v.1l.04-.01V45l-.05.05z"/><path d="M234 44.98l.05.06h1.9v-.1h-1.9l.04.05h-.1v.06h.06l-.05-.06z"/><path d="M234.13 44.13l-.07-.06-.03.12-.01.2v.27l-.01.3h.1l.02-.3.01-.27-.01-.2v-.06l-.06-.06.07.06z"/><path d="M231.18 45.1h0l.42.06.2-.01.22-.02.22-.03.2-.03.42-.12.2-.08.2-.1.18-.1.32-.22.14-.1.12-.12.1-.12-.07-.06-.1.12-.1.1-.28.22-.16.1-.18.1-.2.1-.18.07-.2.06-.22.07-.2.03-.2.03-.22.02-.2.01-.2-.03-.2-.03-.01.1z"/><path d="M229.34 42.8h0l.02.34.02.18.04.18.04.16.06.18.06.17.1.16.1.16.12.14.15.15.18.12.2.12.22.1.25.08.28.06.01-.1-.27-.06-.23-.08-.2-.1-.2-.1-.16-.12-.14-.13-.12-.14-.1-.14-.08-.16-.14-.32-.03-.17-.03-.18-.02-.16-.02-.17.01-.17h-.1z"/><path d="M232.06 39.9h0l-.26.05-.26.06-.25.1-.24.1-.24.12-.23.16-.2.16-.2.18-.18.2-.16.2-.15.23-.1.25-.1.26-.07.27-.05.3-.02.3h.1l.01-.3.04-.28.07-.25.1-.26.1-.24.14-.2.16-.2.16-.2.2-.17.2-.16.2-.13.23-.13.23-.1.25-.1.24-.06.25-.05v-.1z"/><path d="M233.63 39.73h0-.1l-.1.02-.1.01h-.12l-.26.02-.13.02h-.13l-.12.02-.12.01-.1.01-.1.02h-.08l-.06.01-.03.01h-.02v.1h.02l.05-.01h.04l.08-.01.1-.02h.1l.24-.04h.13l.13-.02h.13l.13-.02.12-.01h.3v-.1z"/><path d="M234.65 39.8l.05-.04h-.1l-.12-.01-.14-.01H234l-.18-.02h-.18v.1h.36l.18.01h.3l.12.01.07.01h.03l.04-.04-.04.04h.04v-.04l-.1-.02z"/><path d="M234.73 39.33h-.01v.14l-.03.15-.02.14-.02.05.1.02.02-.06.02-.13.03-.17.02-.14h-.1z"/><path d="M233.83 38.58h0l.17.01.16.05.15.07.13.1.1.1.1.13.06.14.03.16h.1l-.03-.18-.06-.16-.1-.15-.12-.12-.14-.1-.17-.07-.17-.05-.2-.02v.1z"/><path d="M230.57 38.94l.08.05.07-.04.1-.05.13-.05.17-.05.18-.03.2-.04.22-.04.22-.03.23-.03.24-.02.25-.03.25-.01h.7l.22.01v-.1h-.22l-.22-.02h-.24l-.24.02-.25.01-.25.03-.24.02-.23.03-.24.03-.22.04-.2.04-.18.03-.16.05-.15.04-.1.06-.1.05.08.05-.1-.02z"/><path d="M231.13 37.07l-.03.04-.53 1.83.1.02.53-1.83-.03.03-.03-.1-.02.01v.03l.03-.04z"/><path d="M234.5 36.73h0l-.26-.02H234h-.7l-.22.02-.22.01-.42.02-.2.03-.2.03-.38.08-.18.06-.34.12.03.1.5-.18.18-.03.2-.04.38-.06.42-.04h1.67v-.08z"/><path d="M237.1 39.3h0l.04-.3v-.3l-.05-.27-.08-.25-.12-.23-.16-.22-.18-.18-.2-.17-.22-.15-.23-.13-.24-.1-.24-.1-.25-.07-.23-.05-.24-.04-.2-.01v.08l.2.02.22.04.24.05.23.07.24.1.23.1.22.12.2.14.2.17.16.18.16.2.1.22.1.24.05.25v.3l-.04.3.1.02z"/><path d="M236.32 43.3h0l.8-4-.1-.02-.8 4h.1z"/></g><path d="M234.43 41.32l-.01-.05-.03-.04-.05-.02h-.08l-.08-.01-.1-.01h-.12l-.1.01-.12.02h-.12l-.12.02-.12.01-.1.02-.2.04-.08.02h-.05l-.06.03-.08.02-.08.03-.1.05-.1.04-.1.06-.1.06-.1.07-.1.1-.1.08-.08.1-.07.1-.1.24-.02.13-.01.26.04.2.06.15.1.12.12.07.13.05.13.02h.12.23l.2-.02.2-.04.18-.05.16-.06.15-.07.14-.08.12-.1.1-.08.1-.1.1-.1.07-.1.05-.1.04-.1.03-.1.02-.08.03-.2.04-.22.03-.2.01-.2z" class="V a"/><g class="S V"><path d="M250.07 43.94l.02-.17.06-.2.1-.18.13-.16.16-.13.18-.1.2-.06.2-.02.22.02.2.06.2.1.15.13.13.16.1.18.06.2.02.17h-.23l-.01-.13-.04-.17-.08-.15-.1-.13-.12-.1-.14-.07-.17-.06-.18-.01-.17.01-.17.06-.14.07-.12.1-.1.13-.08.15-.04.17v.13h-.22zm.68 0v-.45h.6.06l.05.03.04.05.03.05.02.1-.01.07-.01.05-.02.05v.01h-.3l.05-.01h.05.04l.03-.02.01-.03v-.04-.1-.03l-.03-.01-.02-.02h-.04l-.04-.01h-.3v.3h-.2z"/><path d="M250.07 43.94l-.01.05.03.22.06.2.1.2.13.15.16.13.18.1.2.06.2.02.22-.02.2-.06.2-.1.15-.13.13-.15.1-.2.06-.2.03-.22v-.05h-.23l.01.05-.02.18-.04.17-.08.14-.1.13-.12.1-.14.08-.17.05-.18.02-.17-.02-.17-.05-.14-.08-.12-.1-.1-.13-.08-.14-.04-.17v-.22h-.22zm.68 0v.47h.2v-.38h.2l.23.38h.15l-.23-.38h.06l.05-.02h.05l.04-.03v-.03h-.32l-.04.01h-.2v-.01h-.2z"/></g><path d="M250.06 44h0v-.22l.06-.2.1-.18.13-.16.16-.13.18-.1.2-.06h.42l.2.06.18.1.16.13.13.16.1.18.06.2v.44l-.06.2-.1.18-.13.15-.16.13-.18.1-.2.06h-.42l-.2-.06-.18-.1-.16-.13-.13-.15-.1-.18-.06-.2V44m.88.42h-.2v-.92h.7v.22h-.1l.23.38h-.15l-.23-.38h-.26v.38m.2-.46h.17v-.05.1h-.36v.3h.2m0 .92h.18l.17-.05.14-.08.12-.1.1-.13.08-.14v-.7l-.08-.2-.1-.13-.12-.1-.14-.08-.17-.05h-.35l-.17.05-.15.08-.12.1-.08.13-.08.15v.7l.08.15.1.13.12.1.15.08.17.05h.17" class="T U X Y"/><path d="M236.84 44.98h2.14l.8-4.48.04-.17.05-.17.06-.16.08-.17.1-.16.1-.15.13-.15.13-.13.16-.12.17-.1.2-.1.22-.08.24-.06.27-.04.3-.02h.2l.34-1.95-.2.01-.2.03-.2.04-.2.05-.16.06-.16.08-.15.08-.15.1-.14.1-.12.1-.25.25-.1.13-.1.14-.12.14-.1.15.23-1.38h-2.13l-1.42 8.13z" class="S V"/><path d="M236.84 44.98h2.14l.8-4.48.04-.17.05-.17.06-.16.08-.17.1-.16.1-.15.13-.15.13-.13.16-.12.17-.1.2-.1.22-.08.24-.06.27-.04.3-.02h.2l.34-1.95-.2.01-.2.03-.2.04-.2.05-.16.06-.16.08-.15.08-.15.1-.14.1-.12.1-.25.25-.1.13-.1.14-.12.14-.1.15.23-1.38h-2.13l-1.42 8.13" class="T U X Y"/><path d="M216.74 44.98h2.18l.76-4.48.04-.16.03-.16.06-.15.06-.16.07-.14.1-.14.1-.12.12-.12.14-.1.16-.1.2-.1.2-.07.23-.06.26-.03.3-.03h.02l.03.01.04.01h.04.04.03.02.01l.01-.03v-.1l.03-.14.04-.17.05-.2.05-.2.07-.22.07-.2.06-.14.08-.15.07-.14.08-.13.07-.1.05-.1.04-.05.01-.02h-.01-.06l-.06-.01h-.1l-.05-.01h-.06l-.23.01-.2.03-.2.04-.18.04-.18.06-.3.15-.14.1-.13.1-.23.23-.12.13-.1.13-.1.14-.1.16-.12.15.28-1.38h-2.18l-1.42 8.13z" class="S V"/><path d="M216.74 44.98h2.18l.76-4.48.04-.16.03-.16.06-.15.06-.16.07-.14.1-.14.1-.12.12-.12.14-.1.16-.1.2-.1.2-.07.23-.06.26-.03.3-.03h.02l.03.01.04.01h.04.04.03.02.01l.01-.03v-.1l.03-.14.04-.17.05-.2.05-.2.07-.22.07-.2.06-.14.08-.15.07-.14.08-.13.07-.1.05-.1.04-.05.01-.02h-.01-.06l-.06-.01h-.1l-.05-.01h-.06l-.23.01-.2.03-.2.04-.18.04-.18.06-.3.15-.14.1-.13.1-.23.23-.12.13-.1.13-.1.14-.1.16-.12.15.28-1.38h-2.18l-1.42 8.13" class="T U X Y"/><g class="V"><g class="a"><path d="M250.1 52.97v-.03l.06-.2.1-.17.13-.16.16-.12.18-.1.2-.05.2-.02.22.02.2.05.2.1.15.12.13.16.1.17.06.2v.03h-.22l-.04-.16-.08-.14-.1-.13-.12-.1-.14-.08-.17-.06h-.18-.17l-.17.06-.14.08-.12.1-.1.13-.08.14-.04.16h-.22zm.65 0v-.27h.5l.1.02.06.01.05.03.04.04.03.05.01.05.01.07h-.15v-.08-.03l-.03-.01-.02-.02-.04-.01h-.35v.15h-.2z"/><path d="M250.06 53.13l.03-.16h.22v.16h-.23zm.7 0v-.16h.2v.15h.2l.07-.01h.05.05l.04-.01.03-.02v-.03l.02-.04v-.01h.15l-.02.1-.02.04-.03.02h-.73zm1.23 0l-.02-.15v-.01h.22l.03.16h-.23z"/><path d="M250.06 53.13v.03l.03.22.06.2.1.2.13.15.16.13.18.1.2.06.2.02.22-.02.2-.06.2-.1.15-.13.13-.15.1-.2.06-.2.03-.22v-.03h-.23v.03l-.02.18-.04.17-.08.14-.1.13-.12.1-.14.08-.17.05-.18.02-.17-.02-.17-.05-.14-.08-.12-.1-.1-.13-.08-.14-.04-.17v-.2h-.23zm.7 0v.45h.2v-.38h.2l.23.38h.15l-.23-.38h.06l.05-.02.05-.01.04-.04h-.73z"/></g><path d="M216.97 39.27l-.06-.45-.1-.4-.15-.35-.2-.3-.22-.28-.25-.2-.27-.18-.3-.14-.3-.12-.3-.08-.3-.05h-1.22l-.55.1-.5.14-.44.2-.38.23-.33.26-.3.3-.24.3-.2.32-.18.33-.13.33-.12.32-.08.32-.06.3v1.7l.08.5.13.45.18.4.22.35.26.3.3.26.32.22.34.2.36.15.37.1.38.1.38.05h2.97l.24-.12.3-1.87-.22.13-.2.12-.22.1-.2.08-.2.07h-2.37l-.15-.05-.15-.07-.13-.08-.14-.1-.12-.1-.1-.1-.1-.13-.1-.13-.08-.14-.06-.14-.05-.14v-.5h4.92v-.46l.1-.64.05-.58v-.52zm-2.06.7h-2.77v-.42l.05-.15.07-.14.07-.13.08-.12.1-.1.1-.1.1-.1.12-.08.1-.07.13-.06h1.04l.12.06.1.07.1.08.1.1.16.22.05.13.05.14v.5z" class="S"/></g><rect x="1086.84" y=".82" width="125.43" height="78.39" rx="4.18" fill="#0078a9"/><path d="M1125.75 38.18v-1.25l-.6 1.25h-5.2l-.65-1.35v1.35h-9.7l-1.16-2.7h-1.95l-1.2 2.7h-5V30l3.7-8.35h7.06l1 2.37v-2.35h8.64l1.9 4 1.86-4h27.27a4.65 4.65 0 0 1 2.37.64v-.64h6.87v.9a5.6 5.6 0 0 1 3.06-.9h12.13l1.06 2.4v-2.4h7.77l1.4 2.4v-2.4h7.43v16.56h-7.63l-1.8-2.9v2.87h-9.48l-1.33-3h-1.86l-1.25 3h-5.74a7.43 7.43 0 0 1-3.75-1.18v1.18h-11.43v-3.86a.43.43 0 0 0-.43-.52h-.42v4.38h-22.9zm-5.7 3.6h15l2.17 2.45 2.22-2.45h11.54a5.31 5.31 0 0 1 2.11.58v-.58h10.35a5.24 5.24 0 0 1 2.4.65v-.65h13.2v.6a4.49 4.49 0 0 1 2.21-.6h8.6v.6a5.26 5.26 0 0 1 2.23-.6h6.76v15.6a3.73 3.73 0 0 1-2.73 1h-8.9v-.5a4.57 4.57 0 0 1-2.14.5h-23.67v-4c0-.4-.17-.47-.53-.47h-.33v4.5h-7.4v-4.47a5 5 0 0 1-2.19.44h-2.66v4h-9.12l-2.07-2.53-2.22 2.53h-14.8v-16.6z" class="S"/><path d="M1167.38 44.26h9.42v2.53h-6.54V49h6.36v2.23h-6.36v2.32h6.54V56h-9.42V44.26zm27.62 4.57c3.54.18 3.84 2 3.84 3.84a3.43 3.43 0 0 1-3.7 3.38h-6.05V53.5h4.72c.8 0 2 0 2-1.13a.92.92 0 0 0-1.06-1c-.38-.05-1.78-.13-2-.14-3.2-.08-3.95-1.68-3.95-3.6a3.24 3.24 0 0 1 3.44-3.4h6.05v2.52h-4.43c-1 0-2.1-.12-2.1 1 0 .72.54.87 1.22.93.23.1 1.8.18 2.02.17zm-10.85 0c3.54.18 3.84 2 3.84 3.84a3.43 3.43 0 0 1-3.7 3.38h-6.05V53.5h4.72c.8 0 2 0 2-1.13 0-.54-.2-.88-1.06-1-.38-.05-1.78-.13-2-.14-3.2-.08-3.94-1.68-3.94-3.6a3.23 3.23 0 0 1 3.43-3.4h6.05v2.52H1183c-1 0-2.1-.12-2.1 1 0 .72.54.87 1.22.93.24.1 1.8.18 2.02.17zm-34.17-4.53h-10.12l-3.3 3.64-3.2-3.67H1122V56h11l3.46-3.88 3.38 3.9h5.53v-4h3.88c1.5 0 4.22-.05 4.22-4.17a3.25 3.25 0 0 0-3.49-3.57zm-18.54 9.2h-6.65v-2.32h6.36V49h-6.36v-2.2h7l2.8 3.2zm11 1.36l-4.14-4.9 4.14-4.6v9.5zm6.5-5.28h-3.5v-2.82h3.6c.793.008 1.428.657 1.42 1.45s-.657 1.428-1.45 1.42zm14.96 1.1a3.2 3.2 0 0 0 2-3.25c0-2.5-2-3.14-3.46-3.14h-7.5v11.74h2.88V51.9h3.77c1 0 1.4 1 1.4 2l.08 2.15h2.8l-.1-2.4c0-1.9-.52-2.8-1.9-2.95zm-2.46-1.2h-3.6v-2.66h3.6a1.38 1.38 0 0 1 1.59 1.35c-.03.76-.45 1.3-1.6 1.3zM1156.1 24h2.88v11.75h-2.88zm-23.6 0h9.42v2.53h-6.54v2.2h6.35v2.23h-6.35v2.3h6.54v2.47h-9.42V24zm20.1 6.4a3.2 3.2 0 0 0 2-3.25c0-2.52-2-3.14-3.46-3.14h-7.5v11.74h2.88V31.6h3.77c1 0 1.4 1 1.42 2l.08 2.15h2.8l-.1-2.4c-.04-1.86-.53-2.8-1.9-2.95zm-2.5-1.2h-3.6v-2.7h3.6a1.38 1.38 0 0 1 1.59 1.35c0 .82-.42 1.34-1.6 1.34zm-24.25-5.2l-3.54 7.88-3.53-7.87h-4.52v11.3l-5-11.3h-3.82l-5.14 11.74h3l1.13-2.62h5.75l1.14 2.62h5.8v-8.7l3.85 8.7h2.62l3.94-8.57v8.57h2.9V24h-4.6zm-20.3 6.6l1.72-4.1 1.8 4.1h-3.5zm83.17-6.6v8.13l-4.86-8.13h-4.26v11l-4.9-11h-3.8l-4 9.1h-1.85c-.7-.14-1.78-.63-1.8-2.7v-.9c0-2.75 1.5-3 3.4-3h1.8v-2.55h-3.76c-1.3 0-4.16 1-4.26 5.82-.07 3.25 1.35 5.93 4.55 5.93h3.8l1.13-2.62h5.75l1.14 2.62h5.65v-8.6l5.2 8.6h3.93V24h-2.88zm-17.7 6.6l1.72-4.1 1.8 4.1H1171z" fill="#0078a9"/><defs ><path id="B" d="M533.54 35.43a3.91 3.91 0 0 0-3.93 1.53 6.83 6.83 0 0 0 .2-1.48h-3.15c-.45 3-1.26 6-1.9 9l-.16.65h3.58c.43-2 .92-4.9 1.5-5.8a2.31 2.31 0 0 1 2.76-1.17z"/></defs></svg>