<svg xmlns="http://www.w3.org/2000/svg" xmlns:xlink="http://www.w3.org/1999/xlink" width="637" height="250" xmlns:v="https://vecta.io/nano"><style><![CDATA[.B{fill:#fff}.C{fill:none}.D{stroke:#fff}.E{fill-rule:evenodd}.F{stroke-width:.21}.G{stroke-miterlimit:2.61}.H{stroke-width:.22}.I{fill:#ec1c2e}.J{fill:#fbb231}.K{fill:#13457c}.L{fill:#0084c4}.M{fill:#0078a9}]]></style><defs><clipPath id="A"><path transform="translate(316 366)" stroke="#707070" stroke-width="1" d="M0 0h637v250H0z" class="C"/></clipPath><path id="B" d="M390.44 433.57l-5.84 16.2-.7-3.5-2.07-10.58a2.62 2.62 0 0 0-2.91-2.12h-9.66l-.1.4a22.87 22.87 0 0 1 6.41 2.69l5.32 20.45h6.38l9.75-23.53h-6.58z"/><path id="C" d="M438.63 457.1h5.62l-4.9-23.53h-4.9a2.82 2.82 0 0 0-2.83 1.75l-9.17 21.78h6.4l1.28-3.5h7.8zm-6.74-8.32l3.22-8.8 1.8 8.8h-5z"/><path id="D" d="M422.94 439.23l.87-5.05a17.69 17.69 0 0 0-5.51-1c-3 0-10.26 1.33-10.26 7.8 0 6.08 8.48 6.16 8.48 9.35s-7.6 2.62-10.1.6l-.9 5.28a17.16 17.16 0 0 0 6.94 1.28c4.18 0 10.5-2.17 10.5-8.06 0-6.12-8.55-6.7-8.55-9.35s5.94-2.3 8.56-.85z"/><path id="E" d="M383.9 446.27l-2.06-10.58a2.62 2.62 0 0 0-2.91-2.12h-9.66l-.1.4a23.74 23.74 0 0 1 9.09 4.56 18.36 18.36 0 0 1 5.65 7.74z"/><path id="F" d="M1025.25 440.44a1.79 1.79 0 0 0-1.31.8l-3.3 5.64c-.16.28-.32.1-.35 0l-.93-5.6a1.15 1.15 0 0 0-1.14-.82h-1.87a.62.62 0 0 0-.63.8l1.7 10a2.07 2.07 0 0 1 0 1.24l-1.85 3.22c-.27.44-.12.8.32.8h2.16a1.75 1.75 0 0 0 1.31-.79l8.32-14.07s.8-1.2.06-1.2h-2.5"/><path id="G" d="M999 443.3a4.39 4.39 0 0 1-2.63.69h-.5a.63.63 0 0 1-.64-.8l.63-2.7a1.06 1.06 0 0 1 1-.79h.68a3.3 3.3 0 0 1 1.81.41 1.36 1.36 0 0 1 .6 1.24 2.25 2.25 0 0 1-.94 2m4.5-4.18a3.12 3.12 0 0 0-1.14-1.23 5.26 5.26 0 0 0-1.81-.67 15.11 15.11 0 0 0-2.46-.2h-4.36a1.09 1.09 0 0 0-1 .79l-2.94 12.78a.62.62 0 0 0 .63.8h2.1a1.07 1.07 0 0 0 1-.8l.72-3.1a1.07 1.07 0 0 1 1-.79h.6a9.9 9.9 0 0 0 6-1.57 4.88 4.88 0 0 0 2.13-4.14 3.86 3.86 0 0 0-.4-1.88"/><path id="H" d="M1013.57 440.95a8 8 0 0 0-3.73-.67 16.47 16.47 0 0 0-2.53.2l-1.07.2a1.22 1.22 0 0 0-.92 1l-.25 1c-.14.67.24.64.4.6.406-.147.82-.27 1.24-.37a9.15 9.15 0 0 1 2-.26 5.18 5.18 0 0 1 1.89.27 1 1 0 0 1 .63.95c.02.096.02.194 0 .3a.32.32 0 0 1-.3.19l-3.08.33a9.62 9.62 0 0 0-2.65.73 4.11 4.11 0 0 0-1.79 1.42 3.85 3.85 0 0 0-.6 2.18 2.56 2.56 0 0 0 .85 2 3.19 3.19 0 0 0 2.2.76 5.88 5.88 0 0 0 1.31-.12c.342-.086.676-.2 1-.34.3-.133.59-.294.86-.48l.8-.52-.08.34a.61.61 0 0 0 .55.78h2a1.09 1.09 0 0 0 .89-.78l1.53-6.58a4.24 4.24 0 0 0 .08-.54c.01-.167.01-.333 0-.5a2.2 2.2 0 0 0-1.23-2.07zm-3.7 7.84c-.26.163-.535.303-.82.42a3 3 0 0 1-1.09.24 2.43 2.43 0 0 1-1.19-.23.81.81 0 0 1-.41-.78 1.58 1.58 0 0 1 .3-1 2.17 2.17 0 0 1 .89-.6c.45-.145.912-.25 1.38-.3l1.54-.17c.12 0 .2-.07.15.25 0 .14-.3 1.26-.42 1.76a1 1 0 0 1-.34.42z"/><path id="I" d="M1051.44 440.96a8 8 0 0 0-3.73-.67 16.37 16.37 0 0 0-2.53.2l-1.07.2a1.22 1.22 0 0 0-.92 1l-.26 1c-.14.67.24.64.4.6.406-.148.82-.27 1.24-.37a9.21 9.21 0 0 1 2-.26 5.18 5.18 0 0 1 1.89.27 1 1 0 0 1 .63.95.73.73 0 0 1 0 .3.32.32 0 0 1-.3.19l-3.08.33a9.65 9.65 0 0 0-2.65.73 4.13 4.13 0 0 0-1.79 1.42 3.87 3.87 0 0 0-.6 2.18 2.56 2.56 0 0 0 .85 2 3.2 3.2 0 0 0 2.2.75 5.85 5.85 0 0 0 1.31-.12c.342-.087.676-.2 1-.34a5.32 5.32 0 0 0 .86-.48l.8-.53-.08.34a.62.62 0 0 0 .56.78h2a1.09 1.09 0 0 0 .9-.78l1.52-6.58c.04-.178.068-.358.08-.54a4.27 4.27 0 0 0 0-.5 2.2 2.2 0 0 0-1.23-2.05zm-3.7 7.84a5.69 5.69 0 0 1-.82.42 3 3 0 0 1-1.09.24 2.42 2.42 0 0 1-1.19-.23.8.8 0 0 1-.41-.78 1.58 1.58 0 0 1 .3-1 2.16 2.16 0 0 1 .89-.6c.45-.146.91-.25 1.38-.3l1.54-.17c.12 0 .2-.07.15.25 0 .14-.3 1.26-.42 1.76a1 1 0 0 1-.29.42z"/><path id="J" d="M1036.9 443.35a4.41 4.41 0 0 1-2.63.68h-.52a.62.62 0 0 1-.63-.79l.63-2.7a1.07 1.07 0 0 1 1-.79h.7a3.4 3.4 0 0 1 1.81.4 1.4 1.4 0 0 1 .61 1.25 2.3 2.3 0 0 1-.94 2m4.5-4.18a3.21 3.21 0 0 0-1.15-1.23 5.17 5.17 0 0 0-1.82-.67 14.48 14.48 0 0 0-2.46-.19h-4.37a1.09 1.09 0 0 0-1 .8l-2.94 12.78a.61.61 0 0 0 .62.79h2.1a1.09 1.09 0 0 0 1-.79l.7-3.1a1.07 1.07 0 0 1 1-.79h.6a9.87 9.87 0 0 0 6-1.57 4.92 4.92 0 0 0 2.13-4.14 4 4 0 0 0-.4-1.88"/><path id="K" d="M1058.68 437.18h-1.87a1.07 1.07 0 0 0-1 .73v.07l-.1.47-2.58 11.7-.12.5a.61.61 0 0 0 .55.77h1.94a1.08 1.08 0 0 0 1-.73v-.06l2.8-12.67a.62.62 0 0 0-.62-.77z"/><path id="L" d="M1061.52 439.76h-.4a.63.63 0 0 1-.47-.17.76.76 0 0 1-.16-.54v-1.08h-.23v-.3h.2v-.58h.34v.58h.7v.3h-.7v1.18a.42.42 0 0 0 .05.17.24.24 0 0 0 .11.11.54.54 0 0 0 .21 0h.3v.3z"/><path id="M" d="M1163.9 442.5v13s-7.56-1.36-7.56-6.54c0-4.13 5.6-6 7.56-6.5h0zm0-.24c-4.54-.33-14.84 1.8-14.84 6.46 0 3 5.46 7.48 14.34 7.6.35 0 10.44-.4 10.28-11.22-.13-9.1-6.94-10.7-9.12-11v-.6c8.68.55 15.5 5.77 15.5 12.1 0 6.7-7.63 12.15-17 12.15s-17-5.45-17-12.15 7.6-12.15 17-12.15h.86v8.72z"/><path id="N" d="M905.97 457.85a.73.73 0 0 1 1.246-.526.73.73 0 0 1-.526 1.246.73.73 0 0 1-.72-.72zm.72.55a.53.53 0 0 0-.747.757.53.53 0 0 0 .757-.747zm-.1-.23h-.15v-.68h.27a.29.29 0 0 1 .16 0 .19.19 0 0 1 .08.16.18.18 0 0 1-.11.17l.12.28h-.17l-.1-.25h-.1v.25zm0-.36h.08a.18.18 0 0 0 .09 0 .08.08 0 0 0 0-.07.08.08 0 0 0 0-.06.21.21 0 0 0-.1 0h-.08v.16z"/><path id="O" d="M898.44 450.35a.73.73 0 0 1 1.25-.513.73.73 0 0 1-.53 1.243.73.73 0 0 1-.72-.73zm.72.55a.55.55 0 0 0 .389-.939.55.55 0 0 0-.939.389.55.55 0 0 0 .55.55zm-.1-.23h-.15v-.64h.27a.29.29 0 0 1 .16 0 .2.2 0 0 1 .08.16.18.18 0 0 1-.11.17l.12.28h-.17l-.1-.25h-.1v.25zm0-.36h.08a.18.18 0 0 0 .09 0v-.14a.2.2 0 0 0-.1 0h-.08v.16z"/><path id="P" d="M855.74 439.5l-.58 2.45c-1.7-.72-4-1.1-5.7 0a4.6 4.6 0 0 0-2.07 4.48 2.75 2.75 0 0 0 1.69 2.09 5.68 5.68 0 0 0 4.8-.49l-.63 2.72a9.85 9.85 0 0 1-6 .08 5 5 0 0 1-3.4-4 6.68 6.68 0 0 1 3.69-7 12.4 12.4 0 0 1 8.2-.33z"/><path id="Q" d="M884.37 449.5a4.71 4.71 0 0 1-3.91 1.7c-2.25 0-3.67-1.66-2.87-5.38l.93-4.38h3.43l-.93 4.38c-.32 1.5-.24 2.63 1.27 2.63 1.78 0 2.32-1.08 2.65-2.62l.93-4.38h3.43l-1.54 7-.44 2.56h-3.22z"/><path id="R" d="M890.44 444.5c0 1.22.8 2 2.62 2.67 1.4.5 1.62.63 1.62 1.06 0 .6-.63.86-2 .86a12.63 12.63 0 0 1-3.09-.37l-.48 2.22a25.29 25.29 0 0 0 3.59.27c3.63 0 5.3-1 5.3-3.2 0-1.3-.7-2.08-2.43-2.67-1.45-.48-1.6-.6-1.6-1s.58-.78 1.7-.78c.67 0 1.6.06 2.5.15l.48-2.23-3-.2c-3.87-.03-5.2 1.46-5.2 3.2z"/><path id="S" d="M877.54 441.43a3.91 3.91 0 0 0-3.93 1.53c.12-.485.188-.98.2-1.48h-3.15c-.45 3-1.26 6-1.9 9l-.16.65h3.58c.43-2 .92-4.9 1.5-5.8a2.31 2.31 0 0 1 2.76-1.17z"/><path id="T" d="M729.88 467.84l1.17-.03 1.14-.08 1.13-.15 1.1-.2 1.1-.25 1.07-.3 1.05-.35 1.03-.4 1-.45.96-.5.95-.54.9-.6.9-.63.85-.66.82-.72.78-.74.74-.8.72-.82.67-.85.63-.88.58-.92.54-.94.5-.97.46-1 .4-1.03.35-1.04.3-1.08.25-1.08.2-1.12.14-1.13.08-1.14.04-1.16-.04-1.16-.08-1.14-.14-1.1-.2-1.1-.25-1.08-.3-1.07-.35-1.04-.4-1.02-.46-1-.5-.97-.54-.94-.58-.92-.63-.88-.67-.85-.72-.82-.74-.78-.78-.74-.82-.7-.85-.67-.9-.62-.9-.6-.95-.54-.96-.5-1-.45-1.03-.4-1.05-.36-1.07-.3-1.1-.25-1.1-.2-1.13-.14-1.14-.1-1.17-.03-1.16.03-1.14.1-1.13.14-1.1.2-1.1.25-1.07.3-1.05.36-1.02.4-1 .45-.97.5-.94.54-.9.6-.88.62-.85.67-.82.7-.78.74-.74.78-.7.82-.67.85-.63.88-.58.92-.54.94-.5.97-.44 1-.4 1.02-.35 1.04-.3 1.07-.25 1.08-.2 1.1-.14 1.1-.1 1.14-.03 1.16.03 1.16.1 1.14.14 1.13.2 1.12.25 1.08.3 1.08.35 1.04.4 1.03.44 1 .5.97.54.94.58.92.63.88.67.85.7.82.74.8.78.74.82.72.85.66.88.63.9.6.94.54.97.5 1 .45 1.02.4 1.05.35 1.07.3 1.1.25 1.1.2 1.13.15 1.14.08z"/><path id="U" d="M700.02 467.84l1.17-.03 1.14-.08 1.13-.15 1.1-.2 1.1-.25 1.07-.3 1.05-.35 1.02-.4 1-.45.97-.5.94-.54.92-.6.88-.63.85-.66.8-.72.78-.74.74-.8.7-.82.67-.85.63-.88.6-.92.53-.94.5-.97.45-1 .4-1.03.35-1.04.3-1.08.25-1.08.2-1.12.14-1.13.1-1.14.03-1.16-.03-1.16-.1-1.14-.14-1.1-.2-1.1-.25-1.08-.3-1.07-.35-1.04-.4-1.02-.45-1-.5-.97-.53-.94-.6-.92-.63-.88-.67-.85-.7-.82-.74-.78-.78-.74-.8-.7-.85-.67-.88-.62-.92-.6-.94-.54-.97-.5-1-.45-1.02-.4-1.05-.36-1.07-.3-1.1-.25-1.1-.2-1.13-.14-1.14-.1-1.17-.03-1.15.03-1.15.1-1.13.14-1.1.2-1.1.25-1.07.3-1.05.36-1.03.4-1 .45-.97.5-.95.54-.9.6-.9.62-.85.67-.82.7-.78.74-.74.78-.7.82-.68.85-.63.88-.58.92-.54.94-.5.97-.45 1-.4 1.02-.36 1.04-.3 1.07-.25 1.08-.2 1.1-.14 1.1-.1 1.14-.03 1.16.03 1.16.1 1.14.14 1.13.2 1.12.25 1.08.3 1.08.36 1.04.4 1.03.45 1 .5.97.54.94.58.92.63.88.68.85.7.82.74.8.78.74.82.72.85.66.9.63.9.6.95.54.97.5 1 .45 1.03.4 1.05.35 1.07.3 1.1.25 1.1.2 1.13.15 1.15.08z"/><path id="V" d="M748.73 459.1l.07-.2.1-.18.14-.16.16-.14.18-.1.2-.07.22-.02.22.02.2.07.18.1.16.14.14.16.1.18.07.2h-.23l-.05-.14-.08-.15-.1-.13-.13-.1-.15-.08-.17-.05-.17-.02-.18.02-.17.05-.15.08-.13.1-.1.13-.1.15-.04.14z"/><path id="W" d="M749.42 459.1v-.26h.52l.08.01.08.02.05.03.05.04.04.04.02.06.01.06h-.2v-.03l-.04-.06-.03-.03-.04-.01-.03-.01h-.3v.14z"/><path id="X" d="M749.42 459.3v-.2h.2v.16h.3l.05-.01.03-.01.03-.02.02-.03.01-.03v-.06h.2l-.01.07-.01.06-.03.04-.02.03z"/><path id="Y" d="M748.7 459.3v.03l.02.22.07.2.1.18.14.16.16.13.18.1.2.05.22.03.22-.03.2-.05.18-.1.16-.13.14-.16.1-.18.07-.2v-.22-.03h-.23v.03l-.01.2-.06.17-.08.16-.1.13-.13.1-.15.08-.17.06-.17.01-.18-.01-.17-.06-.15-.08-.13-.1-.1-.13-.1-.16-.05-.17-.01-.2v-.03z"/><path id="Z" d="M725 443.4h-.15l-.15-.02-.13-.02-.13-.01-.14-.03h-.13l-.14-.02-.3-.04-.17-.01-.18-.02h-.2-.22-.25l-.27.02-.3.02-.2.03-.2.04-.18.06-.17.07-.15.08-.13.1-.1.1-.1.1-.07.12-.04.13-.02.12v.14l.03.14.05.14.08.14.1.14.2.2.25.16.3.13.32.1.33.1.35.1.35.13.34.15.32.18.3.2.27.27.22.33.17.4.1.47.04.56-.04.67-.08.5-.13.44-.17.4-.22.35-.25.3-.27.27-.3.23-.32.2-.34.16-.36.13-.36.12-.36.08-.36.06-.36.03-.34.03-.33.01h-.46l-.42-.01-.37-.01-.35-.01-.32-.01-.28-.02-.27-.02-.46-.06-.2-.04-.2-.03-.2-.05-.17-.06-.18-.05-.18-.06-.2-.07.46-2.32.1.02.28.07.17.05.2.03.22.06.24.04.25.04.27.04.28.04.28.03.3.03.6.02h.3l.32-.02.3-.05.24-.08.2-.12.14-.13.1-.16.1-.16.06-.16.05-.16.02-.17v-.15l-.03-.14-.06-.12-.1-.12-.1-.1-.12-.1-.14-.1-.16-.08-.17-.08-.2-.08-.2-.07-.2-.08-.2-.08-.2-.08-.22-.1-.2-.1-.2-.1-.2-.1-.2-.12-.2-.12-.18-.14-.17-.16-.16-.18-.14-.2-.12-.2-.1-.23-.08-.25-.07-.27-.03-.3-.01-.32.02-.35.02-.22.04-.2.03-.2.04-.2.04-.18.06-.18.06-.17.07-.17.08-.16.08-.15.1-.15.1-.14.1-.13.12-.13.13-.12.14-.1.14-.1.16-.1.17-.08.18-.1.18-.08.2-.07.2-.06.22-.06.48-.1.52-.06.28-.02.3-.02.3-.01h1.07l.3.01.3.02h.26l.23.02.22.02.2.01.17.02.14.03.15.01.22.04.1.01.1.02h.08z"/><path id="a" d="M725 443.4h-.15l-.15-.02-.13-.02-.13-.01-.14-.03h-.13l-.14-.02-.3-.04-.17-.01-.18-.02h-.2-.22-.25l-.27.02-.3.02-.2.03-.2.04-.18.06-.17.07-.15.08-.13.1-.1.1-.1.1-.07.12-.04.13-.02.12v.14l.03.14.05.14.08.14.1.14.2.2.25.16.3.13.32.1.33.1.35.1.35.13.34.15.32.18.3.2.27.27.22.33.17.4.1.47.04.56-.04.67-.08.5-.13.44-.17.4-.22.35-.25.3-.27.27-.3.23-.32.2-.34.16-.36.13-.36.12-.36.08-.36.06-.36.03-.34.03-.33.01h-.46l-.42-.01-.37-.01-.35-.01-.32-.01-.28-.02-.27-.02-.46-.06-.2-.04-.2-.03-.2-.05-.17-.06-.18-.05-.18-.06-.2-.07.46-2.32.1.02.28.07.17.05.2.03.22.06.24.04.25.04.27.04.28.04.28.03.3.03.6.02h.3l.32-.02.3-.05.24-.08.2-.12.14-.13.1-.16.1-.16.06-.16.05-.16.02-.17v-.15l-.03-.14-.06-.12-.1-.12-.1-.1-.12-.1-.14-.1-.16-.08-.17-.08-.2-.08-.2-.07-.2-.08-.2-.08-.2-.08-.22-.1-.2-.1-.2-.1-.2-.1-.2-.12-.2-.12-.18-.14-.17-.16-.16-.18-.14-.2-.12-.2-.1-.23-.08-.25-.07-.27-.03-.3-.01-.32.02-.35.02-.22.04-.2.03-.2.04-.2.04-.18.06-.18.06-.17.07-.17.08-.16.08-.15.1-.15.1-.14.1-.13.12-.13.13-.12.14-.1.14-.1.16-.1.17-.08.18-.1.18-.08.2-.07.2-.06.22-.06.48-.1.52-.06.28-.02.3-.02.3-.01h1.07l.3.01.3.02h.26l.23.02.22.02.2.01.17.02.14.03.15.01.22.04.1.01.1.02h.08l-.53 2.4"/><path id="b" d="M727.44 438.44h2.98l-.46 2.6h1.83l-.42 2.36-1.87-.04-1 6.03v.1l.02.1.03.08.04.08.05.07.07.06.07.04.1.05.1.04.1.03.1.01.12.02.1.01.13.01h.36l.2-.02.2-.03.16-.03.13-.04.1-.04.06-.03h.02l-.3 2.02-.07.04-.08.04-.08.03-.08.04-.08.03-.1.03-.08.03-.1.03-.1.03-.1.02-.26.04-.14.03-.15.02-.17.02-.18.03h-.8l-.43-.04-.37-.04-.34-.06-.3-.08-.24-.1-.2-.1-.17-.12-.14-.15-.1-.15-.08-.17-.05-.2-.03-.2v-.22-.24l.02-.24.04-.27z"/><path id="c" d="M727.44 438.44h2.98l-.46 2.6h1.83l-.42 2.36-1.87-.04-1 6.03v.1l.02.1.03.08.04.08.05.07.07.06.07.04.1.05.1.04.1.03.1.01.12.02.1.01.13.01h.36l.2-.02.2-.03.16-.03.13-.04.1-.04.06-.03h.02l-.3 2.02-.07.04-.08.04-.08.03-.08.04-.08.03-.1.03-.08.03-.1.03-.1.03-.1.02-.26.04-.14.03-.15.02-.17.02-.18.03h-.8l-.43-.04-.37-.04-.34-.06-.3-.08-.24-.1-.2-.1-.17-.12-.14-.15-.1-.15-.08-.17-.05-.2-.03-.2v-.22-.24l.02-.24.04-.27 1.97-11.57"/><path id="d" d="M709.36 447.42l-.03.2-.01.2.01.2.05.2.06.2.08.2.1.2.26.36.17.17.17.15.18.14.2.12.2.1.22.08.22.05.27.04.54.06.27.02h.56l.3-.01.28-.02.58-.1.3-.07.3-.1.3-.1.3-.13.3-.16.3-.18-.46 2.62-.34.18-.32.12-.17.06-.16.04-.17.04-.18.04-.2.02-.2.02-.23.02-.25.01-.26.02h-.3l-.32.01h-.62l-.52-.04-.54-.06-.27-.05-.26-.06-.27-.05-.26-.1-.26-.08-.25-.1-.25-.1-.25-.13-.23-.13-.23-.15-.22-.16-.2-.18-.2-.2-.2-.2-.17-.22-.16-.25-.15-.25-.13-.27-.12-.3-.1-.3-.08-.33-.07-.34-.04-.37-.03-.38v-.4l.01-.43.04-.45.02-.15.02-.18.03-.18.04-.2.04-.2.05-.2.12-.44.07-.23.08-.22.2-.46.24-.46.15-.23.14-.22.17-.22.18-.2.2-.2.44-.38.24-.18.26-.16.28-.16.3-.13.32-.13.33-.1.36-.1.37-.07.4-.05.42-.03.44-.02h.2l.2.02.2.01.2.02.22.03.44.1.2.06.22.07.2.08.2.1.2.1.38.24.18.15.18.16.16.17.15.18.14.2.13.22.12.23.1.25.1.28.07.3.06.3.03.32.02.35v.37l-.02.4-.04.4-.07.44-.1.46-.12.65h-7.68l.46-2.05h4.6v-.3-.25-.25l-.04-.22-.06-.2-.07-.2-.1-.16-.1-.15-.13-.13-.14-.1-.14-.1-.16-.07-.17-.06-.18-.05-.18-.02-.2-.01h-.2l-.2.03-.2.04-.18.06-.16.08-.17.1-.15.1-.14.12-.14.15-.1.16-.12.17-.1.18-.1.2-.07.2-.06.22-.06.23z"/><path id="e" d="M709.36 447.42h0l-.03.2-.01.2.01.2.05.2.06.2.08.2.1.2.26.36.17.17.17.15.18.14.2.12.2.1.22.08.22.05.27.04.54.06.27.02h.56l.3-.01.28-.02.58-.1.3-.07.3-.1.3-.1.3-.13.3-.16.3-.18-.46 2.62-.34.18-.32.12-.17.06-.16.04-.17.04-.18.04-.2.02-.2.02-.23.02-.25.01-.26.02h-.3l-.32.01h-.62l-.52-.04-.54-.06-.27-.05-.26-.06-.27-.05-.26-.1-.26-.08-.25-.1-.25-.1-.25-.13-.23-.13-.23-.15-.22-.16-.2-.18-.2-.2-.2-.2-.17-.22-.16-.25-.15-.25-.13-.27-.12-.3-.1-.3-.08-.33-.07-.34-.04-.37-.03-.38v-.4l.01-.43.04-.45.02-.15.02-.18.03-.18.04-.2.04-.2.05-.2.12-.44.07-.23.08-.22.2-.46.24-.46.15-.23.14-.22.17-.22.18-.2.2-.2.44-.38.24-.18.26-.16.28-.16.3-.13.32-.13.33-.1.36-.1.37-.07.4-.05.42-.03.44-.02h.2l.2.02.2.01.2.02.22.03.44.1.2.06.22.07.2.08.2.1.2.1.38.24.18.15.18.16.16.17.15.18.14.2.13.22.12.23.1.25.1.28.07.3.06.3.03.32.02.35v.37l-.02.4-.04.4-.07.44-.1.46-.12.65h-7.68l.46-2.05h4.6v-.3-.25-.25l-.04-.22-.06-.2-.07-.2-.1-.16-.1-.15-.13-.13-.14-.1-.14-.1-.16-.07-.17-.06-.18-.05-.18-.02-.2-.01h-.2l-.2.03-.2.04-.18.06-.16.08-.17.1-.15.1-.14.12-.14.15-.1.16-.12.17-.1.18-.1.2-.07.2-.06.22-.06.23-.4 2.2"/><path id="f" d="M705.25 450l-.42 2.37h-2.67l.03-.23v-.22l.04-.2.02-.18.04-.16.02-.13.03-.1.03-.05-.14.16-.18.16-.2.16-.23.15-.24.14-.27.13-.28.12-.3.1-.3.1-.32.1-.62.1-.3.02-.3.01-.3-.02-.3-.05-.37-.1-.33-.12-.3-.14-.26-.15-.24-.17-.2-.2-.18-.2-.15-.22-.12-.23-.1-.23-.08-.23-.07-.25-.04-.23-.03-.25-.02-.46.03-.42.06-.4.1-.38.14-.35.17-.34.2-.3.23-.3.24-.27.27-.24.3-.22.3-.2.33-.17.34-.15.35-.1.35-.1.36-.07h.02l.05-.01.08-.01h.1.13l.14-.02.17-.02.18-.01.17-.02.18-.02.2-.02.18-.01.15-.02h.16l.14-.01h.5l.13.01h.48l.1.01h.1l.08.01h.08l.05.01h.1l.02-.08.05-.18.04-.2v-.2l-.04-.26-.04-.12-.05-.1-.06-.1-.07-.1-.08-.08-.08-.1-.1-.08-.1-.06-.1-.05-.1-.06-.12-.03-.12-.04-.13-.01-.12-.02-.3-.01-.32.01-.33.01-.68.04-.34.03-.34.04-.33.04-.32.04-.3.05-.28.05-.26.06-.22.06-.2.06-.15.06-.1.06.76-2.5.22-.1.24-.1.23-.08.26-.07.26-.05.26-.04.28-.04.3-.03.3-.02.6-.02h1l.35.01.37.01.3.03.32.04.34.08.33.1.33.12.34.16.3.18.3.2.28.23.24.26.2.3.16.32.12.35.06.37v.4l-.06.44z"/><path id="g" d="M705.25 450l-.42 2.37h-2.67l.03-.23v-.22l.04-.2.02-.18.04-.16.02-.13.03-.1.03-.05-.14.16-.18.16-.2.16-.23.15-.24.14-.27.13-.28.12-.3.1-.3.1-.32.1-.62.1-.3.02-.3.01-.3-.02-.3-.05-.37-.1-.33-.12-.3-.14-.26-.15-.24-.17-.2-.2-.18-.2-.15-.22-.12-.23-.1-.23-.08-.23-.07-.25-.04-.23-.03-.25-.02-.46.03-.42.06-.4.1-.38.14-.35.17-.34.2-.3.23-.3.24-.27.27-.24.3-.22.3-.2.33-.17.34-.15.35-.1.35-.1.36-.07h.02l.05-.01.08-.01h.1.13l.14-.02.17-.02.18-.01.17-.02.18-.02.2-.02.18-.01.15-.02h.16l.14-.01h.5l.13.01h.48l.1.01h.1l.08.01h.08l.05.01h.1l.02-.08.05-.18.04-.2v-.2l-.04-.26-.04-.12-.05-.1-.06-.1-.07-.1-.08-.08-.08-.1-.1-.08-.1-.06-.1-.05-.1-.06-.12-.03-.12-.04-.13-.01-.12-.02-.3-.01-.32.01-.33.01-.68.04-.34.03-.34.04-.33.04-.32.04-.3.05-.28.05-.26.06-.22.06-.2.06-.15.06-.1.06.76-2.5.22-.1.24-.1.23-.08.26-.07.26-.05.26-.04.28-.04.3-.03.3-.02.6-.02h1l.35.01.37.01.3.03.32.04.34.08.33.1.33.12.34.16.3.18.3.2.28.23.24.26.2.3.16.32.12.35.06.37v.4l-.06.44-1.1 5.55"/><path id="h" d="M702.7 447.23v-.06l-.05-.04-.07-.04-.1-.02-.13-.02h-.45l-.17.01-.18.02-.34.06-.32.06-.13.03-.12.04-.07.01-.1.03-.1.04-.12.05-.13.05-.14.07-.14.08-.14.1-.14.1-.14.1-.12.12-.1.13-.1.14-.07.16-.06.17-.04.17-.01.37.05.28.1.22.13.16.17.1.17.08.18.03.18.01.32-.01.3-.03.28-.05.24-.06.22-.08.2-.1.18-.1.15-.1.14-.1.12-.13.1-.12.08-.12.08-.13.06-.12.04-.1.04-.12.04-.16.03-.17.08-.36.03-.18.06-.32z"/><path id="i" d="M682.92 452.38h-2.9l2.43-13.94h5.03l.5 8.3 3.42-8.3h5.23l-2.44 13.94h-2.9l1.82-10.44h-.1l-4.3 10.44h-3.23l-.04-.44-.06-1.16-.1-1.65-.32-5.46-.06-1.22-.03-.5h-.12z"/><path id="j" d="M682.92 452.38h-2.9l2.43-13.94h5.03l.5 8.3 3.42-8.3h5.23l-2.44 13.94h-2.9l1.82-10.44h-.1l-4.3 10.44h-3.23l-.04-.44-.06-1.16-.1-1.65-.32-5.46-.06-1.22-.03-.5h-.12l-1.83 10.44"/><path id="k" d="M731.25 452.38h3l1.03-6.02.05-.24.05-.23.06-.23.07-.2.08-.2.1-.2.12-.2.14-.18.17-.17.2-.14.22-.14.26-.12.3-.1.32-.08.38-.04.4-.03h.04l.04.01.06.01h.1l.08.02h.01l.01-.05.03-.12.03-.2.06-.24.08-.27.08-.3.1-.3.12-.28.08-.2.1-.2.1-.2.1-.2.1-.15.08-.13.05-.08.01-.03h-.01l-.04-.01-.05-.01-.08-.02h-.07-.1l-.08-.01h-.07l-.33.02-.3.04-.28.06-.25.06-.24.1-.2.1-.2.12-.18.12-.2.14-.17.16-.15.16-.17.18-.15.18-.15.2-.15.2-.16.22.35-1.9-3-.03-2 11.38z"/><path id="l" d="M731.25 452.38h3l1.03-6.02.05-.24.05-.23.06-.23.07-.2.08-.2.1-.2.12-.2.14-.18.17-.17.2-.14.22-.14.26-.12.3-.1.32-.08.38-.04.4-.03h.04l.04.01.06.01h.1l.08.02h.01l.01-.05.03-.12.03-.2.06-.24.08-.27.08-.3.1-.3.12-.28.08-.2.1-.2.1-.2.1-.2.1-.15.08-.13.05-.08.01-.03h-.01l-.04-.01-.05-.01-.08-.02h-.07-.1l-.08-.01h-.07l-.33.02-.3.04-.28.06-.25.06-.24.1-.2.1-.2.12-.18.12-.2.14-.17.16-.15.16-.17.18-.15.18-.15.2-.15.2-.16.22.35-1.9-3-.03-2 11.38"/><path id="m" d="M744.28 440.88h.34l.64.06.3.04.3.06.28.07.28.1.27.1.26.1.24.12.25.13.22.14.22.15.2.16.38.36.17.2.17.2.14.2.14.22.14.23.1.24.1.25.1.26.08.25.07.28.06.28.04.3.03.3.01.3.01.3-.01.3-.02.38-.04.36-.05.35-.07.34-.07.33-.1.3-.1.3-.1.3-.26.54-.16.25-.15.24-.17.22-.2.22-.2.2-.2.2-.2.18-.2.17-.46.3-.24.13-.26.12-.25.1-.26.1-.27.1-.28.08-.28.06-.28.05-.3.04-.3.02-.3.02-.3.01-.3-.01-.3-.02-.28-.02-.3-.05-.28-.05-.3-.06-.52-.16-.26-.1-.24-.1-.24-.12-.23-.13-.22-.14-.42-.32-.2-.18-.18-.18-.17-.2-.16-.2-.16-.22-.13-.23-.13-.25-.1-.25-.1-.26-.1-.27-.08-.3-.06-.3-.06-.3-.03-.3v-.33l-.01-.34.01-.35v-.35l.03-.34.06-.34.06-.32.08-.3.08-.3.1-.3.1-.28.12-.27.13-.26.15-.25.16-.24.16-.22.18-.22.18-.2.2-.2.2-.2.22-.17.22-.16.23-.15.24-.13.25-.14.26-.1.26-.1.28-.1.27-.08.3-.07.3-.06.3-.03.3-.04.32-.02z"/><path id="n" d="M744.28 440.88h.34l.64.06.3.04.3.06.28.07.28.1.27.1.26.1.24.12.25.13.22.14.22.15.2.16.38.36.17.2.17.2.14.2.14.22.14.23.1.24.1.25.1.26.08.25.07.28.06.28.04.3.03.3.01.3.01.3-.01.3-.02.38-.04.36-.05.35-.07.34-.07.33-.1.3-.1.3-.1.3-.26.54-.16.25-.15.24-.17.22-.2.22-.2.2-.2.2-.2.18-.2.17-.46.3-.24.13-.26.12-.25.1-.26.1-.27.1-.28.08-.28.06-.28.05-.3.04-.3.02-.3.02-.3.01-.3-.01-.3-.02-.28-.02-.3-.05-.28-.05-.3-.06-.52-.16-.26-.1-.24-.1-.24-.12-.23-.13-.22-.14-.42-.32-.2-.18-.18-.18-.17-.2-.16-.2-.16-.22-.13-.23-.13-.25-.1-.25-.1-.26-.1-.27-.08-.3-.06-.3-.06-.3-.03-.3v-.33l-.01-.34.01-.35v-.35l.03-.34.06-.34.06-.32.08-.3.08-.3.1-.3.1-.28.12-.27.13-.26.15-.25.16-.24.16-.22.18-.22.18-.2.2-.2.2-.2.22-.17.22-.16.23-.15.24-.13.25-.14.26-.1.26-.1.28-.1.27-.08.3-.07.3-.06.3-.03.3-.04.32-.02h.32"/><path id="o" d="M741.92 446.3l-.04.42-.03.38v.35l.03.33.04.3.07.26.08.24.1.2.13.2.14.15.15.14.18.1.18.08.2.06.2.03.23.02.25-.01.25-.03.23-.05.22-.08.2-.1.2-.13.2-.16.18-.18.15-.2.15-.24.14-.26.12-.3.1-.32.1-.35.07-.37.07-.4.04-.32.02-.3v-.3l-.02-.28-.04-.26-.06-.25-.08-.23-.1-.2-.12-.2-.13-.16-.16-.15-.17-.1-.2-.1-.2-.06-.22-.04h-.24-.3l-.28.06-.26.08-.24.12-.22.14-.2.17-.18.18-.17.2-.15.22-.14.24-.12.23-.1.25-.1.26-.07.25-.05.25z"/><path id="p" d="M1327.57 466a6.88 6.88 0 0 1-4.29 1.4 4.66 4.66 0 0 1-5-4.85 5.12 5.12 0 0 1 5.07-5.26c3.6 0 4.7 2.55 4.7 5.78h-6.53a2 2 0 0 0 2.26 2 4.17 4.17 0 0 0 2.66-.93l1.1 1.9zm-2.4-4.83a1.61 1.61 0 0 0-1.55-1.85 2.24 2.24 0 0 0-2 1.85h3.57z"/><path id="q" d="M1337.97 466.42a7.4 7.4 0 0 1-3.46 1c-3 0-5.15-1.72-5.15-4.83a5 5 0 0 1 5.35-5.28 6.67 6.67 0 0 1 3.2.82l-1 2.13a4 4 0 0 0-1.53-.37 2.46 2.46 0 0 0-2.71 2.53 2.39 2.39 0 0 0 2.43 2.41 4.09 4.09 0 0 0 1.76-.54l1.16 2.15z"/><path id="r" d="M1339.18 457.63h1.47v-3.2h3.14l-.07 3.2h2.67l-.05 2.36h-2.68l-.1 3.5c0 .8.2 1.22.94 1.22a2.35 2.35 0 0 0 1.2-.45l.73 2.23a6.37 6.37 0 0 1-3.22.93c-2.64 0-2.77-1.66-2.77-3.84l.1-3.57h-1.4l.07-2.36z"/><path id="s" d="M1348.05 457.63h3.25v1.33a2.69 2.69 0 0 1 2.39-1.59 5 5 0 0 1 1.06.11l-.43 3.22a3.81 3.81 0 0 0-1.16-.19 2.31 2.31 0 0 0-1.93 1.1l-.05 5.45h-3.26l.08-9.43z"/><path id="t" d="M1360.7 457.3c3.48 0 5.28 2.2 5.28 5.05s-1.8 5.05-5.28 5.05-5.28-2.2-5.28-5.05 1.8-5.05 5.28-5.05zm0 7.63c1.55 0 2-1.35 2-2.58s-.47-2.58-2-2.58-2 1.35-2 2.58.47 2.58 2 2.58z"/><path id="u" d="M1327.06 424.64l-3.3 5.75a14 14 0 0 0-1.57 3.22h0c.06-1.2-.1-2.7-.13-3.52l-.37-5.44h-6.25l-.06.37a2.56 2.56 0 0 1 2.79 2.43l1.2 10.77h3.8l7.7-13.56h-3.83z"/><path id="v" d="M1355.6 438.2l-.1-2h-4.58l-.94 2h-4l7.22-13.54h4.9l1.22 13.54h-3.73zm-.42-8c-.054-1.063-.054-2.127 0-3.2h-.05c-.22.67-1.18 2.7-1.6 3.7l-1.37 3h3.22l-.2-3.48z"/><path id="w" d="M1340.34 438.58a10.26 10.26 0 0 1-5.54-1.56l1.75-2.67a6.76 6.76 0 0 0 4 1.33 1.7 1.7 0 0 0 1.61-.77c.5-.88-.12-1.36-1.55-2.17l-.7-.46c-2.12-1.45-3-2.83-2-5.24.64-1.54 2.33-2.7 5.12-2.7a8.22 8.22 0 0 1 4.77 1.64l-2 2.36a4.46 4.46 0 0 0-2.85-1.25 1.71 1.71 0 0 0-1.56.7c-.38.76.12 1.27 1.24 2l.84.54c2.58 1.63 3.2 3.33 2.55 4.93-1.1 2.75-3.3 3.36-5.57 3.36h0z"/><path id="x" d="M575.07 467.83l1.16-.03 1.15-.08 1.12-.14 1.12-.2 1.1-.25 1.07-.3 1.04-.36 1.03-.4 1-.46.97-.5.94-.55.92-.58.88-.63.85-.67.82-.7.78-.75.75-.78.7-.82.67-.85.63-.88.58-.92.55-.94.5-.97.46-1 .4-1.02.36-1.05.3-1.07.25-1.08.2-1.12.14-1.12.1-1.15.03-1.16-.03-1.15-.1-1.14-.14-1.13-.2-1.1-.25-1.08-.3-1.06-.36-1.05-.4-1.02-.46-1-.5-.98-.55-.93-.58-.92-.63-.88-.67-.84-.7-.82-.75-.78-.78-.75-.82-.7-.85-.67-.88-.63-.92-.58-.94-.54-.97-.5-1-.45-1.03-.4-1.04-.36-1.07-.3-1.1-.25-1.12-.2-1.12-.15-1.15-.08-1.16-.03-1.15.03-1.15.08-1.12.15-1.1.2-1.1.25-1.07.3-1.04.36-1.02.4-1 .45-.96.5-.94.54-.9.58-.88.63-.85.67-.8.7-.8.75-.74.78-.7.82-.66.84-.63.88-.58.92-.54.93-.5.98-.45 1-.4 1.02-.35 1.05-.3 1.06-.26 1.08-.2 1.1-.15 1.13-.08 1.14-.03 1.15.03 1.16.08 1.15.15 1.12.2 1.12.26 1.08.3 1.07.35 1.05.4 1.02.45 1 .5.97.54.94.58.92.63.88.66.85.7.82.74.78.8.75.8.7.85.67.88.63.9.58.94.55.96.5 1 .46 1.02.4 1.04.36 1.07.3 1.1.25 1.1.2 1.12.14 1.15.08 1.15.03z"/><path id="y" d="M544.97 467.83l1.15-.03 1.15-.08 1.12-.14 1.1-.2 1.08-.25 1.07-.3 1.04-.36 1.03-.4 1-.46.97-.5.94-.55.9-.58.88-.63.85-.67.8-.7.78-.75.75-.78.7-.82.66-.85.62-.88.6-.92.54-.94.5-.97.45-1 .4-1.02.35-1.05.3-1.07.25-1.08.2-1.12.14-1.12.1-1.15.03-1.16-.03-1.15-.1-1.14-.14-1.13-.2-1.1-.25-1.08-.3-1.06-.35-1.05-.4-1.02-.45-1-.5-.98-.54-.93-.6-.92-.62-.88-.66-.84-.7-.82-.75-.78-.78-.75-.8-.7-.85-.67-.88-.63-.9-.58-.94-.54-.97-.5-1-.45-1.03-.4-1.04-.36-1.07-.3-1.08-.25-1.1-.2-1.12-.15-1.15-.08-1.15-.03-1.16.03-1.15.08-1.13.15-1.1.2-1.1.25-1.07.3-1.04.36-1.03.4-1 .45-.97.5-.94.54-.92.58-.88.63-.85.67-.82.7-.78.75-.76.78-.7.82-.67.84-.63.88-.58.92-.55.93-.5.98-.46 1-.4 1.02-.36 1.05-.3 1.06-.25 1.08-.2 1.1-.15 1.13-.08 1.14-.03 1.15.03 1.16.08 1.15.15 1.12.2 1.12.25 1.08.3 1.07.36 1.05.4 1.02.46 1 .5.97.55.94.58.92.63.88.67.85.7.82.76.78.78.75.82.7.85.67.88.63.92.58.94.55.97.5 1 .46 1.03.4 1.04.36 1.07.3 1.1.25 1.1.2 1.13.14 1.15.08 1.16.03z"/><path id="z" d="M549.32 444.6h-.1l-.1-.02-.1-.01-.1-.02-.1-.01-.1-.02-.1-.01h-.1l-.1-.01-.12-.01-.28-.02h-.16l-.17.01-.2.02-.22.01-.15.03-.15.02-.13.04-.22.1-.1.06-.15.15-.05.08-.04.08-.01.1v.1l.02.1.03.1.06.1.08.1.15.14.2.12.2.1.23.08.24.08.25.08.25.1.24.1.23.13.2.16.2.2.16.23.12.3.08.35.03.4-.03.48-.05.36-.1.3-.12.3-.15.25-.17.22-.2.2-.2.17-.24.14-.24.12-.25.1-.26.08-.26.06-.26.05-.26.02h-.25l-.23.01h-.33l-.3-.01h-.52-.22l-.2-.02-.18-.01-.17-.02-.16-.02-.15-.03-.14-.02-.13-.04-.13-.03-.12-.05-.12-.04-.13-.05.34-1.68h.07l.08.02.1.03.26.06.15.03.17.04.18.03.2.03.2.03.2.02.2.03.22.01h.66l.22-.05.18-.06.13-.08.1-.1.07-.1.06-.12.04-.12.03-.1.02-.22-.07-.2-.13-.16-.2-.12-.23-.12-.27-.1-.3-.1-.3-.12-.3-.14-.3-.16-.26-.2-.25-.24-.2-.3-.13-.34-.07-.4v-.48l.03-.3.06-.28.07-.26.1-.24.13-.23.13-.2.16-.2.2-.16.22-.15.24-.12.28-.1.3-.1.34-.07.38-.05.4-.03h.45.28.26.24l.2.01.2.01.17.02.16.01.13.02.13.01h.1l.1.02.1.02.2.03.06.01-.4 1.72z"/><path id="AA" d="M549.32 444.6h0-.1l-.1-.02-.1-.01-.1-.02-.1-.01-.1-.02-.1-.01h-.1l-.1-.01-.12-.01-.28-.02h-.16l-.17.01-.2.02-.22.01-.15.03-.15.02-.13.04-.22.1-.1.06-.15.15-.05.08-.04.08-.01.1v.1l.02.1.03.1.06.1.08.1.15.14.2.12.2.1.23.08.24.08.25.08.25.1.24.1.23.13.2.16.2.2.16.23.12.3.08.35.03.4-.03.48-.05.36-.1.3-.12.3-.15.25-.17.22-.2.2-.2.17-.24.14-.24.12-.25.1-.26.08-.26.06-.26.05-.26.02h-.25l-.23.01h-.33l-.3-.01h-.52-.22l-.2-.02-.18-.01-.17-.02-.16-.02-.15-.03-.14-.02-.13-.04-.13-.03-.12-.05-.12-.04-.13-.05.34-1.68h.07l.08.02.1.03.26.06.15.03.17.04.18.03.2.03.2.03.2.02.2.03.22.01h.66l.22-.05.18-.06.13-.08.1-.1.07-.1.06-.12.04-.12.03-.1.02-.22-.07-.2-.13-.16-.2-.12-.23-.12-.27-.1-.3-.1-.3-.12-.3-.14-.3-.16-.26-.2-.25-.24-.2-.3-.13-.34-.07-.4v-.48l.03-.3.06-.28.07-.26.1-.24.13-.23.13-.2.16-.2.2-.16.22-.15.24-.12.28-.1.3-.1.34-.07.38-.05.4-.03h.45.28.26.24l.2.01.2.01.17.02.16.01.13.02.13.01h.1l.1.02.1.02.2.03.06.01-.4 1.72"/><path id="AB" d="M551.12 441.02h2.1l-.3 1.83h1.27l-.27 1.72-1.34-.04-.73 4.24v.15l.03.13.08.1.1.08.14.05.15.05.16.03.2.01h.16l.16-.02.13-.02.12-.03.1-.03.07-.03.04-.01.02-.01-.27 1.4-.05.04-.05.03-.06.03-.05.03-.05.02-.06.03-.14.04-.07.03-.08.01h-.1l-.1.01-.1.02-.1.01-.13.02-.12.01h-.58l-.3-.02-.26-.03-.24-.05-.2-.05-.18-.07-.14-.07-.13-.1-.1-.1-.07-.1-.06-.13-.03-.13-.03-.14v-.33l.02-.17.02-.2 1.45-8.28z"/><path id="AC" d="M551.12 441.02h2.1l-.3 1.83h1.27l-.27 1.72-1.34-.04-.73 4.24v.15l.03.13.08.1.1.08.14.05.15.05.16.03.2.01h.16l.16-.02.13-.02.12-.03.1-.03.07-.03.04-.01.02-.01-.27 1.4-.05.04-.05.03-.06.03-.05.03-.05.02-.06.03-.14.04-.07.03-.08.01h-.1l-.1.01-.1.02-.1.01-.13.02-.12.01h-.58l-.3-.02-.26-.03-.24-.05-.2-.05-.18-.07-.14-.07-.13-.1-.1-.1-.07-.1-.06-.13-.03-.13-.03-.14v-.33l.02-.17.02-.2 1.45-8.28"/><path id="AD" d="M555.86 447.43h0l-.02.13-.01.14.01.14.03.14.06.15.06.14.08.14.1.13.1.13.23.23.14.1.14.08.15.07.15.05.15.03.2.03.2.02.2.03h.2l.2.01h.2l.4-.02.2-.03.2-.04.2-.05.2-.06.2-.1.22-.1.2-.12.22-.13-.3 1.87-.24.12-.13.05-.22.08-.13.04-.12.03-.26.04-.15.02-.16.01-.18.02-.2.01h-1.06l-.38-.04-.38-.06-.38-.1-.37-.1-.36-.15-.34-.18-.32-.22-.3-.26-.26-.3-.22-.35-.18-.4-.13-.44-.1-.5-.02-.56.04-.63.03-.24.05-.28.06-.3.08-.32.12-.32.13-.33.18-.33.2-.32.24-.3.3-.3.33-.26.38-.23.44-.2.5-.14.55-.08.62-.04h.3l.3.03.3.05.32.08.3.12.3.13.27.18.25.22.23.26.2.3.15.35.1.4.06.45.01.52-.05.58-.1.64-.04.46h-5.54l.35-1.5h3.33l.01-.2v-.18l-.02-.17-.03-.15-.05-.14-.06-.13-.07-.1-.08-.1-.1-.1-.1-.08-.1-.07-.12-.06-.12-.04-.12-.03-.26-.04-.15.01h-.13l-.13.03-.13.04-.13.07-.12.07-.1.08-.1.1-.1.1-.1.1-.08.12-.07.13-.07.14-.1.3-.03.16-.3 1.57"/><path id="AE" d="M573.96 443.3l-.1-.05-.1-.05-.1-.05-.12-.06-.1-.04-.13-.05-.13-.04-.13-.05-.15-.04-.14-.03-.16-.03-.16-.02-.17-.02-.18-.01h-.56l-.2.01-.2.03-.22.04-.2.06-.2.08-.2.1-.22.13-.2.17-.2.2-.2.24-.18.28-.17.33-.16.38-.14.43-.12.5-.05.27-.03.26v.27.26l.03.26.05.24.07.23.08.23.1.2.14.2.16.17.18.16.2.14.23.1.26.1.3.07.1.02.1.02.14.02.15.01h.17.36.2l.2-.02.2-.04.2-.05.2-.06.2-.08.17-.1.16-.12.15-.14-.34 2.03-.05.03-.04.05-.06.05-.07.05-.08.06-.1.05-.12.06-.14.04-.17.05-.2.04-.23.03-.26.03-.3.02-.34.01-.4-.01-.42-.02-.35-.04-.35-.08-.35-.1-.35-.16-.33-.18-.32-.22-.3-.27-.28-.3-.25-.35-.2-.37-.18-.43-.14-.46-.1-.5-.03-.54.02-.6.08-.63.06-.3.07-.3.07-.3.08-.28.08-.27.1-.27.1-.25.1-.23.1-.24.12-.22.12-.2.14-.2.14-.2.15-.18.15-.17.16-.15.17-.16.18-.14.18-.13.2-.12.2-.12.2-.1.2-.1.23-.1.23-.08.23-.05.25-.06.26-.04.25-.04.28-.03.27-.02.3-.01.24.01.24.02.22.02.23.03.22.03.2.05.2.04.18.04.17.05.16.04.14.05.12.04.1.04.1.03.07.03h.04l-.38 2.1z"/><path id="AF" d="M573.96 443.3h0l-.1-.05-.1-.05-.1-.05-.12-.06-.1-.04-.13-.05-.13-.04-.13-.05-.15-.04-.14-.03-.16-.03-.16-.02-.17-.02-.18-.01h-.56l-.2.01-.2.03-.22.04-.2.06-.2.08-.2.1-.22.13-.2.17-.2.2-.2.24-.18.28-.17.33-.16.38-.14.43-.12.5-.05.27-.03.26v.27.26l.03.26.05.24.07.23.08.23.1.2.14.2.16.17.18.16.2.14.23.1.26.1.3.07.1.02.1.02.14.02.15.01h.17.36.2l.2-.02.2-.04.2-.05.2-.06.2-.08.17-.1.16-.12.15-.14-.34 2.03-.05.03-.04.05-.06.05-.07.05-.08.06-.1.05-.12.06-.14.04-.17.05-.2.04-.23.03-.26.03-.3.02-.34.01-.4-.01-.42-.02-.35-.04-.35-.08-.35-.1-.35-.16-.33-.18-.32-.22-.3-.27-.28-.3-.25-.35-.2-.37-.18-.43-.14-.46-.1-.5-.03-.54.02-.6.08-.63.06-.3.07-.3.07-.3.08-.28.08-.27.1-.27.1-.25.1-.23.1-.24.12-.22.12-.2.14-.2.14-.2.15-.18.15-.17.16-.15.17-.16.18-.14.18-.13.2-.12.2-.12.2-.1.2-.1.23-.1.23-.08.23-.05.25-.06.26-.04.25-.04.28-.03.27-.02.3-.01.24.01.24.02.22.02.23.03.22.03.2.05.2.04.18.04.17.05.16.04.14.05.12.04.1.04.1.03.07.03h.04l-.38 2.1"/><path id="AG" d="M592.65 450.98h-2.1l.15-.84v-.08l-.12.16-.13.13-.13.12-.13.1-.14.1-.14.08-.28.14-.14.05-.15.04-.14.04-.16.02-.15.02-.14.02h-.15-.16l-.4-.03-.36-.1-.34-.13-.3-.17-.27-.22-.25-.26-.2-.28-.18-.32-.15-.34-.12-.36-.1-.37-.06-.4-.02-.38v-.4l.03-.38.07-.4.12-.45.13-.42.16-.4.2-.37.2-.34.23-.3.23-.27.25-.25.27-.23.28-.2.3-.16.28-.13.3-.1.3-.07.3-.04.3-.02.22.01.2.02.2.04.18.06.17.06.16.06.15.1.14.08.12.1.1.1.1.1.1.1.08.1.07.1.05.1.05.1.53-3h2.07l-1.72 9.93z"/><path id="AH" d="M592.65 450.98h-2.1l.15-.84v-.08l-.12.16-.13.13-.13.12-.13.1-.14.1-.14.08-.28.14-.14.05-.15.04-.14.04-.16.02-.15.02-.14.02h-.15-.16l-.4-.03-.36-.1-.34-.13-.3-.17-.27-.22-.25-.26-.2-.28-.18-.32-.15-.34-.12-.36-.1-.37-.06-.4-.02-.38v-.4l.03-.38.07-.4.12-.45.13-.42.16-.4.2-.37.2-.34.23-.3.23-.27.25-.25.27-.23.28-.2.3-.16.28-.13.3-.1.3-.07.3-.04.3-.02.22.01.2.02.2.04.18.06.17.06.16.06.15.1.14.08.12.1.1.1.1.1.1.1.08.1.07.1.05.1.05.1.53-3h2.07l-1.72 9.93"/><path id="AI" d="M589.2 449.15l.22-.02.2-.04.2-.06.17-.08.16-.1.15-.12.14-.12.13-.14.12-.15.1-.17.1-.18.1-.18.07-.2.06-.2.06-.2.03-.2.04-.22.03-.22v-.2l-.01-.2-.03-.2-.03-.2-.05-.18-.06-.18-.08-.15-.1-.14-.1-.13-.1-.1-.13-.1-.14-.06-.14-.04-.16-.02-.2.02-.2.03-.18.06-.17.08-.16.1-.15.13-.12.12-.13.15-.12.16-.2.36-.1.2-.07.2-.06.2-.06.22-.05.22-.04.33.02.37.05.37.1.36.15.3.2.25.25.17.3.06z"/><path id="AJ" d="M542.6 449.3l-.3 1.68h-1.9l.05-.3.07-.5.03-.12-.1.13-.12.12-.15.1-.16.1-.18.1-.2.1-.2.1-.2.07-.22.07-.44.1-.23.03h-.44-.2l-.2-.03-.26-.07-.25-.08-.2-.1-.2-.12-.17-.12-.15-.14-.12-.14-.1-.15-.1-.16-.07-.17-.06-.16-.05-.17-.03-.18-.04-.34v-.17l.03-.3.04-.28.08-.27.1-.26.12-.24.13-.22.16-.2.2-.2.2-.18.2-.16.22-.14.23-.12.24-.1.25-.08.26-.07.26-.04h.02l.03-.01.06-.01.08-.01h.1.1l.1-.02.13-.01.13-.02.13-.01.14-.01.24-.02.22-.02h.26l.18.01h.17.16.14.1l.07.01h.03v-.05l.05-.14.04-.16v-.14l-.03-.17-.07-.15-.1-.14-.12-.1-.15-.1-.15-.07-.2-.04-.2-.02-.22-.01h-.7l-.5.04-.24.02-.24.04-.44.06-.2.04-.18.04-.17.04-.13.05-.1.05-.1.05.54-1.83.17-.07.17-.06.18-.05.36-.08.4-.06.2-.02.66-.03h.73l.27.01.26.01.22.01.22.04.24.06.24.07.24.1.23.1.22.13.22.14.2.17.16.2.16.2.1.23.08.24.04.26v.3l-.04.3-.77 4z"/><path id="AK" d="M542.6 449.3l-.3 1.68h-1.9l.05-.3.07-.5.03-.12-.1.13-.12.12-.15.1-.16.1-.18.1-.2.1-.2.1-.2.07-.22.07-.44.1-.23.03h-.44-.2l-.2-.03-.26-.07-.25-.08-.2-.1-.2-.12-.17-.12-.15-.14-.12-.14-.1-.15-.1-.16-.07-.17-.06-.16-.05-.17-.03-.18-.04-.34v-.17l.03-.3.04-.28.08-.27.1-.26.12-.24.13-.22.16-.2.2-.2.2-.18.2-.16.22-.14.23-.12.24-.1.25-.08.26-.07.26-.04h.02l.03-.01.06-.01.08-.01h.1.1l.1-.02.13-.01.13-.02.13-.01.14-.01.24-.02.22-.02h.26l.18.01h.17.16.14.1l.07.01h.03v-.05l.05-.14.04-.16v-.14l-.03-.17-.07-.15-.1-.14-.12-.1-.15-.1-.15-.07-.2-.04-.2-.02-.22-.01h-.7l-.5.04-.24.02-.24.04-.44.06-.2.04-.18.04-.17.04-.13.05-.1.05-.1.05.54-1.83.17-.07.17-.06.18-.05.36-.08.4-.06.2-.02.66-.03h.73l.27.01.26.01.22.01.22.04.24.06.24.07.24.1.23.1.22.13.22.14.2.17.16.2.16.2.1.23.08.24.04.26v.3l-.04.3-.77 4"/><path id="AL" d="M540.77 447.32l-.01-.04-.03-.04-.04-.02-.08-.02h-.08l-.1-.01h-.23l-.12.01h-.13l-.12.02-.12.01-.12.02-.1.02-.08.02-.1.03-.05.01-.15.05-.28.14-.2.12-.1.07-.1.08-.1.1-.08.1-.08.1-.05.1-.05.13-.02.12-.01.26.04.2.08.15.1.12.1.07.13.05.12.02h.12.23l.2-.02.2-.03.17-.05.16-.05.14-.07.13-.07.12-.08.1-.08.1-.1.07-.08.12-.18.08-.18.02-.08.06-.22.06-.25.04-.24.04-.2z"/><path id="AM" d="M526.63 450.98h-2.07l1.72-9.96h3.6l.34 5.9 2.48-5.9h3.75l-1.76 9.96h-2.07l1.3-7.44h-.08l-3.1 7.44h-2.33l-.02-.3-.12-2-.08-1.35-.07-1.36-.07-1.2-.07-1.23h-.1l-1.26 7.44z"/><path id="AN" d="M526.63 450.98h-2.07l1.72-9.96h3.6l.34 5.9 2.48-5.9h3.75l-1.76 9.96h-2.07l1.3-7.44h-.08l-3.1 7.44h-2.33l-.02-.3-.12-2-.08-1.35-.07-1.36-.07-1.2-.07-1.23h-.1l-1.26 7.44"/><path id="AO" d="M580.27 449.3l-.3 1.68h-1.9l.01-.3.01-.27v-.2l.01-.1-.1.12-.1.1-.14.1-.15.1-.16.1-.18.1-.2.1-.2.08-.42.12-.2.04-.2.03h-.22-.2-.2l-.2-.03-.28-.07-.24-.08-.2-.1-.2-.12-.17-.12-.14-.14-.12-.14-.1-.15-.1-.16-.07-.17-.06-.16-.04-.17-.03-.18-.04-.34v-.17-.3l.05-.28.06-.27.1-.26.1-.24.15-.22.16-.2.17-.2.2-.18.2-.16.22-.14.23-.12.24-.1.25-.08.25-.07.25-.04h.02l.04-.01.05-.01.08-.01h.2l.12-.02.12-.01.13-.02.4-.03h.12.1l.1-.01h.27l.36.02h.17.14.12l.07.01h.03l.02-.05.02-.14.02-.16.02-.14-.04-.17-.05-.15-.1-.14-.12-.1-.13-.1-.16-.07-.17-.04-.18-.02-.22-.01h-.7l-.5.04-.24.02-.23.04-.23.03-.22.03-.2.04-.18.04-.17.04-.13.05-.1.05-.08.05.53-1.83.16-.07.18-.06.17-.05.2-.04.18-.04.2-.03.2-.03.2-.02.2-.01.44-.02h.7l.52.02.2.01.23.04.24.06.24.07.23.1.24.1.23.13.2.14.2.17.18.2.15.2.1.23.08.24.06.26v.3l-.04.3-.8 4z"/><path id="AP" d="M575.18 451.1h0l.42.06.2-.01.22-.02.22-.03.2-.03.42-.12.2-.08.2-.1.18-.1.32-.22.14-.1.12-.12.1-.12-.07-.06-.1.12-.1.1-.28.22-.16.1-.18.1-.2.1-.18.07-.2.06-.22.07-.2.03-.2.03-.22.02-.2.01-.2-.03-.2-.03-.01.1z"/><path id="AQ" d="M573.34 448.8h0l.02.34.02.18.04.18.04.16.06.18.06.17.1.16.1.16.12.14.15.15.18.12.2.12.22.1.25.08.28.06.01-.1-.27-.06-.23-.08-.2-.1-.2-.1-.16-.12-.14-.13-.12-.14-.1-.14-.08-.16-.14-.32-.03-.17-.03-.18-.02-.16-.02-.17.01-.17h-.1z"/><path id="AR" d="M576.06 445.9h0l-.26.05-.26.06-.25.1-.24.1-.24.12-.23.16-.2.16-.2.18-.18.2-.16.2-.15.23-.1.25-.1.26-.07.27-.05.3-.02.3h.1l.01-.3.04-.28.07-.25.1-.26.1-.24.14-.2.16-.2.16-.2.2-.17.2-.16.2-.13.23-.13.23-.1.25-.1.24-.06.25-.05v-.1z"/><path id="AS" d="M577.63 445.73h-.1l-.1.02-.1.01h-.12l-.26.02-.13.02h-.13l-.12.02-.12.01-.1.01-.1.02h-.08l-.06.01-.03.01h-.02v.1h.02l.05-.01h.04l.08-.01.1-.02h.1l.24-.04h.13l.13-.02h.13l.13-.02.12-.01h.3v-.1z"/><path id="AT" d="M577.83 444.58h0l.17.01.16.05.15.07.13.1.1.1.1.13.06.14.03.16h.1l-.03-.18-.06-.16-.1-.15-.12-.12-.14-.1-.17-.07-.17-.05-.2-.02v.1z"/><path id="AU" d="M574.57 444.94l.08.05.07-.04.1-.05.13-.05.17-.05.18-.03.2-.04.22-.04.22-.03.23-.03.24-.02.25-.03.25-.01h.7l.22.01v-.1h-.22l-.22-.02h-.24l-.24.02-.25.01-.25.03-.24.02-.23.03-.24.03-.22.04-.2.04-.18.03-.16.05-.15.04-.1.06-.1.05.08.05-.1-.02z"/><path id="AV" d="M581.1 445.3h0l.04-.3v-.3l-.05-.27-.08-.25-.12-.23-.16-.22-.18-.18-.2-.17-.22-.15-.23-.13-.24-.1-.24-.1-.25-.07-.23-.05-.24-.04-.2-.01v.08l.2.02.22.04.24.05.23.07.24.1.23.1.22.12.2.14.2.17.16.18.16.2.1.22.1.24.05.25v.3l-.04.3.1.02z"/><path id="AW" d="M578.43 447.32l-.01-.05-.03-.04-.05-.02h-.08l-.08-.01-.1-.01h-.12l-.1.01-.12.02h-.12l-.12.02-.12.01-.1.02-.2.04-.08.02h-.05l-.06.03-.08.02-.08.03-.1.05-.1.04-.1.06-.1.06-.1.07-.1.1-.1.08-.08.1-.07.1-.1.24-.02.13-.01.26.04.2.06.15.1.12.12.07.13.05.13.02h.12.23l.2-.02.2-.04.18-.05.16-.06.15-.07.14-.08.12-.1.1-.08.1-.1.1-.1.07-.1.05-.1.04-.1.03-.1.02-.08.03-.2.04-.22.03-.2.01-.2z"/><path id="AX" d="M594.07 449.94l.02-.17.06-.2.1-.18.13-.16.16-.13.18-.1.2-.06.2-.02.22.02.2.06.2.1.15.13.13.16.1.18.06.2.02.17h-.23l-.01-.13-.04-.17-.08-.15-.1-.13-.12-.1-.14-.07-.17-.06-.18-.01-.17.01-.17.06-.14.07-.12.1-.1.13-.08.15-.04.17v.13z"/><path id="AY" d="M594.75 449.94v-.45h.42.18l.06.02.05.03.04.05.03.05.02.1-.01.07-.01.05-.02.05v.01h-.3l.05-.01.05-.02h.04l.03-.02.01-.03.02-.04v-.05-.04l-.01-.03-.03-.01-.02-.02h-.04l-.04-.01h-.3v.3z"/><path id="AZ" d="M594.75 449.94v.47h.2v-.38h.2l.23.38h.15l-.23-.38h.06l.05-.02h.05l.04-.03.01-.03h-.32l-.04.01h-.2v-.01z"/><path id="Aa" d="M580.84 450.98h2.14l.8-4.48.04-.17.05-.17.06-.16.08-.17.1-.16.1-.15.13-.15.13-.13.16-.12.17-.1.2-.1.22-.08.24-.06.27-.04.3-.02h.2l.34-1.95-.2.01-.2.03-.2.04-.2.05-.16.06-.16.08-.15.08-.15.1-.14.1-.12.1-.25.25-.1.13-.1.14-.12.14-.1.15.23-1.38h-2.13l-1.42 8.13z"/><path id="Ab" d="M580.84 450.98h2.14l.8-4.48.04-.17.05-.17.06-.16.08-.17.1-.16.1-.15.13-.15.13-.13.16-.12.17-.1.2-.1.22-.08.24-.06.27-.04.3-.02h.2l.34-1.95-.2.01-.2.03-.2.04-.2.05-.16.06-.16.08-.15.08-.15.1-.14.1-.12.1-.25.25-.1.13-.1.14-.12.14-.1.15.23-1.38h-2.13l-1.42 8.13"/><path id="Ac" d="M560.74 450.98h2.18l.76-4.48.04-.16.03-.16.06-.15.06-.16.07-.14.1-.14.1-.12.12-.12.14-.1.16-.1.2-.1.2-.07.23-.06.26-.03.3-.03h.02l.03.01.04.01h.04.04.03.02.01l.01-.03v-.1l.03-.14.04-.17.05-.2.05-.2.07-.22.07-.2.06-.14.08-.15.07-.14.08-.13.07-.1.05-.1.04-.05.01-.02h-.01-.06l-.06-.01h-.1l-.05-.01h-.06l-.23.01-.2.03-.2.04-.18.04-.18.06-.3.15-.14.1-.13.1-.23.23-.12.13-.1.13-.1.14-.1.16-.12.15.28-1.38h-2.18l-1.42 8.13z"/><path id="Ad" d="M560.74 450.98h2.18l.76-4.48.04-.16.03-.16.06-.15.06-.16.07-.14.1-.14.1-.12.12-.12.14-.1.16-.1.2-.1.2-.07.23-.06.26-.03.3-.03h.02l.03.01.04.01h.04.04.03.02.01l.01-.03v-.1l.03-.14.04-.17.05-.2.05-.2.07-.22.07-.2.06-.14.08-.15.07-.14.08-.13.07-.1.05-.1.04-.05.01-.02h-.01-.06l-.06-.01h-.1l-.05-.01h-.06l-.23.01-.2.03-.2.04-.18.04-.18.06-.3.15-.14.1-.13.1-.23.23-.12.13-.1.13-.1.14-.1.16-.12.15.28-1.38h-2.18l-1.42 8.13"/><path id="Ae" d="M594.1 458.97v-.03l.06-.2.1-.17.13-.16.16-.12.18-.1.2-.05.2-.02.22.02.2.05.2.1.15.12.13.16.1.17.06.2v.03h-.22l-.04-.16-.08-.14-.1-.13-.12-.1-.14-.08-.17-.06-.18-.01-.17.01-.17.06-.14.08-.12.1-.1.13-.08.14-.04.16z"/><path id="Af" d="M594.75 458.97v-.27h.5l.1.02.06.01.05.03.04.04.03.05.01.05.01.07h-.15v-.04-.04l-.01-.03-.03-.01-.02-.02-.04-.01h-.35v.15z"/><path id="Ag" d="M594.75 459.13v-.16h.2v.15h.2l.07-.01h.05l.05-.02.04-.01.03-.02.01-.03.02-.04v-.01h.15l-.02.1-.02.04-.03.02z"/><path id="Ah" d="M594.06 459.13v.03l.03.22.06.2.1.2.13.15.16.13.18.1.2.06.2.02.22-.02.2-.06.2-.1.15-.13.13-.15.1-.2.06-.2.03-.22v-.03h-.23v.03l-.02.18-.04.17-.08.14-.1.13-.12.1-.14.08-.17.05-.18.02-.17-.02-.17-.05-.14-.08-.12-.1-.1-.13-.08-.14-.04-.17v-.18-.03z"/><path id="Ai" d="M560.97 445.27l-.06-.45-.1-.4-.15-.35-.2-.3-.22-.28-.25-.2-.27-.18-.3-.14-.3-.12-.3-.08-.3-.05h-1.22l-.55.1-.5.14-.44.2-.38.23-.33.26-.3.3-.24.3-.2.32-.18.33-.13.33-.12.32-.08.32-.06.3v1.7l.08.5.13.45.18.4.22.35.26.3.3.26.32.22.34.2.36.15.37.1.38.1.38.05h2.97l.24-.12.3-1.87-.22.13-.2.12-.22.1-.2.08-.2.07h-2.37l-.15-.05-.15-.07-.13-.08-.14-.1-.12-.1-.1-.1-.1-.13-.1-.13-.08-.14-.06-.14-.05-.14v-.5h4.92v-.46l.1-.64.05-.58v-.52zm-2.06.7h-2.77v-.42l.05-.15.07-.14.07-.13.08-.12.1-.1.1-.1.1-.1.12-.08.1-.07.13-.06h1.04l.12.06.1.07.1.08.1.1.16.22.05.13.05.14v.5z"/><path id="Aj" d="M1539 454.83c3.54.18 3.84 2 3.84 3.84a3.43 3.43 0 0 1-3.7 3.38h-6.05v-2.56h4.72c.8 0 2 0 2-1.13a.92.92 0 0 0-1.06-1c-.38-.05-1.78-.13-2-.14-3.2-.08-3.95-1.68-3.95-3.6a3.24 3.24 0 0 1 3.44-3.4h6.05v2.52h-4.43c-1 0-2.1-.12-2.1 1 0 .72.54.87 1.22.93.668.106 1.343.163 2.02.17z"/><path id="Ak" d="M1507.9 456.68a3.2 3.2 0 0 0 2-3.25c0-2.5-2-3.14-3.46-3.14h-7.5v11.74h2.88v-4.14h3.77c1 0 1.4 1 1.4 2l.08 2.15h2.8l-.1-2.4c0-1.9-.52-2.8-1.9-2.95zm-2.46-1.2h-3.6v-2.66h3.6a1.38 1.38 0 0 1 1.59 1.35c-.03.76-.45 1.3-1.6 1.3z"/><path id="Al" d="M1496.6 436.4a3.2 3.2 0 0 0 2-3.25c0-2.52-2-3.14-3.46-3.14h-7.5v11.74h2.88v-4.14h3.77c1 0 1.4 1 1.42 2l.08 2.15h2.8l-.1-2.4c-.04-1.86-.53-2.8-1.9-2.95zm-2.5-1.2h-3.6v-2.7h3.6a1.38 1.38 0 0 1 1.59 1.35c0 .82-.42 1.34-1.6 1.34z"/></defs><g transform="translate(-316 -366)" clip-path="url(#A)"><rect width="125.43" height="78.39" rx="4.18" fill="#3957a7" x="344" y="406.13"/><g class="B"><path d="M401.72 457.1h-6.13l3.83-23.54h6.13z"/><use xlink:href="#B"/><use xlink:href="#C"/><use xlink:href="#D"/></g><use xlink:href="#E" fill="#f9a533"/><rect width="125.43" height="78.39" rx="4.18" fill="#1c3663" x="964.62" y="406"/><g class="B"><use xlink:href="#F"/><use xlink:href="#G"/><use xlink:href="#H"/><use xlink:href="#I"/><use xlink:href="#J"/><use xlink:href="#K"/><use xlink:href="#L"/><path d="M1064.9 439.78h-.34v-1.4a.58.58 0 0 0-.05-.19.28.28 0 0 0-.12-.12.5.5 0 0 0-.22 0 .63.63 0 0 0-.29.07c-.102.05-.2.11-.3.18v1.5h-.34v-1.4a.56.56 0 0 0 0-.19.29.29 0 0 0-.12-.12.54.54 0 0 0-.23 0 .62.62 0 0 0-.28.07c-.1.047-.193.104-.28.17v1.52h-.34v-2h.34v.22a1.56 1.56 0 0 1 .32-.21.78.78 0 0 1 .34-.08.67.67 0 0 1 .35.09.53.53 0 0 1 .21.24 1.65 1.65 0 0 1 .38-.25.88.88 0 0 1 .37-.08.59.59 0 0 1 .49.2.89.89 0 0 1 .16.57v1.32z"/></g><rect width="125.43" height="78.39" rx="4.18" fill="#231f20" x="1120.9" y="406.45"/><g class="B E"><path d="M1181.44 438.6h3.9s3.86-.08 3.82 3.43c0 2.6-3.74 3-3.74 3h-4v-6.43zm11.65 12.58c.1.5.48 1.07 1.7 1.13a4.71 4.71 0 0 0 2.57-.58v1.2a16.53 16.53 0 0 1-2.65.43c-.9 0-3.55-.2-3.55-2.65 0-2 2.18-2.6 3.43-2.6 2.18.08 3.23.86 3.2 3.08h-4.7zm0-1h3a1.23 1.23 0 0 0-1.44-1.13 1.36 1.36 0 0 0-1.55 1.13h0zm9.46-1.22a3.05 3.05 0 0 1 2.38-.84 2.56 2.56 0 0 1 2.77 2.57c0 .54-.23 2.6-3 2.6a2.63 2.63 0 0 1-2.1-.81v.66h-1.9v-7h1.9v2.83zm1.63 3.25a1.67 1.67 0 0 0 1.64-1.48 1.48 1.48 0 0 0-1.71-1.44 1.52 1.52 0 0 0-1.56 1.26v.5a1.49 1.49 0 0 0 1.63 1.15h0zm16.48-.2v1.1a8.89 8.89 0 0 1-1.48.2 2 2 0 0 1-2.1-1.83v-2.26h-1.64v-1h1.6V447h1.95v1.2h1.6v1h-1.6v1.95a.91.91 0 0 0 .78 1 1.09 1.09 0 0 0 .82-.12h0zm-5.92-12.4h2.26v5.4h1.9v-5.4h2.3v-1.12h-6.46v1.13zm-.78.27l.23-1.13a7.24 7.24 0 0 0-2.69-.43c-1.68 0-4.37.94-4.37 3.47s2.84 3.35 4.6 3.35a6.4 6.4 0 0 0 2.34-.27l-.2-1.25a8 8 0 0 1-2.1.23c-1.292.028-2.407-.903-2.6-2.18a2.64 2.64 0 0 1 2.73-2.14 6.22 6.22 0 0 1 2.06.35h0zm-17.22-1.36s3.2-.16 3.2 1.7c0 1.6-1.83 1.7-1.83 1.7a1.21 1.21 0 0 1 .74.43c.2.3 1.48 2.65 1.48 2.65h-1.95a6.5 6.5 0 0 1-.47-.66c-.12-.27-.47-.86-.47-.86a1.33 1.33 0 0 0-1.21-1h-.7v2.52h-1.87v-6.5h3.08zm-1.2 2.92h1s1.4-.08 1.48-.94-1.36-.94-1.36-.94h-1.13v1.93zm7.83 1h3.08v-1.2h-3.12v-1.44h3.4v-1.24h-5.27v6.5h5.34v-1.16h-3.43v-1.4zm7.6 5h1.9v-1.32h-1.9v1.37zm0 5.7h1.9v-4.95h-1.9v4.95zm-20.8-8.1h1.87v-6.5h-1.87v6.5zm-8.72 1.66h3.9s3.86-.08 3.82 3.43c0 2.6-3.74 3-3.74 3h-4v-6.43zm1.9 5.22h1.25s2.57-.15 2.57-2.14-2.72-2.18-2.72-2.18h-1.1v4.32zm0-8.1h1.25s2.57-.2 2.57-2.14-2.73-2.18-2.73-2.18h-1.1v4.32z"/><use xlink:href="#M"/></g><rect width="125.43" height="78.39" rx="4.18" x="807.7" y="406.13" class="K"/><circle cx="856.33" cy="445.33" r="22.47" fill="#007cc3"/><g fill="#009ddd"><path d="M886.5 422.86a22.39 22.39 0 0 0-15.06 5.821c-.812.738-1.57 1.533-2.27 2.38h4.54a22.58 22.58 0 0 1 1.71 2.38h-8a22.01 22.01 0 0 0-1.29 2.38h10.55c.38.773.713 1.568 1 2.38H865.2a21.6 21.6 0 0 0-.65 2.38h13.76a22.62 22.62 0 0 1-.65 11.9H865.2a22.46 22.46 0 0 0 1 2.38h10.55c-.382.82-.812 1.613-1.3 2.38h-8c.518.83 1.09 1.625 1.7 2.38h4.54c-.697.848-1.455 1.644-2.27 2.38a22.47 22.47 0 0 0 36.671-22.848A22.47 22.47 0 0 0 886.5 422.86z"/><use xlink:href="#N"/></g><g class="B"><use xlink:href="#O"/><use xlink:href="#P"/><use xlink:href="#Q"/><use xlink:href="#R"/><path d="M857.2 441.47h3.44l-2.05 9.6h-3.44z"/><use xlink:href="#S"/><path d="M869.72 441.43a3.91 3.91 0 0 0-3.93 1.53c.12-.485.188-.98.2-1.48h-3.15c-.45 3-1.26 6-1.9 9l-.16.65h3.58c.43-2 .92-4.9 1.5-5.8a2.31 2.31 0 0 1 2.76-1.17z"/></g><rect width="125.43" height="78.39" rx="4.18" x="652.24" y="406.13" class="K"/><use xlink:href="#T" class="I"/><use xlink:href="#U" class="L"/><g class="I"><path d="M712.18 431.4h11.42v-1.25h-10.32zm-1.78 2.66h13.2v-1.25h-12.4zm-1.35 2.7h14.55v-1.26h-13.93zm-.87 2.66h15.42v-1.25h-15.04zm-.58 2.67h16v-1.26h-15.76zm-.1 5.17h16.1V446h-16.22zm.38 2.83h15.72v-1.26h-15.95zm.76 2.28h14.96v-1.26h-15.35zm1.13 2.78h13.83v-1.26h-14.43zm1.6 2.82h12.22v-1.26h-13.06zm2.02 2.7h10.1v-1.26h-11.2z"/><use xlink:href="#V"/><use xlink:href="#W"/><path d="M748.7 459.3l.02-.2v-.01h.22l-.01.04-.01.16z"/><use xlink:href="#X"/><path d="M750.68 459.3l-.01-.16-.01-.04h.23v.01.2z"/><use xlink:href="#Y"/><path d="M749.42 459.3v.46h.2v-.38h.2l.23.38h.2l-.27-.38.06-.01.07-.01.05-.02.05-.03v-.01z"/></g><use xlink:href="#Z" class="B"/><use xlink:href="#a" class="C D F"/><use xlink:href="#b" class="B"/><use xlink:href="#c" class="C D F"/><use xlink:href="#d" class="B"/><use xlink:href="#e" class="C D F"/><use xlink:href="#f" class="B"/><use xlink:href="#g" class="C D F"/><use xlink:href="#h" class="L"/><use xlink:href="#i" class="B"/><use xlink:href="#j" class="C D F"/><use xlink:href="#k" class="B"/><use xlink:href="#l" class="C D F"/><use xlink:href="#m" class="B"/><use xlink:href="#n" class="C D F"/><path d="M748.7 451.8h.87v.12h-.34v.72h-.2v-.72h-.34z" class="B"/><path d="M748.7 451.8h.87v.12h-.34v.72h-.2v-.72h-.34v-.12" class="C D F"/><path d="M749.7 451.8h.27l.3.65.3-.65h.27v.84h-.2V452l-.3.64h-.15l-.3-.64v.64h-.2z" class="B"/><path d="M749.7 451.8h.27l.3.65.3-.65h.27v.84h-.2V452l-.3.64h-.15l-.3-.64v.64h-.2v-.84" class="C D F"/><use xlink:href="#o" class="I"/><rect width="125.43" height="78.39" rx="4.18" fill="#045ea0" x="1276.82" y="406.67"/><g class="E"><path d="M1319.06 450.82a65 65 0 0 1 40.45-4.06l.18-4.47c-18.6-2-32 3.9-40.63 8.1v.44z" fill="#faa929"/><g class="B"><path d="M1301.92 454.1h8.95v2.7h-5.56l-.04 2.5h5.54v2.58h-5.56l.02 2.5h5.48v2.7h-8.82l-.01-12.95zm11.18-1.08h3.26l.01 14.04h-3.25l-.02-14.04z"/><use xlink:href="#p"/><use xlink:href="#q"/><use xlink:href="#r"/><use xlink:href="#s"/><use xlink:href="#t"/><path d="M1367.75 457.63h3.25v1a4.62 4.62 0 0 1 3.05-1.37c2 0 3.1 1.1 3.1 3.7v6.08h-3.26v-5.6a1.11 1.11 0 0 0-1.18-1.37 3 3 0 0 0-1.7.86v6.1h-3.3l.08-9.43zm-39.05-19.43l4.12-13.56h3.67l-4.12 13.56z"/><use xlink:href="#u"/><use xlink:href="#v"/><use xlink:href="#w"/></g></g><rect width="125.43" height="78.39" rx="4.18" x="497.3" y="406.13" class="K"/><g class="E"><use xlink:href="#x" class="J"/><use xlink:href="#y" class="I"/><g class="J"><path d="M557.38 431.46h11.96v-1.22h-10.92l-1.04 1.22zm-1.78 2.72h13.75v-1.23H556.3l-.72 1.23zm-1.34 2.72h15.08v-1.23H554.8l-.53 1.23zm-.92 2.7h16v-1.22h-15.62l-.38 1.22zm.53 13.14h15.5v-1.22h-15.9l.38 1.22zm1.15 2.7h14.36v-1.22h-14.93l.57 1.22zm1.6 2.7h12.75v-1.22h-13.52l.77 1.22zm2.2 2.72h10.54v-1.23h-11.6l1.07 1.23zm-6.04-18.58h16.54v-1.22h-16.3l-.23 1.22zm10.08 7.73h6.3v-1.23h-6.08l-.23 1.23zm.5-2.7h5.8v-1.23h-5.58l-.23 1.23zm-11-1.22h1.64v1.23h-1.56l-.08-1.23z"/></g><use xlink:href="#z" class="B"/></g><use xlink:href="#AA" class="C D G H"/><use xlink:href="#AB" class="B E"/><g class="C D G H"><use xlink:href="#AC"/><use xlink:href="#AD"/></g><use xlink:href="#AE" class="B E"/><use xlink:href="#AF" class="C D G H"/><use xlink:href="#AG" class="B E"/><use xlink:href="#AH" class="C D G H"/><g class="E"><use xlink:href="#AI" class="J"/><use xlink:href="#AJ" class="B"/></g><use xlink:href="#AK" class="C D G H"/><g class="E"><use xlink:href="#AL" class="I"/><use xlink:href="#AM" class="B"/></g><use xlink:href="#AN" class="C D G H"/><g class="B E"><use xlink:href="#AO"/><path d="M579.96 451.04l.05-.05.3-1.7h-.1l-.3 1.7.05-.05v.1l.04-.01V451l-.05.05z"/><path d="M578 450.98l.05.06h1.9v-.1h-1.9l.04.05h-.1v.06h.06l-.05-.06z"/><path d="M578.13 450.13l-.07-.06-.03.12-.01.2v.27l-.01.3h.1l.02-.3.01-.27-.01-.2v-.06l-.06-.06.07.06z"/><use xlink:href="#AP"/><use xlink:href="#AQ"/><use xlink:href="#AR"/><use xlink:href="#AS"/><path d="M578.65 445.8l.05-.04h-.1l-.12-.01-.14-.01H578l-.18-.02h-.18v.1h.36l.18.01h.3l.12.01.07.01h.03l.04-.04-.04.04h.04v-.04l-.1-.02z"/><path d="M578.73 445.33h-.01v.14l-.03.15-.02.14-.02.05.1.02.02-.06.02-.13.03-.17.02-.14h-.1z"/><use xlink:href="#AT"/><use xlink:href="#AU"/><path d="M575.13 443.07l-.03.04-.53 1.83.1.02.53-1.83-.03.03-.03-.1-.02.01v.03l.03-.04z"/><path d="M578.5 442.73h0l-.26-.02H578h-.7l-.22.02-.22.01-.42.02-.2.03-.2.03-.38.08-.18.06-.34.12.03.1.5-.18.18-.03.2-.04.38-.06.42-.04h1.67v-.08z"/><use xlink:href="#AV"/><path d="M580.32 449.3h0l.8-4-.1-.02-.8 4h.1z"/></g><use xlink:href="#AW" class="E J"/><g class="B E"><use xlink:href="#AX"/><use xlink:href="#AY"/><path d="M594.07 449.94l-.01.05.03.22.06.2.1.2.13.15.16.13.18.1.2.06.2.02.22-.02.2-.06.2-.1.15-.13.13-.15.1-.2.06-.2.03-.22v-.05h-.23l.01.05-.02.18-.04.17-.08.14-.1.13-.12.1-.14.08-.17.05-.18.02-.17-.02-.17-.05-.14-.08-.12-.1-.1-.13-.08-.14-.04-.17V450v-.05z"/><use xlink:href="#AZ"/></g><path d="M594.06 450h0v-.22l.06-.2.1-.18.13-.16.16-.13.18-.1.2-.06h.42l.2.06.18.1.16.13.13.16.1.18.06.2v.44l-.06.2-.1.18-.13.15-.16.13-.18.1-.2.06h-.42l-.2-.06-.18-.1-.16-.13-.13-.15-.1-.18-.06-.2V450m.88.42h-.2v-.92h.7v.22h-.1l.23.38h-.15l-.23-.38h-.26v.38m.2-.46h.17v-.05.1h-.36v.3h.2m0 .92h.18l.17-.05.14-.08.12-.1.1-.13.08-.14v-.7l-.08-.2-.1-.13-.12-.1-.14-.08-.17-.05h-.35l-.17.05-.15.08-.12.1-.08.13-.08.15v.7l.08.15.1.13.12.1.15.08.17.05h.17" class="C D G H"/><use xlink:href="#Aa" class="B E"/><use xlink:href="#Ab" class="C D G H"/><use xlink:href="#Ac" class="B E"/><use xlink:href="#Ad" class="C D G H"/><g class="E"><g class="J"><use xlink:href="#Ae"/><use xlink:href="#Af"/><path d="M594.06 459.13l.03-.16h.22v.01.15z"/><use xlink:href="#Ag"/><path d="M595.98 459.13l-.02-.15v-.01h.22l.03.16z"/><use xlink:href="#Ah"/><path d="M594.75 459.13v.45h.2v-.38h.2l.23.38h.15l-.23-.38h.06l.05-.02.05-.01.04-.04h-.73z"/></g><use xlink:href="#Ai" class="B"/></g><rect width="125.43" height="78.39" rx="4.18" x="1430.84" y="406.82" class="M"/><g class="B"><path d="M1469.75 444.18v-1.25l-.6 1.25h-5.2l-.65-1.35v1.35h-9.7l-1.16-2.7h-1.95l-1.2 2.7h-5V436l3.7-8.35h7.06l1 2.37v-2.35h8.64l1.9 4 1.86-4h27.27a4.65 4.65 0 0 1 2.37.64v-.64h6.87v.9a5.6 5.6 0 0 1 3.06-.9h12.13l1.06 2.4v-2.4h7.77l1.4 2.4v-2.4h7.43v16.56h-7.63l-1.8-2.9v2.87h-9.48l-1.33-3h-1.86l-1.25 3h-5.74a7.43 7.43 0 0 1-3.75-1.18v1.18h-11.43v-3.86a.43.43 0 0 0-.43-.52h-.42v4.38h-22.9zm-5.7 3.6h15l2.17 2.45 2.22-2.45h11.54a5.31 5.31 0 0 1 2.11.58v-.58h10.35a5.24 5.24 0 0 1 2.4.65v-.65h13.2v.6a4.49 4.49 0 0 1 2.21-.6h8.6v.6a5.26 5.26 0 0 1 2.23-.6h6.76v15.6a3.73 3.73 0 0 1-2.73 1h-8.9v-.5a4.57 4.57 0 0 1-2.14.5h-23.67v-4c0-.4-.17-.47-.53-.47h-.33v4.5h-7.4v-4.47a5 5 0 0 1-2.19.44h-2.66v4h-9.12l-2.07-2.53-2.22 2.53h-14.8v-16.6z"/></g><g class="M"><path d="M1511.38 450.26h9.42v2.53h-6.54v2.2h6.36v2.23h-6.36v2.32h6.54V462h-9.42z"/><use xlink:href="#Aj"/><path d="M1528.15 454.83c3.54.18 3.84 2 3.84 3.84a3.43 3.43 0 0 1-3.7 3.38h-6.05v-2.56h4.72c.8 0 2 0 2-1.13 0-.54-.2-.88-1.06-1-.38-.05-1.78-.13-2-.14-3.2-.08-3.94-1.68-3.94-3.6a3.23 3.23 0 0 1 3.43-3.4h6.05v2.52H1527c-1 0-2.1-.12-2.1 1 0 .72.54.87 1.22.93a14.12 14.12 0 0 0 2.02.17zm-34.17-4.53h-10.12l-3.3 3.64-3.2-3.67H1466V462h11l3.46-3.88 3.38 3.9h5.53v-4h3.88c1.5 0 4.22-.05 4.22-4.17a3.25 3.25 0 0 0-3.49-3.57zm-18.54 9.2h-6.65v-2.32h6.36V455h-6.36v-2.2h7l2.8 3.2zm11 1.36l-4.14-4.9 4.14-4.6v9.5zm6.5-5.28h-3.5v-2.82h3.6c.793.008 1.428.657 1.42 1.45s-.657 1.428-1.45 1.42z"/><use xlink:href="#Ak"/><path d="M1500.1 430h2.88v11.75h-2.88zm-23.6 0h9.42v2.53h-6.54v2.2h6.35v2.23h-6.35v2.3h6.54v2.47h-9.42z"/><use xlink:href="#Al"/><path d="M1469.85 430l-3.54 7.88-3.53-7.87h-4.52v11.3l-5-11.3h-3.82l-5.14 11.74h3l1.13-2.62h5.75l1.14 2.62h5.8v-8.7l3.85 8.7h2.62l3.94-8.57v8.57h2.9V430h-4.6zm-20.3 6.6l1.72-4.1 1.8 4.1zm83.17-6.6v8.13l-4.86-8.13h-4.26v11l-4.9-11h-3.8l-4 9.1h-1.85c-.7-.14-1.78-.63-1.8-2.7v-.9c0-2.75 1.5-3 3.4-3h1.8v-2.55h-3.76c-1.3 0-4.16 1-4.26 5.82-.07 3.25 1.35 5.93 4.55 5.93h3.8l1.13-2.62h5.75l1.14 2.62h5.65v-8.6l5.2 8.6h3.93V430h-2.88zm-17.7 6.6l1.72-4.1 1.8 4.1z"/></g><rect width="125.43" height="78.39" rx="4.18" fill="#3957a7" x="-278" y="505.13"/><g class="B"><path d="M-220.28 556.1h-6.13l3.83-23.54h6.13zm-11.28-23.53l-5.84 16.2-.7-3.5-2.07-10.58a2.62 2.62 0 0 0-2.91-2.12h-9.66l-.1.4a22.87 22.87 0 0 1 6.41 2.69l5.32 20.45h6.38l9.75-23.53h-6.58zm48.2 23.53h5.62l-4.9-23.53h-4.9a2.82 2.82 0 0 0-2.83 1.75l-9.17 21.78h6.4l1.28-3.5h7.8zm-6.74-8.32l3.22-8.8 1.8 8.8h-5zm-8.95-9.55l.87-5.05a17.69 17.69 0 0 0-5.51-1c-3 0-10.26 1.33-10.26 7.8 0 6.08 8.48 6.16 8.48 9.35s-7.6 2.62-10.1.6l-.9 5.28a17.16 17.16 0 0 0 6.94 1.28c4.18 0 10.5-2.17 10.5-8.06 0-6.12-8.55-6.7-8.55-9.35s5.94-2.3 8.56-.85z"/></g><path d="M-238.1 545.27l-2.06-10.58a2.62 2.62 0 0 0-2.91-2.12h-9.66l-.1.4a23.74 23.74 0 0 1 9.09 4.56 18.36 18.36 0 0 1 5.65 7.74z" fill="#f9a533"/><rect width="125.43" height="78.39" rx="4.18" fill="#1c3663" x="342.62" y="505"/><g class="B"><path d="M403.25 539.44a1.79 1.79 0 0 0-1.31.8l-3.3 5.64c-.16.28-.32.1-.35 0l-.93-5.6a1.15 1.15 0 0 0-1.14-.82h-1.87a.62.62 0 0 0-.63.8l1.7 10a2.07 2.07 0 0 1 0 1.24l-1.85 3.22c-.27.44-.12.8.32.8h2.16a1.75 1.75 0 0 0 1.31-.79l8.32-14.07s.8-1.2.06-1.2h-2.5M377 542.3a4.39 4.39 0 0 1-2.63.69h-.5a.63.63 0 0 1-.64-.8l.63-2.7a1.06 1.06 0 0 1 1-.79h.68a3.3 3.3 0 0 1 1.81.41 1.36 1.36 0 0 1 .6 1.24 2.25 2.25 0 0 1-.94 2m4.5-4.18a3.12 3.12 0 0 0-1.14-1.23 5.26 5.26 0 0 0-1.81-.67 15.11 15.11 0 0 0-2.46-.2h-4.36a1.09 1.09 0 0 0-1 .79l-2.94 12.78a.62.62 0 0 0 .63.8h2.1a1.07 1.07 0 0 0 1-.8l.72-3.1a1.07 1.07 0 0 1 1-.79h.6a9.9 9.9 0 0 0 6-1.57 4.88 4.88 0 0 0 2.13-4.14 3.86 3.86 0 0 0-.4-1.88m10 1.8a8 8 0 0 0-3.73-.67 16.47 16.47 0 0 0-2.53.2l-1.07.2a1.22 1.22 0 0 0-.92 1l-.25 1c-.14.67.24.64.4.6a11.39 11.39 0 0 1 1.24-.37 9.15 9.15 0 0 1 2-.26 5.18 5.18 0 0 1 1.89.27 1 1 0 0 1 .63.95c.02.096.02.194 0 .3a.32.32 0 0 1-.3.19l-3.08.33a9.62 9.62 0 0 0-2.65.73 4.11 4.11 0 0 0-1.79 1.42 3.85 3.85 0 0 0-.6 2.18 2.56 2.56 0 0 0 .85 2 3.19 3.19 0 0 0 2.2.76 5.88 5.88 0 0 0 1.31-.12c.342-.086.676-.2 1-.34a5.32 5.32 0 0 0 .86-.48l.8-.52-.08.34a.61.61 0 0 0 .55.78h2a1.09 1.09 0 0 0 .89-.78l1.53-6.58a4.24 4.24 0 0 0 .08-.54 4.17 4.17 0 0 0 0-.5 2.2 2.2 0 0 0-1.23-2.07zm-3.7 7.84c-.26.163-.535.303-.82.42a3 3 0 0 1-1.09.24 2.43 2.43 0 0 1-1.19-.23.81.81 0 0 1-.41-.78 1.58 1.58 0 0 1 .3-1 2.17 2.17 0 0 1 .89-.6c.45-.145.912-.25 1.38-.3l1.54-.17c.12 0 .2-.07.15.25 0 .14-.3 1.26-.42 1.76a1 1 0 0 1-.34.42zm41.57-7.83a8 8 0 0 0-3.73-.67 16.37 16.37 0 0 0-2.53.2l-1.07.2a1.22 1.22 0 0 0-.92 1l-.26 1c-.14.67.24.64.4.6.406-.148.82-.27 1.24-.37a9.21 9.21 0 0 1 2-.26 5.18 5.18 0 0 1 1.89.27 1 1 0 0 1 .63.95.73.73 0 0 1 0 .3.32.32 0 0 1-.3.19l-3.08.33a9.65 9.65 0 0 0-2.65.73 4.13 4.13 0 0 0-1.79 1.42 3.87 3.87 0 0 0-.6 2.18 2.56 2.56 0 0 0 .85 2 3.2 3.2 0 0 0 2.2.75 5.85 5.85 0 0 0 1.31-.12c.342-.087.676-.2 1-.34a5.32 5.32 0 0 0 .86-.48l.8-.53-.08.34a.62.62 0 0 0 .56.78h2a1.09 1.09 0 0 0 .9-.78l1.52-6.58c.04-.178.068-.358.08-.54a4.27 4.27 0 0 0 0-.5 2.2 2.2 0 0 0-1.23-2.05zm-3.7 7.84a5.69 5.69 0 0 1-.82.42 3 3 0 0 1-1.09.24 2.42 2.42 0 0 1-1.19-.23.8.8 0 0 1-.41-.78 1.58 1.58 0 0 1 .3-1 2.16 2.16 0 0 1 .89-.6 6.8 6.8 0 0 1 1.38-.3l1.54-.17c.12 0 .2-.07.15.25 0 .14-.3 1.26-.42 1.76a1 1 0 0 1-.29.42z"/><path d="M414.9 542.35a4.41 4.41 0 0 1-2.63.68h-.52a.62.62 0 0 1-.63-.79l.63-2.7a1.07 1.07 0 0 1 1-.79h.7a3.4 3.4 0 0 1 1.81.4 1.4 1.4 0 0 1 .61 1.25 2.3 2.3 0 0 1-.94 2m4.5-4.18a3.21 3.21 0 0 0-1.15-1.23 5.17 5.17 0 0 0-1.82-.67 14.48 14.48 0 0 0-2.46-.19h-4.37a1.09 1.09 0 0 0-1 .8l-2.94 12.78a.61.61 0 0 0 .62.79h2.1a1.09 1.09 0 0 0 1-.79l.7-3.1a1.07 1.07 0 0 1 1-.79h.6a9.87 9.87 0 0 0 6-1.57 4.92 4.92 0 0 0 2.13-4.14 4 4 0 0 0-.4-1.88m17.24-2.05h-1.87a1.07 1.07 0 0 0-1 .73v.07l-.1.47-2.58 11.7-.12.5a.61.61 0 0 0 .55.77h1.94a1.08 1.08 0 0 0 1-.73v-.06l2.8-12.67a.62.62 0 0 0-.62-.77zm2.84 2.58h-.4a.63.63 0 0 1-.47-.17.76.76 0 0 1-.16-.54v-1.08h-.23v-.3h.2v-.58h.34v.58h.7v.3h-.7v1.18a.42.42 0 0 0 .05.17.24.24 0 0 0 .11.11.54.54 0 0 0 .21 0h.3v.3zm3.38.02h-.34v-1.4a.58.58 0 0 0-.05-.19.28.28 0 0 0-.12-.12.5.5 0 0 0-.22 0 .63.63 0 0 0-.29.07c-.102.05-.2.1-.3.18v1.5h-.34v-1.4a.56.56 0 0 0 0-.19.29.29 0 0 0-.12-.12.54.54 0 0 0-.23 0 .62.62 0 0 0-.28.07 1.56 1.56 0 0 0-.28.17v1.52H440v-2h.34v.22a1.56 1.56 0 0 1 .32-.21.78.78 0 0 1 .34-.08.67.67 0 0 1 .35.09.53.53 0 0 1 .21.24 1.65 1.65 0 0 1 .38-.25.88.88 0 0 1 .37-.08.59.59 0 0 1 .49.2.89.89 0 0 1 .16.57v1.32z"/></g><rect width="125.43" height="78.39" rx="4.18" fill="#231f20" x="498.9" y="505.45"/><g class="B E"><path d="M559.44 537.6h3.9s3.86-.08 3.82 3.43c0 2.6-3.74 3-3.74 3h-4v-6.43zm11.65 12.58c.1.5.48 1.07 1.7 1.13a4.71 4.71 0 0 0 2.57-.58v1.2a16.53 16.53 0 0 1-2.65.43c-.9 0-3.55-.2-3.55-2.65 0-2 2.18-2.6 3.43-2.6 2.18.08 3.23.86 3.2 3.08h-4.7zm0-1h3a1.23 1.23 0 0 0-1.44-1.13 1.36 1.36 0 0 0-1.55 1.13h0zm9.46-1.22a3.05 3.05 0 0 1 2.38-.84 2.56 2.56 0 0 1 2.77 2.57c0 .54-.23 2.6-3 2.6a2.63 2.63 0 0 1-2.1-.81v.66h-1.9v-7h1.9v2.83zm1.63 3.25a1.67 1.67 0 0 0 1.64-1.48 1.48 1.48 0 0 0-1.71-1.44 1.52 1.52 0 0 0-1.56 1.26v.5a1.49 1.49 0 0 0 1.63 1.15h0zm16.48-.2v1.1a8.89 8.89 0 0 1-1.48.2 2 2 0 0 1-2.1-1.83v-2.26h-1.64v-1h1.6V546H597v1.2h1.6v1H597v1.95a.91.91 0 0 0 .78 1 1.09 1.09 0 0 0 .82-.12h0zm-5.92-12.4H595v5.4h1.9v-5.4h2.3v-1.12h-6.46v1.13zm-.78.27l.23-1.13a7.24 7.24 0 0 0-2.69-.43c-1.68 0-4.37.94-4.37 3.47s2.84 3.35 4.6 3.35a6.4 6.4 0 0 0 2.34-.27l-.2-1.25a8 8 0 0 1-2.1.23 2.57 2.57 0 0 1-2.6-2.18 2.64 2.64 0 0 1 2.73-2.14 6.22 6.22 0 0 1 2.06.35h0zm-17.22-1.36s3.2-.16 3.2 1.7c0 1.6-1.83 1.7-1.83 1.7a1.21 1.21 0 0 1 .74.43c.2.3 1.48 2.65 1.48 2.65h-1.95a6.5 6.5 0 0 1-.47-.66c-.12-.27-.47-.86-.47-.86a1.33 1.33 0 0 0-1.21-1h-.7V544h-1.87v-6.5h3.08zm-1.2 2.92h1s1.4-.08 1.48-.94-1.36-.94-1.36-.94h-1.13v1.93zm7.83 1h3.08v-1.2h-3.12v-1.44h3.4v-1.24h-5.27v6.5h5.34v-1.16h-3.43v-1.4zm7.6 5h1.9v-1.32h-1.9v1.37zm0 5.7h1.9v-4.95h-1.9v4.95zm-20.8-8.1h1.87v-6.5h-1.87v6.5zm-8.72 1.66h3.9s3.86-.08 3.82 3.43c0 2.6-3.74 3-3.74 3h-4v-6.43zm1.9 5.22h1.25s2.57-.15 2.57-2.14-2.72-2.18-2.72-2.18h-1.1v4.32zm0-8.1h1.25s2.57-.2 2.57-2.14-2.73-2.18-2.73-2.18h-1.1v4.32zm-19.45-1.32v13s-7.56-1.36-7.56-6.54c0-4.13 5.6-6 7.56-6.5h0zm0-.24c-4.54-.33-14.84 1.8-14.84 6.46 0 3 5.46 7.48 14.34 7.6.35 0 10.44-.4 10.28-11.22-.13-9.1-6.94-10.7-9.12-11v-.6c8.68.55 15.5 5.77 15.5 12.1 0 6.7-7.63 12.15-17 12.15s-17-5.45-17-12.15 7.6-12.15 17-12.15h.86v8.72z"/></g><rect width="125.43" height="78.39" rx="4.18" x="185.7" y="505.13" class="K"/><circle cx="234.33" cy="544.33" r="22.47" fill="#007cc3"/><g fill="#009ddd"><path d="M264.5 521.86a22.39 22.39 0 0 0-15.06 5.821 23.1 23.1 0 0 0-2.27 2.38h4.54a22.58 22.58 0 0 1 1.71 2.38h-8a22.01 22.01 0 0 0-1.29 2.38h10.55c.38.773.713 1.568 1 2.38H243.2a21.6 21.6 0 0 0-.65 2.38h13.76a22.62 22.62 0 0 1-.65 11.9H243.2a22.46 22.46 0 0 0 1 2.38h10.55a20.72 20.72 0 0 1-1.3 2.38h-8c.518.83 1.1 1.625 1.7 2.38h4.54c-.697.848-1.455 1.644-2.27 2.38a22.47 22.47 0 1 0 15.08-39.141zm19.47 35a.73.73 0 1 1 .72.72.73.73 0 0 1-.72-.72zm.72.55a.532.532 0 0 0-.747.757.532.532 0 0 0 .757-.747zm-.1-.23h-.15v-.68h.27a.29.29 0 0 1 .16 0 .19.19 0 0 1 .08.16.18.18 0 0 1-.11.17l.12.28h-.17l-.1-.25h-.1v.25zm0-.36h.08a.18.18 0 0 0 .09 0 .08.08 0 0 0 0-.07.08.08 0 0 0 0-.06.21.21 0 0 0-.1 0h-.08v.16z"/></g><g class="B"><path d="M276.44 549.35a.73.73 0 1 1 .72.73.73.73 0 0 1-.72-.73zm.72.55a.55.55 0 1 0-.55-.55.55.55 0 0 0 .55.55zm-.1-.23h-.15v-.64h.27a.29.29 0 0 1 .16 0 .2.2 0 0 1 .08.16.18.18 0 0 1-.11.17l.12.28h-.17l-.1-.25h-.1v.25zm0-.36h.08a.18.18 0 0 0 .09 0v-.14a.2.2 0 0 0-.1 0h-.08v.16zm-43.32-10.8l-.58 2.45c-1.7-.72-4-1.1-5.7 0a4.6 4.6 0 0 0-2.07 4.48 2.75 2.75 0 0 0 1.69 2.09 5.68 5.68 0 0 0 4.8-.49l-.63 2.72a9.85 9.85 0 0 1-6 .08 5 5 0 0 1-3.4-4 6.68 6.68 0 0 1 3.69-7 12.4 12.4 0 0 1 8.2-.33zm28.63 10a4.71 4.71 0 0 1-3.91 1.7c-2.25 0-3.67-1.66-2.87-5.38l.93-4.38h3.43l-.93 4.38c-.32 1.5-.24 2.63 1.27 2.63 1.78 0 2.32-1.08 2.65-2.62l.93-4.38h3.43l-1.54 7-.44 2.56h-3.22zm6.07-5c0 1.22.8 2 2.62 2.67 1.4.5 1.62.63 1.62 1.06 0 .6-.63.86-2 .86a12.63 12.63 0 0 1-3.09-.37l-.48 2.22a25.29 25.29 0 0 0 3.59.27c3.63 0 5.3-1 5.3-3.2 0-1.3-.7-2.08-2.43-2.67-1.45-.48-1.6-.6-1.6-1s.58-.78 1.7-.78c.67 0 1.6.06 2.5.15l.48-2.23-3-.2c-3.87-.03-5.2 1.46-5.2 3.2zm-33.24-3.03h3.44l-2.05 9.6h-3.44zm20.34-.04a3.91 3.91 0 0 0-3.93 1.53 6.84 6.84 0 0 0 .2-1.48h-3.15c-.45 3-1.26 6-1.9 9l-.16.65h3.58c.43-2 .92-4.9 1.5-5.8a2.31 2.31 0 0 1 2.76-1.17zm-7.82 0a3.91 3.91 0 0 0-3.93 1.53 6.84 6.84 0 0 0 .2-1.48h-3.15c-.45 3-1.26 6-1.9 9l-.16.65h3.58c.43-2 .92-4.9 1.5-5.8a2.31 2.31 0 0 1 2.76-1.17z"/></g><rect width="125.43" height="78.39" rx="4.18" x="30.24" y="505.13" class="K"/><path d="M107.88 566.84l1.17-.03 1.14-.08 1.13-.15 1.1-.2 1.1-.25 1.07-.3 1.05-.35 1.03-.4 1-.45.96-.5.95-.54.9-.6.9-.63.85-.66.82-.72.78-.74.74-.8.72-.82.67-.85.63-.88.58-.92.54-.94.5-.97.46-1 .4-1.03.35-1.04.3-1.08.25-1.08.2-1.12.14-1.13.08-1.14.04-1.16-.04-1.16-.08-1.14-.14-1.1-.2-1.1-.25-1.08-.3-1.07-.35-1.04-.4-1.02-.46-1-.5-.97-.54-.94-.58-.92-.63-.88-.67-.85-.72-.82-.74-.78-.78-.74-.82-.7-.85-.67-.9-.62-.9-.6-.95-.54-.96-.5-1-.45-1.03-.4-1.05-.36-1.07-.3-1.1-.25-1.1-.2-1.13-.14-1.14-.1-1.17-.03-1.16.03-1.14.1-1.13.14-1.1.2-1.1.25-1.07.3-1.05.36-1.02.4-1 .45-.97.5-.94.54-.9.6-.88.62-.85.67-.82.7-.78.74-.74.78-.7.82-.67.85-.63.88-.58.92-.54.94-.5.97-.44 1-.4 1.02-.35 1.04-.3 1.07-.25 1.08-.2 1.1-.14 1.1-.1 1.14-.03 1.16.03 1.16.1 1.14.14 1.13.2 1.12.25 1.08.3 1.08.35 1.04.4 1.03.44 1 .5.97.54.94.58.92.63.88.67.85.7.82.74.8.78.74.82.72.85.66.88.63.9.6.94.54.97.5 1 .45 1.02.4 1.05.35 1.07.3 1.1.25 1.1.2 1.13.15 1.14.08z" class="I"/><path d="M78.02 566.84l1.17-.03 1.14-.08 1.13-.15 1.1-.2 1.1-.25 1.07-.3 1.05-.35 1.02-.4 1-.45.97-.5.94-.54.92-.6.88-.63.85-.66.8-.72.78-.74.74-.8.7-.82.67-.85.63-.88.6-.92.53-.94.5-.97.45-1 .4-1.03.35-1.04.3-1.08.25-1.08.2-1.12.14-1.13.1-1.14.03-1.16-.03-1.16-.1-1.14-.14-1.1-.2-1.1-.25-1.08-.3-1.07-.35-1.04-.4-1.02-.45-1-.5-.97-.53-.94-.6-.92-.63-.88-.67-.85-.7-.82-.74-.78-.78-.74-.8-.7-.85-.67-.88-.62-.92-.6-.94-.54-.97-.5-1-.45-1.02-.4-1.05-.36-1.07-.3-1.1-.25-1.1-.2-1.13-.14-1.14-.1-1.17-.03-1.15.03-1.15.1-1.13.14-1.1.2-1.1.25-1.07.3-1.05.36-1.03.4-1 .45-.97.5-.95.54-.9.6-.9.62-.85.67-.82.7-.78.74-.74.78-.7.82-.68.85-.63.88-.58.92-.54.94-.5.97-.45 1-.4 1.02-.36 1.04-.3 1.07-.25 1.08-.2 1.1-.14 1.1-.1 1.14-.03 1.16.03 1.16.1 1.14.14 1.13.2 1.12.25 1.08.3 1.08.36 1.04.4 1.03.45 1 .5.97.54.94.58.92.63.88.68.85.7.82.74.8.78.74.82.72.85.66.9.63.9.6.95.54.97.5 1 .45 1.03.4 1.05.35 1.07.3 1.1.25 1.1.2 1.13.15 1.15.08z" class="L"/><g class="I"><path d="M90.18 530.4h11.42v-1.25H91.28zm-1.78 2.66h13.2v-1.25H89.2zm-1.35 2.7h14.55v-1.26H87.67zm-.87 2.66h15.42v-1.25H86.56zm-.58 2.67h16v-1.26H85.84zm-.1 5.17h16.1V545H85.38zm.38 2.83h15.72v-1.26H85.65zm.76 2.28h14.96v-1.26H86.25zm1.13 2.78h13.83v-1.26H87.17zm1.6 2.82h12.22v-1.26H88.54zm2.02 2.7h10.1v-1.26H90.3zm35.33-1.58l.07-.2.1-.18.14-.16.16-.14.18-.1.2-.07.22-.02.22.02.2.07.18.1.16.14.14.16.1.18.07.2h-.23l-.05-.14-.08-.15-.1-.13-.13-.1-.15-.08-.17-.05-.17-.02-.18.02-.17.05-.15.08-.13.1-.1.13-.1.15-.04.14z"/><path d="M127.42 558.1v-.26h.52l.08.01.08.02.05.03.05.04.04.04.02.06.01.06h-.2v-.03l-.04-.06-.03-.03-.04-.01-.03-.01h-.3v.14zm-.72.2l.02-.2h0 .22l-.01.04-.01.16z"/><path d="M127.42 558.3v-.2h.2v.16h.3l.05-.01.03-.01.03-.02.02-.03.01-.03v-.06h.2l-.01.07-.01.06-.03.04v.03zm1.26 0l-.01-.16-.01-.04h.23v.2z"/><path d="M126.7 558.3v.03l.02.22.07.2.1.18.14.16.16.13.18.1.2.05.22.03.22-.03.2-.05.18-.1.16-.13.14-.16.1-.18.07-.2v-.25h-.23v.03l-.01.2-.06.17-.08.16-.1.13-.13.1-.15.08-.17.06-.17.01-.18-.01-.17-.06-.15-.08-.13-.1-.1-.13-.1-.16-.05-.17-.01-.2v-.03zm.72 0v.46h.2v-.38h.2l.23.38h.2l-.27-.38.06-.01.07-.01.05-.02.05-.03h0z"/></g><path d="M103 542.4h-.15l-.15-.02-.13-.02-.13-.01-.14-.03h-.13l-.14-.02-.3-.04-.17-.01-.18-.02h-.2-.22-.25l-.27.02-.3.02-.2.03-.2.04-.18.06-.17.07-.15.08-.13.1-.1.1-.1.1-.07.12-.04.13-.02.12v.14l.03.14.05.14.08.14.1.14.2.2.25.16.3.13.32.1.33.1.35.1.35.13.34.15.32.18.3.2.27.27.22.33.17.4.1.47.04.56-.04.67-.08.5-.13.44-.17.4-.22.35-.25.3-.27.27-.3.23-.32.2-.34.16-.36.13-.36.12-.36.08-.36.06-.36.03-.34.03-.33.01h-.46l-.42-.01-.37-.01-.35-.01-.32-.01-.28-.02-.27-.02-.46-.06-.2-.04-.2-.03-.2-.05-.17-.06-.18-.05-.18-.06-.2-.07.46-2.32.1.02.28.07.17.05.2.03.22.06.24.04.25.04.27.04.28.04.28.03.3.03.6.02h.3l.32-.02.3-.05.24-.08.2-.12.14-.13.1-.16.1-.16.06-.16.05-.16.02-.17v-.15l-.03-.14-.06-.12-.1-.12-.1-.1-.12-.1-.14-.1-.16-.08-.17-.08-.2-.08-.2-.07-.2-.08-.2-.08-.2-.08-.22-.1-.2-.1-.2-.1-.2-.1-.2-.12-.2-.12-.18-.14-.17-.16-.16-.18-.14-.2-.12-.2-.1-.23-.08-.25-.07-.27-.03-.3-.01-.32.02-.35.02-.22.04-.2.03-.2.04-.2.04-.18.06-.18.06-.17.07-.17.08-.16.08-.15.1-.15.1-.14.1-.13.12-.13.13-.12.14-.1.14-.1.16-.1.17-.08.18-.1.18-.08.2-.07.2-.06.22-.06.48-.1.52-.06.28-.02.3-.02.3-.01h1.07l.3.01.3.02h.26l.23.02.22.02.2.01.17.02.14.03.15.01.22.04.1.01.1.02h.08z" class="B"/><path d="M103 542.4h-.15l-.15-.02-.13-.02-.13-.01-.14-.03h-.13l-.14-.02-.3-.04-.17-.01-.18-.02h-.2-.22-.25l-.27.02-.3.02-.2.03-.2.04-.18.06-.17.07-.15.08-.13.1-.1.1-.1.1-.07.12-.04.13-.02.12v.14l.03.14.05.14.08.14.1.14.2.2.25.16.3.13.32.1.33.1.35.1.35.13.34.15.32.18.3.2.27.27.22.33.17.4.1.47.04.56-.04.67-.08.5-.13.44-.17.4-.22.35-.25.3-.27.27-.3.23-.32.2-.34.16-.36.13-.36.12-.36.08-.36.06-.36.03-.34.03-.33.01h-.46l-.42-.01-.37-.01-.35-.01-.32-.01-.28-.02-.27-.02-.46-.06-.2-.04-.2-.03-.2-.05-.17-.06-.18-.05-.18-.06-.2-.07.46-2.32.1.02.28.07.17.05.2.03.22.06.24.04.25.04.27.04.28.04.28.03.3.03.6.02h.3l.32-.02.3-.05.24-.08.2-.12.14-.13.1-.16.1-.16.06-.16.05-.16.02-.17v-.15l-.03-.14-.06-.12-.1-.12-.1-.1-.12-.1-.14-.1-.16-.08-.17-.08-.2-.08-.2-.07-.2-.08-.2-.08-.2-.08-.22-.1-.2-.1-.2-.1-.2-.1-.2-.12-.2-.12-.18-.14-.17-.16-.16-.18-.14-.2-.12-.2-.1-.23-.08-.25-.07-.27-.03-.3-.01-.32.02-.35.02-.22.04-.2.03-.2.04-.2.04-.18.06-.18.06-.17.07-.17.08-.16.08-.15.1-.15.1-.14.1-.13.12-.13.13-.12.14-.1.14-.1.16-.1.17-.08.18-.1.18-.08.2-.07.2-.06.22-.06.48-.1.52-.06.28-.02.3-.02.3-.01h1.07l.3.01.3.02h.26l.23.02.22.02.2.01.17.02.14.03.15.01.22.04.1.01.1.02h.08l-.53 2.4" class="C D F"/><path d="M105.44 537.44h2.98l-.46 2.6h1.83l-.42 2.36-1.87-.04-1 6.03v.1l.02.1.03.08.04.08.05.07.07.06.07.04.1.05.1.04.1.03.1.01.12.02.1.01.13.01h.36l.2-.02.2-.03.16-.03.13-.04.1-.04.06-.03h.02l-.3 2.02-.07.04-.08.04-.08.03-.08.04-.08.03-.1.03-.08.03-.1.03-.1.03-.1.02-.26.04-.14.03-.15.02-.17.02-.18.03h-.8l-.43-.04-.37-.04-.34-.06-.3-.08-.24-.1-.2-.1-.17-.12-.14-.15-.1-.15-.08-.17-.05-.2-.03-.2v-.22-.24l.02-.24.04-.27z" class="B"/><path d="M105.44 537.44h2.98l-.46 2.6h1.83l-.42 2.36-1.87-.04-1 6.03v.1l.02.1.03.08.04.08.05.07.07.06.07.04.1.05.1.04.1.03.1.01.12.02.1.01.13.01h.36l.2-.02.2-.03.16-.03.13-.04.1-.04.06-.03h.02l-.3 2.02-.07.04-.08.04-.08.03-.08.04-.08.03-.1.03-.08.03-.1.03-.1.03-.1.02-.26.04-.14.03-.15.02-.17.02-.18.03h-.8l-.43-.04-.37-.04-.34-.06-.3-.08-.24-.1-.2-.1-.17-.12-.14-.15-.1-.15-.08-.17-.05-.2-.03-.2v-.22-.24l.02-.24.04-.27 1.97-11.57" class="C D F"/><path d="M87.36 546.42l-.03.2-.01.2.01.2.05.2.06.2.08.2.1.2.26.36.17.17.17.15.18.14.2.12.2.1.22.08.22.05.27.04.54.06.27.02h.56l.3-.01.28-.02.58-.1.3-.07.3-.1.3-.1.3-.13.3-.16.3-.18-.46 2.62-.34.18-.32.12-.17.06-.16.04-.17.04-.18.04-.2.02-.2.02-.23.02-.25.01-.26.02h-.3l-.32.01h-.62l-.52-.04-.54-.06-.27-.05-.26-.06-.27-.05-.26-.1-.26-.08-.25-.1-.25-.1-.25-.13-.23-.13-.23-.15-.22-.16-.2-.18-.2-.2-.2-.2-.17-.22-.16-.25-.15-.25-.13-.27-.12-.3-.1-.3-.08-.33-.07-.34-.04-.37-.03-.38v-.4l.01-.43.04-.45.02-.15.02-.18.03-.18.04-.2.04-.2.05-.2.12-.44.07-.23.08-.22.2-.46.24-.46.15-.23.14-.22.17-.22.18-.2.2-.2.44-.38.24-.18.26-.16.28-.16.3-.13.32-.13.33-.1.36-.1.37-.07.4-.05.42-.03.44-.02h.2l.2.02.2.01.2.02.22.03.44.1.2.06.22.07.2.08.2.1.2.1.38.24.18.15.18.16.16.17.15.18.14.2.13.22.12.23.1.25.1.28.07.3.06.3.03.32.02.35v.37l-.02.4-.04.4-.07.44-.1.46-.12.65h-7.68l.46-2.05h4.6v-.3-.25-.25l-.04-.22-.06-.2-.07-.2-.1-.16-.1-.15-.13-.13-.14-.1-.14-.1-.16-.07-.17-.06-.18-.05-.18-.02-.2-.01h-.2l-.2.03-.2.04-.18.06-.16.08-.17.1-.15.1-.14.12-.14.15-.1.16-.12.17-.1.18-.1.2-.07.2-.06.22-.06.23z" class="B"/><path d="M87.36 546.42h0l-.03.2-.01.2.01.2.05.2.06.2.08.2.1.2.26.36.17.17.17.15.18.14.2.12.2.1.22.08.22.05.27.04.54.06.27.02h.56l.3-.01.28-.02.58-.1.3-.07.3-.1.3-.1.3-.13.3-.16.3-.18-.46 2.62-.34.18-.32.12-.17.06-.16.04-.17.04-.18.04-.2.02-.2.02-.23.02-.25.01-.26.02h-.3l-.32.01h-.62l-.52-.04-.54-.06-.27-.05-.26-.06-.27-.05-.26-.1-.26-.08-.25-.1-.25-.1-.25-.13-.23-.13-.23-.15-.22-.16-.2-.18-.2-.2-.2-.2-.17-.22-.16-.25-.15-.25-.13-.27-.12-.3-.1-.3-.08-.33-.07-.34-.04-.37-.03-.38v-.4l.01-.43.04-.45.02-.15.02-.18.03-.18.04-.2.04-.2.05-.2.12-.44.07-.23.08-.22.2-.46.24-.46.15-.23.14-.22.17-.22.18-.2.2-.2.44-.38.24-.18.26-.16.28-.16.3-.13.32-.13.33-.1.36-.1.37-.07.4-.05.42-.03.44-.02h.2l.2.02.2.01.2.02.22.03.44.1.2.06.22.07.2.08.2.1.2.1.38.24.18.15.18.16.16.17.15.18.14.2.13.22.12.23.1.25.1.28.07.3.06.3.03.32.02.35v.37l-.02.4-.04.4-.07.44-.1.46-.12.65h-7.68l.46-2.05h4.6v-.3-.25-.25l-.04-.22-.06-.2-.07-.2-.1-.16-.1-.15-.13-.13-.14-.1-.14-.1-.16-.07-.17-.06-.18-.05-.18-.02-.2-.01h-.2l-.2.03-.2.04-.18.06-.16.08-.17.1-.15.1-.14.12-.14.15-.1.16-.12.17-.1.18-.1.2-.07.2-.06.22-.06.23-.4 2.2" class="C D F"/><path d="M83.25 549l-.42 2.37h-2.67l.03-.23v-.22l.04-.2.02-.18.04-.16.02-.13.03-.1.03-.05-.14.16-.18.16-.2.16-.23.15-.24.14-.27.13-.28.12-.3.1-.3.1-.32.1-.62.1-.3.02-.3.01-.3-.02-.3-.05-.37-.1-.33-.12-.3-.14-.26-.15-.24-.17-.2-.2-.18-.2-.15-.22-.12-.23-.1-.23-.08-.23-.07-.25-.04-.23-.03-.25-.02-.46.03-.42.06-.4.1-.38.14-.35.17-.34.2-.3.23-.3.24-.27.27-.24.3-.22.3-.2.33-.17.34-.15.35-.1.35-.1.36-.07h.02l.05-.01.08-.01h.1.13l.14-.02.17-.02.18-.01.17-.02.18-.02.2-.02.18-.01.15-.02h.16l.14-.01h.5l.13.01h.48l.1.01h.1l.08.01h.08l.05.01h.1l.02-.08.05-.18.04-.2v-.2l-.04-.26-.04-.12-.05-.1-.06-.1-.07-.1-.08-.08-.08-.1-.1-.08-.1-.06-.1-.05-.1-.06-.12-.03-.12-.04-.13-.01-.12-.02-.3-.01-.32.01-.33.01-.68.04-.34.03-.34.04-.33.04-.32.04-.3.05-.28.05-.26.06-.22.06-.2.06-.15.06-.1.06.76-2.5.22-.1.24-.1.23-.08.26-.07.26-.05.26-.04.28-.04.3-.03.3-.02.6-.02h1l.35.01.37.01.3.03.32.04.34.08.33.1.33.12.34.16.3.18.3.2.28.23.24.26.2.3.16.32.12.35.06.37v.4l-.06.44z" class="B"/><path d="M83.25 549l-.42 2.37h-2.67l.03-.23v-.22l.04-.2.02-.18.04-.16.02-.13.03-.1.03-.05-.14.16-.18.16-.2.16-.23.15-.24.14-.27.13-.28.12-.3.1-.3.1-.32.1-.62.1-.3.02-.3.01-.3-.02-.3-.05-.37-.1-.33-.12-.3-.14-.26-.15-.24-.17-.2-.2-.18-.2-.15-.22-.12-.23-.1-.23-.08-.23-.07-.25-.04-.23-.03-.25-.02-.46.03-.42.06-.4.1-.38.14-.35.17-.34.2-.3.23-.3.24-.27.27-.24.3-.22.3-.2.33-.17.34-.15.35-.1.35-.1.36-.07h.02l.05-.01.08-.01h.1.13l.14-.02.17-.02.18-.01.17-.02.18-.02.2-.02.18-.01.15-.02h.16l.14-.01h.5l.13.01h.48l.1.01h.1l.08.01h.08l.05.01h.1l.02-.08.05-.18.04-.2v-.2l-.04-.26-.04-.12-.05-.1-.06-.1-.07-.1-.08-.08-.08-.1-.1-.08-.1-.06-.1-.05-.1-.06-.12-.03-.12-.04-.13-.01-.12-.02-.3-.01-.32.01-.33.01-.68.04-.34.03-.34.04-.33.04-.32.04-.3.05-.28.05-.26.06-.22.06-.2.06-.15.06-.1.06.76-2.5.22-.1.24-.1.23-.08.26-.07.26-.05.26-.04.28-.04.3-.03.3-.02.6-.02h1l.35.01.37.01.3.03.32.04.34.08.33.1.33.12.34.16.3.18.3.2.28.23.24.26.2.3.16.32.12.35.06.37v.4l-.06.44-1.1 5.55" class="C D F"/><path d="M80.7 546.23v-.06l-.05-.04-.07-.04-.1-.02-.13-.02h-.45l-.17.01-.18.02-.34.06-.32.06-.13.03-.12.04-.07.01-.1.03-.1.04-.12.05-.13.05-.14.07-.14.08-.14.1-.14.1-.14.1-.12.12-.1.13-.1.14-.07.16-.06.17-.04.17-.01.37.05.28.1.22.13.16.17.1.17.08.18.03.18.01.32-.01.3-.03.28-.05.24-.06.22-.08.2-.1.18-.1.15-.1.14-.1.12-.13.1-.12.08-.12.08-.13.06-.12.04-.1.04-.12.04-.16.03-.17.08-.36.03-.18.06-.32z" class="L"/><path d="M60.92 551.38h-2.9l2.43-13.94h5.03l.5 8.3 3.42-8.3h5.23l-2.44 13.94h-2.9l1.82-10.44h-.1l-4.3 10.44h-3.23l-.04-.44-.06-1.16-.1-1.65-.32-5.46-.06-1.22-.03-.5h-.12z" class="B"/><path d="M60.92 551.38h-2.9l2.43-13.94h5.03l.5 8.3 3.42-8.3h5.23l-2.44 13.94h-2.9l1.82-10.44h-.1l-4.3 10.44h-3.23l-.04-.44-.06-1.16-.1-1.65-.32-5.46-.06-1.22-.03-.5h-.12l-1.83 10.44" class="C D F"/><path d="M109.25 551.38h3l1.03-6.02.05-.24.05-.23.06-.23.07-.2.08-.2.1-.2.12-.2.14-.18.17-.17.2-.14.22-.14.26-.12.3-.1.32-.08.38-.04.4-.03h.04l.04.01.06.01h.1l.08.02h.01l.01-.05.03-.12.03-.2.06-.24.08-.27.08-.3.1-.3.12-.28.08-.2.1-.2.1-.2.1-.2.1-.15.08-.13.05-.08.01-.03h-.01l-.04-.01-.05-.01-.08-.02h-.07-.1l-.08-.01h-.07l-.33.02-.3.04-.28.06-.25.06-.24.1-.2.1-.2.12-.18.12-.2.14-.17.16-.15.16-.17.18-.15.18-.15.2-.15.2-.16.22.35-1.9-3-.03-2 11.38z" class="B"/><path d="M109.25 551.38h3l1.03-6.02.05-.24.05-.23.06-.23.07-.2.08-.2.1-.2.12-.2.14-.18.17-.17.2-.14.22-.14.26-.12.3-.1.32-.08.38-.04.4-.03h.04l.04.01.06.01h.1l.08.02h.01l.01-.05.03-.12.03-.2.06-.24.08-.27.08-.3.1-.3.12-.28.08-.2.1-.2.1-.2.1-.2.1-.15.08-.13.05-.08.01-.03h-.01l-.04-.01-.05-.01-.08-.02h-.07-.1l-.08-.01h-.07l-.33.02-.3.04-.28.06-.25.06-.24.1-.2.1-.2.12-.18.12-.2.14-.17.16-.15.16-.17.18-.15.18-.15.2-.15.2-.16.22.35-1.9-3-.03-2 11.38" class="C D F"/><path d="M122.28 539.88h.34l.64.06.3.04.3.06.28.07.28.1.27.1.26.1.24.12.25.13.22.14.22.15.2.16.38.36.17.2.17.2.14.2.14.22.14.23.1.24.1.25.1.26.08.25.07.28.06.28.04.3.03.3.01.3.01.3-.01.3-.02.38-.04.36-.05.35-.07.34-.07.33-.1.3-.1.3-.1.3-.26.54-.16.25-.15.24-.17.22-.2.22-.2.2-.2.2-.2.18-.2.17-.46.3-.24.13-.26.12-.25.1-.26.1-.27.1-.28.08-.28.06-.28.05-.3.04-.3.02-.3.02-.3.01-.3-.01-.3-.02-.28-.02-.3-.05-.28-.05-.3-.06-.52-.16-.26-.1-.24-.1-.24-.12-.23-.13-.22-.14-.42-.32-.2-.18-.18-.18-.17-.2-.16-.2-.16-.22-.13-.23-.13-.25-.1-.25-.1-.26-.1-.27-.08-.3-.06-.3-.06-.3-.03-.3v-.33l-.01-.34.01-.35v-.35l.03-.34.06-.34.06-.32.08-.3.08-.3.1-.3.1-.28.12-.27.13-.26.15-.25.16-.24.16-.22.18-.22.18-.2.2-.2.2-.2.22-.17.22-.16.23-.15.24-.13.25-.14.26-.1.26-.1.28-.1.27-.08.3-.07.3-.06.3-.03.3-.04.32-.02z" class="B"/><path d="M122.28 539.88h.34l.64.06.3.04.3.06.28.07.28.1.27.1.26.1.24.12.25.13.22.14.22.15.2.16.38.36.17.2.17.2.14.2.14.22.14.23.1.24.1.25.1.26.08.25.07.28.06.28.04.3.03.3.01.3.01.3-.01.3-.02.38-.04.36-.05.35-.07.34-.07.33-.1.3-.1.3-.1.3-.26.54-.16.25-.15.24-.17.22-.2.22-.2.2-.2.2-.2.18-.2.17-.46.3-.24.13-.26.12-.25.1-.26.1-.27.1-.28.08-.28.06-.28.05-.3.04-.3.02-.3.02-.3.01-.3-.01-.3-.02-.28-.02-.3-.05-.28-.05-.3-.06-.52-.16-.26-.1-.24-.1-.24-.12-.23-.13-.22-.14-.42-.32-.2-.18-.18-.18-.17-.2-.16-.2-.16-.22-.13-.23-.13-.25-.1-.25-.1-.26-.1-.27-.08-.3-.06-.3-.06-.3-.03-.3v-.33l-.01-.34.01-.35v-.35l.03-.34.06-.34.06-.32.08-.3.08-.3.1-.3.1-.28.12-.27.13-.26.15-.25.16-.24.16-.22.18-.22.18-.2.2-.2.2-.2.22-.17.22-.16.23-.15.24-.13.25-.14.26-.1.26-.1.28-.1.27-.08.3-.07.3-.06.3-.03.3-.04.32-.02h.32" class="C D F"/><path d="M126.7 550.8h.87v.12h-.34v.72h-.2v-.72h-.34z" class="B"/><path d="M126.7 550.8h.87v.12h-.34v.72h-.2v-.72h-.34v-.12" class="C D F"/><path d="M127.7 550.8h.27l.3.65.3-.65h.27v.84h-.2V551l-.3.64h-.15l-.3-.64v.64h-.2z" class="B"/><path d="M127.7 550.8h.27l.3.65.3-.65h.27v.84h-.2V551l-.3.64h-.15l-.3-.64v.64h-.2v-.84" class="C D F"/><path d="M119.92 545.3l-.04.42-.03.38v.35l.03.33.04.3.07.26.08.24.1.2.13.2.14.15.15.14.18.1.18.08.2.06.2.03.23.02.25-.01.25-.03.23-.05.22-.08.2-.1.2-.13.2-.16.18-.18.15-.2.15-.24.14-.26.12-.3.1-.32.1-.35.07-.37.07-.4.04-.32.02-.3v-.3l-.02-.28-.04-.26-.06-.25-.08-.23-.1-.2-.12-.2-.13-.16-.16-.15-.17-.1-.2-.1-.2-.06-.22-.04h-.24-.3l-.28.06-.26.08-.24.12-.22.14-.2.17-.18.18-.17.2-.15.22-.14.24-.12.23-.1.25-.1.26-.07.25-.05.25z" class="I"/><rect width="125.43" height="78.39" rx="4.18" fill="#045ea0" x="654.82" y="505.67"/><g class="E"><path d="M697.06 549.82a65 65 0 0 1 40.45-4.06l.18-4.47c-18.6-2-32 3.9-40.63 8.1v.44z" fill="#faa929"/><g class="B"><path d="M679.92 553.1h8.95v2.7h-5.56l-.04 2.5h5.54v2.58h-5.56l.02 2.5h5.48v2.7h-8.82l-.01-12.95zm11.18-1.08h3.26l.01 14.04h-3.25l-.02-14.04zM705.57 565a6.88 6.88 0 0 1-4.29 1.4 4.66 4.66 0 0 1-5-4.85 5.12 5.12 0 0 1 5.07-5.26c3.6 0 4.7 2.55 4.7 5.78h-6.53a2 2 0 0 0 2.26 2 4.17 4.17 0 0 0 2.66-.93l1.1 1.9zm-2.4-4.83a1.61 1.61 0 0 0-1.55-1.85 2.24 2.24 0 0 0-2 1.85h3.57zm12.8 5.25a7.4 7.4 0 0 1-3.46 1c-3 0-5.15-1.72-5.15-4.83a5 5 0 0 1 5.35-5.28 6.67 6.67 0 0 1 3.2.82l-1 2.13a4 4 0 0 0-1.53-.37 2.46 2.46 0 0 0-2.71 2.53 2.39 2.39 0 0 0 2.43 2.41 4.09 4.09 0 0 0 1.76-.54l1.16 2.15zm1.2-8.8h1.47v-3.2h3.14l-.07 3.2h2.67l-.05 2.36h-2.68l-.1 3.5c0 .8.2 1.22.94 1.22a2.35 2.35 0 0 0 1.2-.45l.73 2.23a6.37 6.37 0 0 1-3.22.93c-2.64 0-2.77-1.66-2.77-3.84l.1-3.57h-1.4l.07-2.36zm8.87 0h3.25v1.33a2.69 2.69 0 0 1 2.39-1.59 5 5 0 0 1 1.06.11l-.43 3.22a3.81 3.81 0 0 0-1.16-.19 2.31 2.31 0 0 0-1.93 1.1l-.05 5.45h-3.26l.08-9.43zm12.65-.33c3.48 0 5.28 2.2 5.28 5.05s-1.8 5.05-5.28 5.05-5.28-2.2-5.28-5.05 1.8-5.05 5.28-5.05zm0 7.63c1.55 0 2-1.35 2-2.58s-.47-2.58-2-2.58-2 1.35-2 2.58.47 2.58 2 2.58zm7.05-7.3H749v1a4.62 4.62 0 0 1 3.05-1.37c2 0 3.1 1.1 3.1 3.7v6.08h-3.26v-5.6a1.11 1.11 0 0 0-1.18-1.37 3 3 0 0 0-1.7.86v6.1h-3.3l.08-9.43zM706.7 537.2l4.12-13.56h3.67l-4.12 13.56zm-1.64-13.56l-3.3 5.75a14 14 0 0 0-1.57 3.22h0c.06-1.2-.1-2.7-.13-3.52l-.37-5.44h-6.25l-.06.37a2.56 2.56 0 0 1 2.79 2.43l1.2 10.77h3.8l7.7-13.56h-3.83zm28.54 13.56l-.1-2h-4.58l-.94 2h-4l7.22-13.54h4.9l1.22 13.54h-3.73zm-.42-8c-.054-1.063-.054-2.127 0-3.2h-.05c-.22.67-1.18 2.7-1.6 3.7l-1.37 3h3.22l-.2-3.48zm-14.84 8.38a10.26 10.26 0 0 1-5.54-1.56l1.75-2.67a6.76 6.76 0 0 0 4 1.33 1.7 1.7 0 0 0 1.61-.77c.5-.88-.12-1.36-1.55-2.17l-.7-.46c-2.12-1.45-3-2.83-2-5.24.64-1.54 2.33-2.7 5.12-2.7a8.22 8.22 0 0 1 4.77 1.64l-2 2.36a4.46 4.46 0 0 0-2.85-1.25 1.71 1.71 0 0 0-1.56.7c-.38.76.12 1.27 1.24 2l.84.54c2.58 1.63 3.2 3.33 2.55 4.93-1.1 2.75-3.3 3.36-5.57 3.36h0z"/></g></g><rect width="125.43" height="78.39" rx="4.18" x="-124.7" y="505.13" class="K"/><g class="E"><path d="M-46.93 566.83l1.16-.03 1.15-.08 1.12-.14 1.12-.2 1.1-.25 1.07-.3 1.04-.36 1.03-.4 1-.46.97-.5.94-.55.92-.58.88-.63.85-.67.82-.7.78-.75.75-.78.7-.82.67-.85.63-.88.58-.92.55-.94.5-.97.46-1 .4-1.02.36-1.05.3-1.07.25-1.08.2-1.12.14-1.12.1-1.15.03-1.16-.03-1.15-.1-1.14-.14-1.13-.2-1.1-.25-1.08-.3-1.06-.36-1.05-.4-1.02-.46-1-.5-.98-.55-.93-.58-.92-.63-.88-.67-.84-.7-.82-.75-.78-.78-.75-.82-.7-.85-.67-.88-.63-.92-.58-.94-.54-.97-.5-1-.45-1.03-.4-1.04-.36-1.07-.3-1.1-.25-1.12-.2-1.12-.15-1.15-.08-1.16-.03-1.15.03-1.15.08-1.12.15-1.1.2-1.1.25-1.07.3-1.04.36-1.02.4-1 .45-.96.5-.94.54-.9.58-.88.63-.85.67-.8.7-.8.75-.74.78-.7.82-.66.84-.63.88-.58.92-.54.93-.5.98-.45 1-.4 1.02-.35 1.05-.3 1.06-.26 1.08-.2 1.1-.15 1.13-.08 1.14-.03 1.15.03 1.16.08 1.15.15 1.12.2 1.12.26 1.08.3 1.07.35 1.05.4 1.02.45 1 .5.97.54.94.58.92.63.88.66.85.7.82.74.78.8.75.8.7.85.67.88.63.9.58.94.55.96.5 1 .46 1.02.4 1.04.36 1.07.3 1.1.25 1.1.2 1.12.14 1.15.08 1.15.03z" class="J"/><path d="M-77.03 566.83l1.15-.03 1.15-.08 1.12-.14 1.1-.2 1.08-.25 1.07-.3 1.04-.36 1.03-.4 1-.46.97-.5.94-.55.9-.58.88-.63.85-.67.8-.7.78-.75.75-.78.7-.82.66-.85.62-.88.6-.92.54-.94.5-.97.45-1 .4-1.02.35-1.05.3-1.07.25-1.08.2-1.12.14-1.12.1-1.15.03-1.16-.03-1.15-.1-1.14-.14-1.13-.2-1.1-.25-1.08-.3-1.06-.35-1.05-.4-1.02-.45-1-.5-.98-.54-.93-.6-.92-.62-.88-.66-.84-.7-.82-.75-.78-.78-.75-.8-.7-.85-.67-.88-.63-.9-.58-.94-.54-.97-.5-1-.45-1.03-.4-1.04-.36-1.07-.3-1.08-.25-1.1-.2-1.12-.15-1.15-.08-1.15-.03-1.16.03-1.15.08-1.13.15-1.1.2-1.1.25-1.07.3-1.04.36-1.03.4-1 .45-.97.5-.94.54-.92.58-.88.63-.85.67-.82.7-.78.75-.76.78-.7.82-.67.84-.63.88-.58.92-.55.93-.5.98-.46 1-.4 1.02-.36 1.05-.3 1.06-.25 1.08-.2 1.1-.15 1.13-.08 1.14-.03 1.15.03 1.16.08 1.15.15 1.12.2 1.12.25 1.08.3 1.07.36 1.05.4 1.02.46 1 .5.97.55.94.58.92.63.88.67.85.7.82.76.78.78.75.82.7.85.67.88.63.92.58.94.55.97.5 1 .46 1.03.4 1.04.36 1.07.3 1.1.25 1.1.2 1.13.14 1.15.08 1.16.03z" class="I"/><g class="J"><path d="M-64.62 530.46h11.96v-1.22h-10.92l-1.04 1.22zm-1.78 2.72h13.75v-1.23H-65.7l-.72 1.23zm-1.34 2.72h15.08v-1.23H-67.2l-.53 1.23zm-.92 2.7h16v-1.22h-15.62l-.38 1.22zm.53 13.14h15.5v-1.22h-15.9l.38 1.22zm1.15 2.7h14.36v-1.22h-14.93l.57 1.22zm1.6 2.7h12.75v-1.22h-13.52l.77 1.22zm2.2 2.72h10.54v-1.23h-11.6l1.07 1.23zm-6.04-18.58h16.54v-1.22h-16.3l-.23 1.22zm10.08 7.73h6.3v-1.23h-6.08l-.23 1.23zm.5-2.7h5.8v-1.23h-5.58l-.23 1.23zm-11-1.22h1.64v1.23h-1.56l-.08-1.23z"/></g><path d="M-72.68 543.6h-.1l-.1-.02-.1-.01-.1-.02-.1-.01-.1-.02-.1-.01h-.1l-.1-.01-.12-.01-.28-.02h-.16l-.17.01-.2.02-.22.01-.15.03-.15.02-.13.04-.22.1-.1.06-.15.15-.05.08-.04.08-.01.1v.1l.02.1.03.1.06.1.08.1.15.14.2.12.2.1.23.08.24.08.25.08.25.1.24.1.23.13.2.16.2.2.16.23.12.3.08.35.03.4-.03.48-.05.36-.1.3-.12.3-.15.25-.17.22-.2.2-.2.17-.24.14-.24.12-.25.1-.26.08-.26.06-.26.05-.26.02h-.25l-.23.01h-.33l-.3-.01h-.52-.22l-.2-.02-.18-.01-.17-.02-.16-.02-.15-.03-.14-.02-.13-.04-.13-.03-.12-.05-.12-.04-.13-.05.34-1.68h.07l.08.02.1.03.26.06.15.03.17.04.18.03.2.03.2.03.2.02.2.03.22.01h.66l.22-.05.18-.06.13-.08.1-.1.07-.1.06-.12.04-.12.03-.1.02-.22-.07-.2-.13-.16-.2-.12-.23-.12-.27-.1-.3-.1-.3-.12-.3-.14-.3-.16-.26-.2-.25-.24-.2-.3-.13-.34-.07-.4v-.48l.03-.3.06-.28.07-.26.1-.24.13-.23.13-.2.16-.2.2-.16.22-.15.24-.12.28-.1.3-.1.34-.07.38-.05.4-.03h.45.28.26.24l.2.01.2.01.17.02.16.01.13.02.13.01h.1l.1.02.1.02.2.03.06.01-.4 1.72z" class="B"/></g><path d="M-72.68 543.6h0-.1l-.1-.02-.1-.01-.1-.02-.1-.01-.1-.02-.1-.01h-.1l-.1-.01-.12-.01-.28-.02h-.16l-.17.01-.2.02-.22.01-.15.03-.15.02-.13.04-.22.1-.1.06-.15.15-.05.08-.04.08-.01.1v.1l.02.1.03.1.06.1.08.1.15.14.2.12.2.1.23.08.24.08.25.08.25.1.24.1.23.13.2.16.2.2.16.23.12.3.08.35.03.4-.03.48-.05.36-.1.3-.12.3-.15.25-.17.22-.2.2-.2.17-.24.14-.24.12-.25.1-.26.08-.26.06-.26.05-.26.02h-.25l-.23.01h-.33l-.3-.01h-.52-.22l-.2-.02-.18-.01-.17-.02-.16-.02-.15-.03-.14-.02-.13-.04-.13-.03-.12-.05-.12-.04-.13-.05.34-1.68h.07l.08.02.1.03.26.06.15.03.17.04.18.03.2.03.2.03.2.02.2.03.22.01h.66l.22-.05.18-.06.13-.08.1-.1.07-.1.06-.12.04-.12.03-.1.02-.22-.07-.2-.13-.16-.2-.12-.23-.12-.27-.1-.3-.1-.3-.12-.3-.14-.3-.16-.26-.2-.25-.24-.2-.3-.13-.34-.07-.4v-.48l.03-.3.06-.28.07-.26.1-.24.13-.23.13-.2.16-.2.2-.16.22-.15.24-.12.28-.1.3-.1.34-.07.38-.05.4-.03h.45.28.26.24l.2.01.2.01.17.02.16.01.13.02.13.01h.1l.1.02.1.02.2.03.06.01-.4 1.72" class="C D G H"/><path d="M-70.88 540.02h2.1l-.3 1.83h1.27l-.27 1.72-1.34-.04-.73 4.24v.15l.03.13.08.1.1.08.14.05.15.05.16.03.2.01h.16l.16-.02.13-.02.12-.03.1-.03.07-.03.04-.01.02-.01-.27 1.4-.05.04-.05.03-.06.03-.05.03-.05.02-.06.03-.14.04-.07.03-.08.01h-.1l-.1.01-.1.02-.1.01-.13.02-.12.01h-.58l-.3-.02-.26-.03-.24-.05-.2-.05-.18-.07-.14-.07-.13-.1-.1-.1-.07-.1-.06-.13-.03-.13-.03-.14v-.33l.02-.17.02-.2 1.45-8.28z" class="B E"/><g class="C D G H"><path d="M-70.88 540.02h2.1l-.3 1.83h1.27l-.27 1.72-1.34-.04-.73 4.24v.15l.03.13.08.1.1.08.14.05.15.05.16.03.2.01h.16l.16-.02.13-.02.12-.03.1-.03.07-.03.04-.01v-.01l-.27 1.4-.05.04-.05.03-.06.03-.05.03-.05.02-.06.03-.14.04-.07.03-.08.01h-.1l-.1.01h-.1l-.1.01-.13.02-.12.01h-.58l-.3-.02-.26-.03-.24-.05-.2-.05-.18-.07-.14-.07-.13-.1-.1-.1-.07-.1-.06-.13-.03-.13-.03-.14v-.33l.02-.17.02-.2 1.45-8.28m4.7 6.45h0l-.02.13-.01.14.01.14.03.14.06.15.06.14.08.14.2.26.23.23.14.1.14.08.15.07.15.05.15.03.2.03.2.02.2.03h.2l.2.01h.2l.4-.02.2-.03.2-.04.2-.05.2-.06.2-.1.22-.1.2-.12.22-.13-.3 1.87-.24.12-.13.05-.22.08-.13.04-.12.03-.26.04-.15.02-.16.01-.18.02-.2.01h-1.06l-.38-.04-.38-.06-.38-.1-.37-.1-.36-.15-.34-.18-.32-.22-.3-.26-.26-.3-.22-.35-.18-.4-.13-.44-.1-.5-.02-.56.04-.63.03-.24.05-.28.06-.3.08-.32.12-.32.13-.33.18-.33.2-.32.24-.3.3-.3.33-.26.38-.23.44-.2.5-.14.55-.08.62-.04h.3l.3.03.3.05.32.08.3.12.3.13.27.18.25.22.23.26.2.3.15.35.1.4.06.45.01.52-.05.58-.1.64-.04.46h-5.54l.35-1.5h3.33l.01-.2v-.18l-.02-.17-.03-.15-.05-.14-.06-.13-.07-.1-.08-.1-.1-.1-.1-.08-.1-.07-.12-.06-.12-.04-.12-.03-.26-.04-.15.01h-.13l-.13.03-.13.04-.13.07-.12.07-.1.08-.3.3-.08.12-.07.13-.07.14-.1.3-.03.16-.3 1.57"/></g><path d="M-48.04 542.3l-.1-.05-.1-.05-.1-.05-.12-.06-.1-.04-.13-.05-.13-.04-.13-.05-.15-.04-.14-.03-.16-.03-.16-.02-.17-.02-.18-.01h-.56l-.2.01-.2.03-.22.04-.2.06-.2.08-.2.1-.22.13-.2.17-.2.2-.2.24-.18.28-.17.33-.16.38-.14.43-.12.5-.05.27-.03.26v.27.26l.03.26.05.24.07.23.08.23.1.2.14.2.16.17.18.16.2.14.23.1.26.1.3.07.1.02.1.02.14.02.15.01h.17.36.2l.2-.02.2-.04.2-.05.2-.06.2-.08.17-.1.16-.12.15-.14-.34 2.03-.05.03-.04.05-.06.05-.07.05-.08.06-.1.05-.12.06-.14.04-.17.05-.2.04-.23.03-.26.03-.3.02-.34.01-.4-.01-.42-.02-.35-.04-.35-.08-.35-.1-.35-.16-.33-.18-.32-.22-.3-.27-.28-.3-.25-.35-.2-.37-.18-.43-.14-.46-.1-.5-.03-.54.02-.6.08-.63.06-.3.07-.3.07-.3.08-.28.08-.27.1-.27.1-.25.1-.23.1-.24.12-.22.12-.2.14-.2.14-.2.15-.18.15-.17.16-.15.17-.16.18-.14.18-.13.2-.12.2-.12.2-.1.2-.1.23-.1.23-.08.23-.05.25-.06.26-.04.25-.04.28-.03.27-.02.3-.01.24.01.24.02.22.02.23.03.22.03.2.05.2.04.18.04.17.05.16.04.14.05.12.04.1.04.1.03.07.03h.04l-.38 2.1z" class="B E"/><path d="M-48.04 542.3h0l-.1-.05-.1-.05-.1-.05-.12-.06-.1-.04-.13-.05-.13-.04-.13-.05-.15-.04-.14-.03-.16-.03-.16-.02-.17-.02-.18-.01h-.56l-.2.01-.2.03-.22.04-.2.06-.2.08-.2.1-.22.13-.2.17-.2.2-.2.24-.18.28-.17.33-.16.38-.14.43-.12.5-.05.27-.03.26v.27.26l.03.26.05.24.07.23.08.23.1.2.14.2.16.17.18.16.2.14.23.1.26.1.3.07.1.02.1.02.14.02.15.01h.17.36.2l.2-.02.2-.04.2-.05.2-.06.2-.08.17-.1.16-.12.15-.14-.34 2.03-.05.03-.04.05-.06.05-.07.05-.08.06-.1.05-.12.06-.14.04-.17.05-.2.04-.23.03-.26.03-.3.02-.34.01-.4-.01-.42-.02-.35-.04-.35-.08-.35-.1-.35-.16-.33-.18-.32-.22-.3-.27-.28-.3-.25-.35-.2-.37-.18-.43-.14-.46-.1-.5-.03-.54.02-.6.08-.63.06-.3.07-.3.07-.3.08-.28.08-.27.1-.27.1-.25.1-.23.1-.24.12-.22.12-.2.14-.2.14-.2.15-.18.15-.17.16-.15.17-.16.18-.14.18-.13.2-.12.2-.12.2-.1.2-.1.23-.1.23-.08.23-.05.25-.06.26-.04.25-.04.28-.03.27-.02.3-.01.24.01.24.02.22.02.23.03.22.03.2.05.2.04.18.04.17.05.16.04.14.05.12.04.1.04.1.03.07.03h.04l-.38 2.1" class="C D G H"/><path d="M-29.35 549.98h-2.1l.15-.84v-.08l-.12.16-.13.13-.13.12-.13.1-.14.1-.14.08-.28.14-.14.05-.15.04-.14.04-.16.02-.15.02-.14.02h-.15-.16l-.4-.03-.36-.1-.34-.13-.3-.17-.27-.22-.25-.26-.2-.28-.18-.32-.15-.34-.12-.36-.1-.37-.06-.4-.02-.38v-.4l.03-.38.07-.4.12-.45.13-.42.16-.4.2-.37.2-.34.23-.3.23-.27.25-.25.27-.23.28-.2.3-.16.28-.13.3-.1.3-.07.3-.04.3-.02.22.01.2.02.2.04.18.06.17.06.16.06.15.1.14.08.12.1.1.1.1.1.1.1.08.1.07.1.05.1.05.1.53-3h2.07l-1.72 9.93z" class="B E"/><path d="M-29.35 549.98h-2.1l.15-.84v-.08l-.12.16-.13.13-.13.12-.13.1-.14.1-.14.08-.28.14-.14.05-.15.04-.14.04-.16.02-.15.02-.14.02h-.15-.16l-.4-.03-.36-.1-.34-.13-.3-.17-.27-.22-.25-.26-.2-.28-.18-.32-.15-.34-.12-.36-.1-.37-.06-.4-.02-.38v-.4l.03-.38.07-.4.12-.45.13-.42.16-.4.2-.37.2-.34.23-.3.23-.27.25-.25.27-.23.28-.2.3-.16.28-.13.3-.1.3-.07.3-.04.3-.02.22.01.2.02.2.04.18.06.17.06.16.06.15.1.14.08.12.1.1.1.1.1.1.1.08.1.07.1.05.1.05.1.53-3h2.07l-1.72 9.93" class="C D G H"/><g class="E"><path d="M-32.8 548.15l.22-.02.2-.04.2-.06.17-.08.16-.1.15-.12.14-.12.13-.14.12-.15.1-.17.1-.18.1-.18.07-.2.06-.2.06-.2.03-.2.04-.22.03-.22v-.2l-.01-.2-.03-.2-.03-.2-.05-.18-.06-.18-.08-.15-.1-.14-.1-.13-.1-.1-.13-.1-.14-.06-.14-.04-.16-.02-.2.02-.2.03-.18.06-.17.08-.16.1-.15.13-.12.12-.13.15-.12.16-.2.36-.1.2-.07.2-.06.2-.06.22-.05.22-.04.33.02.37.05.37.1.36.15.3.2.25.25.17.3.06z" class="J"/><path d="M-79.4 548.3l-.3 1.68h-1.9l.05-.3.07-.5.03-.12-.1.13-.12.12-.15.1-.16.1-.18.1-.2.1-.2.1-.2.07-.22.07-.44.1-.23.03h-.44-.2l-.2-.03-.26-.07-.25-.08-.2-.1-.2-.12-.17-.12-.15-.14-.12-.14-.1-.15-.1-.16-.07-.17-.06-.16-.05-.17-.03-.18-.04-.34v-.17l.03-.3.04-.28.08-.27.1-.26.12-.24.13-.22.16-.2.2-.2.2-.18.2-.16.22-.14.23-.12.24-.1.25-.08.26-.07.26-.04h.02l.03-.01.06-.01.08-.01h.1.1l.1-.02.13-.01.13-.02.13-.01.14-.01.24-.02.22-.02h.26l.18.01h.17.16.14.1l.07.01h.03v-.05l.05-.14.04-.16v-.14l-.03-.17-.07-.15-.1-.14-.12-.1-.15-.1-.15-.07-.2-.04-.2-.02-.22-.01h-.7l-.5.04-.24.02-.24.04-.44.06-.2.04-.18.04-.17.04-.13.05-.1.05-.1.05.54-1.83.17-.07.17-.06.18-.05.36-.08.4-.06.2-.02.66-.03h.73l.27.01.26.01.22.01.22.04.24.06.24.07.24.1.23.1.22.13.22.14.2.17.16.2.16.2.1.23.08.24.04.26v.3l-.04.3-.77 4z" class="B"/></g><path d="M-79.4 548.3l-.3 1.68h-1.9l.05-.3.07-.5.03-.12-.1.13-.12.12-.15.1-.16.1-.18.1-.2.1-.2.1-.2.07-.22.07-.44.1-.23.03h-.44-.2l-.2-.03-.26-.07-.25-.08-.2-.1-.2-.12-.17-.12-.15-.14-.12-.14-.1-.15-.1-.16-.07-.17-.06-.16-.05-.17-.03-.18-.04-.34v-.17l.03-.3.04-.28.08-.27.1-.26.12-.24.13-.22.16-.2.2-.2.2-.18.2-.16.22-.14.23-.12.24-.1.25-.08.26-.07.26-.04h.02l.03-.01.06-.01.08-.01h.1.1l.1-.02.13-.01.13-.02.13-.01.14-.01.24-.02.22-.02h.26l.18.01h.17.16.14.1l.07.01h.03v-.05l.05-.14.04-.16v-.14l-.03-.17-.07-.15-.1-.14-.12-.1-.15-.1-.15-.07-.2-.04-.2-.02-.22-.01h-.7l-.5.04-.24.02-.24.04-.44.06-.2.04-.18.04-.17.04-.13.05-.1.05-.1.05.54-1.83.17-.07.17-.06.18-.05.36-.08.4-.06.2-.02.66-.03h.73l.27.01.26.01.22.01.22.04.24.06.24.07.24.1.23.1.22.13.22.14.2.17.16.2.16.2.1.23.08.24.04.26v.3l-.04.3-.77 4" class="C D G H"/><g class="E"><path d="M-81.23 546.32l-.01-.04-.03-.04-.04-.02-.08-.02h-.08l-.1-.01h-.23l-.12.01h-.13l-.12.02-.12.01-.12.02-.1.02-.08.02-.1.03-.05.01-.15.05-.28.14-.2.12-.1.07-.1.08-.1.1-.08.1-.08.1-.05.1-.05.13-.02.12-.01.26.04.2.08.15.1.12.1.07.13.05.12.02h.12.23l.2-.02.2-.03.17-.05.16-.05.14-.07.13-.07.12-.08.1-.08.1-.1.07-.08.12-.18.08-.18.02-.08.06-.22.06-.25.04-.24.04-.2z" class="I"/><path d="M-95.37 549.98h-2.07l1.72-9.96h3.6l.34 5.9 2.48-5.9h3.75l-1.76 9.96h-2.07l1.3-7.44h-.08l-3.1 7.44h-2.33l-.02-.3-.12-2-.08-1.35-.07-1.36-.07-1.2-.07-1.23h-.1l-1.26 7.44z" class="B"/></g><path d="M-95.37 549.98h-2.07l1.72-9.96h3.6l.34 5.9 2.48-5.9h3.75l-1.76 9.96h-2.07l1.3-7.44h-.08l-3.1 7.44h-2.33l-.02-.3-.12-2-.08-1.35-.07-1.36-.07-1.2-.07-1.23h-.1l-1.26 7.44" class="C D G H"/><g class="B E"><path d="M-41.73 548.3l-.3 1.68h-1.9l.01-.3.01-.27v-.2l.01-.1-.1.12-.1.1-.14.1-.15.1-.16.1-.18.1-.2.1-.2.08-.42.12-.2.04-.2.03h-.22-.2-.2l-.2-.03-.28-.07-.24-.08-.2-.1-.2-.12-.17-.12-.14-.14-.12-.14-.1-.15-.1-.16-.07-.17-.06-.16-.04-.17-.03-.18-.04-.34v-.17-.3l.05-.28.06-.27.1-.26.1-.24.15-.22.16-.2.17-.2.2-.18.2-.16.22-.14.23-.12.24-.1.25-.08.25-.07.25-.04h.02l.04-.01.05-.01.08-.01h.2l.12-.02.12-.01.13-.02.4-.03h.12.1l.1-.01h.27l.36.02h.17.14.12l.07.01h.03l.02-.05.02-.14.02-.16.02-.14-.04-.17-.05-.15-.1-.14-.12-.1-.13-.1-.16-.07-.17-.04-.18-.02-.22-.01h-.7l-.5.04-.24.02-.23.04-.23.03-.22.03-.2.04-.18.04-.17.04-.13.05-.1.05-.08.05.53-1.83.16-.07.18-.06.17-.05.2-.04.18-.04.2-.03.2-.03.2-.02.2-.01.44-.02h.7l.52.02.2.01.23.04.24.06.24.07.23.1.24.1.23.13.2.14.2.17.18.2.15.2.1.23.08.24.06.26v.3l-.04.3-.8 4z"/><path d="M-42.04 550.04l.05-.05.3-1.7h-.1l-.3 1.7.05-.05v.1l.04-.01V550l-.05.05z"/><path d="M-44 549.98l.05.06h1.9v-.1h-1.9l.04.05h-.1v.06h.06l-.05-.06z"/><path d="M-43.87 549.13l-.07-.06-.03.12-.01.2v.27l-.01.3h.1l.02-.3.01-.27-.01-.2v-.06l-.06-.06.07.06z"/><path d="M-46.82 550.1h0l.42.06.2-.01.22-.02.22-.03.2-.03.42-.12.2-.08.2-.1.18-.1.32-.22.14-.1.12-.12.1-.12-.07-.06-.1.12-.1.1-.28.22-.16.1-.18.1-.2.1-.18.07-.2.06-.22.07-.2.03-.2.03-.22.02-.2.01-.2-.03-.2-.03-.01.1z"/><path d="M-48.66 547.8h0l.02.34.02.18.04.18.04.16.06.18.06.17.1.16.1.16.12.14.15.15.18.12.2.12.22.1.25.08.28.06.01-.1-.27-.06-.23-.08-.2-.1-.2-.1-.16-.12-.14-.13-.12-.14-.1-.14-.08-.16-.14-.32-.03-.17-.03-.18-.02-.16-.02-.17.01-.17h-.1z"/><path d="M-45.94 544.9h0l-.26.05-.26.06-.25.1-.24.1-.24.12-.23.16-.2.16-.2.18-.18.2-.16.2-.15.23-.1.25-.1.26-.07.27-.05.3-.02.3h.1l.01-.3.04-.28.07-.25.1-.26.1-.24.14-.2.16-.2.16-.2.2-.17.2-.16.2-.13.23-.13.23-.1.25-.1.24-.06.25-.05v-.1z"/><path d="M-44.37 544.73h-.1l-.1.02-.1.01h-.12l-.26.02-.13.02h-.13l-.12.02-.12.01-.1.01-.1.02h-.08l-.06.01-.03.01h-.02v.1h.02l.05-.01h.04l.08-.01.1-.02h.1l.24-.04h.13l.13-.02h.13l.13-.02.12-.01h.3v-.1z"/><path d="M-43.35 544.8l.05-.04h-.1l-.12-.01-.14-.01H-44l-.18-.02h-.18v.1h.36l.18.01h.3l.12.01.07.01h.03l.04-.04-.04.04h.04v-.04l-.1-.02z"/><path d="M-43.27 544.33h-.01v.14l-.03.15-.02.14-.02.05.1.02.02-.06.02-.13.03-.17.02-.14h-.1z"/><path d="M-44.17 543.58h0l.17.01.16.05.15.07.13.1.1.1.1.13.06.14.03.16h.1l-.03-.18-.06-.16-.1-.15-.12-.12-.14-.1-.17-.07-.17-.05-.2-.02v.1z"/><path d="M-47.43 543.94l.08.05.07-.04.1-.05.13-.05.17-.05.18-.03.2-.04.22-.04.22-.03.23-.03.24-.02.25-.03.25-.01h.7l.22.01v-.1h-.22l-.22-.02h-.24l-.24.02-.25.01-.25.03-.24.02-.23.03-.24.03-.22.04-.2.04-.18.03-.16.05-.15.04-.1.06-.1.05.08.05-.1-.02z"/><path d="M-46.87 542.07l-.03.04-.53 1.83.1.02.53-1.83-.03.03-.03-.1-.02.01v.03l.03-.04z"/><path d="M-43.5 541.73h0l-.26-.02H-44h-.7l-.22.02-.22.01-.42.02-.2.03-.2.03-.38.08-.18.06-.34.12.03.1.5-.18.18-.03.2-.04.38-.06.42-.04h1.67v-.08z"/><path d="M-40.9 544.3h0l.04-.3v-.3l-.05-.27-.08-.25-.12-.23-.16-.22-.18-.18-.2-.17-.22-.15-.23-.13-.24-.1-.24-.1-.25-.07-.23-.05-.24-.04-.2-.01v.08l.2.02.22.04.24.05.23.07.24.1.23.1.22.12.2.14.2.17.16.18.16.2.1.22.1.24.05.25v.3l-.04.3.1.02z"/><path d="M-41.68 548.3h0l.8-4-.1-.02-.8 4h.1z"/></g><path d="M-43.57 546.32l-.01-.05-.03-.04-.05-.02h-.08l-.08-.01-.1-.01h-.12l-.1.01-.12.02h-.12l-.12.02-.12.01-.1.02-.2.04-.08.02h-.05l-.06.03-.08.02-.08.03-.1.05-.1.04-.1.06-.1.06-.1.07-.1.1-.1.08-.08.1-.07.1-.1.24-.02.13-.01.26.04.2.06.15.1.12.12.07.13.05.13.02h.12.23l.2-.02.2-.04.18-.05.16-.06.15-.07.14-.08.12-.1.1-.08.1-.1.1-.1.07-.1.05-.1.04-.1.03-.1.02-.08.03-.2.04-.22.03-.2.01-.2z" class="E J"/><g class="B E"><path d="M-27.93 548.94l.02-.17.06-.2.1-.18.13-.16.16-.13.18-.1.2-.06.2-.02.22.02.2.06.2.1.15.13.13.16.1.18.06.2.02.17h-.23l-.01-.13-.04-.17-.08-.15-.1-.13-.12-.1-.14-.07-.17-.06-.18-.01-.17.01-.17.06-.14.07-.12.1-.1.13-.08.15-.04.17v.13zm.68 0v-.45h.6.06l.05.03.04.05.03.05.02.1-.01.07-.01.05-.02.05v.01h-.3l.05-.01h.05.04l.03-.02.01-.03v-.04-.1-.03l-.03-.01-.02-.02h-.04l-.04-.01h-.3v.3z"/><path d="M-27.93 548.94l-.01.05.03.22.06.2.1.2.13.15.16.13.18.1.2.06.2.02.22-.02.2-.06.2-.1.15-.13.13-.15.1-.2.06-.2.03-.22v-.05h-.23l.01.05-.02.18-.04.17-.08.14-.1.13-.12.1-.14.08-.17.05-.18.02-.17-.02-.17-.05-.14-.08-.12-.1-.1-.13-.08-.14-.04-.17v-.22zm.68 0v.47h.2v-.38h.2l.23.38h.15l-.23-.38h.06l.05-.02h.05l.04-.03v-.03h-.32l-.04.01h-.2v-.01z"/></g><path d="M-27.94 549h0v-.22l.06-.2.1-.18.13-.16.16-.13.18-.1.2-.06h.42l.2.06.18.1.16.13.13.16.1.18.06.2v.44l-.06.2-.1.18-.13.15-.16.13-.18.1-.2.06h-.42l-.2-.06-.18-.1-.16-.13-.13-.15-.1-.18-.06-.2V549m.88.42h-.2v-.92h.7v.22h-.1l.23.38h-.15l-.23-.38h-.26v.38m.2-.46h.17v-.05.1h-.36v.3h.2m0 .92h.18l.17-.05.14-.08.12-.1.1-.13.08-.14v-.7l-.08-.2-.1-.13-.12-.1-.14-.08-.17-.05h-.35l-.17.05-.15.08-.12.1-.08.13-.08.15v.7l.08.15.1.13.12.1.15.08.17.05h.17" class="C D G H"/><path d="M-41.16 549.98h2.14l.8-4.48.04-.17.05-.17.06-.16.08-.17.1-.16.1-.15.13-.15.13-.13.16-.12.17-.1.2-.1.22-.08.24-.06.27-.04.3-.02h.2l.34-1.95-.2.01-.2.03-.2.04-.2.05-.16.06-.16.08-.15.08-.15.1-.14.1-.12.1-.25.25-.1.13-.1.14-.12.14-.1.15.23-1.38h-2.13l-1.42 8.13z" class="B E"/><path d="M-41.16 549.98h2.14l.8-4.48.04-.17.05-.17.06-.16.08-.17.1-.16.1-.15.13-.15.13-.13.16-.12.17-.1.2-.1.22-.08.24-.06.27-.04.3-.02h.2l.34-1.95-.2.01-.2.03-.2.04-.2.05-.16.06-.16.08-.15.08-.15.1-.14.1-.12.1-.25.25-.1.13-.1.14-.12.14-.1.15.23-1.38h-2.13l-1.42 8.13" class="C D G H"/><path d="M-61.26 549.98h2.18l.76-4.48.04-.16.03-.16.06-.15.06-.16.07-.14.1-.14.1-.12.12-.12.14-.1.16-.1.2-.1.2-.07.23-.06.26-.03.3-.03h.02l.03.01.04.01h.04.04.03.02.01l.01-.03v-.1l.03-.14.04-.17.05-.2.05-.2.07-.22.07-.2.06-.14.08-.15.07-.14.08-.13.07-.1.05-.1.04-.05.01-.02h-.01-.06l-.06-.01h-.1l-.05-.01h-.06l-.23.01-.2.03-.2.04-.18.04-.18.06-.3.15-.14.1-.13.1-.23.23-.12.13-.1.13-.1.14-.1.16-.12.15.28-1.38h-2.18l-1.42 8.13z" class="B E"/><path d="M-61.26 549.98h2.18l.76-4.48.04-.16.03-.16.06-.15.06-.16.07-.14.1-.14.1-.12.12-.12.14-.1.16-.1.2-.1.2-.07.23-.06.26-.03.3-.03h.02l.03.01.04.01h.04.04.03.02.01l.01-.03v-.1l.03-.14.04-.17.05-.2.05-.2.07-.22.07-.2.06-.14.08-.15.07-.14.08-.13.07-.1.05-.1.04-.05.01-.02h-.01-.06l-.06-.01h-.1l-.05-.01h-.06l-.23.01-.2.03-.2.04-.18.04-.18.06-.3.15-.14.1-.13.1-.23.23-.12.13-.1.13-.1.14-.1.16-.12.15.28-1.38h-2.18l-1.42 8.13" class="C D G H"/><g class="E"><g class="J"><path d="M-27.9 557.97v-.03l.06-.2.1-.17.13-.16.16-.12.18-.1.2-.05.2-.02.22.02.2.05.2.1.15.12.13.16.1.17.06.2v.03h-.22l-.04-.16-.08-.14-.1-.13-.12-.1-.14-.08-.17-.06h-.18-.17l-.17.06-.14.08-.12.1-.1.13-.08.14-.04.16zm.65 0v-.27h.5l.1.02.06.01.05.03.04.04.03.05.01.05.01.07h-.15v-.08-.03l-.03-.01-.02-.02-.04-.01h-.35v.15z"/><path d="M-27.94 558.13l.03-.16h.22v.16zm.7 0v-.16h.2v.15h.2l.07-.01h.05.05l.04-.01.03-.02v-.03l.02-.04v-.01h.15l-.02.1-.02.04-.03.02zm1.23 0l-.02-.15v-.01h.22l.03.16z"/><path d="M-27.94 558.13v.03l.03.22.06.2.1.2.13.15.16.13.18.1.2.06.2.02.22-.02.2-.06.2-.1.15-.13.13-.15.1-.2.06-.2.03-.22v-.03h-.23v.03l-.02.18-.04.17-.08.14-.1.13-.12.1-.14.08-.17.05-.18.02-.17-.02-.17-.05-.14-.08-.12-.1-.1-.13-.08-.14-.04-.17v-.2zm.7 0v.45h.2v-.38h.2l.23.38h.15l-.23-.38h.06l.05-.02.05-.01.04-.04h-.73z"/></g><path d="M-61.03 544.27l-.06-.45-.1-.4-.15-.35-.2-.3-.22-.28-.25-.2-.27-.18-.3-.14-.3-.12-.3-.08-.3-.05h-1.22l-.55.1-.5.14-.44.2-.38.23-.33.26-.3.3-.24.3-.2.32-.18.33-.13.33-.12.32-.08.32-.06.3v1.7l.08.5.13.45.18.4.22.35.26.3.3.26.32.22.34.2.36.15.37.1.38.1.38.05h2.97l.24-.12.3-1.87-.22.13-.2.12-.22.1-.2.08-.2.07h-2.37l-.15-.05-.15-.07-.13-.08-.14-.1-.12-.1-.1-.1-.1-.13-.1-.13-.08-.14-.06-.14-.05-.14v-.5h4.92v-.46l.1-.64.05-.58v-.52zm-2.06.7h-2.77v-.42l.05-.15.07-.14.07-.13.08-.12.1-.1.1-.1.1-.1.12-.08.1-.07.13-.06h1.04l.12.06.1.07.1.08.1.1.16.22.05.13.05.14v.5z" class="B"/></g><rect width="125.43" height="78.39" rx="4.18" x="808.84" y="505.82" class="M"/><g class="B"><path d="M847.75 543.18v-1.25l-.6 1.25h-5.2l-.65-1.35v1.35h-9.7l-1.16-2.7h-1.95l-1.2 2.7h-5V535l3.7-8.35h7.06l1 2.37v-2.35h8.64l1.9 4 1.86-4h27.27a4.65 4.65 0 0 1 2.37.64v-.64h6.87v.9a5.6 5.6 0 0 1 3.06-.9h12.13l1.06 2.4v-2.4h7.77l1.4 2.4v-2.4h7.43v16.56h-7.63l-1.8-2.9v2.87h-9.48l-1.33-3h-1.86l-1.25 3h-5.74a7.43 7.43 0 0 1-3.75-1.18v1.18h-11.43v-3.86a.43.43 0 0 0-.43-.52h-.42v4.38h-22.9zm-5.7 3.6h15l2.17 2.45 2.22-2.45h11.54a5.31 5.31 0 0 1 2.11.58v-.58h10.35a5.24 5.24 0 0 1 2.4.65v-.65h13.2v.6a4.49 4.49 0 0 1 2.21-.6h8.6v.6a5.26 5.26 0 0 1 2.23-.6h6.76v15.6a3.73 3.73 0 0 1-2.73 1h-8.9v-.5a4.57 4.57 0 0 1-2.14.5H883.4v-4c0-.4-.17-.47-.53-.47h-.33v4.5h-7.4v-4.47a5 5 0 0 1-2.19.44h-2.66v4h-9.12l-2.07-2.53-2.22 2.53h-14.8v-16.6z"/></g><g class="M"><path d="M889.38 549.26h9.42v2.53h-6.54v2.2h6.36v2.23h-6.36v2.32h6.54V561h-9.42zm27.62 4.57c3.54.18 3.84 2 3.84 3.84a3.43 3.43 0 0 1-3.7 3.38h-6.05v-2.56h4.72c.8 0 2 0 2-1.13a.92.92 0 0 0-1.06-1c-.38-.05-1.78-.13-2-.14-3.2-.08-3.95-1.68-3.95-3.6a3.24 3.24 0 0 1 3.44-3.4h6.05v2.52h-4.43c-1 0-2.1-.12-2.1 1 0 .72.54.87 1.22.93a13.8 13.8 0 0 0 2.02.17zm-10.85 0c3.54.18 3.84 2 3.84 3.84a3.43 3.43 0 0 1-3.7 3.38h-6.05v-2.56h4.72c.8 0 2 0 2-1.13 0-.54-.2-.88-1.06-1-.38-.05-1.78-.13-2-.14-3.2-.08-3.94-1.68-3.94-3.6a3.23 3.23 0 0 1 3.43-3.4h6.05v2.52H905c-1 0-2.1-.12-2.1 1 0 .72.54.87 1.22.93a14.12 14.12 0 0 0 2.02.17zm-34.17-4.53h-10.12l-3.3 3.64-3.2-3.67H844V561h11l3.46-3.88 3.38 3.9h5.53v-4h3.88c1.5 0 4.22-.05 4.22-4.17a3.25 3.25 0 0 0-3.49-3.57zm-18.54 9.2h-6.65v-2.32h6.36V554h-6.36v-2.2h7l2.8 3.2zm11 1.36l-4.14-4.9 4.14-4.6v9.5zm6.5-5.28h-3.5v-2.82h3.6c.793.008 1.428.657 1.42 1.45s-.657 1.428-1.45 1.42zm14.96 1.1a3.2 3.2 0 0 0 2-3.25c0-2.5-2-3.14-3.46-3.14h-7.5v11.74h2.88v-4.14h3.77c1 0 1.4 1 1.4 2l.08 2.15h2.8l-.1-2.4c0-1.9-.52-2.8-1.9-2.95zm-2.46-1.2h-3.6v-2.66h3.6a1.38 1.38 0 0 1 1.59 1.35c-.03.76-.45 1.3-1.6 1.3zM878.1 529h2.88v11.75h-2.88zm-23.6 0h9.42v2.53h-6.54v2.2h6.35v2.23h-6.35v2.3h6.54v2.47h-9.42zm20.1 6.4a3.2 3.2 0 0 0 2-3.25c0-2.52-2-3.14-3.46-3.14h-7.5v11.74h2.88v-4.14h3.77c1 0 1.4 1 1.42 2l.08 2.15h2.8l-.1-2.4c-.04-1.86-.53-2.8-1.9-2.95zm-2.5-1.2h-3.6v-2.7h3.6a1.38 1.38 0 0 1 1.59 1.35c0 .82-.42 1.34-1.6 1.34zm-24.25-5.2l-3.54 7.88-3.53-7.87h-4.52v11.3l-5-11.3h-3.82l-5.14 11.74h3l1.13-2.62h5.75l1.14 2.62h5.8v-8.7l3.85 8.7h2.62l3.94-8.57v8.57h2.9V529h-4.6zm-20.3 6.6l1.72-4.1 1.8 4.1zm83.17-6.6v8.13l-4.86-8.13h-4.26v11l-4.9-11h-3.8l-4 9.1h-1.85c-.7-.14-1.78-.63-1.8-2.7v-.9c0-2.75 1.5-3 3.4-3h1.8v-2.55h-3.76c-1.3 0-4.16 1-4.26 5.82-.07 3.25 1.35 5.93 4.55 5.93h3.8l1.13-2.62h5.75l1.14 2.62h5.65v-8.6l5.2 8.6h3.93V529h-2.88zm-17.7 6.6l1.72-4.1 1.8 4.1z"/></g></g></svg>