<svg id="Layer_1" data-name="Layer 1" xmlns="http://www.w3.org/2000/svg" viewBox="0 0 1212.27 79.21"><defs><style>.cls-1{fill:#3957a7;}.cls-2,.cls-6{fill:#fff;}.cls-3{fill:#f9a533;}.cls-4{fill:#1c3663;}.cls-5{fill:#231f20;}.cls-14,.cls-15,.cls-16,.cls-6{fill-rule:evenodd;}.cls-7{fill:#13457c;}.cls-8{fill:#007cc3;}.cls-9{fill:#009ddd;}.cls-10,.cls-16{fill:#ec1c2e;}.cls-11{fill:#0084c4;}.cls-12,.cls-17{fill:none;stroke:#fff;}.cls-12{stroke-width:0.21px;}.cls-13{fill:#045ea0;}.cls-14{fill:#faa929;}.cls-15{fill:#fbb231;}.cls-17{stroke-miterlimit:2.61;stroke-width:0.22px;}.cls-18{fill:#0078a9;}</style></defs><title>pagamentos</title><rect class="cls-1" y="0.13" width="125.43" height="78.39" rx="4.18" ry="4.18"/><polygon class="cls-2" points="57.72 51.11 51.59 51.11 55.42 27.57 61.55 27.57 57.72 51.11"/><path class="cls-2" d="M454,156.08l-5.84,16.19-0.69-3.49h0L445.4,158.2a2.62,2.62,0,0,0-2.91-2.12h-9.66l-0.11.4a22.87,22.87,0,0,1,6.41,2.69l5.32,20.45h6.38l9.75-23.53H454Z" transform="translate(-407.56 -128.51)"/><path class="cls-2" d="M502.19,179.61h5.62l-4.9-23.53H498a2.82,2.82,0,0,0-2.83,1.75L486,179.61h6.39l1.28-3.5h7.79Zm-6.74-8.32,3.22-8.81,1.81,8.81h-5Z" transform="translate(-407.56 -128.51)"/><path class="cls-2" d="M486.5,161.74l0.87-5.05a17.69,17.69,0,0,0-5.51-1c-3,0-10.26,1.33-10.26,7.79,0,6.08,8.48,6.16,8.48,9.35s-7.6,2.62-10.11.61l-0.91,5.28A17.16,17.16,0,0,0,476,180c4.18,0,10.49-2.17,10.49-8.06,0-6.12-8.55-6.69-8.55-9.35S483.88,160.29,486.5,161.74Z" transform="translate(-407.56 -128.51)"/><path class="cls-3" d="M447.46,168.78L445.4,158.2a2.62,2.62,0,0,0-2.91-2.12h-9.66l-0.11.4a23.74,23.74,0,0,1,9.09,4.56A18.36,18.36,0,0,1,447.46,168.78Z" transform="translate(-407.56 -128.51)"/><rect class="cls-4" x="620.62" width="125.43" height="78.39" rx="4.18" ry="4.18"/><path class="cls-2" d="M1088.81,162.95a1.79,1.79,0,0,0-1.31.8l-3.29,5.64c-0.16.28-.32,0.1-0.35,0l-0.93-5.61a1.15,1.15,0,0,0-1.14-.82h-1.87a0.62,0.62,0,0,0-.63.8s1.42,8.08,1.7,10a2.07,2.07,0,0,1,0,1.24l-1.85,3.22c-0.27.44-.12,0.79,0.32,0.79h2.16a1.75,1.75,0,0,0,1.31-.79l8.32-14.07s0.79-1.2.06-1.19h-2.51" transform="translate(-407.56 -128.51)"/><path class="cls-2" d="M1062.55,165.81a4.39,4.39,0,0,1-2.63.69h-0.51a0.63,0.63,0,0,1-.64-0.8l0.63-2.71a1.06,1.06,0,0,1,1-.79h0.68a3.3,3.3,0,0,1,1.81.41,1.36,1.36,0,0,1,.6,1.24,2.25,2.25,0,0,1-.94,2m4.51-4.18a3.12,3.12,0,0,0-1.14-1.23,5.26,5.26,0,0,0-1.81-.67,15.11,15.11,0,0,0-2.46-.2h-4.36a1.09,1.09,0,0,0-1,.79l-2.94,12.78a0.62,0.62,0,0,0,.63.8h2.09a1.07,1.07,0,0,0,1-.8l0.72-3.1a1.07,1.07,0,0,1,1-.79h0.6a9.9,9.9,0,0,0,6-1.57,4.88,4.88,0,0,0,2.13-4.14,3.86,3.86,0,0,0-.4-1.88" transform="translate(-407.56 -128.51)"/><path class="cls-2" d="M1077.13,163.46a8,8,0,0,0-3.73-.67,16.47,16.47,0,0,0-2.53.2c-0.62.1-.68,0.11-1.07,0.2a1.22,1.22,0,0,0-.92,1l-0.25,1c-0.14.67,0.24,0.64,0.41,0.59a11.34,11.34,0,0,1,1.24-.37,9.15,9.15,0,0,1,2-.26,5.18,5.18,0,0,1,1.89.27,1,1,0,0,1,.63.95,0.69,0.69,0,0,1,0,.29,0.32,0.32,0,0,1-.3.19c-1.19.07-2,.18-3.08,0.33a9.62,9.62,0,0,0-2.65.73,4.11,4.11,0,0,0-1.79,1.42,3.85,3.85,0,0,0-.6,2.18,2.56,2.56,0,0,0,.85,2,3.19,3.19,0,0,0,2.2.76,5.88,5.88,0,0,0,1.31-.12,6.59,6.59,0,0,0,1-.34,5.28,5.28,0,0,0,.86-0.48l0.79-.52v0l-0.08.34h0a0.61,0.61,0,0,0,.55.78h2a1.09,1.09,0,0,0,.89-0.78l1.53-6.58a4.25,4.25,0,0,0,.08-0.54,4.3,4.3,0,0,0,0-.5A2.2,2.2,0,0,0,1077.13,163.46Zm-3.69,7.84a5.47,5.47,0,0,1-.82.42,3,3,0,0,1-1.09.24,2.43,2.43,0,0,1-1.19-.23,0.81,0.81,0,0,1-.41-0.78,1.58,1.58,0,0,1,.3-1,2.17,2.17,0,0,1,.89-0.6,7.75,7.75,0,0,1,1.38-.31c0.48-.06,1.42-0.17,1.54-0.17s0.2-.07.15,0.25c0,0.14-.29,1.26-0.42,1.76A1,1,0,0,1,1073.43,171.3Z" transform="translate(-407.56 -128.51)"/><path class="cls-2" d="M1115,163.47a8,8,0,0,0-3.73-.67,16.37,16.37,0,0,0-2.53.2c-0.62.09-.69,0.11-1.07,0.19a1.22,1.22,0,0,0-.92,1l-0.26,1c-0.14.67,0.24,0.64,0.41,0.59a10.91,10.91,0,0,1,1.24-.37,9.21,9.21,0,0,1,2-.26,5.18,5.18,0,0,1,1.89.27,1,1,0,0,1,.63.95,0.73,0.73,0,0,1,0,.3,0.32,0.32,0,0,1-.3.19c-1.19.07-2.05,0.18-3.08,0.33a9.65,9.65,0,0,0-2.65.73,4.13,4.13,0,0,0-1.79,1.42,3.87,3.87,0,0,0-.6,2.18,2.56,2.56,0,0,0,.85,2,3.2,3.2,0,0,0,2.2.75,5.85,5.85,0,0,0,1.31-.12,6.68,6.68,0,0,0,1-.34,5.32,5.32,0,0,0,.86-0.48l0.79-.53v0l-0.08.34h0a0.62,0.62,0,0,0,.56.78h2a1.09,1.09,0,0,0,.9-0.78l1.52-6.58a3.43,3.43,0,0,0,.08-0.54,4.26,4.26,0,0,0,0-.5A2.2,2.2,0,0,0,1115,163.47Zm-3.69,7.84a5.69,5.69,0,0,1-.82.42,3,3,0,0,1-1.09.24,2.42,2.42,0,0,1-1.19-.23,0.8,0.8,0,0,1-.41-0.78,1.58,1.58,0,0,1,.3-1,2.16,2.16,0,0,1,.89-0.6,7.62,7.62,0,0,1,1.38-.31c0.48-.06,1.42-0.17,1.54-0.17s0.2-.07.15,0.25c0,0.14-.3,1.26-0.42,1.76A1,1,0,0,1,1111.35,171.31Z" transform="translate(-407.56 -128.51)"/><path class="cls-2" d="M1100.46,165.86a4.41,4.41,0,0,1-2.63.68h-0.52a0.62,0.62,0,0,1-.63-0.79l0.63-2.71a1.07,1.07,0,0,1,1-.79H1099a3.4,3.4,0,0,1,1.81.4,1.4,1.4,0,0,1,.61,1.25,2.3,2.3,0,0,1-.94,2m4.51-4.18a3.21,3.21,0,0,0-1.15-1.23,5.17,5.17,0,0,0-1.82-.67,14.48,14.48,0,0,0-2.46-.19h-4.37a1.09,1.09,0,0,0-1,.8l-2.94,12.78a0.61,0.61,0,0,0,.62.79h2.1a1.09,1.09,0,0,0,1-.79l0.71-3.1a1.07,1.07,0,0,1,1-.79h0.6a9.87,9.87,0,0,0,6-1.57,4.92,4.92,0,0,0,2.13-4.14,4,4,0,0,0-.4-1.88" transform="translate(-407.56 -128.51)"/><path class="cls-2" d="M1122.24,159.69h-1.87a1.07,1.07,0,0,0-1,.73s0,0,0,.07l-0.1.47-2.58,11.69-0.12.5h0a0.61,0.61,0,0,0,.55.77v0h1.94a1.08,1.08,0,0,0,1-.73l0-.06,2.8-12.67h0A0.62,0.62,0,0,0,1122.24,159.69Z" transform="translate(-407.56 -128.51)"/><path class="cls-2" d="M1125.08,162.27l-0.21,0-0.2,0a0.63,0.63,0,0,1-.47-0.17,0.76,0.76,0,0,1-.16-0.54v-1.08h-0.23v-0.29H1124v-0.58h0.34v0.58h0.71v0.29h-0.71v0.93c0,0.11,0,.19,0,0.25a0.42,0.42,0,0,0,.05.17,0.24,0.24,0,0,0,.11.11,0.54,0.54,0,0,0,.21,0l0.18,0,0.13,0h0v0.31Z" transform="translate(-407.56 -128.51)"/><path class="cls-2" d="M1128.46,162.29h-0.34v-1.16c0-.09,0-0.17,0-0.25a0.58,0.58,0,0,0-.05-0.19,0.28,0.28,0,0,0-.12-0.12,0.5,0.5,0,0,0-.22,0,0.63,0.63,0,0,0-.29.07,1.75,1.75,0,0,0-.29.18s0,0.06,0,.1,0,0.07,0,.11v1.3h-0.34v-1.16c0-.09,0-0.18,0-0.25a0.56,0.56,0,0,0,0-.19,0.29,0.29,0,0,0-.12-0.12,0.54,0.54,0,0,0-.23,0,0.62,0.62,0,0,0-.28.07,1.63,1.63,0,0,0-.28.17v1.52h-0.34v-2h0.34v0.22a1.56,1.56,0,0,1,.32-0.21,0.78,0.78,0,0,1,.34-0.08,0.67,0.67,0,0,1,.35.09,0.53,0.53,0,0,1,.21.24,1.65,1.65,0,0,1,.38-0.25,0.88,0.88,0,0,1,.37-0.08,0.59,0.59,0,0,1,.49.2,0.89,0.89,0,0,1,.16.57v1.32Z" transform="translate(-407.56 -128.51)"/><rect class="cls-5" x="776.9" y="0.45" width="125.43" height="78.39" rx="4.18" ry="4.18"/><path class="cls-6" d="M1245,161.1h3.9s3.86-.08,3.82,3.43c0,2.61-3.74,3-3.74,3h-4V161.1h0Zm11.65,12.58c0.11,0.51.48,1.07,1.71,1.13a4.71,4.71,0,0,0,2.57-.58v1.21a16.53,16.53,0,0,1-2.65.43c-0.9,0-3.55-.19-3.55-2.65,0-2,2.18-2.61,3.43-2.61,2.18,0.08,3.23.86,3.19,3.08,0,0-3.59,0-4.71,0h0Zm0-1h3a1.23,1.23,0,0,0-1.44-1.13,1.36,1.36,0,0,0-1.55,1.13h0Zm9.46-1.22a3.05,3.05,0,0,1,2.38-.84,2.56,2.56,0,0,1,2.77,2.57c0,0.54-.23,2.61-3,2.61a2.63,2.63,0,0,1-2.1-.81v0.66h-1.91v-7h1.91v2.83h0Zm1.63,3.25a1.67,1.67,0,0,0,1.64-1.48,1.48,1.48,0,0,0-1.71-1.44,1.52,1.52,0,0,0-1.56,1.26v0.51a1.49,1.49,0,0,0,1.63,1.15h0Zm16.48-.2,0,1.09a8.89,8.89,0,0,1-1.48.2,2,2,0,0,1-2.1-1.83v-2.26H1279v-1h1.6v-1.21h1.95v1.21h1.6v1h-1.6v1.95a0.91,0.91,0,0,0,.78,1,1.09,1.09,0,0,0,.82-0.12h0Zm-5.92-12.39h2.26v5.41h1.91v-5.41h2.3V161h-6.46v1.13h0Zm-0.78.27,0.23-1.13a7.24,7.24,0,0,0-2.69-.43c-1.68,0-4.37.94-4.37,3.47s2.84,3.35,4.6,3.35a6.4,6.4,0,0,0,2.34-.27l-0.2-1.25a8,8,0,0,1-2.1.23c-1.29,0-2.61-1.05-2.61-2.18a2.64,2.64,0,0,1,2.73-2.14,6.22,6.22,0,0,1,2.06.35h0Zm-17.22-1.36s3.2-.16,3.2,1.71c0,1.6-1.83,1.71-1.83,1.71a1.21,1.21,0,0,1,.74.43c0.2,0.31,1.48,2.65,1.48,2.65h-1.95a6.5,6.5,0,0,1-.47-0.66c-0.12-.27-0.47-0.86-0.47-0.86a1.33,1.33,0,0,0-1.21-1l-0.7,0v2.52h-1.87v-6.5h3.08Zm-1.21,2.92h1s1.4-.08,1.48-0.94-1.36-.94-1.36-0.94h-1.13V164h0Zm7.83,1H1270v-1.21h-3.12V162.3h3.39v-1.24H1265v6.5h5.34V166.4h-3.43V165h0Zm7.6,5h1.91v-1.32h-1.91V170h0Zm0,5.69h1.91v-4.95h-1.91v4.95h0Zm-20.8-8.1h1.87v-6.5h-1.87v6.5h0ZM1245,169.2h3.9s3.86-.08,3.82,3.43c0,2.61-3.74,3-3.74,3h-4V169.2h0Zm1.91,5.22h1.25s2.57-.15,2.57-2.14-2.72-2.18-2.72-2.18h-1.09v4.32h0Zm0-8.1h1.25s2.57-.2,2.57-2.14S1248,162,1248,162h-1.09v4.32h0Z" transform="translate(-407.56 -128.51)"/><path class="cls-6" d="M1227.47,165v13s-7.56-1.36-7.56-6.54c0-4.13,5.6-6,7.56-6.49h0Zm0-.24c-4.54-.33-14.84,1.8-14.84,6.46,0,3,5.46,7.48,14.34,7.6,0.35,0,10.44-.39,10.28-11.22-0.13-9.09-6.94-10.69-9.12-11V156c8.68,0.55,15.5,5.77,15.5,12.1,0,6.7-7.63,12.15-17,12.15s-17-5.45-17-12.15,7.59-12.15,17-12.15l0.86,0v8.72h0Z" transform="translate(-407.56 -128.51)"/><rect class="cls-7" x="463.7" y="0.13" width="125.43" height="78.39" rx="4.18" ry="4.18"/><circle class="cls-8" cx="512.33" cy="39.33" r="22.47"/><path class="cls-9" d="M950.06,145.37A22.39,22.39,0,0,0,935,151.19a23,23,0,0,0-2.27,2.38h4.54a22.59,22.59,0,0,1,1.71,2.38h-8a22,22,0,0,0-1.29,2.38h10.55a22.38,22.38,0,0,1,1,2.38H928.75a21.61,21.61,0,0,0-.65,2.38h13.76a22.62,22.62,0,0,1-.65,11.9H928.75a22.44,22.44,0,0,0,1,2.38h10.55a22.44,22.44,0,0,1-1.29,2.38h-8a22.44,22.44,0,0,0,1.71,2.38h4.54a22.18,22.18,0,0,1-2.27,2.38A22.47,22.47,0,1,0,950.06,145.37Z" transform="translate(-407.56 -128.51)"/><path class="cls-9" d="M969.53,180.36a0.73,0.73,0,1,1,.72.72A0.73,0.73,0,0,1,969.53,180.36Zm0.72,0.55a0.55,0.55,0,1,0-.55-0.55A0.55,0.55,0,0,0,970.26,180.92Zm-0.1-.23H970V180h0.27a0.29,0.29,0,0,1,.16,0,0.19,0.19,0,0,1,.08.16,0.18,0.18,0,0,1-.11.17l0.12,0.28h-0.17l-0.1-.25h-0.11v0.25Zm0-.36h0.08a0.18,0.18,0,0,0,.09,0,0.08,0.08,0,0,0,0-.07,0.08,0.08,0,0,0,0-.06,0.21,0.21,0,0,0-.1,0h-0.08v0.16Z" transform="translate(-407.56 -128.51)"/><path class="cls-2" d="M962,172.86a0.73,0.73,0,1,1,.72.73A0.73,0.73,0,0,1,962,172.86Zm0.72,0.55a0.55,0.55,0,1,0-.55-0.55A0.55,0.55,0,0,0,962.72,173.41Zm-0.1-.23h-0.15v-0.64h0.27a0.29,0.29,0,0,1,.16,0,0.2,0.2,0,0,1,.08.16,0.18,0.18,0,0,1-.11.17l0.12,0.28h-0.17l-0.1-.25h-0.11v0.25Zm0-.36h0.08a0.18,0.18,0,0,0,.09,0,0.08,0.08,0,0,0,0-.07,0.08,0.08,0,0,0,0-.07,0.2,0.2,0,0,0-.1,0h-0.08v0.16Z" transform="translate(-407.56 -128.51)"/><path class="cls-2" d="M919.3,162c-0.2.88-.3,1.38-0.58,2.45-1.69-.72-4-1.09-5.7,0a4.6,4.6,0,0,0-2.07,4.48,2.75,2.75,0,0,0,1.69,2.09,5.68,5.68,0,0,0,4.8-.49c-0.24,1.09-.42,1.94-0.63,2.72a9.85,9.85,0,0,1-6,.08,5,5,0,0,1-3.4-4,6.68,6.68,0,0,1,3.69-7A12.4,12.4,0,0,1,919.3,162Z" transform="translate(-407.56 -128.51)"/><path class="cls-2" d="M947.93,172a4.71,4.71,0,0,1-3.91,1.7c-2.25,0-3.67-1.66-2.87-5.38l0.93-4.38h3.43l-0.93,4.38c-0.32,1.49-.24,2.63,1.27,2.63,1.78,0,2.32-1.08,2.65-2.62l0.93-4.38h3.43l-1.54,7c-0.17.82-.34,1.7-0.44,2.56h-3.22Z" transform="translate(-407.56 -128.51)"/><path class="cls-2" d="M954,167c0,1.22.8,2,2.62,2.67,1.4,0.49,1.62.63,1.62,1.06,0,0.61-.63.86-2,0.86a12.63,12.63,0,0,1-3.09-.37s-0.44,2-.48,2.22a25.29,25.29,0,0,0,3.59.27c3.63,0,5.31-1,5.31-3.2,0-1.31-.71-2.08-2.43-2.67-1.45-.48-1.61-0.59-1.61-1s0.58-.78,1.69-0.78c0.67,0,1.61.06,2.49,0.15l0.48-2.23c-0.89-.11-2.25-0.19-3-0.19C955.32,163.76,954,165.25,954,167Z" transform="translate(-407.56 -128.51)"/><polygon class="cls-2" points="513.2 35.47 516.64 35.47 514.59 45.08 511.15 45.08 513.2 35.47"/><path class="cls-2" d="M941.1,163.94a3.91,3.91,0,0,0-3.93,1.53,6.83,6.83,0,0,0,.2-1.48h-3.15c-0.45,3-1.26,6-1.89,9l-0.16.65h3.58c0.43-2,.92-4.89,1.49-5.79a2.31,2.31,0,0,1,2.76-1.17Z" transform="translate(-407.56 -128.51)"/><path class="cls-2" d="M933.28,163.94a3.91,3.91,0,0,0-3.93,1.53,6.83,6.83,0,0,0,.2-1.48H926.4c-0.45,3-1.26,6-1.89,9l-0.16.65h3.58c0.43-2,.92-4.89,1.49-5.79a2.31,2.31,0,0,1,2.76-1.17Z" transform="translate(-407.56 -128.51)"/><rect class="cls-7" x="308.24" y="0.13" width="125.43" height="78.39" rx="4.18" ry="4.18"/><polygon class="cls-10" points="385.88 61.84 387.05 61.81 388.19 61.73 389.32 61.58 390.43 61.38 391.52 61.13 392.59 60.83 393.64 60.48 394.67 60.07 395.67 59.62 396.63 59.12 397.58 58.58 398.49 57.99 399.38 57.36 400.23 56.7 401.05 55.98 401.83 55.24 402.57 54.45 403.29 53.63 403.96 52.78 404.59 51.9 405.17 50.98 405.71 50.04 406.21 49.07 406.67 48.07 407.07 47.04 407.42 46 407.73 44.92 407.98 43.84 408.18 42.72 408.32 41.59 408.4 40.45 408.44 39.29 408.4 38.13 408.32 36.99 408.18 35.88 407.98 34.77 407.73 33.69 407.42 32.62 407.07 31.58 406.67 30.56 406.21 29.57 405.71 28.6 405.17 27.66 404.59 26.74 403.96 25.86 403.29 25.01 402.57 24.19 401.83 23.41 401.05 22.67 400.23 21.96 399.38 21.29 398.49 20.67 397.58 20.08 396.63 19.54 395.67 19.04 394.67 18.59 393.64 18.19 392.59 17.83 391.52 17.53 390.43 17.28 389.32 17.08 388.19 16.94 387.05 16.85 385.88 16.82 384.72 16.85 383.58 16.94 382.45 17.08 381.34 17.28 380.25 17.53 379.18 17.83 378.13 18.19 377.11 18.59 376.11 19.04 375.14 19.54 374.2 20.08 373.29 20.67 372.41 21.29 371.56 21.96 370.74 22.67 369.96 23.41 369.22 24.19 368.51 25.01 367.84 25.86 367.21 26.74 366.63 27.66 366.09 28.6 365.59 29.57 365.15 30.56 364.74 31.58 364.39 32.62 364.09 33.69 363.84 34.77 363.64 35.88 363.5 36.99 363.41 38.13 363.38 39.29 363.41 40.45 363.5 41.59 363.64 42.72 363.84 43.84 364.09 44.92 364.39 46 364.74 47.04 365.15 48.07 365.59 49.07 366.09 50.04 366.63 50.98 367.21 51.9 367.84 52.78 368.51 53.63 369.22 54.45 369.96 55.24 370.74 55.98 371.56 56.7 372.41 57.36 373.29 57.99 374.2 58.58 375.14 59.12 376.11 59.62 377.11 60.07 378.13 60.48 379.18 60.83 380.25 61.13 381.34 61.38 382.45 61.58 383.58 61.73 384.72 61.81 385.88 61.84"/><polygon class="cls-11" points="356.02 61.84 357.19 61.81 358.33 61.73 359.46 61.58 360.57 61.38 361.66 61.13 362.73 60.83 363.78 60.48 364.8 60.07 365.8 59.62 366.77 59.12 367.71 58.58 368.63 57.99 369.51 57.36 370.36 56.7 371.17 55.98 371.95 55.24 372.69 54.45 373.4 53.63 374.07 52.78 374.7 51.9 375.29 50.98 375.82 50.04 376.32 49.07 376.77 48.07 377.17 47.04 377.52 46 377.82 44.92 378.07 43.84 378.27 42.72 378.41 41.59 378.5 40.45 378.53 39.29 378.5 38.13 378.41 36.99 378.27 35.88 378.07 34.77 377.82 33.69 377.52 32.62 377.17 31.58 376.77 30.56 376.32 29.57 375.82 28.6 375.29 27.66 374.7 26.74 374.07 25.86 373.4 25.01 372.69 24.19 371.95 23.41 371.17 22.67 370.36 21.96 369.51 21.29 368.63 20.67 367.71 20.08 366.77 19.54 365.8 19.04 364.8 18.59 363.78 18.19 362.73 17.83 361.66 17.53 360.57 17.28 359.46 17.08 358.33 16.94 357.19 16.85 356.02 16.82 354.87 16.85 353.72 16.94 352.59 17.08 351.48 17.28 350.39 17.53 349.32 17.83 348.27 18.19 347.24 18.59 346.25 19.04 345.28 19.54 344.33 20.08 343.42 20.67 342.53 21.29 341.68 21.96 340.86 22.67 340.08 23.41 339.34 24.19 338.63 25.01 337.95 25.86 337.32 26.74 336.74 27.66 336.2 28.6 335.69 29.57 335.24 30.56 334.85 31.58 334.49 32.62 334.19 33.69 333.94 34.77 333.74 35.88 333.6 36.99 333.51 38.13 333.48 39.29 333.51 40.45 333.6 41.59 333.74 42.72 333.94 43.84 334.19 44.92 334.49 46 334.85 47.04 335.24 48.07 335.69 49.07 336.2 50.04 336.74 50.98 337.32 51.9 337.95 52.78 338.63 53.63 339.34 54.45 340.08 55.24 340.86 55.98 341.68 56.7 342.53 57.36 343.42 57.99 344.33 58.58 345.28 59.12 346.25 59.62 347.24 60.07 348.27 60.48 349.32 60.83 350.39 61.13 351.48 61.38 352.59 61.58 353.72 61.73 354.87 61.81 356.02 61.84"/><polygon class="cls-10" points="368.18 25.39 379.6 25.39 379.6 24.14 369.28 24.14 368.18 25.39"/><polygon class="cls-10" points="366.39 28.06 379.6 28.06 379.6 26.81 367.19 26.81 366.39 28.06"/><polygon class="cls-10" points="365.05 30.77 379.6 30.77 379.6 29.51 365.67 29.51 365.05 30.77"/><polygon class="cls-10" points="364.18 33.43 379.6 33.43 379.6 32.18 364.56 32.18 364.18 33.43"/><polygon class="cls-10" points="363.61 36.1 379.6 36.1 379.6 34.84 363.84 34.84 363.61 36.1"/><polygon class="cls-10" points="363.49 41.27 379.6 41.27 379.6 40.01 363.38 40.01 363.49 41.27"/><polygon class="cls-10" points="363.88 44.09 379.6 44.09 379.6 42.83 363.65 42.83 363.88 44.09"/><polygon class="cls-10" points="364.64 46.38 379.6 46.38 379.6 45.12 364.25 45.12 364.64 46.38"/><polygon class="cls-10" points="365.77 49.16 379.6 49.16 379.6 47.9 365.17 47.9 365.77 49.16"/><polygon class="cls-10" points="367.38 51.98 379.6 51.98 379.6 50.72 366.54 50.72 367.38 51.98"/><polygon class="cls-10" points="369.39 54.68 379.49 54.68 379.49 53.42 368.29 53.42 369.39 54.68"/><polygon class="cls-10" points="404.73 53.11 404.8 52.91 404.91 52.73 405.05 52.57 405.21 52.43 405.39 52.33 405.59 52.26 405.81 52.24 406.03 52.26 406.24 52.33 406.42 52.43 406.58 52.57 406.72 52.73 406.82 52.91 406.89 53.11 406.66 53.11 406.61 52.97 406.53 52.82 406.43 52.69 406.3 52.58 406.15 52.5 405.98 52.45 405.81 52.43 405.63 52.45 405.46 52.5 405.31 52.58 405.18 52.69 405.08 52.82 404.99 52.97 404.95 53.11 404.73 53.11"/><polygon class="cls-10" points="405.42 53.11 405.42 52.85 405.84 52.85 405.94 52.85 406.02 52.86 406.1 52.88 406.15 52.91 406.2 52.95 406.24 52.99 406.26 53.05 406.27 53.11 406.07 53.11 406.07 53.11 406.07 53.08 406.05 53.05 406.03 53.02 406 52.99 405.96 52.98 405.93 52.97 405.89 52.97 405.84 52.97 405.62 52.97 405.62 53.11 405.42 53.11"/><polygon class="cls-10" points="404.71 53.31 404.73 53.12 404.73 53.11 404.95 53.11 404.94 53.15 404.93 53.31 404.71 53.31"/><polygon class="cls-10" points="405.42 53.31 405.42 53.11 405.62 53.11 405.62 53.27 405.81 53.27 405.88 53.27 405.93 53.27 405.98 53.26 406.01 53.25 406.04 53.23 406.06 53.2 406.07 53.17 406.07 53.11 406.27 53.11 406.27 53.11 406.26 53.18 406.25 53.24 406.22 53.28 406.2 53.31 405.42 53.31"/><polygon class="cls-10" points="406.68 53.31 406.67 53.15 406.66 53.11 406.89 53.11 406.89 53.12 406.91 53.31 406.68 53.31"/><polygon class="cls-10" points="404.71 53.31 404.71 53.34 404.73 53.56 404.8 53.77 404.91 53.95 405.05 54.11 405.21 54.24 405.39 54.34 405.59 54.39 405.81 54.42 406.03 54.39 406.24 54.34 406.42 54.24 406.58 54.11 406.72 53.95 406.82 53.77 406.89 53.56 406.91 53.34 406.91 53.31 406.68 53.31 406.68 53.34 406.67 53.54 406.61 53.71 406.53 53.87 406.43 54 406.3 54.11 406.15 54.19 405.98 54.25 405.81 54.26 405.63 54.25 405.46 54.19 405.31 54.11 405.18 54 405.08 53.87 404.99 53.71 404.94 53.54 404.93 53.34 404.93 53.31 404.71 53.31"/><polygon class="cls-10" points="405.42 53.31 405.42 53.77 405.62 53.77 405.62 53.39 405.81 53.39 406.04 53.77 406.23 53.77 405.96 53.39 406.02 53.38 406.09 53.37 406.14 53.35 406.19 53.32 406.2 53.31 405.42 53.31"/><polygon class="cls-2" points="381.01 37.39 380.86 37.39 380.71 37.37 380.58 37.35 380.45 37.34 380.31 37.31 380.18 37.29 380.04 37.27 379.89 37.25 379.74 37.23 379.57 37.22 379.39 37.2 379.19 37.19 378.97 37.19 378.72 37.2 378.45 37.22 378.15 37.24 377.94 37.27 377.74 37.31 377.56 37.37 377.39 37.44 377.24 37.52 377.11 37.61 377 37.71 376.91 37.81 376.84 37.93 376.8 38.06 376.78 38.18 376.78 38.32 376.81 38.46 376.86 38.6 376.94 38.74 377.05 38.88 377.26 39.07 377.51 39.23 377.81 39.36 378.13 39.47 378.46 39.58 378.81 39.69 379.16 39.82 379.5 39.97 379.82 40.15 380.12 40.36 380.39 40.63 380.61 40.96 380.78 41.36 380.89 41.83 380.93 42.39 380.89 43.06 380.81 43.56 380.68 44 380.51 44.4 380.29 44.75 380.04 45.06 379.77 45.33 379.46 45.56 379.14 45.76 378.8 45.92 378.44 46.05 378.08 46.17 377.72 46.25 377.36 46.31 377 46.34 376.66 46.37 376.33 46.38 375.87 46.38 375.45 46.37 375.08 46.36 374.73 46.35 374.41 46.34 374.13 46.32 373.86 46.3 373.63 46.27 373.4 46.24 373.2 46.2 373 46.17 372.81 46.12 372.64 46.06 372.46 46.01 372.28 45.95 372.09 45.88 372.55 43.56 372.66 43.58 372.78 43.61 372.94 43.65 373.11 43.7 373.31 43.73 373.53 43.79 373.77 43.83 374.02 43.87 374.29 43.91 374.57 43.95 374.85 43.98 375.16 44.01 375.46 44.02 375.77 44.03 376.08 44.03 376.4 44.01 376.7 43.96 376.94 43.88 377.13 43.76 377.27 43.63 377.38 43.47 377.47 43.31 377.53 43.15 377.58 42.99 377.6 42.82 377.59 42.67 377.56 42.53 377.5 42.41 377.41 42.29 377.31 42.19 377.19 42.09 377.05 42 376.89 41.92 376.72 41.84 376.53 41.76 376.34 41.69 376.15 41.61 375.94 41.53 375.74 41.45 375.52 41.36 375.31 41.27 375.11 41.17 374.9 41.06 374.7 40.94 374.51 40.82 374.33 40.68 374.16 40.52 374 40.34 373.86 40.15 373.74 39.95 373.63 39.72 373.55 39.47 373.48 39.2 373.45 38.9 373.44 38.58 373.46 38.23 373.48 38.01 373.52 37.81 373.55 37.61 373.59 37.41 373.63 37.23 373.69 37.05 373.75 36.88 373.82 36.71 373.9 36.55 373.98 36.4 374.08 36.25 374.18 36.11 374.29 35.98 374.41 35.85 374.54 35.73 374.68 35.62 374.82 35.52 374.98 35.42 375.15 35.34 375.33 35.25 375.51 35.17 375.71 35.1 375.92 35.04 376.14 34.98 376.38 34.93 376.62 34.88 376.88 34.85 377.14 34.82 377.42 34.8 377.72 34.78 378.02 34.77 378.34 34.77 378.73 34.77 379.09 34.77 379.4 34.78 379.7 34.8 379.96 34.81 380.19 34.83 380.41 34.85 380.6 34.86 380.77 34.88 380.91 34.91 381.06 34.92 381.17 34.94 381.28 34.96 381.37 34.97 381.46 34.99 381.54 35 381.01 37.39"/><polyline class="cls-12" points="381.01 37.39 381.01 37.39 380.86 37.39 380.71 37.37 380.58 37.35 380.45 37.34 380.31 37.31 380.18 37.29 380.04 37.27 379.89 37.25 379.74 37.23 379.57 37.22 379.39 37.2 379.19 37.19 378.97 37.19 378.72 37.2 378.45 37.22 378.15 37.24 378.15 37.24 377.94 37.27 377.74 37.31 377.56 37.37 377.39 37.44 377.24 37.52 377.11 37.61 377 37.71 376.91 37.81 376.84 37.93 376.8 38.06 376.78 38.18 376.78 38.32 376.81 38.46 376.86 38.6 376.94 38.74 377.05 38.88 377.05 38.88 377.26 39.07 377.51 39.23 377.81 39.36 378.13 39.47 378.46 39.58 378.81 39.69 379.16 39.82 379.5 39.97 379.82 40.15 380.12 40.36 380.39 40.63 380.61 40.96 380.78 41.36 380.89 41.83 380.93 42.39 380.89 43.06 380.89 43.06 380.81 43.56 380.68 44 380.51 44.4 380.29 44.75 380.04 45.06 379.77 45.33 379.46 45.56 379.14 45.76 378.8 45.92 378.44 46.05 378.08 46.17 377.72 46.25 377.36 46.31 377 46.34 376.66 46.37 376.33 46.38 376.33 46.38 375.87 46.38 375.45 46.37 375.08 46.36 374.73 46.35 374.41 46.34 374.13 46.32 373.86 46.3 373.63 46.27 373.4 46.24 373.2 46.2 373 46.17 372.81 46.12 372.64 46.06 372.46 46.01 372.28 45.95 372.09 45.88 372.55 43.56 372.55 43.56 372.66 43.58 372.78 43.61 372.94 43.65 373.11 43.7 373.31 43.73 373.53 43.79 373.77 43.83 374.02 43.87 374.29 43.91 374.57 43.95 374.85 43.98 375.16 44.01 375.46 44.02 375.77 44.03 376.08 44.03 376.4 44.01 376.4 44.01 376.7 43.96 376.94 43.88 377.13 43.76 377.27 43.63 377.38 43.47 377.47 43.31 377.53 43.15 377.58 42.99 377.58 42.99 377.6 42.82 377.59 42.67 377.56 42.53 377.5 42.41 377.41 42.29 377.31 42.19 377.19 42.09 377.05 42 376.89 41.92 376.72 41.84 376.53 41.76 376.34 41.69 376.15 41.61 375.94 41.53 375.74 41.45 375.52 41.36 375.31 41.27 375.11 41.17 374.9 41.06 374.7 40.94 374.51 40.82 374.33 40.68 374.16 40.52 374 40.34 373.86 40.15 373.74 39.95 373.63 39.72 373.55 39.47 373.48 39.2 373.45 38.9 373.44 38.58 373.46 38.23 373.46 38.23 373.48 38.01 373.52 37.81 373.55 37.61 373.59 37.41 373.63 37.23 373.69 37.05 373.75 36.88 373.82 36.71 373.9 36.55 373.98 36.4 374.08 36.25 374.18 36.11 374.29 35.98 374.41 35.85 374.54 35.73 374.68 35.62 374.82 35.52 374.98 35.42 375.15 35.34 375.33 35.25 375.51 35.17 375.71 35.1 375.92 35.04 376.14 34.98 376.38 34.93 376.62 34.88 376.88 34.85 377.14 34.82 377.42 34.8 377.72 34.78 378.02 34.77 378.34 34.77 378.34 34.77 378.73 34.77 379.09 34.77 379.4 34.78 379.7 34.8 379.96 34.81 380.19 34.83 380.41 34.85 380.6 34.86 380.77 34.88 380.91 34.91 381.06 34.92 381.17 34.94 381.28 34.96 381.37 34.97 381.46 34.99 381.54 35 381.01 37.39"/><polygon class="cls-2" points="383.44 32.44 386.42 32.44 385.96 35.03 387.79 35.03 387.37 37.39 385.5 37.35 384.52 43.25 384.5 43.38 384.5 43.49 384.52 43.59 384.55 43.67 384.59 43.75 384.64 43.82 384.71 43.88 384.78 43.92 384.87 43.97 384.96 44.01 385.06 44.04 385.17 44.05 385.29 44.07 385.4 44.08 385.53 44.09 385.66 44.09 385.89 44.09 386.1 44.07 386.29 44.04 386.45 44.01 386.58 43.97 386.68 43.93 386.74 43.9 386.76 43.9 386.45 45.92 386.38 45.96 386.3 46 386.22 46.03 386.14 46.07 386.06 46.1 385.96 46.13 385.88 46.16 385.77 46.19 385.67 46.22 385.56 46.24 385.43 46.26 385.3 46.28 385.16 46.31 385.01 46.33 384.84 46.35 384.66 46.38 383.87 46.38 383.44 46.34 383.07 46.3 382.73 46.24 382.44 46.16 382.2 46.07 381.99 45.96 381.82 45.84 381.68 45.69 381.57 45.54 381.49 45.37 381.44 45.18 381.41 44.98 381.4 44.76 381.41 44.52 381.43 44.28 381.47 44.01 383.44 32.44"/><polyline class="cls-12" points="383.44 32.44 386.42 32.44 385.96 35.03 387.79 35.03 387.37 37.39 385.5 37.35 384.52 43.25 384.52 43.25 384.5 43.38 384.5 43.49 384.52 43.59 384.55 43.67 384.59 43.75 384.64 43.82 384.71 43.88 384.78 43.92 384.87 43.97 384.96 44.01 385.06 44.04 385.17 44.05 385.29 44.07 385.4 44.08 385.53 44.09 385.66 44.09 385.66 44.09 385.89 44.09 386.1 44.07 386.29 44.04 386.45 44.01 386.58 43.97 386.68 43.93 386.74 43.9 386.76 43.9 386.45 45.92 386.45 45.92 386.38 45.96 386.3 46 386.22 46.03 386.14 46.07 386.06 46.1 385.96 46.13 385.88 46.16 385.77 46.19 385.67 46.22 385.56 46.24 385.43 46.26 385.3 46.28 385.16 46.31 385.01 46.33 384.84 46.35 384.66 46.38 383.87 46.38 383.87 46.38 383.44 46.34 383.07 46.3 382.73 46.24 382.44 46.16 382.2 46.07 381.99 45.96 381.82 45.84 381.68 45.69 381.57 45.54 381.49 45.37 381.44 45.18 381.41 44.98 381.4 44.76 381.41 44.52 381.43 44.28 381.47 44.01 383.44 32.44"/><polygon class="cls-2" points="365.36 41.42 365.33 41.61 365.32 41.8 365.33 41.99 365.38 42.19 365.44 42.39 365.52 42.59 365.63 42.78 365.76 42.96 365.89 43.14 366.06 43.31 366.23 43.46 366.41 43.6 366.61 43.72 366.82 43.81 367.04 43.89 367.26 43.94 367.53 43.98 367.8 44.01 368.07 44.04 368.34 44.06 368.63 44.06 368.9 44.06 369.19 44.05 369.47 44.03 369.76 43.98 370.05 43.93 370.35 43.86 370.64 43.76 370.94 43.65 371.25 43.52 371.56 43.36 371.87 43.18 371.41 45.8 371.24 45.89 371.07 45.98 370.91 46.04 370.75 46.1 370.58 46.16 370.42 46.2 370.25 46.24 370.07 46.28 369.88 46.3 369.67 46.32 369.44 46.34 369.19 46.35 368.93 46.37 368.63 46.37 368.31 46.38 367.95 46.38 367.69 46.38 367.43 46.36 367.17 46.34 366.9 46.31 366.63 46.28 366.36 46.23 366.1 46.17 365.83 46.12 365.57 46.03 365.31 45.95 365.06 45.86 364.81 45.75 364.56 45.62 364.33 45.49 364.1 45.34 363.88 45.18 363.68 45 363.48 44.81 363.28 44.6 363.11 44.38 362.95 44.13 362.8 43.88 362.67 43.61 362.55 43.32 362.45 43.01 362.37 42.68 362.3 42.34 362.26 41.97 362.23 41.59 362.23 41.19 362.24 40.76 362.28 40.31 362.3 40.16 362.32 39.98 362.35 39.8 362.39 39.61 362.43 39.41 362.48 39.21 362.54 38.99 362.6 38.77 362.67 38.54 362.75 38.32 362.85 38.09 362.95 37.86 363.07 37.63 363.19 37.4 363.34 37.17 363.48 36.95 363.65 36.73 363.83 36.52 364.02 36.31 364.24 36.12 364.46 35.93 364.7 35.75 364.96 35.59 365.24 35.43 365.54 35.3 365.86 35.17 366.19 35.06 366.55 34.97 366.92 34.9 367.32 34.85 367.74 34.82 368.18 34.8 368.39 34.8 368.6 34.82 368.81 34.83 369.02 34.85 369.24 34.88 369.46 34.93 369.68 34.98 369.89 35.04 370.11 35.11 370.32 35.19 370.52 35.28 370.73 35.38 370.92 35.5 371.11 35.62 371.29 35.77 371.47 35.93 371.63 36.1 371.78 36.28 371.92 36.49 372.05 36.71 372.17 36.94 372.27 37.19 372.36 37.47 372.43 37.76 372.49 38.07 372.52 38.39 372.54 38.74 372.54 39.11 372.52 39.5 372.48 39.91 372.41 40.35 372.32 40.81 372.2 41.46 364.52 41.46 364.98 39.41 369.59 39.41 369.61 39.12 369.61 38.87 369.59 38.62 369.55 38.4 369.49 38.2 369.42 38.01 369.32 37.85 369.21 37.7 369.08 37.57 368.94 37.46 368.8 37.37 368.64 37.3 368.47 37.24 368.29 37.19 368.11 37.17 367.92 37.16 367.71 37.16 367.52 37.19 367.32 37.23 367.14 37.29 366.98 37.37 366.81 37.47 366.66 37.58 366.52 37.7 366.38 37.85 366.27 38.01 366.15 38.18 366.05 38.36 365.96 38.55 365.89 38.76 365.83 38.98 365.77 39.21 365.36 41.42"/><polyline class="cls-12" points="365.36 41.42 365.36 41.42 365.33 41.61 365.32 41.8 365.33 41.99 365.38 42.19 365.44 42.39 365.52 42.59 365.63 42.78 365.76 42.96 365.89 43.14 366.06 43.31 366.23 43.46 366.41 43.6 366.61 43.72 366.82 43.81 367.04 43.89 367.26 43.94 367.26 43.94 367.53 43.98 367.8 44.01 368.07 44.04 368.34 44.06 368.63 44.06 368.9 44.06 369.19 44.05 369.47 44.03 369.76 43.98 370.05 43.93 370.35 43.86 370.64 43.76 370.94 43.65 371.25 43.52 371.56 43.36 371.87 43.18 371.41 45.8 371.41 45.8 371.24 45.89 371.07 45.98 370.91 46.04 370.75 46.1 370.58 46.16 370.42 46.2 370.25 46.24 370.07 46.28 369.88 46.3 369.67 46.32 369.44 46.34 369.19 46.35 368.93 46.37 368.63 46.37 368.31 46.38 367.95 46.38 367.95 46.38 367.69 46.38 367.43 46.36 367.17 46.34 366.9 46.31 366.63 46.28 366.36 46.23 366.1 46.17 365.83 46.12 365.57 46.03 365.31 45.95 365.06 45.86 364.81 45.75 364.56 45.62 364.33 45.49 364.1 45.34 363.88 45.18 363.68 45 363.48 44.81 363.28 44.6 363.11 44.38 362.95 44.13 362.8 43.88 362.67 43.61 362.55 43.32 362.45 43.01 362.37 42.68 362.3 42.34 362.26 41.97 362.23 41.59 362.23 41.19 362.24 40.76 362.28 40.31 362.28 40.31 362.3 40.16 362.32 39.98 362.35 39.8 362.39 39.61 362.43 39.41 362.48 39.21 362.54 38.99 362.6 38.77 362.67 38.54 362.75 38.32 362.85 38.09 362.95 37.86 363.07 37.63 363.19 37.4 363.34 37.17 363.48 36.95 363.65 36.73 363.83 36.52 364.02 36.31 364.24 36.12 364.46 35.93 364.7 35.75 364.96 35.59 365.24 35.43 365.54 35.3 365.86 35.17 366.19 35.06 366.55 34.97 366.92 34.9 367.32 34.85 367.74 34.82 368.18 34.8 368.18 34.8 368.39 34.8 368.6 34.82 368.81 34.83 369.02 34.85 369.24 34.88 369.46 34.93 369.68 34.98 369.89 35.04 370.11 35.11 370.32 35.19 370.52 35.28 370.73 35.38 370.92 35.5 371.11 35.62 371.29 35.77 371.47 35.93 371.63 36.1 371.78 36.28 371.92 36.49 372.05 36.71 372.17 36.94 372.27 37.19 372.36 37.47 372.43 37.76 372.49 38.07 372.52 38.39 372.54 38.74 372.54 39.11 372.52 39.5 372.48 39.91 372.41 40.35 372.32 40.81 372.2 41.46 364.52 41.46 364.98 39.41 369.59 39.41 369.59 39.41 369.61 39.12 369.61 38.87 369.59 38.62 369.55 38.4 369.49 38.2 369.42 38.01 369.32 37.85 369.21 37.7 369.08 37.57 368.94 37.46 368.8 37.37 368.64 37.3 368.47 37.24 368.29 37.19 368.11 37.17 367.92 37.16 367.92 37.16 367.71 37.16 367.52 37.19 367.32 37.23 367.14 37.29 366.98 37.37 366.81 37.47 366.66 37.58 366.52 37.7 366.38 37.85 366.27 38.01 366.15 38.18 366.05 38.36 365.96 38.55 365.89 38.76 365.83 38.98 365.77 39.21 365.36 41.42"/><polygon class="cls-2" points="361.25 44.01 360.83 46.38 358.16 46.38 358.19 46.15 358.21 45.93 358.25 45.73 358.27 45.55 358.31 45.39 358.33 45.26 358.36 45.17 358.39 45.12 358.25 45.28 358.07 45.44 357.87 45.6 357.64 45.75 357.4 45.89 357.13 46.02 356.85 46.14 356.56 46.25 356.26 46.34 355.94 46.43 355.63 46.48 355.32 46.53 355.01 46.55 354.71 46.56 354.41 46.54 354.12 46.49 353.75 46.4 353.42 46.28 353.11 46.14 352.85 45.99 352.61 45.82 352.41 45.63 352.23 45.43 352.08 45.21 351.96 44.98 351.85 44.75 351.77 44.52 351.7 44.27 351.66 44.04 351.63 43.79 351.62 43.56 351.61 43.33 351.64 42.91 351.7 42.52 351.8 42.14 351.94 41.79 352.11 41.45 352.31 41.14 352.54 40.85 352.78 40.58 353.05 40.34 353.34 40.12 353.65 39.92 353.98 39.75 354.32 39.6 354.67 39.49 355.02 39.4 355.38 39.33 355.4 39.33 355.45 39.32 355.53 39.31 355.64 39.3 355.77 39.29 355.91 39.27 356.08 39.25 356.26 39.24 356.43 39.22 356.61 39.2 356.8 39.18 356.98 39.17 357.13 39.15 357.29 39.15 357.43 39.14 357.55 39.14 357.68 39.14 357.8 39.14 357.93 39.14 358.06 39.15 358.19 39.15 358.31 39.15 358.42 39.15 358.54 39.15 358.64 39.16 358.74 39.16 358.82 39.17 358.9 39.17 358.95 39.18 359 39.18 359.03 39.18 359.04 39.18 359.06 39.1 359.11 38.92 359.15 38.72 359.15 38.53 359.13 38.4 359.11 38.27 359.07 38.15 359.02 38.04 358.96 37.94 358.89 37.84 358.81 37.76 358.73 37.67 358.63 37.59 358.53 37.53 358.42 37.48 358.31 37.42 358.19 37.39 358.07 37.35 357.94 37.34 357.82 37.32 357.51 37.31 357.19 37.32 356.86 37.33 356.52 37.35 356.18 37.37 355.84 37.4 355.5 37.44 355.17 37.48 354.85 37.52 354.55 37.57 354.27 37.62 354.01 37.68 353.79 37.74 353.59 37.8 353.44 37.86 353.33 37.92 354.09 35.41 354.31 35.31 354.55 35.21 354.78 35.13 355.04 35.06 355.3 35.01 355.56 34.97 355.84 34.93 356.13 34.9 356.43 34.88 356.73 34.87 357.04 34.86 357.37 34.86 357.7 34.86 358.05 34.86 358.4 34.87 358.77 34.88 359.07 34.91 359.39 34.95 359.73 35.03 360.06 35.13 360.39 35.25 360.73 35.41 361.04 35.59 361.33 35.8 361.61 36.03 361.85 36.29 362.06 36.58 362.22 36.9 362.34 37.25 362.4 37.62 362.41 38.02 362.35 38.46 361.25 44.01"/><polyline class="cls-12" points="361.25 44.01 360.83 46.38 358.16 46.38 358.16 46.38 358.19 46.15 358.21 45.93 358.25 45.73 358.27 45.55 358.31 45.39 358.33 45.26 358.36 45.17 358.39 45.12 358.39 45.12 358.25 45.28 358.07 45.44 357.87 45.6 357.64 45.75 357.4 45.89 357.13 46.02 356.85 46.14 356.56 46.25 356.26 46.34 355.94 46.43 355.63 46.48 355.32 46.53 355.01 46.55 354.71 46.56 354.41 46.54 354.12 46.49 354.12 46.49 353.75 46.4 353.42 46.28 353.11 46.14 352.85 45.99 352.61 45.82 352.41 45.63 352.23 45.43 352.08 45.21 351.96 44.98 351.85 44.75 351.77 44.52 351.7 44.27 351.66 44.04 351.63 43.79 351.62 43.56 351.61 43.33 351.61 43.33 351.64 42.91 351.7 42.52 351.8 42.14 351.94 41.79 352.11 41.45 352.31 41.14 352.54 40.85 352.78 40.58 353.05 40.34 353.34 40.12 353.65 39.92 353.98 39.75 354.32 39.6 354.67 39.49 355.02 39.4 355.38 39.33 355.38 39.33 355.4 39.33 355.45 39.32 355.53 39.31 355.64 39.3 355.77 39.29 355.91 39.27 356.08 39.25 356.26 39.24 356.43 39.22 356.61 39.2 356.8 39.18 356.98 39.17 357.13 39.15 357.29 39.15 357.43 39.14 357.55 39.14 357.55 39.14 357.68 39.14 357.8 39.14 357.93 39.14 358.06 39.15 358.19 39.15 358.31 39.15 358.42 39.15 358.54 39.15 358.64 39.16 358.74 39.16 358.82 39.17 358.9 39.17 358.95 39.18 359 39.18 359.03 39.18 359.04 39.18 359.04 39.18 359.06 39.1 359.11 38.92 359.15 38.72 359.15 38.53 359.15 38.53 359.13 38.4 359.11 38.27 359.07 38.15 359.02 38.04 358.96 37.94 358.89 37.84 358.81 37.76 358.73 37.67 358.63 37.59 358.53 37.53 358.42 37.48 358.31 37.42 358.19 37.39 358.07 37.35 357.94 37.34 357.82 37.32 357.82 37.32 357.51 37.31 357.19 37.32 356.86 37.33 356.52 37.35 356.18 37.37 355.84 37.4 355.5 37.44 355.17 37.48 354.85 37.52 354.55 37.57 354.27 37.62 354.01 37.68 353.79 37.74 353.59 37.8 353.44 37.86 353.33 37.92 354.09 35.41 354.09 35.41 354.31 35.31 354.55 35.21 354.78 35.13 355.04 35.06 355.3 35.01 355.56 34.97 355.84 34.93 356.13 34.9 356.43 34.88 356.73 34.87 357.04 34.86 357.37 34.86 357.7 34.86 358.05 34.86 358.4 34.87 358.77 34.88 358.77 34.88 359.07 34.91 359.39 34.95 359.73 35.03 360.06 35.13 360.39 35.25 360.73 35.41 361.04 35.59 361.33 35.8 361.61 36.03 361.85 36.29 362.06 36.58 362.22 36.9 362.34 37.25 362.4 37.62 362.41 38.02 362.35 38.46 361.25 44.01"/><polygon class="cls-11" points="358.7 41.23 358.69 41.17 358.64 41.13 358.57 41.09 358.48 41.07 358.35 41.05 358.21 41.05 358.06 41.05 357.9 41.05 357.73 41.06 357.55 41.08 357.38 41.11 357.21 41.14 357.05 41.17 356.89 41.2 356.76 41.23 356.64 41.27 356.57 41.28 356.48 41.31 356.38 41.35 356.26 41.4 356.13 41.45 355.99 41.52 355.85 41.6 355.71 41.69 355.57 41.79 355.43 41.9 355.31 42.02 355.2 42.15 355.09 42.29 355.02 42.45 354.96 42.62 354.92 42.79 354.91 43.16 354.96 43.44 355.05 43.66 355.18 43.82 355.35 43.93 355.52 44.01 355.7 44.04 355.88 44.05 356.2 44.04 356.49 44.01 356.77 43.96 357.01 43.9 357.23 43.82 357.43 43.73 357.61 43.63 357.76 43.52 357.9 43.41 358.02 43.28 358.13 43.16 358.21 43.04 358.29 42.91 358.35 42.79 358.39 42.68 358.43 42.56 358.47 42.4 358.5 42.23 358.54 42.05 358.58 41.87 358.61 41.69 358.64 41.53 358.67 41.37 358.7 41.23"/><polygon class="cls-2" points="338.92 46.38 336.03 46.38 338.46 32.44 343.49 32.44 343.99 40.74 347.41 32.44 352.64 32.44 350.2 46.38 347.31 46.38 349.13 35.94 349.02 35.94 344.71 46.38 341.48 46.38 341.44 45.94 341.38 44.78 341.28 43.13 341.17 41.25 341.06 39.34 340.96 37.67 340.9 36.45 340.87 35.94 340.86 35.94 340.83 35.94 340.8 35.94 340.76 35.94 340.73 35.94 340.72 35.94 340.72 35.94 340.75 35.94 338.92 46.38"/><polyline class="cls-12" points="338.92 46.38 336.03 46.38 338.46 32.44 343.49 32.44 343.99 40.74 347.41 32.44 352.64 32.44 350.2 46.38 347.31 46.38 349.13 35.94 349.02 35.94 344.71 46.38 341.48 46.38 341.48 46.38 341.44 45.94 341.38 44.78 341.28 43.13 341.17 41.25 341.06 39.34 340.96 37.67 340.9 36.45 340.87 35.94 340.87 35.94 340.86 35.94 340.83 35.94 340.8 35.94 340.76 35.94 340.73 35.94 340.72 35.94 340.72 35.94 340.75 35.94 338.92 46.38"/><polygon class="cls-2" points="387.25 46.38 390.26 46.38 390.26 46.38 391.29 40.36 391.34 40.12 391.39 39.89 391.45 39.66 391.52 39.45 391.6 39.24 391.71 39.03 391.83 38.84 391.97 38.66 392.14 38.49 392.34 38.35 392.56 38.21 392.82 38.09 393.12 38 393.44 37.92 393.82 37.88 394.23 37.85 394.27 37.85 394.31 37.86 394.37 37.87 394.43 37.87 394.48 37.87 394.52 37.88 394.56 37.89 394.57 37.89 394.58 37.84 394.61 37.72 394.64 37.52 394.7 37.28 394.78 37.01 394.86 36.71 394.95 36.42 395.07 36.14 395.15 35.93 395.24 35.73 395.34 35.53 395.44 35.34 395.53 35.19 395.61 35.06 395.66 34.98 395.67 34.95 395.66 34.95 395.62 34.94 395.57 34.93 395.49 34.91 395.42 34.9 395.33 34.89 395.25 34.88 395.18 34.88 394.85 34.9 394.56 34.94 394.28 35 394.03 35.06 393.79 35.15 393.58 35.25 393.37 35.37 393.19 35.49 393 35.63 392.83 35.79 392.68 35.95 392.51 36.13 392.36 36.31 392.21 36.51 392.06 36.72 391.9 36.94 392.25 35.03 389.24 35 387.25 46.38 387.25 46.38"/><polyline class="cls-12" points="387.25 46.38 390.26 46.38 390.26 46.38 391.29 40.36 391.29 40.36 391.34 40.12 391.39 39.89 391.45 39.66 391.52 39.45 391.6 39.24 391.71 39.03 391.83 38.84 391.97 38.66 392.14 38.49 392.34 38.35 392.56 38.21 392.82 38.09 393.12 38 393.44 37.92 393.82 37.88 394.23 37.85 394.23 37.85 394.27 37.85 394.31 37.86 394.37 37.87 394.43 37.87 394.48 37.87 394.52 37.88 394.56 37.89 394.57 37.89 394.57 37.89 394.58 37.84 394.61 37.72 394.64 37.52 394.7 37.28 394.78 37.01 394.86 36.71 394.95 36.42 395.07 36.14 395.07 36.14 395.15 35.93 395.24 35.73 395.34 35.53 395.44 35.34 395.53 35.19 395.61 35.06 395.66 34.98 395.67 34.95 395.67 34.95 395.66 34.95 395.62 34.94 395.57 34.93 395.49 34.91 395.42 34.9 395.33 34.89 395.25 34.88 395.18 34.88 395.18 34.88 394.85 34.9 394.56 34.94 394.28 35 394.03 35.06 393.79 35.15 393.58 35.25 393.37 35.37 393.19 35.49 393 35.63 392.83 35.79 392.68 35.95 392.51 36.13 392.36 36.31 392.21 36.51 392.06 36.72 391.9 36.94 392.25 35.03 389.24 35 387.25 46.38 387.25 46.38"/><polygon class="cls-2" points="400.28 34.88 400.62 34.88 400.94 34.91 401.26 34.94 401.57 34.98 401.87 35.04 402.15 35.11 402.43 35.2 402.7 35.29 402.96 35.4 403.2 35.52 403.45 35.65 403.67 35.79 403.89 35.94 404.1 36.1 404.29 36.28 404.48 36.46 404.65 36.65 404.82 36.86 404.96 37.07 405.1 37.29 405.24 37.52 405.35 37.76 405.46 38.01 405.55 38.27 405.63 38.52 405.7 38.8 405.76 39.08 405.8 39.37 405.83 39.66 405.84 39.96 405.85 40.27 405.84 40.58 405.82 40.96 405.78 41.32 405.73 41.67 405.66 42.01 405.59 42.34 405.49 42.65 405.38 42.95 405.27 43.24 405.14 43.51 405.01 43.78 404.85 44.03 404.7 44.27 404.53 44.49 404.34 44.71 404.15 44.91 403.95 45.1 403.74 45.28 403.53 45.45 403.3 45.6 403.07 45.75 402.83 45.88 402.57 46 402.32 46.11 402.06 46.2 401.79 46.29 401.51 46.37 401.23 46.43 400.95 46.48 400.65 46.52 400.36 46.54 400.05 46.56 399.75 46.57 399.44 46.56 399.14 46.54 398.86 46.52 398.57 46.47 398.29 46.42 398 46.36 397.74 46.28 397.48 46.2 397.22 46.1 396.98 45.99 396.74 45.87 396.51 45.74 396.29 45.6 396.08 45.44 395.87 45.28 395.68 45.1 395.5 44.92 395.33 44.72 395.17 44.51 395.01 44.29 394.88 44.06 394.75 43.81 394.64 43.56 394.53 43.3 394.44 43.03 394.36 42.74 394.3 42.45 394.24 42.14 394.21 41.83 394.19 41.5 394.18 41.16 394.19 40.81 394.21 40.46 394.24 40.12 394.3 39.78 394.36 39.46 394.44 39.15 394.52 38.85 394.62 38.56 394.73 38.28 394.85 38.01 394.98 37.75 395.13 37.5 395.29 37.26 395.45 37.04 395.63 36.82 395.81 36.62 396.01 36.42 396.21 36.23 396.43 36.06 396.65 35.9 396.88 35.75 397.12 35.62 397.37 35.48 397.63 35.37 397.89 35.27 398.17 35.18 398.44 35.1 398.74 35.03 399.03 34.97 399.33 34.94 399.64 34.9 399.96 34.88 400.28 34.88"/><polyline class="cls-12" points="400.28 34.88 400.28 34.88 400.62 34.88 400.94 34.91 401.26 34.94 401.57 34.98 401.87 35.04 402.15 35.11 402.43 35.2 402.7 35.29 402.96 35.4 403.2 35.52 403.45 35.65 403.67 35.79 403.89 35.94 404.1 36.1 404.29 36.28 404.48 36.46 404.65 36.65 404.82 36.86 404.96 37.07 405.1 37.29 405.24 37.52 405.35 37.76 405.46 38.01 405.55 38.27 405.63 38.52 405.7 38.8 405.76 39.08 405.8 39.37 405.83 39.66 405.84 39.96 405.85 40.27 405.84 40.58 405.84 40.58 405.82 40.96 405.78 41.32 405.73 41.67 405.66 42.01 405.59 42.34 405.49 42.65 405.38 42.95 405.27 43.24 405.14 43.51 405.01 43.78 404.85 44.03 404.7 44.27 404.53 44.49 404.34 44.71 404.15 44.91 403.95 45.1 403.74 45.28 403.53 45.45 403.3 45.6 403.07 45.75 402.83 45.88 402.57 46 402.32 46.11 402.06 46.2 401.79 46.29 401.51 46.37 401.23 46.43 400.95 46.48 400.65 46.52 400.36 46.54 400.05 46.56 399.75 46.57 399.75 46.57 399.44 46.56 399.14 46.54 398.86 46.52 398.57 46.47 398.29 46.42 398 46.36 397.74 46.28 397.48 46.2 397.22 46.1 396.98 45.99 396.74 45.87 396.51 45.74 396.29 45.6 396.08 45.44 395.87 45.28 395.68 45.1 395.5 44.92 395.33 44.72 395.17 44.51 395.01 44.29 394.88 44.06 394.75 43.81 394.64 43.56 394.53 43.3 394.44 43.03 394.36 42.74 394.3 42.45 394.24 42.14 394.21 41.83 394.19 41.5 394.18 41.16 394.19 40.81 394.19 40.81 394.21 40.46 394.24 40.12 394.3 39.78 394.36 39.46 394.44 39.15 394.52 38.85 394.62 38.56 394.73 38.28 394.85 38.01 394.98 37.75 395.13 37.5 395.29 37.26 395.45 37.04 395.63 36.82 395.81 36.62 396.01 36.42 396.21 36.23 396.43 36.06 396.65 35.9 396.88 35.75 397.12 35.62 397.37 35.48 397.63 35.37 397.89 35.27 398.17 35.18 398.44 35.1 398.74 35.03 399.03 34.97 399.33 34.94 399.64 34.9 399.96 34.88 400.28 34.88"/><polygon class="cls-2" points="404.71 45.8 405.58 45.8 405.58 45.92 405.24 45.92 405.24 46.64 405.05 46.64 405.05 45.92 404.71 45.92 404.71 45.8"/><polyline class="cls-12" points="404.71 45.8 405.58 45.8 405.58 45.92 405.24 45.92 405.24 46.64 405.05 46.64 405.05 45.92 404.71 45.92 404.71 45.8"/><polygon class="cls-2" points="405.69 45.8 405.96 45.8 406.27 46.45 406.27 46.45 406.57 45.8 406.84 45.8 406.84 46.64 406.64 46.64 406.64 46 406.64 46 406.34 46.64 406.19 46.64 405.88 46 405.88 46 405.88 46.64 405.69 46.64 405.69 45.8"/><polyline class="cls-12" points="405.69 45.8 405.96 45.8 406.27 46.45 406.27 46.45 406.57 45.8 406.84 45.8 406.84 46.64 406.64 46.64 406.64 46 406.64 46 406.34 46.64 406.19 46.64 405.88 46 405.88 46 405.88 46.64 405.69 46.64 405.69 45.8"/><polygon class="cls-10" points="397.92 40.31 397.88 40.73 397.85 41.11 397.85 41.46 397.88 41.79 397.92 42.08 397.99 42.34 398.07 42.58 398.17 42.79 398.3 42.98 398.44 43.13 398.59 43.27 398.77 43.37 398.95 43.45 399.16 43.51 399.37 43.54 399.6 43.56 399.85 43.55 400.1 43.52 400.33 43.47 400.55 43.39 400.76 43.28 400.95 43.15 401.14 42.99 401.32 42.81 401.47 42.6 401.62 42.36 401.76 42.1 401.88 41.81 401.99 41.49 402.09 41.14 402.16 40.77 402.23 40.36 402.27 40.04 402.29 39.74 402.29 39.44 402.27 39.16 402.23 38.9 402.17 38.65 402.09 38.42 401.99 38.21 401.87 38.01 401.74 37.85 401.58 37.7 401.41 37.59 401.22 37.49 401.01 37.43 400.79 37.39 400.55 37.39 400.24 37.41 399.96 37.47 399.7 37.55 399.46 37.67 399.24 37.81 399.03 37.98 398.85 38.16 398.68 38.37 398.53 38.59 398.39 38.83 398.27 39.06 398.18 39.31 398.09 39.57 398.02 39.82 397.97 40.07 397.92 40.31"/><rect class="cls-13" x="932.82" y="0.67" width="125.43" height="78.39" rx="4.18" ry="4.18"/><path class="cls-14" d="M1382.62,173.33a65,65,0,0,1,40.45-4.06l0.18-4.47c-18.61-2-32,3.89-40.63,8.1v0.44h0Z" transform="translate(-407.56 -128.51)"/><polygon class="cls-6" points="957.92 48.11 966.87 48.11 966.87 50.8 961.31 50.8 961.27 53.29 966.81 53.29 966.81 55.87 961.25 55.87 961.27 58.36 966.75 58.36 966.75 61.06 957.93 61.06 957.92 48.11 957.92 48.11"/><polygon class="cls-6" points="969.11 47.02 972.37 47.02 972.38 61.06 969.13 61.06 969.11 47.02 969.11 47.02"/><path class="cls-6" d="M1391.13,188.5a6.88,6.88,0,0,1-4.29,1.4,4.66,4.66,0,0,1-5-4.85,5.12,5.12,0,0,1,5.07-5.26c3.59,0,4.71,2.55,4.71,5.78h-6.53a2,2,0,0,0,2.26,2,4.17,4.17,0,0,0,2.66-.93l1.09,1.89h0Zm-2.39-4.83a1.61,1.61,0,0,0-1.55-1.85,2.24,2.24,0,0,0-2,1.85h3.57Z" transform="translate(-407.56 -128.51)"/><path class="cls-6" d="M1401.53,188.93a7.4,7.4,0,0,1-3.46,1c-3,0-5.15-1.72-5.15-4.83a5,5,0,0,1,5.35-5.28,6.67,6.67,0,0,1,3.2.82l-1,2.13a4,4,0,0,0-1.53-.37,2.46,2.46,0,0,0-2.71,2.53,2.39,2.39,0,0,0,2.43,2.41,4.09,4.09,0,0,0,1.76-.54l1.16,2.15h0Z" transform="translate(-407.56 -128.51)"/><path class="cls-6" d="M1402.74,180.14h1.47v-3.2h3.14l-0.07,3.2h2.67l-0.05,2.36h-2.68c0,1.31-.09,2.69-0.09,3.5s0.2,1.22.94,1.22a2.35,2.35,0,0,0,1.2-.45L1410,189a6.37,6.37,0,0,1-3.22.93c-2.64,0-2.77-1.66-2.77-3.84,0-1.16.09-2.32,0.09-3.57h-1.4l0.07-2.36h0Z" transform="translate(-407.56 -128.51)"/><path class="cls-6" d="M1411.61,180.14h3.25v1.33h0a2.69,2.69,0,0,1,2.39-1.59,5,5,0,0,1,1.06.11l-0.43,3.22a3.81,3.81,0,0,0-1.16-.19,2.31,2.31,0,0,0-1.93,1.1l-0.05,5.45h-3.26l0.08-9.43h0Z" transform="translate(-407.56 -128.51)"/><path class="cls-6" d="M1424.26,179.8c3.48,0,5.28,2.21,5.28,5.05s-1.8,5.05-5.28,5.05-5.28-2.21-5.28-5.05,1.8-5.05,5.28-5.05h0Zm0,7.63c1.55,0,2-1.35,2-2.58s-0.47-2.58-2-2.58-2,1.35-2,2.58,0.47,2.58,2,2.58h0Z" transform="translate(-407.56 -128.51)"/><path class="cls-6" d="M1431.31,180.14h3.25v1a4.62,4.62,0,0,1,3.05-1.37c2,0,3.09,1.1,3.09,3.69,0,1.93,0,4,0,6.08h-3.26c0-1.82,0-3.65,0-5.59a1.11,1.11,0,0,0-1.18-1.37,3,3,0,0,0-1.7.86l0,6.1h-3.31l0.08-9.43h0Z" transform="translate(-407.56 -128.51)"/><polygon class="cls-6" points="984.7 32.2 988.82 18.64 992.49 18.64 988.37 32.2 984.7 32.2 984.7 32.2"/><path class="cls-6" d="M1390.62,147.15l-3.3,5.75a14,14,0,0,0-1.57,3.22h0c0.06-1.21-.11-2.69-0.13-3.52l-0.37-5.44H1379l-0.06.37a2.56,2.56,0,0,1,2.79,2.43l1.2,10.77h3.8l7.69-13.56h-3.83Z" transform="translate(-407.56 -128.51)"/><path class="cls-6" d="M1419.17,160.71l-0.1-2h-4.58l-0.94,2h-4l7.22-13.54h4.89l1.22,13.54h-3.73Zm-0.42-8a31.6,31.6,0,0,1,0-3.19h-0.05c-0.22.67-1.18,2.7-1.6,3.69l-1.37,3h3.22l-0.19-3.48h0Z" transform="translate(-407.56 -128.51)"/><path class="cls-6" d="M1403.9,161.09a10.26,10.26,0,0,1-5.54-1.56l1.75-2.67a6.76,6.76,0,0,0,4,1.33,1.7,1.7,0,0,0,1.61-.77c0.51-.88-0.12-1.36-1.55-2.17l-0.71-.46c-2.12-1.45-3-2.83-2-5.24,0.64-1.54,2.33-2.71,5.12-2.71a8.22,8.22,0,0,1,4.77,1.64l-2,2.36a4.46,4.46,0,0,0-2.85-1.25,1.71,1.71,0,0,0-1.56.7c-0.38.76,0.12,1.27,1.24,2l0.84,0.54c2.58,1.63,3.2,3.33,2.55,4.93-1.11,2.75-3.29,3.36-5.57,3.36h0Z" transform="translate(-407.56 -128.51)"/><rect class="cls-7" x="153.3" y="0.13" width="125.43" height="78.39" rx="4.18" ry="4.18"/><polygon class="cls-15" points="231.07 61.83 232.23 61.8 233.38 61.72 234.5 61.58 235.62 61.38 236.71 61.13 237.78 60.83 238.82 60.47 239.85 60.07 240.85 59.61 241.82 59.12 242.76 58.57 243.68 57.99 244.56 57.36 245.41 56.69 246.23 55.98 247.01 55.23 247.76 54.45 248.47 53.63 249.14 52.78 249.77 51.9 250.35 50.98 250.9 50.04 251.39 49.07 251.85 48.06 252.25 47.04 252.61 45.99 252.91 44.92 253.16 43.84 253.36 42.72 253.5 41.6 253.59 40.45 253.62 39.29 253.59 38.14 253.5 37 253.36 35.87 253.16 34.77 252.91 33.69 252.61 32.63 252.25 31.58 251.85 30.56 251.39 29.57 250.9 28.59 250.35 27.66 249.77 26.74 249.14 25.86 248.47 25.02 247.76 24.2 247.01 23.42 246.23 22.67 245.41 21.97 244.56 21.3 243.68 20.67 242.76 20.09 241.82 19.55 240.85 19.05 239.85 18.6 238.82 18.2 237.78 17.84 236.71 17.54 235.62 17.29 234.5 17.09 233.38 16.94 232.23 16.86 231.07 16.83 229.92 16.86 228.77 16.94 227.65 17.09 226.54 17.29 225.45 17.54 224.38 17.84 223.34 18.2 222.32 18.6 221.32 19.05 220.36 19.55 219.42 20.09 218.51 20.67 217.63 21.3 216.78 21.97 215.97 22.67 215.18 23.42 214.44 24.2 213.73 25.02 213.07 25.86 212.44 26.74 211.86 27.66 211.32 28.59 210.82 29.57 210.37 30.56 209.97 31.58 209.62 32.63 209.32 33.69 209.06 34.77 208.87 35.87 208.72 37 208.64 38.14 208.61 39.29 208.64 40.45 208.72 41.6 208.87 42.72 209.06 43.84 209.32 44.92 209.62 45.99 209.97 47.04 210.37 48.06 210.82 49.07 211.32 50.04 211.86 50.98 212.44 51.9 213.07 52.78 213.73 53.63 214.44 54.45 215.18 55.23 215.97 55.98 216.78 56.69 217.63 57.36 218.51 57.99 219.42 58.57 220.36 59.12 221.32 59.61 222.32 60.07 223.34 60.47 224.38 60.83 225.45 61.13 226.54 61.38 227.65 61.58 228.77 61.72 229.92 61.8 231.07 61.83 231.07 61.83 231.07 61.83"/><polygon class="cls-16" points="200.97 61.83 202.12 61.8 203.27 61.72 204.39 61.58 205.5 61.38 206.58 61.13 207.65 60.83 208.69 60.47 209.72 60.07 210.71 59.61 211.68 59.12 212.62 58.57 213.53 57.99 214.41 57.36 215.26 56.69 216.07 55.98 216.85 55.23 217.6 54.45 218.31 53.63 218.97 52.78 219.59 51.9 220.18 50.98 220.72 50.04 221.22 49.07 221.67 48.06 222.07 47.04 222.42 45.99 222.72 44.92 222.97 43.84 223.17 42.72 223.31 41.6 223.4 40.45 223.43 39.29 223.4 38.14 223.31 37 223.17 35.87 222.97 34.77 222.72 33.69 222.42 32.63 222.07 31.58 221.67 30.56 221.22 29.57 220.72 28.59 220.18 27.66 219.59 26.74 218.97 25.86 218.31 25.02 217.6 24.2 216.85 23.42 216.07 22.67 215.26 21.97 214.41 21.3 213.53 20.67 212.62 20.09 211.68 19.55 210.71 19.05 209.72 18.6 208.69 18.2 207.65 17.84 206.58 17.54 205.5 17.29 204.39 17.09 203.27 16.94 202.12 16.86 200.97 16.83 199.81 16.86 198.66 16.94 197.53 17.09 196.42 17.29 195.33 17.54 194.26 17.84 193.22 18.2 192.19 18.6 191.19 19.05 190.22 19.55 189.28 20.09 188.36 20.67 187.48 21.3 186.63 21.97 185.81 22.67 185.03 23.42 184.27 24.2 183.57 25.02 182.9 25.86 182.27 26.74 181.69 27.66 181.14 28.59 180.65 29.57 180.19 30.56 179.79 31.58 179.43 32.63 179.13 33.69 178.88 34.77 178.68 35.87 178.53 37 178.45 38.14 178.42 39.29 178.45 40.45 178.53 41.6 178.68 42.72 178.88 43.84 179.13 44.92 179.43 45.99 179.79 47.04 180.19 48.06 180.65 49.07 181.14 50.04 181.69 50.98 182.27 51.9 182.9 52.78 183.57 53.63 184.27 54.45 185.03 55.23 185.81 55.98 186.63 56.69 187.48 57.36 188.36 57.99 189.28 58.57 190.22 59.12 191.19 59.61 192.19 60.07 193.22 60.47 194.26 60.83 195.33 61.13 196.42 61.38 197.53 61.58 198.66 61.72 199.81 61.8 200.97 61.83 200.97 61.83 200.97 61.83"/><polygon class="cls-15" points="213.38 25.46 225.34 25.46 225.34 24.24 214.42 24.24 213.38 25.46 213.38 25.46 213.38 25.46"/><polygon class="cls-15" points="211.59 28.18 225.34 28.18 225.34 26.95 212.31 26.95 211.59 28.18 211.59 28.18 211.59 28.18"/><polygon class="cls-15" points="210.26 30.89 225.34 30.89 225.34 29.66 210.79 29.66 210.26 30.89 210.26 30.89 210.26 30.89"/><polygon class="cls-15" points="209.34 33.6 225.34 33.6 225.34 32.38 209.72 32.38 209.34 33.6 209.34 33.6 209.34 33.6"/><polygon class="cls-15" points="209.87 46.74 225.38 46.74 225.38 45.52 209.49 45.52 209.87 46.74 209.87 46.74 209.87 46.74"/><polygon class="cls-15" points="211.02 49.45 225.38 49.45 225.38 48.23 210.45 48.23 211.02 49.45 211.02 49.45 211.02 49.45"/><polygon class="cls-15" points="212.63 52.16 225.38 52.16 225.38 50.94 211.86 50.94 212.63 52.16 212.63 52.16 212.63 52.16"/><polygon class="cls-15" points="214.84 54.88 225.38 54.88 225.38 53.65 213.77 53.65 214.84 54.88 214.84 54.88 214.84 54.88"/><polygon class="cls-15" points="208.8 36.31 225.34 36.31 225.34 35.09 209.03 35.09 208.8 36.31 208.8 36.31 208.8 36.31"/><polygon class="cls-15" points="218.88 44.03 225.19 44.03 225.19 42.8 219.11 42.8 218.88 44.03 218.88 44.03 218.88 44.03"/><polygon class="cls-15" points="219.38 41.32 225.19 41.32 225.19 40.09 219.61 40.09 219.38 41.32 219.38 41.32 219.38 41.32"/><polygon class="cls-15" points="208.38 40.09 210.02 40.09 210.02 41.32 208.46 41.32 208.38 40.09 208.38 40.09 208.38 40.09"/><polygon class="cls-6" points="205.32 38.61 205.22 38.6 205.11 38.58 205.01 38.57 204.91 38.55 204.82 38.54 204.72 38.52 204.63 38.51 204.52 38.49 204.41 38.48 204.29 38.47 204.15 38.46 204.01 38.45 203.85 38.45 203.68 38.46 203.48 38.48 203.26 38.49 203.11 38.52 202.96 38.54 202.83 38.58 202.72 38.63 202.61 38.68 202.52 38.74 202.44 38.82 202.37 38.89 202.32 38.97 202.28 39.05 202.27 39.15 202.27 39.24 202.29 39.34 202.32 39.43 202.38 39.53 202.46 39.63 202.61 39.77 202.8 39.89 203.01 39.99 203.24 40.07 203.48 40.15 203.73 40.23 203.98 40.32 204.22 40.42 204.45 40.55 204.66 40.71 204.85 40.9 205.01 41.13 205.13 41.42 205.21 41.77 205.24 42.17 205.21 42.65 205.16 43.01 205.06 43.32 204.94 43.61 204.79 43.86 204.62 44.08 204.42 44.27 204.21 44.44 203.97 44.58 203.73 44.7 203.48 44.79 203.22 44.87 202.96 44.93 202.7 44.98 202.44 45 202.19 45.01 201.96 45.02 201.63 45.02 201.33 45.01 201.06 45.01 200.81 45.01 200.59 45 200.38 44.98 200.2 44.97 200.03 44.95 199.87 44.93 199.72 44.9 199.58 44.88 199.45 44.84 199.32 44.81 199.2 44.76 199.08 44.72 198.95 44.67 199.29 42.99 199.36 43.01 199.44 43.03 199.55 43.06 199.68 43.09 199.81 43.12 199.96 43.15 200.13 43.19 200.31 43.22 200.5 43.25 200.7 43.28 200.91 43.3 201.12 43.33 201.34 43.34 201.56 43.34 201.78 43.34 202 43.34 202.22 43.29 202.4 43.23 202.53 43.15 202.64 43.04 202.71 42.93 202.77 42.81 202.81 42.69 202.84 42.58 202.86 42.36 202.79 42.17 202.66 42.01 202.47 41.89 202.24 41.77 201.97 41.66 201.68 41.55 201.38 41.43 201.08 41.29 200.79 41.13 200.53 40.94 200.28 40.7 200.09 40.41 199.96 40.07 199.89 39.66 199.9 39.18 199.93 38.88 199.99 38.6 200.06 38.34 200.15 38.1 200.28 37.87 200.41 37.67 200.57 37.48 200.76 37.32 200.98 37.17 201.22 37.05 201.5 36.94 201.8 36.85 202.14 36.78 202.52 36.73 202.92 36.7 203.37 36.69 203.65 36.69 203.91 36.7 204.15 36.71 204.36 36.72 204.55 36.73 204.72 36.75 204.88 36.76 205.01 36.78 205.14 36.79 205.25 36.81 205.35 36.83 205.44 36.85 205.51 36.86 205.58 36.87 205.65 36.88 205.71 36.89 205.32 38.61 205.32 38.61 205.32 38.61"/><polyline class="cls-17" points="205.32 38.61 205.32 38.61 205.22 38.6 205.11 38.58 205.01 38.57 204.91 38.55 204.82 38.54 204.72 38.52 204.63 38.51 204.52 38.49 204.41 38.48 204.29 38.47 204.15 38.46 204.01 38.45 203.85 38.45 203.68 38.46 203.48 38.48 203.26 38.49 203.26 38.49 203.11 38.52 202.96 38.54 202.83 38.58 202.72 38.63 202.61 38.68 202.52 38.74 202.44 38.82 202.37 38.89 202.32 38.97 202.28 39.05 202.27 39.15 202.27 39.24 202.29 39.34 202.32 39.43 202.38 39.53 202.46 39.63 202.46 39.63 202.61 39.77 202.8 39.89 203.01 39.99 203.24 40.07 203.48 40.15 203.73 40.23 203.98 40.32 204.22 40.42 204.45 40.55 204.66 40.71 204.85 40.9 205.01 41.13 205.13 41.42 205.21 41.77 205.24 42.17 205.21 42.65 205.21 42.65 205.16 43.01 205.06 43.32 204.94 43.61 204.79 43.86 204.62 44.08 204.42 44.27 204.21 44.44 203.97 44.58 203.73 44.7 203.48 44.79 203.22 44.87 202.96 44.93 202.7 44.98 202.44 45 202.19 45.01 201.96 45.02 201.96 45.02 201.63 45.02 201.33 45.01 201.06 45.01 200.81 45.01 200.59 45 200.38 44.98 200.2 44.97 200.03 44.95 199.87 44.93 199.72 44.9 199.58 44.88 199.45 44.84 199.32 44.81 199.2 44.76 199.08 44.72 198.95 44.67 199.29 42.99 199.29 42.99 199.36 43.01 199.44 43.03 199.55 43.06 199.68 43.09 199.81 43.12 199.96 43.15 200.13 43.19 200.31 43.22 200.5 43.25 200.7 43.28 200.91 43.3 201.12 43.33 201.34 43.34 201.56 43.34 201.78 43.34 202 43.34 202 43.34 202.22 43.29 202.4 43.23 202.53 43.15 202.64 43.04 202.71 42.93 202.77 42.81 202.81 42.69 202.84 42.58 202.84 42.58 202.86 42.36 202.79 42.17 202.66 42.01 202.47 41.89 202.24 41.77 201.97 41.66 201.68 41.55 201.38 41.43 201.08 41.29 200.79 41.13 200.53 40.94 200.28 40.7 200.09 40.41 199.96 40.07 199.89 39.66 199.9 39.18 199.9 39.18 199.93 38.88 199.99 38.6 200.06 38.34 200.15 38.1 200.28 37.87 200.41 37.67 200.57 37.48 200.76 37.32 200.98 37.17 201.22 37.05 201.5 36.94 201.8 36.85 202.14 36.78 202.52 36.73 202.92 36.7 203.37 36.69 203.37 36.69 203.65 36.69 203.91 36.7 204.15 36.71 204.36 36.72 204.55 36.73 204.72 36.75 204.88 36.76 205.01 36.78 205.14 36.79 205.25 36.81 205.35 36.83 205.44 36.85 205.51 36.86 205.58 36.87 205.65 36.88 205.71 36.89 205.32 38.61"/><polygon class="cls-6" points="207.12 35.02 209.22 35.02 208.91 36.85 210.18 36.85 209.91 38.57 208.57 38.53 207.84 42.77 207.84 42.92 207.87 43.05 207.95 43.15 208.05 43.23 208.19 43.28 208.34 43.33 208.5 43.36 208.69 43.37 208.85 43.37 209.01 43.35 209.14 43.33 209.26 43.3 209.36 43.27 209.43 43.24 209.47 43.23 209.49 43.22 209.22 44.63 209.17 44.67 209.12 44.7 209.06 44.73 209.01 44.76 208.96 44.78 208.9 44.81 208.83 44.83 208.76 44.85 208.69 44.88 208.61 44.89 208.52 44.91 208.43 44.92 208.33 44.94 208.22 44.95 208.09 44.97 207.97 44.98 207.39 44.98 207.08 44.96 206.82 44.93 206.58 44.88 206.37 44.83 206.19 44.76 206.05 44.69 205.92 44.6 205.82 44.5 205.75 44.39 205.69 44.26 205.66 44.13 205.63 43.99 205.63 43.83 205.63 43.66 205.65 43.49 205.67 43.3 207.12 35.02 207.12 35.02 207.12 35.02"/><polyline class="cls-17" points="207.12 35.02 209.22 35.02 208.91 36.85 210.18 36.85 209.91 38.57 208.57 38.53 207.84 42.77 207.84 42.77 207.84 42.92 207.87 43.05 207.95 43.15 208.05 43.23 208.19 43.28 208.34 43.33 208.5 43.36 208.69 43.37 208.69 43.37 208.85 43.37 209.01 43.35 209.14 43.33 209.26 43.3 209.36 43.27 209.43 43.24 209.47 43.23 209.49 43.22 209.22 44.63 209.22 44.63 209.17 44.67 209.12 44.7 209.06 44.73 209.01 44.76 208.96 44.78 208.9 44.81 208.83 44.83 208.76 44.85 208.69 44.88 208.61 44.89 208.52 44.91 208.43 44.92 208.33 44.94 208.22 44.95 208.09 44.97 207.97 44.98 207.39 44.98 207.39 44.98 207.08 44.96 206.82 44.93 206.58 44.88 206.37 44.83 206.19 44.76 206.05 44.69 205.92 44.6 205.82 44.5 205.75 44.39 205.69 44.26 205.66 44.13 205.63 43.99 205.63 43.83 205.63 43.66 205.65 43.49 205.67 43.3 207.12 35.02"/><polyline class="cls-17" points="211.86 41.43 211.86 41.43 211.84 41.56 211.83 41.7 211.84 41.84 211.87 41.98 211.93 42.13 211.99 42.27 212.07 42.41 212.16 42.54 212.27 42.67 212.38 42.78 212.5 42.9 212.64 42.99 212.78 43.07 212.93 43.14 213.08 43.19 213.23 43.22 213.23 43.22 213.43 43.25 213.62 43.27 213.82 43.3 214.02 43.31 214.21 43.32 214.42 43.32 214.62 43.31 214.82 43.3 215.02 43.27 215.23 43.23 215.44 43.18 215.65 43.12 215.86 43.03 216.08 42.94 216.29 42.82 216.51 42.69 216.21 44.56 216.21 44.56 216.09 44.62 215.97 44.68 215.84 44.73 215.73 44.77 215.62 44.81 215.49 44.85 215.37 44.88 215.24 44.9 215.11 44.92 214.96 44.94 214.8 44.95 214.62 44.97 214.42 44.98 214.22 44.98 213.98 44.98 213.73 44.98 213.73 44.98 213.36 44.98 212.98 44.94 212.6 44.88 212.22 44.79 211.85 44.68 211.49 44.53 211.15 44.35 210.83 44.13 210.54 43.87 210.28 43.56 210.06 43.21 209.88 42.8 209.75 42.36 209.66 41.85 209.64 41.29 209.68 40.66 209.68 40.66 209.71 40.42 209.76 40.14 209.82 39.84 209.9 39.52 210.02 39.2 210.15 38.87 210.33 38.54 210.54 38.22 210.78 37.92 211.08 37.63 211.41 37.37 211.79 37.14 212.23 36.95 212.72 36.81 213.27 36.73 213.89 36.69 213.89 36.69 214.18 36.7 214.49 36.73 214.8 36.78 215.12 36.86 215.42 36.98 215.72 37.11 215.99 37.29 216.24 37.51 216.47 37.77 216.66 38.07 216.81 38.42 216.91 38.82 216.97 39.27 216.98 39.79 216.93 40.37 216.82 41.01 216.78 41.47 211.24 41.47 211.59 39.97 214.92 39.97 214.92 39.97 214.93 39.78 214.93 39.6 214.91 39.43 214.88 39.28 214.83 39.14 214.77 39.01 214.7 38.9 214.62 38.79 214.53 38.7 214.43 38.62 214.32 38.55 214.2 38.49 214.08 38.45 213.96 38.42 213.83 38.4 213.7 38.38 213.7 38.38 213.55 38.39 213.42 38.41 213.29 38.44 213.16 38.48 213.03 38.55 212.91 38.62 212.8 38.7 212.7 38.79 212.6 38.9 212.51 39.01 212.43 39.13 212.36 39.26 212.29 39.4 212.24 39.55 212.19 39.7 212.16 39.86 211.86 41.43"/><polygon class="cls-6" points="229.96 37.31 229.86 37.26 229.77 37.21 229.66 37.16 229.54 37.1 229.43 37.06 229.3 37.01 229.17 36.97 229.04 36.92 228.89 36.88 228.75 36.85 228.59 36.82 228.43 36.8 228.26 36.78 228.08 36.77 227.9 36.77 227.71 36.77 227.52 36.77 227.32 36.78 227.12 36.81 226.9 36.85 226.69 36.91 226.48 36.99 226.27 37.1 226.05 37.23 225.85 37.4 225.65 37.6 225.46 37.84 225.28 38.12 225.11 38.45 224.95 38.83 224.81 39.26 224.69 39.75 224.64 40.02 224.61 40.28 224.6 40.55 224.6 40.81 224.63 41.07 224.68 41.31 224.75 41.54 224.83 41.77 224.94 41.97 225.08 42.17 225.24 42.34 225.42 42.5 225.63 42.64 225.86 42.75 226.12 42.85 226.41 42.92 226.51 42.94 226.62 42.96 226.76 42.98 226.91 42.99 227.08 43.01 227.25 43.01 227.44 43.01 227.63 42.99 227.83 42.97 228.03 42.93 228.22 42.88 228.41 42.82 228.6 42.74 228.77 42.64 228.93 42.52 229.08 42.38 228.74 44.41 228.69 44.44 228.65 44.49 228.59 44.54 228.52 44.59 228.44 44.65 228.33 44.7 228.21 44.76 228.07 44.8 227.9 44.85 227.7 44.89 227.47 44.92 227.21 44.95 226.91 44.97 226.57 44.98 226.18 44.97 225.76 44.95 225.41 44.91 225.06 44.83 224.71 44.72 224.36 44.56 224.03 44.38 223.71 44.16 223.4 43.89 223.12 43.59 222.87 43.24 222.66 42.87 222.48 42.44 222.34 41.98 222.25 41.47 222.22 40.93 222.24 40.34 222.32 39.71 222.38 39.4 222.45 39.09 222.52 38.8 222.6 38.52 222.68 38.25 222.78 37.98 222.88 37.73 222.99 37.5 223.1 37.26 223.22 37.04 223.34 36.83 223.48 36.63 223.62 36.44 223.77 36.26 223.92 36.09 224.08 35.94 224.25 35.78 224.43 35.64 224.61 35.51 224.8 35.39 225.01 35.27 225.21 35.18 225.42 35.09 225.65 35 225.88 34.92 226.11 34.87 226.36 34.81 226.62 34.77 226.87 34.73 227.15 34.7 227.42 34.68 227.71 34.67 227.95 34.68 228.19 34.7 228.41 34.72 228.64 34.75 228.86 34.78 229.06 34.83 229.26 34.87 229.44 34.91 229.61 34.96 229.77 35 229.91 35.05 230.03 35.09 230.14 35.13 230.23 35.16 230.3 35.19 230.34 35.21 229.96 37.31 229.96 37.31 229.96 37.31"/><polyline class="cls-17" points="229.96 37.31 229.96 37.31 229.86 37.26 229.77 37.21 229.66 37.16 229.54 37.1 229.43 37.06 229.3 37.01 229.17 36.97 229.04 36.92 228.89 36.88 228.75 36.85 228.59 36.82 228.43 36.8 228.26 36.78 228.08 36.77 227.9 36.77 227.71 36.77 227.71 36.77 227.52 36.77 227.32 36.78 227.12 36.81 226.9 36.85 226.69 36.91 226.48 36.99 226.27 37.1 226.05 37.23 225.85 37.4 225.65 37.6 225.46 37.84 225.28 38.12 225.11 38.45 224.95 38.83 224.81 39.26 224.69 39.75 224.69 39.75 224.64 40.02 224.61 40.28 224.6 40.55 224.6 40.81 224.63 41.07 224.68 41.31 224.75 41.54 224.83 41.77 224.94 41.97 225.08 42.17 225.24 42.34 225.42 42.5 225.63 42.64 225.86 42.75 226.12 42.85 226.41 42.92 226.41 42.92 226.51 42.94 226.62 42.96 226.76 42.98 226.91 42.99 227.08 43.01 227.25 43.01 227.44 43.01 227.63 42.99 227.83 42.97 228.03 42.93 228.22 42.88 228.41 42.82 228.6 42.74 228.77 42.64 228.93 42.52 229.08 42.38 228.74 44.41 228.74 44.41 228.69 44.44 228.65 44.49 228.59 44.54 228.52 44.59 228.44 44.65 228.33 44.7 228.21 44.76 228.07 44.8 227.9 44.85 227.7 44.89 227.47 44.92 227.21 44.95 226.91 44.97 226.57 44.98 226.18 44.97 225.76 44.95 225.76 44.95 225.41 44.91 225.06 44.83 224.71 44.72 224.36 44.56 224.03 44.38 223.71 44.16 223.4 43.89 223.12 43.59 222.87 43.24 222.66 42.87 222.48 42.44 222.34 41.98 222.25 41.47 222.22 40.93 222.24 40.34 222.32 39.71 222.32 39.71 222.38 39.4 222.45 39.09 222.52 38.8 222.6 38.52 222.68 38.25 222.78 37.98 222.88 37.73 222.99 37.5 223.1 37.26 223.22 37.04 223.34 36.83 223.48 36.63 223.62 36.44 223.77 36.26 223.92 36.09 224.08 35.94 224.25 35.78 224.43 35.64 224.61 35.51 224.8 35.39 225.01 35.27 225.21 35.18 225.42 35.09 225.65 35 225.88 34.92 226.11 34.87 226.36 34.81 226.62 34.77 226.87 34.73 227.15 34.7 227.42 34.68 227.71 34.67 227.71 34.67 227.95 34.68 228.19 34.7 228.41 34.72 228.64 34.75 228.86 34.78 229.06 34.83 229.26 34.87 229.44 34.91 229.61 34.96 229.77 35 229.91 35.05 230.03 35.09 230.14 35.13 230.23 35.16 230.3 35.19 230.34 35.21 229.96 37.31"/><polygon class="cls-6" points="248.65 44.98 246.55 44.98 246.7 44.14 246.7 44.06 246.58 44.22 246.45 44.35 246.32 44.47 246.19 44.58 246.05 44.68 245.91 44.76 245.77 44.83 245.63 44.9 245.49 44.95 245.34 44.99 245.2 45.03 245.04 45.05 244.89 45.07 244.75 45.09 244.6 45.1 244.44 45.1 244.05 45.07 243.69 44.98 243.35 44.85 243.05 44.68 242.78 44.46 242.53 44.2 242.32 43.92 242.14 43.6 241.99 43.26 241.87 42.9 241.78 42.53 241.72 42.14 241.7 41.76 241.71 41.36 241.74 40.98 241.81 40.59 241.93 40.14 242.06 39.72 242.22 39.33 242.41 38.96 242.61 38.62 242.84 38.32 243.07 38.05 243.32 37.8 243.59 37.57 243.87 37.38 244.16 37.22 244.44 37.09 244.75 36.98 245.05 36.91 245.36 36.87 245.67 36.85 245.89 36.86 246.1 36.88 246.3 36.92 246.48 36.98 246.65 37.04 246.81 37.1 246.96 37.19 247.1 37.27 247.22 37.36 247.33 37.46 247.43 37.56 247.52 37.66 247.6 37.76 247.67 37.85 247.72 37.95 247.77 38.04 247.77 38.04 248.3 35.05 250.37 35.05 248.65 44.98 248.65 44.98 248.65 44.98"/><polyline class="cls-17" points="248.65 44.98 246.55 44.98 246.7 44.14 246.7 44.06 246.7 44.06 246.58 44.22 246.45 44.35 246.32 44.47 246.19 44.58 246.05 44.68 245.91 44.76 245.77 44.83 245.63 44.9 245.49 44.95 245.34 44.99 245.2 45.03 245.04 45.05 244.89 45.07 244.75 45.09 244.6 45.1 244.44 45.1 244.44 45.1 244.05 45.07 243.69 44.98 243.35 44.85 243.05 44.68 242.78 44.46 242.53 44.2 242.32 43.92 242.14 43.6 241.99 43.26 241.87 42.9 241.78 42.53 241.72 42.14 241.7 41.76 241.71 41.36 241.74 40.98 241.81 40.59 241.81 40.59 241.93 40.14 242.06 39.72 242.22 39.33 242.41 38.96 242.61 38.62 242.84 38.32 243.07 38.05 243.32 37.8 243.59 37.57 243.87 37.38 244.16 37.22 244.44 37.09 244.75 36.98 245.05 36.91 245.36 36.87 245.67 36.85 245.67 36.85 245.89 36.86 246.1 36.88 246.3 36.92 246.48 36.98 246.65 37.04 246.81 37.1 246.96 37.19 247.1 37.27 247.22 37.36 247.33 37.46 247.43 37.56 247.52 37.66 247.6 37.76 247.67 37.85 247.72 37.95 247.77 38.04 247.77 38.04 248.3 35.05 250.37 35.05 248.65 44.98"/><polygon class="cls-15" points="245.21 43.15 245.43 43.13 245.62 43.09 245.81 43.03 245.98 42.95 246.14 42.86 246.29 42.74 246.43 42.62 246.56 42.48 246.68 42.33 246.78 42.16 246.88 41.98 246.97 41.8 247.04 41.61 247.1 41.42 247.16 41.21 247.19 41.01 247.23 40.79 247.26 40.57 247.26 40.37 247.25 40.16 247.22 39.96 247.19 39.77 247.14 39.59 247.08 39.41 247 39.26 246.91 39.12 246.81 38.99 246.7 38.89 246.57 38.8 246.43 38.74 246.29 38.7 246.13 38.68 245.93 38.7 245.74 38.73 245.56 38.79 245.39 38.87 245.23 38.96 245.08 39.09 244.96 39.21 244.83 39.36 244.71 39.52 244.61 39.7 244.51 39.88 244.42 40.08 244.35 40.28 244.29 40.49 244.23 40.71 244.18 40.93 244.14 41.26 244.16 41.63 244.21 42 244.31 42.36 244.46 42.67 244.66 42.92 244.91 43.09 245.21 43.15 245.21 43.15 245.21 43.15"/><polygon class="cls-6" points="198.6 43.3 198.29 44.98 196.38 44.98 196.43 44.67 196.47 44.39 196.5 44.18 196.53 44.06 196.43 44.19 196.31 44.31 196.16 44.42 196 44.53 195.82 44.63 195.63 44.73 195.43 44.82 195.23 44.89 195.01 44.96 194.79 45.01 194.57 45.06 194.34 45.09 194.12 45.1 193.9 45.11 193.69 45.09 193.48 45.06 193.22 44.99 192.97 44.91 192.76 44.82 192.57 44.7 192.4 44.58 192.25 44.44 192.13 44.3 192.02 44.15 191.93 43.99 191.86 43.82 191.8 43.66 191.75 43.49 191.72 43.31 191.7 43.14 191.68 42.97 191.68 42.8 191.71 42.51 191.75 42.23 191.83 41.96 191.93 41.7 192.05 41.46 192.18 41.24 192.34 41.03 192.53 40.84 192.72 40.66 192.93 40.5 193.15 40.36 193.38 40.24 193.62 40.13 193.87 40.05 194.13 39.98 194.39 39.94 194.41 39.94 194.44 39.93 194.5 39.92 194.58 39.91 194.67 39.9 194.78 39.89 194.89 39.87 195.02 39.86 195.15 39.84 195.28 39.83 195.42 39.82 195.54 39.81 195.66 39.8 195.77 39.79 195.88 39.78 195.96 39.78 196.14 39.78 196.32 39.79 196.49 39.8 196.65 39.8 196.79 39.81 196.9 39.81 196.97 39.82 197 39.82 197.01 39.77 197.06 39.63 197.1 39.47 197.11 39.33 197.08 39.16 197.01 39.01 196.92 38.87 196.8 38.76 196.65 38.66 196.5 38.59 196.31 38.55 196.12 38.53 195.9 38.52 195.67 38.52 195.44 38.52 195.2 38.52 194.95 38.54 194.7 38.56 194.46 38.58 194.22 38.62 194 38.65 193.78 38.68 193.58 38.72 193.4 38.76 193.23 38.8 193.1 38.85 192.99 38.9 192.9 38.95 193.44 37.12 193.61 37.05 193.78 36.99 193.96 36.94 194.14 36.9 194.32 36.86 194.52 36.83 194.72 36.8 194.92 36.78 195.14 36.77 195.36 36.76 195.58 36.75 195.82 36.75 196.06 36.75 196.31 36.75 196.58 36.76 196.84 36.77 197.06 36.78 197.28 36.82 197.52 36.88 197.76 36.95 198 37.04 198.23 37.14 198.45 37.27 198.67 37.41 198.86 37.58 199.02 37.77 199.18 37.97 199.29 38.2 199.37 38.44 199.41 38.7 199.41 38.99 199.37 39.29 198.6 43.3 198.6 43.3 198.6 43.3"/><polyline class="cls-17" points="198.6 43.3 198.29 44.98 196.38 44.98 196.38 44.98 196.43 44.67 196.47 44.39 196.5 44.18 196.53 44.06 196.53 44.06 196.43 44.19 196.31 44.31 196.16 44.42 196 44.53 195.82 44.63 195.63 44.73 195.43 44.82 195.23 44.89 195.01 44.96 194.79 45.01 194.57 45.06 194.34 45.09 194.12 45.1 193.9 45.11 193.69 45.09 193.48 45.06 193.48 45.06 193.22 44.99 192.97 44.91 192.76 44.82 192.57 44.7 192.4 44.58 192.25 44.44 192.13 44.3 192.02 44.15 191.93 43.99 191.86 43.82 191.8 43.66 191.75 43.49 191.72 43.31 191.7 43.14 191.68 42.97 191.68 42.8 191.68 42.8 191.71 42.51 191.75 42.23 191.83 41.96 191.93 41.7 192.05 41.46 192.18 41.24 192.34 41.03 192.53 40.84 192.72 40.66 192.93 40.5 193.15 40.36 193.38 40.24 193.62 40.13 193.87 40.05 194.13 39.98 194.39 39.94 194.39 39.94 194.41 39.94 194.44 39.93 194.5 39.92 194.58 39.91 194.67 39.9 194.78 39.89 194.89 39.87 195.02 39.86 195.15 39.84 195.28 39.83 195.42 39.82 195.54 39.81 195.66 39.8 195.77 39.79 195.88 39.78 195.96 39.78 195.96 39.78 196.14 39.78 196.32 39.79 196.49 39.8 196.65 39.8 196.79 39.81 196.9 39.81 196.97 39.82 197 39.82 197 39.82 197.01 39.77 197.06 39.63 197.1 39.47 197.11 39.33 197.11 39.33 197.08 39.16 197.01 39.01 196.92 38.87 196.8 38.76 196.65 38.66 196.5 38.59 196.31 38.55 196.12 38.53 196.12 38.53 195.9 38.52 195.67 38.52 195.44 38.52 195.2 38.52 194.95 38.54 194.7 38.56 194.46 38.58 194.22 38.62 194 38.65 193.78 38.68 193.58 38.72 193.4 38.76 193.23 38.8 193.1 38.85 192.99 38.9 192.9 38.95 193.44 37.12 193.44 37.12 193.61 37.05 193.78 36.99 193.96 36.94 194.14 36.9 194.32 36.86 194.52 36.83 194.72 36.8 194.92 36.78 195.14 36.77 195.36 36.76 195.58 36.75 195.82 36.75 196.06 36.75 196.31 36.75 196.58 36.76 196.84 36.77 196.84 36.77 197.06 36.78 197.28 36.82 197.52 36.88 197.76 36.95 198 37.04 198.23 37.14 198.45 37.27 198.67 37.41 198.86 37.58 199.02 37.77 199.18 37.97 199.29 38.2 199.37 38.44 199.41 38.7 199.41 38.99 199.37 39.29 198.6 43.3"/><polygon class="cls-16" points="196.77 41.32 196.76 41.28 196.73 41.24 196.69 41.22 196.61 41.2 196.53 41.19 196.43 41.18 196.31 41.18 196.2 41.18 196.08 41.19 195.95 41.2 195.83 41.22 195.71 41.23 195.59 41.25 195.48 41.27 195.4 41.29 195.31 41.32 195.26 41.33 195.2 41.35 195.11 41.38 195.03 41.42 194.93 41.47 194.83 41.52 194.73 41.58 194.63 41.64 194.52 41.71 194.42 41.79 194.33 41.88 194.25 41.97 194.17 42.07 194.12 42.17 194.07 42.3 194.05 42.42 194.04 42.68 194.08 42.88 194.16 43.03 194.26 43.15 194.37 43.22 194.5 43.27 194.62 43.29 194.74 43.3 194.97 43.29 195.18 43.27 195.37 43.24 195.54 43.19 195.7 43.14 195.84 43.07 195.97 43 196.09 42.92 196.19 42.84 196.28 42.75 196.35 42.67 196.41 42.58 196.47 42.49 196.51 42.4 196.55 42.31 196.57 42.23 196.63 42.01 196.69 41.76 196.73 41.52 196.77 41.32 196.77 41.32 196.77 41.32"/><polygon class="cls-6" points="182.63 44.98 180.56 44.98 182.28 35.02 185.88 35.02 186.22 40.93 188.7 35.02 192.45 35.02 190.69 44.98 188.62 44.98 189.93 37.54 189.85 37.54 186.76 44.98 184.43 44.98 184.41 44.67 184.36 43.84 184.29 42.67 184.21 41.32 184.14 39.96 184.07 38.77 184.02 37.9 184 37.54 183.98 37.54 183.93 37.54 183.89 37.54 183.89 37.54 182.63 44.98 182.63 44.98 182.63 44.98"/><polyline class="cls-17" points="182.63 44.98 180.56 44.98 182.28 35.02 185.88 35.02 186.22 40.93 188.7 35.02 192.45 35.02 190.69 44.98 188.62 44.98 189.93 37.54 189.85 37.54 186.76 44.98 184.43 44.98 184.43 44.98 184.41 44.67 184.36 43.84 184.29 42.67 184.21 41.32 184.14 39.96 184.07 38.77 184.02 37.9 184 37.54 184 37.54 183.98 37.54 183.93 37.54 183.89 37.54 183.89 37.54 182.63 44.98"/><polygon class="cls-6" points="236.27 43.3 235.96 44.98 234.06 44.98 234.07 44.67 234.08 44.4 234.08 44.19 234.09 44.1 233.99 44.22 233.88 44.33 233.74 44.44 233.59 44.54 233.43 44.64 233.25 44.73 233.06 44.82 232.87 44.9 232.66 44.96 232.45 45.02 232.24 45.06 232.03 45.09 231.81 45.1 231.6 45.11 231.39 45.09 231.19 45.06 230.91 44.99 230.67 44.91 230.46 44.82 230.26 44.7 230.09 44.58 229.95 44.44 229.83 44.3 229.72 44.15 229.63 43.99 229.56 43.82 229.5 43.66 229.46 43.49 229.43 43.31 229.41 43.14 229.39 42.97 229.39 42.8 229.41 42.51 229.46 42.23 229.52 41.96 229.62 41.7 229.73 41.46 229.88 41.24 230.04 41.03 230.21 40.84 230.41 40.66 230.62 40.5 230.84 40.36 231.07 40.24 231.31 40.13 231.56 40.05 231.81 39.98 232.06 39.94 232.08 39.94 232.12 39.93 232.17 39.92 232.25 39.91 232.35 39.9 232.45 39.89 232.57 39.87 232.69 39.86 232.82 39.84 232.95 39.83 233.08 39.82 233.21 39.81 233.33 39.8 233.44 39.79 233.54 39.78 233.63 39.78 233.81 39.78 233.99 39.79 234.17 39.8 234.34 39.8 234.48 39.81 234.6 39.81 234.67 39.82 234.7 39.82 234.72 39.77 234.74 39.63 234.76 39.47 234.78 39.33 234.74 39.16 234.69 39.01 234.59 38.87 234.47 38.76 234.34 38.66 234.18 38.59 234.01 38.55 233.83 38.53 233.61 38.52 233.39 38.52 233.15 38.52 232.91 38.52 232.66 38.54 232.41 38.56 232.17 38.58 231.94 38.62 231.71 38.65 231.49 38.68 231.29 38.72 231.11 38.76 230.94 38.8 230.81 38.85 230.7 38.9 230.62 38.95 231.15 37.12 231.31 37.05 231.49 36.99 231.66 36.94 231.85 36.9 232.03 36.86 232.22 36.83 232.42 36.8 232.63 36.78 232.84 36.77 233.06 36.76 233.28 36.75 233.51 36.75 233.75 36.75 233.99 36.75 234.25 36.76 234.51 36.77 234.72 36.78 234.95 36.82 235.19 36.88 235.43 36.95 235.66 37.04 235.9 37.14 236.13 37.27 236.34 37.41 236.53 37.58 236.71 37.77 236.86 37.97 236.97 38.2 237.05 38.44 237.11 38.7 237.11 38.99 237.07 39.29 236.27 43.3 236.27 43.3 236.27 43.3"/><polygon class="cls-6" points="235.96 45.04 236.01 44.99 236.32 43.3 236.22 43.29 235.91 44.98 235.96 44.93 235.96 45.04 236 45.03 236.01 44.99 235.96 45.04 235.96 45.04 235.96 45.04"/><polygon class="cls-6" points="234.01 44.98 234.06 45.04 235.96 45.04 235.96 44.93 234.06 44.93 234.1 44.98 234.01 44.98 234 45.04 234.06 45.04 234.01 44.98 234.01 44.98 234.01 44.98"/><polygon class="cls-6" points="234.13 44.13 234.06 44.07 234.03 44.19 234.02 44.4 234.02 44.67 234.01 44.98 234.1 44.98 234.12 44.67 234.13 44.4 234.12 44.19 234.12 44.13 234.06 44.07 234.13 44.13 234.13 44.13 234.13 44.13"/><polygon class="cls-6" points="231.18 45.1 231.18 45.1 231.39 45.13 231.6 45.16 231.81 45.15 232.03 45.13 232.25 45.1 232.46 45.07 232.67 45.01 232.88 44.95 233.07 44.87 233.27 44.78 233.45 44.69 233.61 44.58 233.77 44.47 233.91 44.37 234.03 44.25 234.13 44.13 234.06 44.07 233.96 44.19 233.85 44.29 233.71 44.4 233.57 44.51 233.41 44.6 233.23 44.69 233.04 44.78 232.86 44.85 232.66 44.91 232.44 44.98 232.23 45.01 232.03 45.04 231.81 45.06 231.6 45.07 231.39 45.04 231.19 45.01 231.19 45.01 231.18 45.1 231.18 45.1 231.18 45.1"/><polygon class="cls-6" points="229.34 42.8 229.34 42.8 229.35 42.97 229.36 43.14 229.38 43.32 229.42 43.5 229.46 43.66 229.52 43.84 229.58 44.01 229.68 44.17 229.79 44.33 229.91 44.47 230.06 44.62 230.24 44.74 230.43 44.86 230.65 44.96 230.9 45.04 231.18 45.1 231.19 45.01 230.92 44.95 230.69 44.87 230.48 44.77 230.28 44.66 230.12 44.54 229.98 44.41 229.86 44.27 229.76 44.13 229.68 43.97 229.61 43.81 229.54 43.65 229.51 43.48 229.48 43.3 229.46 43.14 229.44 42.97 229.45 42.8 229.45 42.8 229.34 42.8 229.34 42.8 229.34 42.8"/><polygon class="cls-6" points="232.06 39.89 232.06 39.89 231.8 39.94 231.54 40 231.29 40.09 231.05 40.19 230.81 40.31 230.58 40.47 230.38 40.63 230.18 40.81 230 41 229.84 41.21 229.69 41.44 229.58 41.69 229.48 41.95 229.41 42.22 229.36 42.51 229.34 42.8 229.45 42.8 229.46 42.51 229.5 42.23 229.57 41.98 229.67 41.72 229.78 41.48 229.92 41.27 230.08 41.06 230.24 40.87 230.44 40.7 230.65 40.54 230.86 40.41 231.09 40.28 231.32 40.18 231.57 40.09 231.81 40.03 232.06 39.98 232.06 39.98 232.06 39.89 232.06 39.89 232.06 39.89"/><polygon class="cls-6" points="233.63 39.73 233.63 39.73 233.54 39.73 233.44 39.75 233.33 39.76 233.21 39.76 233.08 39.77 232.95 39.78 232.82 39.8 232.69 39.81 232.57 39.83 232.45 39.84 232.35 39.85 232.25 39.87 232.17 39.87 232.11 39.88 232.08 39.89 232.06 39.89 232.06 39.98 232.08 39.98 232.13 39.97 232.17 39.97 232.25 39.96 232.35 39.94 232.45 39.94 232.57 39.92 232.69 39.9 232.82 39.89 232.95 39.87 233.08 39.87 233.21 39.85 233.33 39.84 233.44 39.84 233.54 39.84 233.63 39.84 233.63 39.84 233.63 39.73 233.63 39.73 233.63 39.73"/><polygon class="cls-6" points="234.65 39.81 234.7 39.77 234.67 39.77 234.6 39.77 234.48 39.76 234.34 39.75 234.17 39.75 233.99 39.75 233.81 39.73 233.63 39.73 233.63 39.84 233.81 39.84 233.99 39.84 234.17 39.85 234.34 39.85 234.48 39.85 234.6 39.86 234.67 39.87 234.7 39.87 234.74 39.83 234.7 39.87 234.74 39.87 234.74 39.83 234.65 39.81 234.65 39.81 234.65 39.81"/><polygon class="cls-6" points="234.73 39.33 234.72 39.33 234.72 39.47 234.69 39.62 234.67 39.76 234.65 39.81 234.74 39.83 234.76 39.77 234.78 39.64 234.81 39.47 234.83 39.33 234.82 39.33 234.73 39.33 234.73 39.33 234.73 39.33"/><polygon class="cls-6" points="233.83 38.58 233.83 38.58 234 38.59 234.16 38.64 234.31 38.71 234.44 38.8 234.55 38.9 234.64 39.03 234.7 39.17 234.73 39.33 234.82 39.33 234.79 39.15 234.73 38.99 234.62 38.84 234.5 38.72 234.36 38.62 234.19 38.55 234.02 38.5 233.83 38.48 233.83 38.48 233.83 38.58 233.83 38.58 233.83 38.58"/><polygon class="cls-6" points="230.57 38.94 230.65 38.99 230.72 38.95 230.82 38.9 230.95 38.85 231.12 38.8 231.3 38.77 231.5 38.73 231.72 38.69 231.94 38.66 232.17 38.63 232.41 38.61 232.66 38.58 232.91 38.57 233.15 38.57 233.39 38.57 233.61 38.57 233.83 38.58 233.83 38.48 233.61 38.48 233.39 38.46 233.15 38.46 232.91 38.48 232.66 38.49 232.41 38.52 232.17 38.54 231.94 38.57 231.7 38.6 231.48 38.64 231.28 38.68 231.1 38.71 230.94 38.76 230.79 38.8 230.68 38.86 230.58 38.91 230.66 38.96 230.57 38.94 230.57 38.94 230.57 38.94"/><polygon class="cls-6" points="231.13 37.07 231.1 37.11 230.57 38.94 230.66 38.96 231.19 37.13 231.16 37.16 231.13 37.07 231.11 37.08 231.1 37.11 231.13 37.07 231.13 37.07 231.13 37.07"/><polygon class="cls-6" points="234.51 36.73 234.51 36.73 234.25 36.71 233.99 36.7 233.75 36.7 233.51 36.7 233.28 36.7 233.06 36.72 232.84 36.73 232.63 36.74 232.42 36.75 232.22 36.78 232.03 36.81 231.84 36.85 231.65 36.89 231.47 36.95 231.3 37.01 231.13 37.07 231.16 37.16 231.33 37.1 231.5 37.04 231.67 36.98 231.85 36.95 232.04 36.91 232.23 36.88 232.42 36.85 232.63 36.83 232.84 36.81 233.06 36.81 233.28 36.81 233.51 36.81 233.75 36.81 233.99 36.81 234.25 36.81 234.51 36.81 234.51 36.81 234.51 36.73 234.51 36.73 234.51 36.73"/><polygon class="cls-6" points="237.11 39.3 237.11 39.3 237.15 38.99 237.15 38.7 237.1 38.43 237.02 38.18 236.9 37.95 236.74 37.73 236.56 37.55 236.37 37.38 236.15 37.23 235.92 37.1 235.68 36.99 235.44 36.9 235.19 36.83 234.96 36.78 234.72 36.74 234.51 36.73 234.51 36.81 234.72 36.83 234.94 36.87 235.18 36.92 235.41 36.99 235.65 37.08 235.88 37.19 236.1 37.31 236.31 37.45 236.5 37.62 236.66 37.8 236.82 37.99 236.92 38.21 237.01 38.45 237.06 38.7 237.06 38.99 237.02 39.28 237.02 39.28 237.11 39.3 237.11 39.3 237.11 39.3"/><polygon class="cls-6" points="236.32 43.3 236.32 43.3 237.11 39.3 237.02 39.28 236.22 43.29 236.22 43.29 236.32 43.3 236.32 43.3 236.32 43.3"/><polygon class="cls-15" points="234.43 41.32 234.42 41.27 234.39 41.23 234.34 41.21 234.26 41.19 234.18 41.18 234.08 41.17 233.96 41.17 233.85 41.18 233.73 41.2 233.61 41.21 233.49 41.23 233.37 41.24 233.26 41.26 233.16 41.28 233.06 41.3 232.98 41.32 232.93 41.32 232.87 41.35 232.79 41.37 232.71 41.4 232.61 41.45 232.52 41.49 232.41 41.55 232.32 41.61 232.22 41.68 232.12 41.77 232.03 41.85 231.95 41.95 231.88 42.05 231.83 42.17 231.78 42.29 231.76 42.42 231.75 42.68 231.79 42.88 231.85 43.03 231.94 43.15 232.06 43.22 232.19 43.27 232.32 43.29 232.44 43.3 232.67 43.29 232.88 43.27 233.08 43.23 233.26 43.18 233.42 43.12 233.57 43.05 233.71 42.97 233.83 42.88 233.93 42.8 234.02 42.7 234.11 42.61 234.18 42.51 234.23 42.42 234.27 42.33 234.3 42.23 234.32 42.15 234.35 41.94 234.39 41.72 234.42 41.51 234.43 41.32 234.43 41.32 234.43 41.32"/><polygon class="cls-6" points="250.07 43.94 250.09 43.77 250.15 43.56 250.25 43.38 250.38 43.22 250.54 43.09 250.72 43 250.92 42.94 251.13 42.92 251.35 42.94 251.54 43 251.73 43.09 251.88 43.22 252.01 43.38 252.12 43.56 252.18 43.77 252.2 43.94 251.97 43.94 251.96 43.81 251.92 43.64 251.84 43.49 251.74 43.36 251.62 43.25 251.48 43.18 251.31 43.12 251.13 43.11 250.96 43.12 250.79 43.18 250.65 43.25 250.53 43.36 250.43 43.49 250.35 43.64 250.31 43.81 250.29 43.94 250.07 43.94 250.07 43.94 250.07 43.94"/><polygon class="cls-6" points="250.75 43.94 250.75 43.49 251.17 43.49 251.26 43.5 251.35 43.51 251.41 43.53 251.46 43.56 251.5 43.61 251.53 43.66 251.54 43.71 251.55 43.76 251.54 43.83 251.53 43.88 251.51 43.93 251.49 43.94 251.17 43.94 251.2 43.94 251.25 43.93 251.3 43.91 251.34 43.9 251.37 43.88 251.38 43.85 251.4 43.81 251.4 43.76 251.39 43.72 251.38 43.69 251.35 43.68 251.33 43.66 251.29 43.66 251.25 43.65 251.22 43.65 251.17 43.65 250.94 43.65 250.94 43.94 250.75 43.94 250.75 43.94 250.75 43.94"/><polygon class="cls-6" points="250.07 43.94 250.06 43.99 250.09 44.21 250.15 44.41 250.25 44.6 250.38 44.75 250.54 44.88 250.72 44.98 250.92 45.04 251.13 45.06 251.35 45.04 251.54 44.98 251.73 44.88 251.88 44.75 252.01 44.6 252.12 44.41 252.18 44.21 252.21 43.99 252.2 43.94 251.97 43.94 251.98 43.99 251.96 44.17 251.92 44.34 251.84 44.48 251.74 44.61 251.62 44.72 251.48 44.8 251.31 44.85 251.13 44.87 250.96 44.85 250.79 44.8 250.65 44.72 250.53 44.61 250.43 44.48 250.35 44.34 250.31 44.17 250.29 43.99 250.29 43.94 250.07 43.94 250.07 43.94 250.07 43.94"/><polygon class="cls-6" points="250.75 43.94 250.75 44.41 250.94 44.41 250.94 44.03 251.13 44.03 251.36 44.41 251.51 44.41 251.28 44.03 251.34 44.03 251.39 44.01 251.44 44 251.48 43.97 251.49 43.94 251.17 43.94 251.13 43.95 250.94 43.95 250.94 43.94 250.75 43.94 250.75 43.94 250.75 43.94"/><path class="cls-17" d="M657.62,172.5h0l0-.22,0.06-.21,0.11-.18,0.13-.16,0.16-.13,0.18-.09,0.2-.06,0.21,0h0l0.21,0,0.2,0.06,0.18,0.09,0.16,0.13,0.13,0.16,0.11,0.18,0.06,0.21,0,0.22h0l0,0.22-0.06.2-0.11.18-0.13.15-0.16.13-0.18.1-0.2.06-0.21,0h0l-0.21,0-0.2-.06-0.18-.1-0.16-.13-0.13-.15-0.11-.18-0.06-.2,0-.22m0.88,0.42h-0.19V172h0.59l0.06,0,0.05,0,0,0,0,0,0,0.05v0.05h0v0.07l0,0.05,0,0,0,0,0,0,0,0-0.05,0h-0.05l0.23,0.38h-0.15l-0.23-.38H658.5v0.38m0.19-.46h0l0.07,0h0.1l0,0,0,0,0,0,0,0v-0.05h0V172.2h0l0,0H658.5v0.3h0.19m0,0.92h0l0.18,0,0.17-.05,0.14-.08,0.12-.11,0.1-.13,0.08-.14,0-.17,0-.18h0l0-.18,0-.17L659.4,172l-0.1-.13-0.12-.11-0.14-.08-0.17-.05-0.18,0h0l-0.17,0-0.17.05-0.15.08-0.12.11L658,172l-0.08.15,0,0.17,0,0.18h0l0,0.18,0,0.17L658,173l0.1,0.13,0.12,0.11,0.15,0.08,0.17,0.05,0.17,0" transform="translate(-407.56 -128.51)"/><polygon class="cls-6" points="236.84 44.98 238.98 44.98 238.98 44.98 239.75 40.66 239.78 40.5 239.82 40.33 239.87 40.16 239.93 40 240.01 39.83 240.1 39.67 240.19 39.52 240.32 39.37 240.45 39.24 240.61 39.12 240.78 39.01 240.98 38.92 241.2 38.84 241.44 38.78 241.71 38.74 242 38.72 242.11 38.72 242.17 38.72 242.19 38.72 242.19 38.72 242.53 36.77 242.32 36.78 242.12 36.81 241.93 36.85 241.74 36.9 241.58 36.96 241.42 37.04 241.27 37.12 241.12 37.21 240.98 37.32 240.86 37.42 240.73 37.55 240.61 37.67 240.5 37.8 240.39 37.94 240.27 38.08 240.16 38.23 240.39 36.85 238.26 36.85 236.84 44.98 236.84 44.98 236.84 44.98 236.84 44.98"/><polyline class="cls-17" points="236.84 44.98 238.98 44.98 238.98 44.98 239.75 40.66 239.75 40.66 239.78 40.5 239.82 40.33 239.87 40.16 239.93 40 240.01 39.83 240.1 39.67 240.19 39.52 240.32 39.37 240.45 39.24 240.61 39.12 240.78 39.01 240.98 38.92 241.2 38.84 241.44 38.78 241.71 38.74 242 38.72 242 38.72 242.11 38.72 242.17 38.72 242.19 38.72 242.19 38.72 242.53 36.77 242.53 36.77 242.32 36.78 242.12 36.81 241.93 36.85 241.74 36.9 241.58 36.96 241.42 37.04 241.27 37.12 241.12 37.21 240.98 37.32 240.86 37.42 240.73 37.55 240.61 37.67 240.5 37.8 240.39 37.94 240.27 38.08 240.16 38.23 240.39 36.85 238.26 36.85 236.84 44.98 236.84 44.98"/><polygon class="cls-6" points="216.74 44.98 218.88 44.98 218.92 44.98 219.65 40.66 219.68 40.5 219.72 40.34 219.75 40.18 219.81 40.03 219.87 39.87 219.94 39.73 220.03 39.59 220.14 39.47 220.26 39.35 220.4 39.24 220.56 39.15 220.75 39.06 220.96 38.99 221.19 38.93 221.45 38.9 221.75 38.87 221.77 38.87 221.8 38.88 221.84 38.89 221.88 38.89 221.92 38.9 221.95 38.9 221.97 38.91 221.98 38.91 221.99 38.88 222.01 38.79 222.04 38.65 222.08 38.48 222.13 38.29 222.18 38.08 222.25 37.86 222.32 37.65 222.38 37.51 222.46 37.36 222.53 37.22 222.61 37.09 222.68 36.98 222.73 36.88 222.77 36.83 222.78 36.81 222.77 36.81 222.74 36.8 222.71 36.79 222.65 36.78 222.6 36.78 222.54 36.78 222.49 36.77 222.43 36.77 222.2 36.78 221.99 36.81 221.79 36.85 221.61 36.89 221.43 36.95 221.27 37.03 221.13 37.1 220.99 37.19 220.86 37.29 220.74 37.41 220.63 37.52 220.51 37.65 220.4 37.78 220.29 37.92 220.18 38.08 220.06 38.23 220.34 36.85 218.16 36.85 216.74 44.98 216.74 44.98 216.74 44.98 216.74 44.98"/><polyline class="cls-17" points="216.74 44.98 218.88 44.98 218.92 44.98 219.65 40.66 219.65 40.66 219.68 40.5 219.72 40.34 219.75 40.18 219.81 40.03 219.87 39.87 219.94 39.73 220.03 39.59 220.14 39.47 220.26 39.35 220.4 39.24 220.56 39.15 220.75 39.06 220.96 38.99 221.19 38.93 221.45 38.9 221.75 38.87 221.75 38.87 221.77 38.87 221.8 38.88 221.84 38.89 221.88 38.89 221.92 38.9 221.95 38.9 221.97 38.91 221.98 38.91 221.98 38.91 221.99 38.88 222.01 38.79 222.04 38.65 222.08 38.48 222.13 38.29 222.18 38.08 222.25 37.86 222.32 37.65 222.32 37.65 222.38 37.51 222.46 37.36 222.53 37.22 222.61 37.09 222.68 36.98 222.73 36.88 222.77 36.83 222.78 36.81 222.78 36.81 222.77 36.81 222.74 36.8 222.71 36.79 222.65 36.78 222.6 36.78 222.54 36.78 222.49 36.77 222.43 36.77 222.43 36.77 222.2 36.78 221.99 36.81 221.79 36.85 221.61 36.89 221.43 36.95 221.27 37.03 221.13 37.1 220.99 37.19 220.86 37.29 220.74 37.41 220.63 37.52 220.51 37.65 220.4 37.78 220.29 37.92 220.18 38.08 220.06 38.23 220.34 36.85 218.16 36.85 216.74 44.98 216.74 44.98"/><polygon class="cls-15" points="250.09 52.97 250.09 52.94 250.15 52.74 250.25 52.57 250.38 52.41 250.54 52.29 250.72 52.2 250.92 52.15 251.13 52.13 251.35 52.15 251.54 52.2 251.73 52.29 251.88 52.41 252.01 52.57 252.12 52.74 252.18 52.94 252.18 52.97 251.96 52.97 251.92 52.81 251.84 52.67 251.74 52.54 251.62 52.43 251.48 52.35 251.31 52.29 251.13 52.28 250.96 52.29 250.79 52.35 250.65 52.43 250.53 52.54 250.43 52.67 250.35 52.81 250.31 52.97 250.09 52.97 250.09 52.97 250.09 52.97"/><polygon class="cls-15" points="250.75 52.97 250.75 52.7 251.17 52.7 251.26 52.7 251.35 52.72 251.41 52.73 251.46 52.76 251.5 52.8 251.53 52.85 251.54 52.9 251.55 52.97 251.4 52.97 251.4 52.93 251.39 52.89 251.38 52.86 251.35 52.85 251.33 52.83 251.29 52.82 251.25 52.82 251.22 52.82 251.17 52.82 250.94 52.82 250.94 52.97 250.75 52.97 250.75 52.97 250.75 52.97"/><polygon class="cls-15" points="250.06 53.13 250.09 52.97 250.31 52.97 250.31 52.98 250.29 53.13 250.06 53.13 250.06 53.13 250.06 53.13"/><polygon class="cls-15" points="250.75 53.13 250.75 52.97 250.94 52.97 250.94 53.12 251.13 53.12 251.2 53.11 251.25 53.1 251.3 53.08 251.34 53.07 251.37 53.05 251.38 53.02 251.4 52.98 251.4 52.97 251.55 52.97 251.55 52.97 251.54 53.02 251.53 53.07 251.51 53.11 251.48 53.13 250.75 53.13 250.75 53.13 250.75 53.13"/><polygon class="cls-15" points="251.98 53.13 251.96 52.98 251.96 52.97 252.18 52.97 252.21 53.13 251.98 53.13 251.98 53.13 251.98 53.13"/><polygon class="cls-15" points="250.06 53.13 250.06 53.16 250.09 53.38 250.15 53.58 250.25 53.77 250.38 53.92 250.54 54.05 250.72 54.15 250.92 54.21 251.13 54.23 251.35 54.21 251.54 54.15 251.73 54.05 251.88 53.92 252.01 53.77 252.12 53.58 252.18 53.38 252.21 53.16 252.21 53.13 251.98 53.13 251.98 53.16 251.96 53.34 251.92 53.51 251.84 53.65 251.74 53.78 251.62 53.89 251.48 53.97 251.31 54.02 251.13 54.04 250.96 54.02 250.79 53.97 250.65 53.89 250.53 53.78 250.43 53.65 250.35 53.51 250.31 53.34 250.29 53.16 250.29 53.13 250.06 53.13 250.06 53.13 250.06 53.13"/><polygon class="cls-15" points="250.75 53.13 250.75 53.58 250.94 53.58 250.94 53.2 251.13 53.2 251.36 53.58 251.51 53.58 251.28 53.2 251.34 53.2 251.39 53.18 251.44 53.17 251.48 53.13 251.48 53.13 250.75 53.13 250.75 53.13 250.75 53.13"/><path class="cls-6" d="M624.53,167.78l-0.06-.45-0.11-.4-0.15-.35-0.19-.3L623.8,166l-0.25-.21-0.27-.18-0.29-.14-0.3-.12-0.31-.08-0.31-.05-0.31,0h-0.29l-0.62,0-0.55.09-0.49.14-0.44.19-0.38.23-0.33.26-0.3.29-0.24.3-0.21.32-0.18.33-0.13.33-0.12.32-0.08.32-0.06.29,0,0.28,0,0.24,0,0.62,0,0.56,0.08,0.51,0.13,0.45,0.18,0.4,0.22,0.35,0.26,0.31,0.3,0.26,0.32,0.22,0.34,0.19,0.36,0.15,0.37,0.11,0.38,0.09,0.38,0.05,0.38,0h1.59l0.15,0,0.14,0,0.13,0,0.12,0,0.12,0,0.11,0,0.11,0,0.12,0,0.12-.06,0.12-.06,0.3-1.87-0.22.13-0.21.12-0.22.09-0.21.08-0.21.07-0.21,0-0.21,0-0.21,0-0.2,0h-0.6l-0.2,0-0.2,0-0.19,0-0.2,0-0.15,0-0.15-.05-0.15-.07-0.13-.08-0.14-.09-0.12-.11-0.11-.11-0.11-.13-0.09-.13-0.08-.14-0.06-.14-0.05-.14,0-.14v-0.27l0-.1h4.92l0-.46,0.11-.64,0.05-.58v-0.52Zm-2.06.7H619.7l0-.11,0-.16,0-.15,0.05-.15,0.07-.14,0.07-.13,0.08-.12,0.09-.11,0.1-.11,0.1-.09,0.12-.08,0.11-.07,0.13-.06,0.13,0,0.13,0,0.13,0h0.15l0.13,0,0.13,0,0.12,0,0.12,0,0.12,0.06,0.11,0.07,0.1,0.08,0.09,0.09,0.08,0.11,0.08,0.11,0.05,0.13,0.05,0.14,0,0.15,0,0.17v0.18Z" transform="translate(-407.56 -128.51)"/><rect class="cls-18" x="1086.84" y="0.82" width="125.43" height="78.39" rx="4.18" ry="4.18"/><path class="cls-2" d="M1533.31,166.69v-1.25l-0.6,1.25h-5.19l-0.65-1.35v1.35h-9.71L1516,164h-1.95l-1.21,2.71h-5v-8.2l3.69-8.35h7.06l1,2.37v-2.35h8.64l1.9,4,1.86-4h27.27a4.65,4.65,0,0,1,2.37.64v-0.64h6.87v0.9a5.6,5.6,0,0,1,3.06-.9h12.13l1.06,2.4v-2.4h7.77l1.41,2.4v-2.4h7.43v16.56h-7.63l-1.79-2.89v2.87h-9.48l-1.33-3h-1.86l-1.25,3h-5.74a7.43,7.43,0,0,1-3.75-1.18v1.18h-11.43v-3.86a0.43,0.43,0,0,0-.43-0.52h-0.42v4.38h-22.91Z" transform="translate(-407.56 -128.51)"/><path class="cls-2" d="M1527.61,170.28h15l2.17,2.45,2.22-2.45h11.54a5.31,5.31,0,0,1,2.11.58v-0.58H1571a5.24,5.24,0,0,1,2.4.65v-0.65h13.21v0.6a4.49,4.49,0,0,1,2.21-.6h8.61v0.6a5.26,5.26,0,0,1,2.23-.6h6.76v15.6a3.73,3.73,0,0,1-2.73,1h-8.91v-0.5a4.57,4.57,0,0,1-2.14.5h-23.67v-4c0-.4-0.17-0.47-0.53-0.47h-0.33v4.5h-7.4v-4.47a5,5,0,0,1-2.19.44h-2.66v4h-9.12l-2.07-2.53-2.22,2.53h-14.79V170.28Z" transform="translate(-407.56 -128.51)"/><polygon class="cls-18" points="1167.38 44.26 1176.8 44.26 1176.8 46.79 1170.26 46.79 1170.26 48.99 1176.62 48.99 1176.62 51.22 1170.26 51.22 1170.26 53.54 1176.8 53.54 1176.8 56 1167.38 56 1167.38 44.26"/><path class="cls-18" d="M1602.57,177.34c3.54,0.18,3.84,2,3.84,3.84a3.43,3.43,0,0,1-3.7,3.38h-6.05V182h4.72c0.8,0,2,0,2-1.13a0.92,0.92,0,0,0-1.06-1c-0.38-.05-1.78-0.13-2-0.14-3.2-.08-3.95-1.68-3.95-3.61a3.24,3.24,0,0,1,3.44-3.4h6.05v2.52h-4.43c-1,0-2.1-.12-2.1,1,0,0.72.54,0.87,1.22,0.93C1600.78,177.26,1602.35,177.35,1602.57,177.34Z" transform="translate(-407.56 -128.51)"/><path class="cls-18" d="M1591.71,177.34c3.54,0.18,3.84,2,3.84,3.84a3.43,3.43,0,0,1-3.7,3.38h-6.05V182h4.72c0.8,0,2,0,2-1.13,0-.54-0.21-0.88-1.06-1-0.38-.05-1.78-0.13-2-0.14-3.2-.08-3.94-1.68-3.94-3.61a3.23,3.23,0,0,1,3.43-3.4H1595v2.52h-4.43c-1,0-2.1-.12-2.1,1,0,0.72.54,0.87,1.22,0.93C1589.93,177.26,1591.5,177.35,1591.71,177.34Z" transform="translate(-407.56 -128.51)"/><path class="cls-18" d="M1557.54,172.8h-10.12l-3.3,3.64-3.2-3.67h-11.36v11.74h11l3.46-3.88,3.38,3.91h5.53v-4h3.88c1.49,0,4.22-.05,4.22-4.17A3.25,3.25,0,0,0,1557.54,172.8ZM1539,182h-6.65v-2.32h6.36V177.5h-6.36v-2.2l7,0,2.81,3.2Zm11,1.36-4.14-4.9,4.14-4.59v9.49Zm6.5-5.28H1553v-2.82h3.6A1.42,1.42,0,1,1,1556.57,178.13Z" transform="translate(-407.56 -128.51)"/><path class="cls-18" d="M1571.46,179.19a3.2,3.2,0,0,0,2-3.25c0-2.51-2-3.14-3.46-3.14h-7.49v11.74h2.88V180.4h3.77c1,0,1.39,1,1.41,2l0.08,2.15h2.81l-0.11-2.41C1573.35,180.24,1572.83,179.35,1571.46,179.19ZM1569,178h-3.59v-2.66h3.6a1.38,1.38,0,0,1,1.59,1.35C1570.57,177.45,1570.15,178,1569,178Z" transform="translate(-407.56 -128.51)"/><rect class="cls-18" x="1156.09" y="24" width="2.88" height="11.75"/><polygon class="cls-18" points="1132.5 24.01 1141.92 24.01 1141.92 26.54 1135.38 26.54 1135.38 28.74 1141.73 28.74 1141.73 30.97 1135.38 30.97 1135.38 33.28 1141.92 33.28 1141.92 35.75 1132.5 35.75 1132.5 24.01"/><path class="cls-18" d="M1560.15,158.91a3.2,3.2,0,0,0,2-3.25c0-2.52-2-3.14-3.46-3.14h-7.5v11.74h2.88v-4.14h3.77c1,0,1.39,1,1.42,2l0.08,2.15h2.8l-0.1-2.41C1562,160,1561.51,159.07,1560.15,158.91Zm-2.49-1.21h-3.59V155h3.6a1.38,1.38,0,0,1,1.59,1.35C1559.26,157.17,1558.84,157.69,1557.66,157.69Z" transform="translate(-407.56 -128.51)"/><path class="cls-18" d="M1533.41,152.52l-3.54,7.88-3.53-7.87h-4.52v11.31l-5-11.31H1513l-5.14,11.74h3l1.13-2.62h5.75l1.14,2.62h5.8v-8.71l3.85,8.71h2.62l3.94-8.57v8.57H1538V152.52h-4.6Zm-20.31,6.59,1.72-4.1,1.79,4.1h-3.51Z" transform="translate(-407.56 -128.51)"/><path class="cls-18" d="M1596.28,152.51v8.13l-4.86-8.13h-4.26v11l-4.91-11h-3.81l-4,9.09s-1.68,0-1.85,0c-0.69-.14-1.78-0.63-1.79-2.7V158c0-2.75,1.49-3,3.41-3H1576v-2.55h-3.76c-1.31,0-4.16,1-4.26,5.82-0.07,3.25,1.35,5.93,4.55,5.93h3.8l1.13-2.62h5.75l1.14,2.62H1590v-8.6l5.19,8.6h3.93V152.51h-2.88Zm-17.71,6.6,1.72-4.1,1.81,4.1h-3.53Z" transform="translate(-407.56 -128.51)"/></svg>