<svg width="36" height="36" viewBox="0 0 36 36" fill="none" xmlns="http://www.w3.org/2000/svg">
<path fill-rule="evenodd" clip-rule="evenodd" d="M30 7H12C11.4477 7 11 6.55229 11 6C11 5.44772 11.4477 5 12 5L30.032 5C32.689 4.99992 34.0001 6.311 34 8.96801V21C34 21.5523 33.5523 22 33 22C32.4477 22 32 21.5523 32 21V9C32 7.33566 31.6643 7 30 7Z" fill="#152646"/>
<path fill-rule="evenodd" clip-rule="evenodd" d="M26.032 9H7.968C5.31099 8.99992 3.99991 10.311 3.99999 12.968V25.032C3.99997 25.7318 3.95481 26.4877 4.22835 27.1481C4.80996 28.5522 6.10197 28.9882 7.49999 28.9989V32C7.49999 33.3977 9.15517 32.8894 9.92287 32.5312C11.6068 31.7453 12.9546 30.4741 14.3975 29.3341C14.7277 29.0732 14.9886 29 15.4083 29H26.032C28.689 29.0001 30.0001 27.689 30 25.032V12.968C30.0001 10.311 28.689 8.99992 26.032 9ZM9.49999 30.5062C10.8482 29.7808 11.9637 28.7081 13.1576 27.7648C13.8379 27.2273 14.5545 27 15.4083 27H26C27.6643 27 28 26.6643 28 25V13C28 11.3357 27.6643 11 26 11H7.99999C6.33564 11 5.99999 11.3357 5.99999 13V25C5.99999 25.7858 5.89857 26.9099 6.97375 26.9833C7.48068 27.0179 7.99204 27 8.49999 27C9.05227 27 9.49999 27.4477 9.49999 28V30.5062Z" fill="#152646"/>
<path d="M9 21C9 20.4477 9.44772 20 10 20H24C24.5523 20 25 20.4477 25 21C25 21.5523 24.5523 22 24 22H10C9.44772 22 9 21.5523 9 21Z" fill="#33D87D"/>
<path d="M9 17C9 16.4477 9.44772 16 10 16H14C14.5523 16 15 16.4477 15 17C15 17.5523 14.5523 18 14 18H10C9.44772 18 9 17.5523 9 17Z" fill="#33D87D"/>
<path d="M17 17C17 16.4477 17.4477 16 18 16C18.5523 16 19 16.4477 19 17C19 17.5523 18.5523 18 18 18C17.4477 18 17 17.5523 17 17Z" fill="#33D87D"/>
</svg>
