<svg width="30" height="28" viewBox="0 0 30 28" fill="none" xmlns="http://www.w3.org/2000/svg">
<path d="M14.0299 15.3611C14.0739 15.4022 14.1216 15.4377 14.172 15.4677C14.1685 15.4965 14.1667 15.5258 14.1667 15.5556V20.2222C14.1667 20.6518 14.5398 21 15 21C15.4603 21 15.8334 20.6518 15.8334 20.2222V15.5556C15.8334 15.5187 15.8306 15.4825 15.8253 15.447C15.8636 15.4218 15.9002 15.3931 15.9345 15.3611L17.6159 13.7917C17.9414 13.488 17.9414 12.9955 17.6159 12.6918C17.2905 12.3881 16.7629 12.3881 16.4374 12.6918L14.9821 14.05L13.5269 12.6918C13.2015 12.3881 12.6738 12.3881 12.3484 12.6918C12.0229 12.9955 12.0229 13.488 12.3484 13.7917L14.0299 15.3611Z" fill="#33D87D"/>
<path d="M12.5 25.6667C12.5 25.2371 12.8731 24.8889 13.3334 24.8889H16.6667C17.1269 24.8889 17.5 25.2371 17.5 25.6667C17.5 26.0962 17.1269 26.4444 16.6667 26.4444H13.3334C12.8731 26.4444 12.5 26.0962 12.5 25.6667Z" fill="#3A3A3A"/>
<path d="M10.8334 23.3333C10.8334 22.9038 11.2064 22.5556 11.6667 22.5556H18.3334C18.7936 22.5556 19.1667 22.9038 19.1667 23.3333C19.1667 23.7629 18.7936 24.1111 18.3334 24.1111H11.6667C11.2064 24.1111 10.8334 23.7629 10.8334 23.3333Z" fill="#3A3A3A"/>
<path fill-rule="evenodd" clip-rule="evenodd" d="M7.91669 5.83333C6.69257 8.97174 10.8334 12.7847 10.8334 15.1667C10.8334 17.9921 10.9805 19.7181 11.6667 20.2222C12.6599 20.9519 13.8195 20.2222 15 20.2222C16.1806 20.2222 17.3401 20.9519 18.3334 20.2222C19.0196 19.7181 19.1667 17.9921 19.1667 15.1667C19.1667 12.7847 22.1668 8.93371 21.6667 5.83333C21.25 3.25032 16.8833 1.16667 15 1.16667C13.1168 1.16667 9.14081 2.69492 7.91669 5.83333ZM15 0C17.7502 0 21.9487 1.83096 22.9167 5.44444C23.75 8.55556 20.8334 12.6087 20.8334 15.1667C20.8334 17.7246 20.8334 19.0556 19.7704 20.8386C18.4392 21.8166 16.606 21.7778 15 21.7778C13.394 21.7778 12.5812 22.3668 11.25 21.3889C9.91173 20.4058 9.16669 18.0589 9.16669 15.1667C9.16669 12.6087 5.43471 8.0316 6.66667 5.44444C8.33331 1.94444 12.2499 0 15 0Z" fill="#3A3A3A"/>
</svg>
