<svg width="30" height="29" viewBox="0 0 30 29" fill="none" xmlns="http://www.w3.org/2000/svg">
<path d="M16.006 8.82042C18.6721 6.30242 22.9946 6.30242 25.6607 8.82042C25.9863 9.12777 26.5138 9.12777 26.8393 8.82042C27.1647 8.51306 27.1647 8.01474 26.8393 7.70738C23.5223 4.57467 18.1445 4.57467 14.8274 7.70738C14.502 8.01474 14.502 8.51306 14.8274 8.82042C15.1529 9.12777 15.6805 9.12777 16.006 8.82042Z" fill="#33D87D"/>
<path d="M18.506 11.1815C19.7914 9.96756 21.8753 9.96756 23.1607 11.1815C23.4863 11.4889 24.0138 11.4889 24.3393 11.1815C24.6647 10.8742 24.6647 10.3759 24.3393 10.0685C22.403 8.2398 19.2637 8.2398 17.3274 10.0685C17.002 10.3759 17.002 10.8742 17.3274 11.1815C17.6529 11.4889 18.1805 11.4889 18.506 11.1815Z" fill="#33D87D"/>
<path d="M18.3333 20.463C18.3333 20.0283 18.7065 19.6759 19.1667 19.6759H22.5C22.9602 19.6759 23.3333 20.0283 23.3333 20.463C23.3333 20.8977 22.9602 21.25 22.5 21.25H19.1667C18.7065 21.25 18.3333 20.8977 18.3333 20.463Z" fill="#152646"/>
<path fill-rule="evenodd" clip-rule="evenodd" d="M21.6667 14.9537C21.6667 14.5191 21.2935 14.1667 20.8333 14.1667C20.3731 14.1667 20 14.5191 20 14.9537V16.5278H6.64002C4.4258 16.5277 3.33334 17.5596 3.33334 19.6508V21.2752C3.33334 23.3664 4.4258 24.3982 6.64002 24.3982H6.66668V25.9722C6.66668 26.4069 7.0398 26.7593 7.50001 26.7593C7.96022 26.7593 8.33334 26.4069 8.33334 25.9722V24.3982H21.6667V25.9722C21.6667 26.4069 22.0398 26.7593 22.5 26.7593C22.9602 26.7593 23.3333 26.4069 23.3333 25.9722V24.3982H23.36C25.5742 24.3982 26.6667 23.3664 26.6667 21.2752V19.6508C26.6667 17.5596 25.5742 16.5277 23.36 16.5278H21.6667V14.9537ZM5.00001 19.6759V21.25C5.00001 22.4334 5.30203 22.8241 6.66668 22.8241H23.3333C24.7203 22.8241 25 22.5599 25 21.25V19.6759C25 18.366 24.7203 18.1019 23.3333 18.1019H6.66668C5.27973 18.1019 5.00001 18.366 5.00001 19.6759Z" fill="#152646"/>
</svg>
